<?xml version="1.0" standalone="no"?>
<!DOCTYPE svg PUBLIC "-//W3C//DTD SVG 20010904//EN"
 "http://www.w3.org/TR/2001/REC-SVG-20010904/DTD/svg10.dtd">
<svg version="1.0" xmlns="http://www.w3.org/2000/svg"
 width="143.000000pt" height="165.000000pt" viewBox="0 0 143.000000 165.000000"
 preserveAspectRatio="xMidYMid meet">
<metadata>
Created by potrace 1.16, written by Peter Selinger 2001-2019
</metadata>
<g transform="translate(0.000000,165.000000) scale(0.100000,-0.100000)"
fill="#000000" stroke="none">
<path d="M57 1624 c-4 -4 -7 -16 -7 -26 0 -19 25 -25 35 -8 4 6 11 8 16 5 16
-11 10 -24 -13 -27 -13 -2 -24 -12 -28 -25 -3 -16 -9 -20 -19 -14 -9 6 -10 11
-2 15 21 13 12 38 -11 34 -18 -2 -23 -10 -23 -33 0 -25 5 -31 25 -33 24 -3 25
-5 22 -63 -2 -35 5 -105 18 -170 21 -105 22 -142 5 -181 -5 -14 -2 -18 13 -18
38 0 42 61 11 190 -35 150 -41 182 -34 207 4 16 11 23 20 19 8 -3 15 -1 15 4
0 5 -8 11 -17 13 -14 4 -12 5 5 6 16 1 22 7 23 24 0 21 1 21 11 -3 l11 -25 5
23 c3 22 8 23 50 19 26 -2 78 -14 117 -26 70 -21 175 -29 175 -12 0 4 11 6 25
3 16 -3 33 2 44 12 13 11 21 14 26 7 3 -6 -1 -11 -10 -11 -9 0 -15 -6 -12 -12
6 -20 41 -15 45 6 2 10 -1 28 -6 40 -6 11 -12 30 -14 41 -5 29 -48 33 -55 6
-3 -12 -14 -21 -24 -21 -11 0 -19 -7 -19 -15 0 -8 7 -15 15 -15 8 0 15 -7 15
-15 0 -8 -4 -15 -10 -15 -5 0 -10 4 -10 9 0 6 -24 7 -55 4 -37 -4 -74 0 -117
12 -35 10 -93 18 -130 19 -64 1 -67 2 -70 26 -2 18 -10 26 -28 28 -14 2 -29 0
-33 -4z"/>
<path d="M1298 1606 c-10 -23 -17 -26 -62 -26 -28 0 -88 -9 -134 -20 -93 -22
-128 -25 -137 -10 -10 17 -25 11 -25 -10 0 -13 9 -22 25 -26 29 -7 133 11 183
32 18 7 55 16 83 20 47 6 49 5 49 -17 1 -23 1 -23 15 -5 15 19 15 19 15 -2 0
-14 6 -22 17 -22 15 0 14 -2 -3 -16 -16 -13 -16 -15 -2 -10 11 3 21 -2 27 -13
10 -17 1 -66 -50 -289 -14 -58 -4 -105 21 -110 12 -2 15 15 16 95 1 54 6 111
13 127 18 45 26 173 12 190 -10 12 -7 15 21 18 29 3 33 6 33 33 0 23 -5 31
-22 33 -24 4 -33 -21 -13 -33 12 -7 4 -25 -11 -25 -5 0 -9 9 -9 21 0 12 -8 23
-20 26 -11 3 -20 12 -20 21 0 12 3 13 12 4 20 -20 40 -14 36 11 -5 34 -54 36
-70 3z"/>
<path d="M70 666 c-6 -8 -24 -16 -38 -18 -23 -2 -27 -8 -27 -33 0 -24 4 -30
20 -29 15 0 20 -6 20 -24 0 -14 6 -27 13 -29 7 -3 12 4 12 16 0 12 4 21 9 21
14 0 26 -23 14 -27 -6 -2 -8 -29 -5 -72 3 -42 -1 -93 -11 -137 -9 -38 -19 -99
-23 -135 -5 -55 -4 -68 12 -83 17 -18 17 -18 -4 -12 -53 17 -85 -47 -35 -69
13 -5 23 -15 23 -22 0 -8 13 -13 35 -13 28 0 35 4 35 19 0 16 6 18 43 14 27
-3 77 3 130 16 108 28 168 25 182 -6 5 -13 18 -23 27 -23 10 0 18 -4 18 -10 0
-5 14 -10 30 -10 22 0 30 5 30 18 0 10 5 23 11 29 17 17 7 58 -15 58 -11 0
-21 -6 -23 -13 -3 -6 2 -12 11 -12 9 0 16 -4 16 -10 0 -15 -16 -12 -30 6 -8 8
-25 14 -39 13 -14 -1 -34 2 -44 6 -27 11 -123 -1 -189 -25 -32 -11 -76 -20
-98 -20 -35 0 -40 3 -40 23 -1 20 -2 20 -13 6 -11 -15 -14 -14 -24 7 -8 17 -8
24 1 28 6 2 0 5 -12 5 -23 1 -24 4 -19 59 2 31 14 95 26 142 19 71 22 101 17
179 -3 58 -11 103 -21 117 -9 14 -11 25 -5 29 6 3 10 -1 10 -9 0 -20 26 -21
33 -2 6 15 -22 46 -40 46 -6 0 -16 -6 -23 -14z"/>
<path d="M1306 665 c-11 -8 -16 -21 -13 -30 9 -21 37 -19 38 3 0 11 2 12 6 4
3 -7 0 -19 -7 -27 -31 -37 -29 -194 4 -324 33 -130 33 -159 4 -171 -14 -5 -17
-9 -8 -10 12 0 11 -3 -2 -11 -10 -5 -18 -17 -18 -26 0 -14 -2 -14 -15 3 -14
18 -14 18 -15 -5 0 -22 -2 -23 -49 -17 -28 4 -65 13 -83 20 -50 21 -154 39
-183 32 -17 -4 -25 -13 -25 -27 0 -17 4 -19 18 -13 27 14 106 9 166 -10 35
-11 78 -17 114 -14 53 3 58 1 58 -17 -1 -16 6 -21 37 -23 27 -2 37 1 37 11 0
8 12 18 26 21 20 5 25 12 22 34 -2 16 -12 31 -25 37 -21 9 -23 17 -23 80 0 39
-6 95 -14 125 -21 84 -28 152 -17 187 6 20 6 35 0 38 -15 10 -10 35 6 35 9 0
15 -9 15 -21 0 -25 23 -20 29 6 2 10 13 26 25 36 17 14 19 21 10 36 -6 10 -21
20 -34 21 -13 2 -30 10 -37 18 -18 17 -23 17 -47 -1z"/>
</g>
</svg>
