<?xml version="1.0" encoding="iso-8859-1"?>
<!-- Generator: Adobe Illustrator 19.0.0, SVG Export Plug-In . SVG Version: 6.00 Build 0)  -->
<svg version="1.1" id="Layer_1" xmlns="http://www.w3.org/2000/svg" xmlns:xlink="http://www.w3.org/1999/xlink" x="0px" y="0px"
	 viewBox="0 0 392.598 392.598" style="enable-background:new 0 0 392.598 392.598;" xml:space="preserve">
<path style="fill:#FFC10D;" d="M113.616,304.679c-38.723,0-70.853,28.768-76.218,66.069h152.436
	C184.469,333.446,152.339,304.679,113.616,304.679z"/>
<g>
	<path style="fill:#56ACE0;" d="M88.598,216.824c0,15.321,11.184,27.669,25.018,27.669s25.018-12.412,25.018-27.669
		c0-15.321-11.184-27.669-25.018-27.669S88.598,201.503,88.598,216.824z"/>
	<path style="fill:#56ACE0;" d="M293.786,137.374c-38.723,0-70.853,28.768-76.218,66.069h152.372
		C364.703,166.141,332.509,137.374,293.786,137.374z"/>
</g>
<g>
	<path style="fill:#FFC10D;" d="M293.786,77.188c13.834,0,25.018-12.412,25.018-27.669s-11.184-27.669-25.018-27.669
		c-13.834,0-25.018,12.412-25.018,27.669S280.016,77.188,293.786,77.188z"/>
	<path style="fill:#FFC10D;" d="M29.059,119.079c6.012,0,10.925,4.848,10.925,10.925v21.204l37.042-29.673
		c1.939-1.552,4.331-2.392,6.788-2.392h94.255c4.008,0,7.24-3.232,7.24-7.24V29.156c0-4.008-3.232-7.24-7.24-7.24H29.059
		c-4.008,0-7.24,3.232-7.24,7.24v82.747C21.818,115.846,25.051,119.079,29.059,119.079z"/>
</g>
<g>
	<path style="fill:#194F82;" d="M113.616,282.893c-54.497,0-98.78,44.283-98.78,98.78c0,6.012,4.848,10.925,10.925,10.925h175.709
		c6.012,0,10.925-4.848,10.925-10.925C212.396,327.176,168.113,282.893,113.616,282.893z M37.398,370.747
		c5.301-37.301,37.495-66.069,76.218-66.069s70.853,28.768,76.218,66.069H37.398z"/>
	<path style="fill:#194F82;" d="M66.812,216.824c0,27.281,21.01,49.519,46.804,49.519s46.804-22.174,46.804-49.519
		s-21.01-49.519-46.804-49.519S66.812,189.543,66.812,216.824z M138.634,216.824c0,15.321-11.184,27.669-25.018,27.669
		s-25.018-12.412-25.018-27.669c0-15.321,11.184-27.669,25.018-27.669S138.634,201.503,138.634,216.824z"/>
	<path style="fill:#194F82;" d="M293.786,115.588c-54.497,0-98.78,44.283-98.78,98.78c0,6.012,4.848,10.925,10.925,10.925H381.64
		c6.012,0,10.925-4.848,10.925-10.925C392.566,159.871,348.283,115.588,293.786,115.588z M217.632,203.442
		c5.301-37.301,37.495-66.069,76.218-66.069s70.853,28.768,76.218,66.069L217.632,203.442L217.632,203.442z"/>
	<path style="fill:#194F82;" d="M293.786,98.974c25.794,0,46.804-22.174,46.804-49.519S319.58,0,293.786,0
		s-46.804,22.174-46.804,49.519S267.992,98.974,293.786,98.974z M293.786,21.786c13.834,0,25.018,12.412,25.018,27.669
		s-11.184,27.669-25.018,27.669c-13.834,0-25.018-12.412-25.018-27.669S280.016,21.786,293.786,21.786z"/>
	<path style="fill:#194F82;" d="M18.198,173.834c0,4.202,2.392,7.952,6.206,9.826c4.848,2.392,9.568,0.259,11.507-1.293
		l51.782-41.438h90.505c15.968,0,29.026-13.059,29.026-29.026V29.026C207.224,13.059,194.166,0,178.198,0H29.059
		C13.091,0,0.032,13.059,0.032,29.026v82.747c0,12.154,7.499,22.626,18.166,26.958C18.198,138.731,18.198,173.834,18.198,173.834z
		 M21.818,29.026c0-4.008,3.232-7.24,7.24-7.24h149.075c4.008,0,7.24,3.232,7.24,7.24v82.747c0,4.008-3.232,7.24-7.24,7.24H83.879
		c-2.457,0-4.848,0.84-6.788,2.392l-37.042,29.673v-21.204c0-6.012-4.848-10.925-10.925-10.925c-4.008,0-7.24-3.232-7.24-7.24
		V28.962h-0.065V29.026z"/>
	<path style="fill:#194F82;" d="M59.055,79.838h17.131c6.012,0,10.925-4.848,10.925-10.925c0-6.012-4.848-10.925-10.925-10.925
		H59.055c-6.012,0-10.925,4.848-10.925,10.925C48.194,74.925,53.042,79.838,59.055,79.838z"/>
	<path style="fill:#194F82;" d="M131.006,79.838h17.131c6.012,0,10.925-4.848,10.925-10.925c0-6.012-4.848-10.925-10.925-10.925
		h-17.131c-6.012,0-10.925,4.848-10.925,10.925C120.081,74.925,124.994,79.838,131.006,79.838z"/>
</g>
<g>
</g>
<g>
</g>
<g>
</g>
<g>
</g>
<g>
</g>
<g>
</g>
<g>
</g>
<g>
</g>
<g>
</g>
<g>
</g>
<g>
</g>
<g>
</g>
<g>
</g>
<g>
</g>
<g>
</g>
</svg>
