<?xml version="1.0" encoding="UTF-8" standalone="no"?><!-- Generator: Gravit.io --><svg xmlns="http://www.w3.org/2000/svg" xmlns:xlink="http://www.w3.org/1999/xlink" style="isolation:isolate" viewBox="0 0 1700 760" width="1700pt" height="760pt"><defs><clipPath id="_clipPath_GZ1k3fWrfl8wPaw76cH1ifDYKwN1WwoL"><rect width="1700" height="760"/></clipPath></defs><g clip-path="url(#_clipPath_GZ1k3fWrfl8wPaw76cH1ifDYKwN1WwoL)"><g/><g><path d=" M 130.06 505.43 Q 62.06 505.43 32.06 471.58 Q 2.06 437.73 2.06 363.82 L 2.06 315.31 L 100.22 315.31 L 100.22 377.31 Q 100.22 394.53 105.44 404.25 Q 110.66 413.97 123.63 413.98 Q 137.18 413.98 142.39 406.09 Q 147.6 398.2 147.61 380.09 Q 147.61 357.24 143.09 341.87 C 139.799 331.193 134.456 321.26 127.36 312.63 Q 116.22 298.63 96.47 280.05 L 51.92 237.79 Q 2 190.67 2 130.03 Q 2 66.56 31.47 33.28 Q 60.94 0 116.8 0 Q 185.06 0 213.69 36.38 Q 242.32 72.76 242.36 146.91 L 141.36 146.91 L 141.36 112.79 Q 141.36 102.64 135.58 96.99 Q 129.8 91.34 119.92 91.35 Q 108.09 91.35 102.58 97.98 Q 97.07 104.61 97.08 115.04 Q 97.08 125.48 102.72 137.61 Q 108.36 149.74 125 165.54 L 182.26 220.54 C 193.59 231.299 204.146 242.844 213.85 255.09 C 223.794 267.856 231.605 282.147 236.98 297.41 Q 245.73 321.51 245.73 356.22 Q 245.73 426.22 219.92 465.8 Q 194.11 505.38 130.06 505.43 Z " fill="rgb(200,17,46)"/><path d=" M 317.64 500.91 L 264.36 4.46 L 361.36 4.46 L 388.72 317.85 L 416.65 4.46 L 509.17 4.46 L 535.68 317.85 L 562.2 4.46 L 660.36 4.46 L 606.2 500.91 L 487.2 500.91 L 462.36 261.99 L 438.67 500.91 L 317.64 500.91 Z " fill="rgb(200,17,46)"/><path d=" M 811.27 505.43 Q 684.9 505.43 684.9 374.26 L 684.9 204.45 Q 684.9 144.66 718.47 108.97 Q 752.04 73.28 811.27 73.29 Q 870.79 73.29 904.36 108.97 Q 937.93 144.65 937.92 204.45 L 937.92 374.26 Q 937.92 505.42 811.27 505.43 Z  M 811.27 427.57 Q 823.96 427.57 829.47 418.41 Q 834.98 409.25 834.97 395.13 L 834.97 188.37 Q 834.97 151.42 811.27 151.37 Q 787.57 151.32 787.58 188.37 L 787.58 395.13 Q 787.58 409.25 793.08 418.41 Q 798.58 427.57 811.27 427.57 L 811.27 427.57 Z " fill="rgb(255,255,255)"/><path d=" M 975.16 500.91 L 975.16 77.79 L 1077.83 77.79 L 1077.83 124.9 Q 1085.17 100.36 1103.83 86.53 Q 1122.49 72.7 1150.66 72.71 L 1150.66 157.05 C 1140.733 157.197 1130.832 158.093 1121.04 159.73 C 1110.771 161.221 1100.666 163.679 1090.86 167.07 Q 1077.86 171.72 1077.86 177.36 L 1077.86 500.9 L 975.16 500.91 Z " fill="rgb(255,255,255)"/><path d=" M 1175.43 500.91 L 1175.43 4.46 L 1278.11 4.46 L 1278.11 500.91 L 1175.43 500.91 Z " fill="rgb(255,255,255)"/><path d=" M 1401.94 505.43 Q 1372.6 505.43 1355.39 494.71 C 1344.022 487.678 1335.07 477.344 1329.73 465.09 Q 1321.27 446.19 1318.58 420.8 C 1316.733 402.713 1315.839 384.541 1315.9 366.36 L 1315.9 182.45 Q 1315.9 133.66 1333.25 103.45 Q 1350.6 73.24 1392.06 73.27 Q 1422.81 73.27 1439.31 86.38 Q 1455.81 99.49 1464.84 122.91 L 1464.84 4.46 L 1567.52 4.46 L 1567.52 500.91 L 1464.84 500.91 L 1464.84 456.06 Q 1456.38 478.91 1442.42 492.17 Q 1428.46 505.43 1401.94 505.43 Z  M 1440.58 426.43 Q 1454.97 426.43 1459.9 414.86 Q 1464.83 403.29 1464.84 373.39 L 1464.84 195.39 C 1464.834 185.402 1463.362 175.47 1460.47 165.91 Q 1456.09 151.39 1441.15 151.38 Q 1424.79 151.38 1420.55 165.2 C 1417.647 174.997 1416.222 185.172 1416.32 195.39 L 1416.32 373.39 Q 1416.36 426.45 1440.58 426.45 L 1440.58 426.43 Z " fill="rgb(255,255,255)"/><path d=" M 1045.698 734.383 L 1014.898 734.383 L 1014.898 572.032 L 1047.348 572.032 L 1061.831 649.711 L 1061.831 572.032 L 1092.264 572.032 L 1092.264 734.383 L 1061.464 734.383 L 1045.698 653.113 L 1045.698 734.383 Z  M 1130.029 735.895 L 1130.029 735.895 Q 1114.446 735.895 1108.672 725.217 L 1108.672 725.217 L 1108.672 725.217 Q 1102.897 714.538 1102.897 694.693 L 1102.897 694.693 L 1102.897 694.693 Q 1102.897 678.439 1107.022 669.745 L 1107.022 669.745 L 1107.022 669.745 Q 1111.147 661.051 1118.48 656.988 L 1118.48 656.988 L 1118.48 656.988 Q 1125.813 652.924 1140.846 648.01 L 1140.846 648.01 L 1149.646 644.986 L 1149.646 644.608 L 1149.646 630.811 L 1149.646 630.811 Q 1149.646 625.33 1147.538 622.401 L 1147.538 622.401 L 1147.538 622.401 Q 1145.429 619.471 1142.496 619.471 L 1142.496 619.471 L 1142.496 619.471 Q 1139.929 619.471 1138.004 621.928 L 1138.004 621.928 L 1138.004 621.928 Q 1136.079 624.385 1136.079 628.543 L 1136.079 628.543 L 1136.079 636.859 L 1104.913 636.859 L 1104.913 632.323 L 1104.913 632.323 Q 1104.913 611.911 1114.171 603.217 L 1114.171 603.217 L 1114.171 603.217 Q 1123.43 594.523 1144.329 594.523 L 1144.329 594.523 L 1144.329 594.523 Q 1161.012 594.523 1171.462 603.501 L 1171.462 603.501 L 1171.462 603.501 Q 1181.912 612.478 1181.912 628.921 L 1181.912 628.921 L 1181.912 734.383 L 1150.012 734.383 L 1150.012 717.94 L 1150.012 717.94 Q 1147.629 726.445 1142.404 731.17 L 1142.404 731.17 L 1142.404 731.17 Q 1137.179 735.895 1130.029 735.895 L 1130.029 735.895 Z  M 1142.679 710.191 L 1142.679 710.191 Q 1146.346 710.191 1147.904 707.073 L 1147.904 707.073 L 1147.904 707.073 Q 1149.462 703.954 1149.462 699.418 L 1149.462 699.418 L 1149.462 660.862 L 1149.462 660.862 Q 1142.313 663.697 1138.921 668.044 L 1138.921 668.044 L 1138.921 668.044 Q 1135.529 672.391 1135.529 680.14 L 1135.529 680.14 L 1135.529 697.906 L 1135.529 697.906 Q 1135.529 710.191 1142.679 710.191 L 1142.679 710.191 Z  M 1221.878 735.895 L 1221.878 735.895 Q 1209.228 735.895 1204.461 730.414 L 1204.461 730.414 L 1204.461 730.414 Q 1199.695 724.933 1199.695 712.837 L 1199.695 712.837 L 1199.695 626.464 L 1190.712 626.464 L 1190.712 601.327 L 1199.695 601.327 L 1199.695 572.032 L 1230.861 572.032 L 1230.861 601.327 L 1240.027 601.327 L 1240.027 626.464 L 1230.861 626.464 L 1230.861 704.143 L 1230.861 704.143 Q 1230.861 707.734 1231.411 709.435 L 1231.411 709.435 L 1231.411 709.435 Q 1231.961 711.136 1234.344 711.136 L 1234.344 711.136 L 1234.344 711.136 Q 1236.178 711.136 1237.828 710.947 L 1237.828 710.947 L 1237.828 710.947 Q 1239.478 710.758 1240.027 710.758 L 1240.027 710.758 L 1240.027 733.438 L 1240.027 733.438 Q 1237.278 734.194 1232.053 735.045 L 1232.053 735.045 L 1232.053 735.045 Q 1226.828 735.895 1221.878 735.895 L 1221.878 735.895 Z  M 1282.01 586.774 L 1249.927 586.774 L 1249.927 563.716 L 1282.01 563.716 L 1282.01 586.774 Z  M 1282.01 734.383 L 1249.927 734.383 L 1249.927 596.035 L 1282.01 596.035 L 1282.01 734.383 Z  M 1333.709 735.895 L 1333.709 735.895 Q 1293.56 735.895 1293.56 692.992 L 1293.56 692.992 L 1293.56 637.426 L 1293.56 637.426 Q 1293.56 617.77 1304.285 606.147 L 1304.285 606.147 L 1304.285 606.147 Q 1315.009 594.523 1333.709 594.523 L 1333.709 594.523 L 1333.709 594.523 Q 1352.409 594.523 1363.134 606.147 L 1363.134 606.147 L 1363.134 606.147 Q 1373.858 617.77 1373.858 637.426 L 1373.858 637.426 L 1373.858 692.992 L 1373.858 692.992 Q 1373.858 735.895 1333.709 735.895 L 1333.709 735.895 Z  M 1333.709 710.38 L 1333.709 710.38 Q 1337.559 710.38 1339.392 707.545 L 1339.392 707.545 L 1339.392 707.545 Q 1341.226 704.71 1341.226 699.796 L 1341.226 699.796 L 1341.226 632.134 L 1341.226 632.134 Q 1341.226 620.038 1333.709 620.038 L 1333.709 620.038 L 1333.709 620.038 Q 1326.193 620.038 1326.193 632.134 L 1326.193 632.134 L 1326.193 699.796 L 1326.193 699.796 Q 1326.193 704.71 1328.026 707.545 L 1328.026 707.545 L 1328.026 707.545 Q 1329.859 710.38 1333.709 710.38 L 1333.709 710.38 Z  M 1385.775 734.383 L 1385.775 596.035 L 1417.858 596.035 L 1417.858 613.612 L 1417.858 613.612 Q 1419.874 605.107 1424.824 599.815 L 1424.824 599.815 L 1424.824 599.815 Q 1429.774 594.523 1438.024 594.523 L 1438.024 594.523 L 1438.024 594.523 Q 1451.59 594.523 1458.099 603.123 L 1458.099 603.123 L 1458.099 603.123 Q 1464.607 611.722 1464.607 627.598 L 1464.607 627.598 L 1464.607 734.383 L 1433.074 734.383 L 1433.074 631 L 1433.074 631 Q 1433.074 626.464 1431.332 623.251 L 1431.332 623.251 L 1431.332 623.251 Q 1429.591 620.038 1425.924 620.038 L 1425.924 620.038 L 1425.924 620.038 Q 1420.974 620.038 1419.416 624.669 L 1419.416 624.669 L 1419.416 624.669 Q 1417.858 629.299 1417.858 637.048 L 1417.858 637.048 L 1417.858 734.383 L 1385.775 734.383 Z  M 1514.106 735.895 L 1514.106 735.895 Q 1474.323 735.895 1474.323 694.315 L 1474.323 694.315 L 1474.507 683.353 L 1506.589 683.353 L 1506.773 699.607 L 1506.773 699.607 Q 1506.773 704.521 1508.606 707.073 L 1508.606 707.073 L 1508.606 707.073 Q 1510.439 709.624 1514.656 709.624 L 1514.656 709.624 L 1514.656 709.624 Q 1521.072 709.624 1521.072 698.851 L 1521.072 698.851 L 1521.072 698.851 Q 1521.072 690.913 1518.047 686.377 L 1518.047 686.377 L 1518.047 686.377 Q 1515.022 681.841 1508.423 676.738 L 1508.423 676.738 L 1491.373 663.13 L 1491.373 663.13 Q 1482.573 656.137 1478.723 648.672 L 1478.723 648.672 L 1478.723 648.672 Q 1474.873 641.206 1474.873 627.598 L 1474.873 627.598 L 1474.873 627.598 Q 1474.873 617.014 1480.281 609.549 L 1480.281 609.549 L 1480.281 609.549 Q 1485.69 602.083 1494.673 598.303 L 1494.673 598.303 L 1494.673 598.303 Q 1503.656 594.523 1514.656 594.523 L 1514.656 594.523 L 1514.656 594.523 Q 1553.705 594.523 1553.705 634.591 L 1553.705 634.591 L 1553.705 637.237 L 1520.522 637.237 L 1520.522 631.945 L 1520.522 631.945 Q 1520.522 627.031 1518.964 623.535 L 1518.964 623.535 L 1518.964 623.535 Q 1517.406 620.038 1513.739 620.038 L 1513.739 620.038 L 1513.739 620.038 Q 1510.439 620.038 1508.698 622.023 L 1508.698 622.023 L 1508.698 622.023 Q 1506.956 624.007 1506.956 627.409 L 1506.956 627.409 L 1506.956 627.409 Q 1506.956 634.969 1512.639 639.127 L 1512.639 639.127 L 1532.439 654.058 L 1532.439 654.058 Q 1543.072 662.185 1548.755 671.73 L 1548.755 671.73 L 1548.755 671.73 Q 1554.438 681.274 1554.438 695.827 L 1554.438 695.827 L 1554.438 695.827 Q 1554.438 715.105 1543.805 725.5 L 1543.805 725.5 L 1543.805 725.5 Q 1533.172 735.895 1514.106 735.895 L 1514.106 735.895 Z  M 501.208 735.895 L 501.208 735.895 Q 481.775 735.895 472.333 724.555 L 472.333 724.555 L 472.333 724.555 Q 462.892 713.215 462.892 690.913 L 462.892 690.913 L 462.892 572.032 L 493.508 572.032 L 493.508 689.59 L 493.508 689.59 Q 493.508 697.339 494.974 701.686 L 494.974 701.686 L 494.974 701.686 Q 496.441 706.033 501.208 706.033 L 501.208 706.033 L 501.208 706.033 Q 505.974 706.033 507.441 701.781 L 507.441 701.781 L 507.441 701.781 Q 508.907 697.528 508.907 689.59 L 508.907 689.59 L 508.907 572.032 L 539.524 572.032 L 539.524 690.913 L 539.524 690.913 Q 539.524 713.215 530.082 724.555 L 530.082 724.555 L 530.082 724.555 Q 520.641 735.895 501.208 735.895 L 501.208 735.895 Z  M 551.073 734.383 L 551.073 596.035 L 583.156 596.035 L 583.156 613.612 L 583.156 613.612 Q 585.173 605.107 590.123 599.815 L 590.123 599.815 L 590.123 599.815 Q 595.073 594.523 603.322 594.523 L 603.322 594.523 L 603.322 594.523 Q 616.889 594.523 623.397 603.123 L 623.397 603.123 L 623.397 603.123 Q 629.905 611.722 629.905 627.598 L 629.905 627.598 L 629.905 734.383 L 598.372 734.383 L 598.372 631 L 598.372 631 Q 598.372 626.464 596.631 623.251 L 596.631 623.251 L 596.631 623.251 Q 594.889 620.038 591.223 620.038 L 591.223 620.038 L 591.223 620.038 Q 586.273 620.038 584.714 624.669 L 584.714 624.669 L 584.714 624.669 Q 583.156 629.299 583.156 637.048 L 583.156 637.048 L 583.156 734.383 L 551.073 734.383 Z  M 674.454 586.774 L 642.372 586.774 L 642.372 563.716 L 674.454 563.716 L 674.454 586.774 Z  M 674.454 734.383 L 642.372 734.383 L 642.372 596.035 L 674.454 596.035 L 674.454 734.383 Z  M 714.787 735.895 L 714.787 735.895 Q 702.137 735.895 697.371 730.414 L 697.371 730.414 L 697.371 730.414 Q 692.604 724.933 692.604 712.837 L 692.604 712.837 L 692.604 626.464 L 683.621 626.464 L 683.621 601.327 L 692.604 601.327 L 692.604 572.032 L 723.77 572.032 L 723.77 601.327 L 732.937 601.327 L 732.937 626.464 L 723.77 626.464 L 723.77 704.143 L 723.77 704.143 Q 723.77 707.734 724.32 709.435 L 724.32 709.435 L 724.32 709.435 Q 724.87 711.136 727.253 711.136 L 727.253 711.136 L 727.253 711.136 Q 729.087 711.136 730.737 710.947 L 730.737 710.947 L 730.737 710.947 Q 732.387 710.758 732.937 710.758 L 732.937 710.758 L 732.937 733.438 L 732.937 733.438 Q 730.187 734.194 724.962 735.045 L 724.962 735.045 L 724.962 735.045 Q 719.737 735.895 714.787 735.895 L 714.787 735.895 Z  M 774.919 586.774 L 742.837 586.774 L 742.837 563.716 L 774.919 563.716 L 774.919 586.774 Z  M 774.919 734.383 L 742.837 734.383 L 742.837 596.035 L 774.919 596.035 L 774.919 734.383 Z  M 787.569 734.383 L 787.569 596.035 L 819.652 596.035 L 819.652 613.612 L 819.652 613.612 Q 821.668 605.107 826.618 599.815 L 826.618 599.815 L 826.618 599.815 Q 831.568 594.523 839.818 594.523 L 839.818 594.523 L 839.818 594.523 Q 853.385 594.523 859.893 603.123 L 859.893 603.123 L 859.893 603.123 Q 866.401 611.722 866.401 627.598 L 866.401 627.598 L 866.401 734.383 L 834.868 734.383 L 834.868 631 L 834.868 631 Q 834.868 626.464 833.127 623.251 L 833.127 623.251 L 833.127 623.251 Q 831.385 620.038 827.718 620.038 L 827.718 620.038 L 827.718 620.038 Q 822.768 620.038 821.21 624.669 L 821.21 624.669 L 821.21 624.669 Q 819.652 629.299 819.652 637.048 L 819.652 637.048 L 819.652 734.383 L 787.569 734.383 Z  M 915.167 754.606 L 915.167 754.606 Q 900.867 754.606 892.709 752.244 L 892.709 752.244 L 892.709 752.244 Q 884.551 749.881 876.667 743.266 L 876.667 743.266 L 887.667 724.177 L 887.667 724.177 Q 899.4 731.359 910.95 731.359 L 910.95 731.359 L 910.95 731.359 Q 918.467 731.359 922.317 726.445 L 922.317 726.445 L 922.317 726.445 Q 926.167 721.531 926.167 713.026 L 926.167 713.026 L 926.167 705.466 L 926.167 705.466 Q 922.317 719.641 905.817 719.641 L 905.817 719.641 L 905.817 719.641 Q 892.067 719.641 885.559 710.002 L 885.559 710.002 L 885.559 710.002 Q 879.051 700.363 879.051 684.298 L 879.051 684.298 L 879.051 632.323 L 879.051 632.323 Q 879.051 613.99 885.009 604.257 L 885.009 604.257 L 885.009 604.257 Q 890.967 594.523 905.817 594.523 L 905.817 594.523 L 905.817 594.523 Q 914.433 594.523 919.475 598.965 L 919.475 598.965 L 919.475 598.965 Q 924.517 603.406 926.167 611.533 L 926.167 611.533 L 926.167 596.035 L 958.983 596.035 L 958.983 710.947 L 958.983 710.947 Q 958.983 734.194 948.533 744.4 L 948.533 744.4 L 948.533 744.4 Q 938.083 754.606 915.167 754.606 L 915.167 754.606 Z  M 918.65 694.693 L 918.65 694.693 Q 926.167 694.693 926.167 680.707 L 926.167 680.707 L 926.167 631.378 L 926.167 631.378 Q 926.167 627.22 923.967 623.44 L 923.967 623.44 L 923.967 623.44 Q 921.767 619.66 918.467 619.66 L 918.467 619.66 L 918.467 619.66 Q 914.25 619.66 912.783 622.779 L 912.783 622.779 L 912.783 622.779 Q 911.317 625.897 911.317 631.378 L 911.317 631.378 L 911.317 680.707 L 911.317 680.707 Q 911.317 686.944 912.783 690.819 L 912.783 690.819 L 912.783 690.819 Q 914.25 694.693 918.65 694.693 L 918.65 694.693 Z  M 57.732 734.383 L 28.033 734.383 L 28.033 680.896 L 2.917 572.032 L 34.083 572.032 L 42.883 627.031 L 51.682 572.032 L 82.849 572.032 L 57.732 680.896 L 57.732 734.383 Z  M 129.231 735.895 L 129.231 735.895 Q 89.082 735.895 89.082 692.992 L 89.082 692.992 L 89.082 637.426 L 89.082 637.426 Q 89.082 617.77 99.807 606.147 L 99.807 606.147 L 99.807 606.147 Q 110.531 594.523 129.231 594.523 L 129.231 594.523 L 129.231 594.523 Q 147.931 594.523 158.655 606.147 L 158.655 606.147 L 158.655 606.147 Q 169.38 617.77 169.38 637.426 L 169.38 637.426 L 169.38 692.992 L 169.38 692.992 Q 169.38 735.895 129.231 735.895 L 129.231 735.895 Z  M 129.231 710.38 L 129.231 710.38 Q 133.081 710.38 134.914 707.545 L 134.914 707.545 L 134.914 707.545 Q 136.748 704.71 136.748 699.796 L 136.748 699.796 L 136.748 632.134 L 136.748 632.134 Q 136.748 620.038 129.231 620.038 L 129.231 620.038 L 129.231 620.038 Q 121.714 620.038 121.714 632.134 L 121.714 632.134 L 121.714 699.796 L 121.714 699.796 Q 121.714 704.71 123.548 707.545 L 123.548 707.545 L 123.548 707.545 Q 125.381 710.38 129.231 710.38 L 129.231 710.38 Z  M 207.146 735.895 L 207.146 735.895 Q 192.113 735.895 186.522 726.634 L 186.522 726.634 L 186.522 726.634 Q 180.93 717.373 180.93 699.04 L 180.93 699.04 L 180.93 596.035 L 213.196 596.035 L 213.196 692.425 L 213.196 692.425 Q 213.196 693.748 213.196 699.513 L 213.196 699.513 L 213.196 699.513 Q 213.196 705.277 214.938 707.64 L 214.938 707.64 L 214.938 707.64 Q 216.679 710.002 220.346 710.002 L 220.346 710.002 L 220.346 710.002 Q 225.296 710.002 226.579 705.75 L 226.579 705.75 L 226.579 705.75 Q 227.863 701.497 227.863 693.559 L 227.863 693.559 L 227.863 692.425 L 228.046 596.035 L 259.945 596.035 L 259.945 734.383 L 227.863 734.383 L 227.863 719.641 L 227.863 719.641 Q 224.563 728.335 220.163 732.115 L 220.163 732.115 L 220.163 732.115 Q 215.763 735.895 207.146 735.895 L 207.146 735.895 Z  M 300.461 735.895 L 300.461 735.895 Q 287.811 735.895 283.045 730.414 L 283.045 730.414 L 283.045 730.414 Q 278.278 724.933 278.278 712.837 L 278.278 712.837 L 278.278 626.464 L 269.295 626.464 L 269.295 601.327 L 278.278 601.327 L 278.278 572.032 L 309.444 572.032 L 309.444 601.327 L 318.611 601.327 L 318.611 626.464 L 309.444 626.464 L 309.444 704.143 L 309.444 704.143 Q 309.444 707.734 309.994 709.435 L 309.994 709.435 L 309.994 709.435 Q 310.544 711.136 312.928 711.136 L 312.928 711.136 L 312.928 711.136 Q 314.761 711.136 316.411 710.947 L 316.411 710.947 L 316.411 710.947 Q 318.061 710.758 318.611 710.758 L 318.611 710.758 L 318.611 733.438 L 318.611 733.438 Q 315.861 734.194 310.636 735.045 L 310.636 735.045 L 310.636 735.045 Q 305.411 735.895 300.461 735.895 L 300.461 735.895 Z  M 328.694 734.383 L 328.694 571.087 L 361.693 571.087 L 361.693 609.643 L 361.693 609.643 Q 366.827 594.523 381.31 594.523 L 381.31 594.523 L 381.31 594.523 Q 394.876 594.523 401.843 603.406 L 401.843 603.406 L 401.843 603.406 Q 408.809 612.289 408.809 627.787 L 408.809 627.787 L 408.809 734.383 L 376.727 734.383 L 376.727 629.866 L 376.727 629.866 Q 376.727 625.33 374.71 622.495 L 374.71 622.495 L 374.71 622.495 Q 372.693 619.66 368.843 619.66 L 368.843 619.66 L 368.843 619.66 Q 365.543 619.66 363.618 622.59 L 363.618 622.59 L 363.618 622.59 Q 361.693 625.519 361.693 629.677 L 361.693 629.677 L 361.693 734.383 L 328.694 734.383 Z " fill="rgb(255,255,255)"/><path d=" M 1639.896 686.34 L 1639.896 686.34 Q 1624.362 686.34 1611.762 679.091 L 1611.762 679.091 L 1611.762 679.091 Q 1599.163 671.842 1591.913 659.156 L 1591.913 659.156 L 1591.913 659.156 Q 1584.664 646.469 1584.664 630.935 L 1584.664 630.935 L 1584.664 630.935 Q 1584.664 615.401 1591.913 602.715 L 1591.913 602.715 L 1591.913 602.715 Q 1599.163 590.029 1611.762 582.78 L 1611.762 582.78 L 1611.762 582.78 Q 1624.362 575.531 1639.896 575.531 L 1639.896 575.531 L 1639.896 575.531 Q 1655.43 575.531 1668.116 582.78 L 1668.116 582.78 L 1668.116 582.78 Q 1680.802 590.029 1688.052 602.715 L 1688.052 602.715 L 1688.052 602.715 Q 1695.301 615.401 1695.301 630.935 L 1695.301 630.935 L 1695.301 630.935 Q 1695.301 646.469 1688.052 659.156 L 1688.052 659.156 L 1688.052 659.156 Q 1680.802 671.842 1668.116 679.091 L 1668.116 679.091 L 1668.116 679.091 Q 1655.43 686.34 1639.896 686.34 L 1639.896 686.34 Z  M 1639.896 675.466 L 1639.896 675.466 Q 1651.806 675.466 1661.471 669.512 L 1661.471 669.512 L 1661.471 669.512 Q 1671.137 663.557 1676.574 653.373 L 1676.574 653.373 L 1676.574 653.373 Q 1682.011 643.19 1682.011 630.935 L 1682.011 630.935 L 1682.011 630.935 Q 1682.011 618.681 1676.574 608.497 L 1676.574 608.497 L 1676.574 608.497 Q 1671.137 598.314 1661.471 592.359 L 1661.471 592.359 L 1661.471 592.359 Q 1651.806 586.405 1639.896 586.405 L 1639.896 586.405 L 1639.896 586.405 Q 1627.987 586.405 1618.407 592.359 L 1618.407 592.359 L 1618.407 592.359 Q 1608.828 598.314 1603.391 608.584 L 1603.391 608.584 L 1603.391 608.584 Q 1597.954 618.853 1597.954 630.935 L 1597.954 630.935 L 1597.954 630.935 Q 1597.954 643.017 1603.391 653.287 L 1603.391 653.287 L 1603.391 653.287 Q 1608.828 663.557 1618.407 669.512 L 1618.407 669.512 L 1618.407 669.512 Q 1627.987 675.466 1639.896 675.466 L 1639.896 675.466 Z  M 1621.255 667.354 L 1621.255 595.552 L 1645.592 595.552 L 1645.592 595.552 Q 1654.222 595.552 1657.156 600.558 L 1657.156 600.558 L 1657.156 600.558 Q 1660.09 605.563 1660.09 615.747 L 1660.09 615.747 L 1660.09 615.747 Q 1660.09 621.788 1658.278 625.153 L 1658.278 625.153 L 1658.278 625.153 Q 1656.466 628.519 1652.151 630.072 L 1652.151 630.072 L 1652.151 630.072 Q 1658.882 631.281 1658.882 640.256 L 1658.882 640.256 L 1658.882 667.354 L 1643.348 667.354 L 1643.348 639.393 L 1643.348 639.393 Q 1643.348 636.459 1642.054 635.596 L 1642.054 635.596 L 1642.054 635.596 Q 1640.759 634.733 1637.307 634.733 L 1637.307 634.733 L 1637.307 667.354 L 1621.255 667.354 Z  M 1637.307 622.305 L 1641.45 622.305 L 1641.45 622.305 Q 1644.556 622.305 1644.556 615.747 L 1644.556 615.747 L 1644.556 615.747 Q 1644.556 611.259 1643.176 610.051 L 1643.176 610.051 L 1643.176 610.051 Q 1641.795 608.843 1637.307 608.843 L 1637.307 608.843 L 1637.307 622.305 Z " fill-rule="evenodd" fill="rgb(255,255,255)"/></g></g></svg>