<?xml version="1.0" encoding="UTF-8" standalone="no"?><!-- Generator: Gravit.io --><svg xmlns="http://www.w3.org/2000/svg" xmlns:xlink="http://www.w3.org/1999/xlink" style="isolation:isolate" viewBox="0 0 185 40" width="185pt" height="40pt"><defs><clipPath id="_clipPath_xakTrZBjmwDwYn6pgtLHhbBl1tfw5eMV"><rect width="185" height="40"/></clipPath></defs><g clip-path="url(#_clipPath_xakTrZBjmwDwYn6pgtLHhbBl1tfw5eMV)"><g style="isolation:isolate"><g style="isolation:isolate"/></g><path d=" M 57 34 L 2 34 L 18 27 L 24 25 L 29 21 L 36 21 L 40 21 L 47 17 L 52 14 L 57 10 L 62 10 L 67 6 L 72 4 L 85 8 L 93 12 L 100 12 L 114 10 L 119 10 Q 122.75 11.75 125 14 Q 127.25 16.25 139 25 Q 142.25 26.75 146 27 C 149.75 27.25 157.75 27 161 27 Q 164.25 27 174 29 L 183 34 L 57 34 Z " fill="rgb(179,218,192)" vector-effect="non-scaling-stroke" stroke-width="1" stroke="rgb(215,187,159)" stroke-linejoin="miter" stroke-linecap="square" stroke-miterlimit="3"/></g></svg>