<?xml version="1.0" encoding="UTF-8" standalone="no"?><!-- Generator: Gravit.io --><svg xmlns="http://www.w3.org/2000/svg" xmlns:xlink="http://www.w3.org/1999/xlink" style="isolation:isolate" viewBox="0 0 1000 1080" width="1000pt" height="1080pt"><defs><clipPath id="_clipPath_rws2mAnG6FeQaDzk0QGj2lZSyFkyxGZh"><rect width="1000" height="1080"/></clipPath></defs><g clip-path="url(#_clipPath_rws2mAnG6FeQaDzk0QGj2lZSyFkyxGZh)"><ellipse vector-effect="non-scaling-stroke" cx="499.99999999999983" cy="540.5" rx="456.9999999999999" ry="456.5000000000001" fill="rgb(243,200,64)"/><path d=" M 428 991 Q 420.5 988 223 790 Q 259.5 811.5 294 808 C 328.5 804.5 348.5 795 364 779 Q 379.5 763 382 741 L 382 715 L 382 441 L 382 354 L 717 274 L 957 514 Q 959.5 618 936 681 C 912.5 744 886 800.5 842 847 C 798 893.5 740.5 934.5 705 951 C 669.5 967.5 603 992 559 995.5 C 512.106 999.23 435.5 994 428 991 Z " fill="rgb(230,163,51)"/><path d=" M 689 648 Q 664.377 630.068 639 626 C 606.25 620.75 577.75 629.75 572 632 C 563.878 635.178 537.333 644.667 529 680 Q 520.667 715.333 548 743 Q 570.03 763.739 610.5 768.5 Q 640.25 772 670 760 Q 691.25 749.25 701 737 Q 712.294 722.811 716 704 L 716 274 L 529 295 L 529 337 L 689 318 L 689 364 L 529 383 L 529 424 L 689 405 L 689 648 Z " fill="rgb(73,38,48)"/><path d=" M 529 295 L 529 337 L 381 354 L 381 401 L 529 383 L 529 424 L 381 441 L 381 743 Q 381.333 754.667 372.667 768 C 360.877 786.138 343.667 796.333 330 801 Q 316.333 805.667 297 808 Q 266.667 810 250 805 C 219.296 795.789 204.667 777.333 198 766 Q 178.781 733.327 198 704 Q 208 692 217 685 C 218.881 683.537 242 665.333 280 663 C 291.996 662.263 307.667 664.333 315 666 C 315.503 666.114 321.375 667.75 330 671 C 334.125 672.5 340.625 676 344 678 Q 353.375 684.25 353 685 L 353 316 L 529 295 Z " fill="rgb(114,51,27)"/></g></svg>