<svg id="asset_6_step_one_completed" data-name="asset / 6 step / one completed" xmlns="http://www.w3.org/2000/svg" width="20" height="20" viewBox="0 0 20 20">
  <g id="steps">
    <path id="Combined_Shape" data-name="Combined Shape" d="M10,0A10,10,0,1,1,0,10,10,10,0,0,1,10,0Z" fill="#292929"/>
    <g id="icon_-_complete" data-name="icon - complete">
      <circle id="Oval" cx="9.467" cy="9.467" r="9.467" transform="translate(0.547 0.494)" fill="#f70031"/>
      <path id="Shape" d="M2.889,16.86a9.889,9.889,0,1,1,6.984,2.888A9.889,9.889,0,0,1,2.889,16.86Z" transform="translate(0.141 0.087)" fill="#f70031"/>
      <path id="Path" d="M14.739,3.519a8.105,8.105,0,1,0,1.337,3.536l.156-.02a8.221,8.221,0,0,0-.473-1.9l-.146.056a7.941,7.941,0,0,0-.4-.9l.137-.073h0a8.215,8.215,0,0,0-.478-.782Z" transform="translate(1.94 1.887)" fill="#fdfcef"/>
      <path id="Path-2" data-name="Path" d="M2.407,2.407A8.21,8.21,0,0,1,15.021,3.586a.154.154,0,0,1-.254.175A7.9,7.9,0,0,0,2.625,2.626a7.924,7.924,0,1,0,13.455,4.6.154.154,0,1,1,.306-.039A8.229,8.229,0,1,1,2.407,2.407Z" transform="translate(1.786 1.733)" fill="#161616"/>
      <path id="Path-3" data-name="Path" d="M.045.045A.16.16,0,0,1,.082.018.154.154,0,0,1,.29.082,8.043,8.043,0,0,1,.7,1a.154.154,0,0,1-.289.11,7.855,7.855,0,0,0-.4-.887A.155.155,0,0,1,.045.045Z" transform="translate(16.995 6.018)" fill="#161616"/>
      <path id="Path-4" data-name="Path" d="M.212,3.288,3.093,6.169A.715.715,0,0,0,3.6,6.38a.733.733,0,0,0,.531-.233L8.661,1.207A.72.72,0,1,0,7.6.234L3.651,4.54l-.072.079L3.5,4.543,1.229,2.27A.72.72,0,0,0,0,2.779.714.714,0,0,0,.212,3.288Z" transform="translate(5.589 7.183)" fill="#7ed321"/>
      <path id="Shape-2" data-name="Shape" d="M3.7,6.585a.824.824,0,0,1-.582-.241L.241,3.463A.823.823,0,1,1,1.4,2.3L3.678,4.573,7.626.267A.823.823,0,0,1,8.839,1.38L4.311,6.319a.822.822,0,0,1-.589.266Z" transform="translate(5.487 7.08)" fill="#161616"/>
    </g>
  </g>
</svg>
