<svg id="asset_search" data-name="asset / search" xmlns="http://www.w3.org/2000/svg" xmlns:xlink="http://www.w3.org/1999/xlink" width="200" height="200" viewBox="0 0 200 200">
  <defs>
    <clipPath id="clip-path">
      <rect id="Mask" width="200" height="200" fill="none"/>
    </clipPath>
  </defs>
  <g id="ilustration_-_search" data-name="ilustration - search">
    <rect id="Mask-2" data-name="Mask" width="200" height="200" fill="none"/>
    <g id="ilustration_-_search-2" data-name="ilustration - search" clip-path="url(#clip-path)">
      <path id="Path" d="M180.224,96.582a38.14,38.14,0,0,0,1.83-4.467c6.053-17.862-3.1-39.26-22.375-44.425C157.6,21.52,139.206,3.568,118.435.5,94.663-3,72.886,12.1,65.64,36.1c-8.733-3.094-17.244-2.717-25.264,1.97A31.284,31.284,0,0,0,30.422,45.5a34.762,34.762,0,0,0-8.4,17.23,27.484,27.484,0,0,0-5,1.113C7.737,67.177,1.877,74.033.27,84.359A30.368,30.368,0,0,0,2.415,99.793,23.856,23.856,0,0,0,27.658,114.3a2.487,2.487,0,0,1,1.729.536c.554,16.368,8.5,30.844,20.423,39.113,19.129,13.269,43.74,9.182,59.267-9.014,6.653,6.8,14.57,10.11,23.871,8.91,9.248-1.193,16.43-6.3,21.669-14.6A48.919,48.919,0,0,0,161.7,141.1c9.292,1.016,16.837-2.678,22.372-11.034,2.12-3.2,4.122-7.343,4.122-14.607A25.434,25.434,0,0,0,180.224,96.582Z" transform="translate(5.889 19.432)" fill="#292929"/>
      <g id="Group" transform="translate(112.644 57.08)">
        <g id="Group-2" data-name="Group">
          <path id="Path-2" data-name="Path" d="M44.4,42.543H71.443a11.238,11.238,0,0,0,2.308-22.237,11.5,11.5,0,0,0,.1-1.444,11.628,11.628,0,0,0-20.92-7,12.84,12.84,0,0,0-25.411-1.448,13.065,13.065,0,0,0,.032,5,8.012,8.012,0,0,0-13.878,4.924,10.773,10.773,0,0,0-6.246.432A11.389,11.389,0,0,0,.009,30.858a11.24,11.24,0,0,0,11.23,11.69H37.144" transform="translate(1.72 1.154)" fill="#9b9b9b"/>
          <path id="Path-3" data-name="Path" d="M72.589,44.841H45.548a1.149,1.149,0,0,1,0-2.3H72.587A10.09,10.09,0,0,0,74.66,22.579a1.15,1.15,0,0,1-.906-1.269,10.423,10.423,0,0,0-10.4-11.789A10.409,10.409,0,0,0,54.991,13.7a1.149,1.149,0,0,1-2.062-.6,11.749,11.749,0,0,0-4.253-8.159A11.692,11.692,0,0,0,29.794,11.77a11.912,11.912,0,0,0,.028,4.566,1.149,1.149,0,0,1-1.968,1.011,6.815,6.815,0,0,0-5.034-2.2,6.886,6.886,0,0,0-6.853,6.421,1.152,1.152,0,0,1-1.4,1.048A9.627,9.627,0,0,0,8.978,23,10.283,10.283,0,0,0,2.3,32.05,10.091,10.091,0,0,0,12.387,42.545H38.293a1.149,1.149,0,1,1,0,2.3H12.387A12.388,12.388,0,0,1,.01,31.963,12.6,12.6,0,0,1,8.173,20.846a11.953,11.953,0,0,1,5.674-.687,9.151,9.151,0,0,1,13.446-6.143,14.5,14.5,0,0,1,.246-2.662A13.988,13.988,0,0,1,54.824,10.5a12.656,12.656,0,0,1,8.536-3.276A12.8,12.8,0,0,1,76.148,20.011c0,.191,0,.382-.016.57a12.389,12.389,0,0,1-3.543,24.26Z" transform="translate(0.576 0.002)" fill="#161616"/>
        </g>
        <g id="Group-3" data-name="Group" transform="translate(13.793 16.092)">
          <path id="Path-4" data-name="Path" d="M24.655.018C20.5-.256,16.92,2.616,16.664,6.43a6.377,6.377,0,0,0,.057,1.393A4.889,4.889,0,0,0,13.37,6.213,4.57,4.57,0,0,0,8.409,9.938,7.12,7.12,0,0,0,6.993,9.7,6.36,6.36,0,0,0,0,15.31" transform="translate(1.163 2.83)" fill="#fdfcef"/>
          <path id="Path-5" data-name="Path" d="M.576,16.462a.21.21,0,0,1-.039,0A.574.574,0,0,1,0,15.848,6.941,6.941,0,0,1,7.606,9.7a7.257,7.257,0,0,1,.94.122,5.164,5.164,0,0,1,5.439-3.6,5.5,5.5,0,0,1,2.674.878c0-.044,0-.085.007-.131a7.807,7.807,0,0,1,8.6-6.945A.574.574,0,0,1,25.8.634a.547.547,0,0,1-.611.533c-3.809-.253-7.145,2.384-7.379,5.878a5.71,5.71,0,0,0,.053,1.269.574.574,0,0,1-1,.469,4.293,4.293,0,0,0-2.961-1.418,4.058,4.058,0,0,0-4.354,3.228A.582.582,0,0,1,9.3,11a.565.565,0,0,1-.469.074,6.873,6.873,0,0,0-1.3-.223,5.8,5.8,0,0,0-6.379,5.078A.574.574,0,0,1,.576,16.462Z" transform="translate(0.59 2.251)" fill="#472b29"/>
        </g>
        <g id="Group-4" data-name="Group" transform="translate(66.368 20.69)">
          <path id="Path-6" data-name="Path" d="M.576,6.211A.629.629,0,0,1,.447,6.2a.577.577,0,0,1-.432-.69,6.855,6.855,0,0,1,.5-1.439C2.32.34,7.192-1.083,11.371.885a.575.575,0,1,1-.49,1.041C7.263.218,3.081,1.4,1.553,4.566a5.612,5.612,0,0,0-.418,1.2A.571.571,0,0,1,.576,6.211Z" transform="translate(0.22 0.68)" fill="#161616"/>
        </g>
      </g>
      <g id="Group-5" data-name="Group" transform="translate(121.839 25.897)">
        <path id="Combined_Shape" data-name="Combined Shape" d="M34.855,10.871a1.149,1.149,0,0,1,0-2.3h5.851a1.149,1.149,0,0,1,0,2.3Zm-6.8,0a1.149,1.149,0,1,1,0-2.3h3.324a1.149,1.149,0,0,1,0,2.3Zm-26.356,0a1.149,1.149,0,0,1,0-2.3H24.761a1.149,1.149,0,0,1,0,2.3ZM18.6,6.584a1.149,1.149,0,0,1,0-2.3H30.156a1.149,1.149,0,0,1,0,2.3Zm-7.391,0a1.149,1.149,0,0,1,0-2.3h4.044a1.149,1.149,0,0,1,0,2.3ZM13.94,2.3a1.149,1.149,0,1,1,0-2.3H36.049a1.149,1.149,0,1,1,0,2.3Zm-5.313,0a1.149,1.149,0,1,1,0-2.3H9.961a1.149,1.149,0,0,1,0,2.3Zm-7.478,0a1.149,1.149,0,0,1,0-2.3H4.5a1.149,1.149,0,1,1,0,2.3Z" transform="translate(0.071 0.531)" fill="#9b9b9b"/>
      </g>
      <g id="Group-6" data-name="Group" transform="translate(49.276 53.483)">
        <g id="Group-7" data-name="Group">
          <path id="Path-7" data-name="Path" d="M84.046,99.786H15.74A15.786,15.786,0,0,1,0,84.046V15.74A15.786,15.786,0,0,1,15.74,0H84.046a15.786,15.786,0,0,1,15.74,15.74V84.046A15.785,15.785,0,0,1,84.046,99.786Z" transform="translate(2.471 1.754)" fill="#f70031"/>
          <path id="Shape" d="M85.655,103H17.35A17.369,17.369,0,0,1,0,85.656v-68.3A17.371,17.371,0,0,1,17.35,0H85.655a17.372,17.372,0,0,1,17.352,17.352V85.658A17.369,17.369,0,0,1,85.655,103ZM17.35,3.218A14.147,14.147,0,0,0,3.218,17.35v68.3A14.146,14.146,0,0,0,17.35,99.784H85.656a14.146,14.146,0,0,0,14.13-14.129v-68.3A14.147,14.147,0,0,0,85.656,3.22H17.35Z" transform="translate(0.862 0.145)" fill="#161616"/>
        </g>
        <path id="Path-8" data-name="Path" d="M72.775,85.533H12.756A12.794,12.794,0,0,1,0,72.777V12.756A12.794,12.794,0,0,1,12.756,0H72.777A12.794,12.794,0,0,1,85.533,12.756V72.777A12.8,12.8,0,0,1,72.775,85.533Z" transform="translate(9.6 8.88)" fill="#fff"/>
      </g>
      <g id="Group-8" data-name="Group" transform="translate(26.287 127.046)">
        <g id="Group-9" data-name="Group">
          <g id="Group-10" data-name="Group">
            <path id="Shape-2" data-name="Shape" d="M47.692,32.54H8.784A8.683,8.683,0,0,1,.007,23.6a8.728,8.728,0,0,1,5.8-7.715,8.613,8.613,0,0,1,4.88-.329,6.214,6.214,0,0,1,6.253-5.733,6.312,6.312,0,0,1,4.593,1.967,9.782,9.782,0,0,1-.025-3.828,10.066,10.066,0,0,1,19.86,1.109,9.134,9.134,0,0,1,7.252-3.548,9,9,0,0,1,9.1,8.9,8.759,8.759,0,0,1-.078,1.1A8.581,8.581,0,0,1,55.83,32.54Zm-14.892,0h0Z" transform="translate(1.655 1.8)" fill="#9b9b9b"/>
            <path id="Shape-3" data-name="Shape" d="M48.845,34.85a1.15,1.15,0,0,1,0-2.3h8.14a7.432,7.432,0,0,0,1.574-14.733,1.15,1.15,0,0,1-.91-1.269,7.862,7.862,0,0,0,.067-.963,7.861,7.861,0,0,0-7.947-7.752,7.947,7.947,0,0,0-6.343,3.1,1.148,1.148,0,0,1-2.055-.612,8.55,8.55,0,0,0-3.149-5.986,9.023,9.023,0,0,0-6.835-1.961,8.8,8.8,0,0,0-7.6,6.961,8.585,8.585,0,0,0,.023,3.381,1.149,1.149,0,0,1-1.961,1.023,5.14,5.14,0,0,0-3.76-1.609,5.075,5.075,0,0,0-5.106,4.659,1.153,1.153,0,0,1-.455.841,1.141,1.141,0,0,1-.933.2,7.4,7.4,0,0,0-4.242.288A7.606,7.606,0,0,0,2.3,24.8a7.3,7.3,0,0,0,2.057,5.393,7.658,7.658,0,0,0,5.57,2.354H30.181a1.149,1.149,0,1,1,0,2.3H9.932A10.065,10.065,0,0,1,2.7,31.787a9.576,9.576,0,0,1-2.7-7.076,9.932,9.932,0,0,1,6.551-8.749,9.744,9.744,0,0,1,4.323-.562,7.41,7.41,0,0,1,7.206-5.572,7.509,7.509,0,0,1,3.251.743A11.159,11.159,0,0,1,21.53,8.9,11.262,11.262,0,0,1,39.682,2.551a10.874,10.874,0,0,1,3.556,5.292A10.266,10.266,0,0,1,49.771,5.53,10.16,10.16,0,0,1,60.017,15.581c0,.078,0,.156,0,.237A9.727,9.727,0,0,1,56.985,34.85Zm-14.888,0a1.15,1.15,0,0,1,0-2.3h.825a1.15,1.15,0,1,1,0,2.3Z" transform="translate(0.5 0.64)" fill="#161616"/>
          </g>
          <path id="Path-9" data-name="Path" d="M.573,4.833a.592.592,0,0,1-.126-.014.575.575,0,0,1-.432-.69A5.016,5.016,0,0,1,.4,3.028C1.794.212,5.629-.829,8.96.715a.574.574,0,1,1-.483,1.041C5.709.479,2.55,1.276,1.435,3.534a3.8,3.8,0,0,0-.3.848A.579.579,0,0,1,.573,4.833Z" transform="translate(52.985 17.317)" fill="#161616"/>
        </g>
        <path id="Path-10" data-name="Path" d="M3.694,2.3H1.149a1.149,1.149,0,0,1,0-2.3H3.694a1.149,1.149,0,0,1,0,2.3Z" transform="translate(38.007 33.191)" fill="#161616"/>
      </g>
      <g id="Group-11" data-name="Group" transform="translate(0 93.563)">
        <path id="Combined_Shape-2" data-name="Combined Shape" d="M18.046,19.446a1.15,1.15,0,0,1,0-2.3h4.042a1.15,1.15,0,0,1,0,2.3Zm0-4.286a1.149,1.149,0,0,1,0-2.3H40.152a1.149,1.149,0,0,1,0,2.3Zm-5.314,0a1.149,1.149,0,1,1,0-2.3h1.333a1.149,1.149,0,0,1,0,2.3Zm-7.478,0a1.149,1.149,0,1,1,0-2.3H8.6a1.149,1.149,0,1,1,0,2.3ZM34.3,10.871a1.149,1.149,0,0,1,0-2.3h5.853a1.149,1.149,0,0,1,0,2.3Zm-6.793,0a1.149,1.149,0,0,1,0-2.3H30.83a1.149,1.149,0,1,1,0,2.3Zm-26.357,0a1.149,1.149,0,0,1,0-2.3H24.207a1.149,1.149,0,0,1,0,2.3Zm16.9-4.285a1.149,1.149,0,0,1,0-2.3H29.6a1.149,1.149,0,1,1,0,2.3ZM26.713,2.3a1.149,1.149,0,0,1,0-2.3H29.6a1.149,1.149,0,1,1,0,2.3Z" transform="translate(0.825 0.184)" fill="#9b9b9b"/>
      </g>
      <g id="Group-12" data-name="Group" transform="translate(72.264 70.874)">
        <path id="Path-11" data-name="Path" d="M1.15,6.644A1.148,1.148,0,0,1,.336,4.683L4.681.336A1.149,1.149,0,0,1,6.306,1.961L1.961,6.309A1.145,1.145,0,0,1,1.15,6.644Z" transform="translate(19.79 35.128)" fill="#161616"/>
        <g id="Group-13" data-name="Group" transform="translate(0 37.782)">
          <path id="Path-12" data-name="Path" d="M1.281,19.906h0a4.4,4.4,0,0,1,0-6.209L13.7,1.281a4.4,4.4,0,0,1,6.209,0h0a4.4,4.4,0,0,1,0,6.209L7.49,19.906A4.407,4.407,0,0,1,1.281,19.906Z" transform="translate(1.034 1.558)" fill="#f70031"/>
          <path id="Shape-4" data-name="Shape" d="M5.306,22.977a5.308,5.308,0,0,1-3.755-9.064L13.968,1.5a5.451,5.451,0,0,1,7.508,0,5.324,5.324,0,0,1,0,7.51L9.06,21.425A5.271,5.271,0,0,1,5.306,22.977ZM17.723,1.823A3.47,3.47,0,0,0,15.27,2.8L2.853,15.218a3.469,3.469,0,1,0,4.908,4.9L20.177,7.708a3.477,3.477,0,0,0,0-4.9A3.475,3.475,0,0,0,17.723,1.823Z" transform="translate(0.113 0.69)" fill="#161616"/>
        </g>
        <path id="Path-13" data-name="Path" d="M5.271,1.146A3.575,3.575,0,0,0,.241.936L0,1.178.524,1.7,5.239,6.417l.241-.241A3.575,3.575,0,0,0,5.271,1.146Z" transform="translate(15.207 39.921)" fill="#f70031"/>
        <path id="Path-14" data-name="Path" d="M6.447,7.312a.867.867,0,0,1-.609-.251L.252,1.471A.861.861,0,1,1,1.47.255L7.056,5.841a.866.866,0,0,1,0,1.221A.854.854,0,0,1,6.447,7.312Z" transform="translate(14.008 40.516)" fill="#161616"/>
        <circle id="Oval" cx="15.363" cy="15.363" r="15.363" transform="translate(17.255 22.577) rotate(-45)" fill="#77cbd2" opacity="0.74"/>
        <g id="Group-14" data-name="Group" transform="translate(18.391 2.299)">
          <path id="Path-15" data-name="Path" d="M32.972,5.657a19.315,19.315,0,1,0,0,27.315A19.315,19.315,0,0,0,32.972,5.657Z" transform="translate(1.237 1.003)" fill="#fff"/>
          <path id="Shape-5" data-name="Shape" d="M20.225,40.45A20.224,20.224,0,0,1,5.917,5.917,20.235,20.235,0,0,1,34.533,34.535,20.1,20.1,0,0,1,20.225,40.45Zm0-38.611a18.388,18.388,0,0,0-13.008,31.4A18.4,18.4,0,0,0,33.235,7.219,18.279,18.279,0,0,0,20.226,1.838Z" transform="translate(0.326 0.093)" fill="#161616"/>
        </g>
        <g id="Group-15" data-name="Group" transform="translate(17.092)">
          <circle id="Oval-2" data-name="Oval" cx="15.363" cy="15.363" r="15.363" transform="translate(0.123 22.618) rotate(-45)" fill="#4a90e2" opacity="0.74"/>
          <path id="Shape-6" data-name="Shape" d="M16.111,32.225A16.113,16.113,0,0,1,4.717,4.722,16.111,16.111,0,1,1,27.5,27.5,16,16,0,0,1,16.111,32.225Zm0-30.729A14.618,14.618,0,0,0,5.774,26.448,14.617,14.617,0,1,0,26.445,5.777,14.52,14.52,0,0,0,16.111,1.5Z" transform="translate(5.74 6.503)" fill="#161616"/>
        </g>
      </g>
    </g>
  </g>
</svg>
