<svg id="asset_connect" data-name="asset / connect" xmlns="http://www.w3.org/2000/svg" xmlns:xlink="http://www.w3.org/1999/xlink" width="200" height="200" viewBox="0 0 200 200">
  <defs>
    <clipPath id="clip-path">
      <rect id="Mask" width="200" height="200" fill="none"/>
    </clipPath>
  </defs>
  <g id="ilustration_-_connect" data-name="ilustration - connect">
    <rect id="Mask-2" data-name="Mask" width="200" height="200" fill="none"/>
    <g id="ilustration_-_connect-2" data-name="ilustration - connect" clip-path="url(#clip-path)">
      <path id="Path" d="M165.047,88.449a34.928,34.928,0,0,0,1.676-4.091C172.266,68,163.883,48.4,146.232,43.674,144.325,19.708,127.483,3.268,108.462.461,86.691-2.749,66.748,11.08,60.112,33.061c-8-2.834-15.792-2.488-23.137,1.8a28.649,28.649,0,0,0-9.116,6.806,31.835,31.835,0,0,0-7.688,15.779A25.169,25.169,0,0,0,15.59,58.47C7.085,61.52,1.719,67.8.247,77.255A27.811,27.811,0,0,0,2.211,91.39a21.847,21.847,0,0,0,23.118,13.288,2.277,2.277,0,0,1,1.583.491c.507,14.989,7.785,28.246,18.7,35.819,17.518,12.152,40.057,8.408,54.276-8.255,6.093,6.232,13.343,9.259,21.861,8.16,8.469-1.093,15.046-5.766,19.844-13.366a44.8,44.8,0,0,0,6.491,1.693c8.509.931,15.362-2.493,20.488-10.105a5.691,5.691,0,0,1,.644-.691l2.2-5.04a67.3,67.3,0,0,0,.933-7.646A23,23,0,0,0,165.047,88.449Z" transform="translate(11.17 23.991)" fill="#292929"/>
      <g id="Group" transform="translate(116.789 97.947)">
        <g id="Group-2" data-name="Group">
          <path id="Path-2" data-name="Path" d="M40.665,38.96H65.427A10.292,10.292,0,0,0,67.541,18.6a10.535,10.535,0,0,0,.091-1.322,10.649,10.649,0,0,0-19.158-6.413A11.759,11.759,0,0,0,25.2,9.535a11.965,11.965,0,0,0,.029,4.583,7.338,7.338,0,0,0-12.709,4.509,9.866,9.866,0,0,0-5.72.4A10.43,10.43,0,0,0,.008,28.259,10.293,10.293,0,0,0,10.292,38.965H34.016" transform="translate(1.552 1.172)" fill="#9b9b9b"/>
          <path id="Path-3" data-name="Path" d="M66.476,41.067H41.714a1.053,1.053,0,0,1,0-2.105H66.476a9.24,9.24,0,0,0,1.9-18.282,1.05,1.05,0,0,1-.829-1.158,9.742,9.742,0,0,0,.082-1.194,9.6,9.6,0,0,0-17.265-5.779A1.052,1.052,0,0,1,48.476,12a10.706,10.706,0,0,0-21.187-1.215,10.867,10.867,0,0,0,.027,4.181,1.054,1.054,0,0,1-1.8.926A6.233,6.233,0,0,0,20.9,13.869a6.306,6.306,0,0,0-6.276,5.882,1.052,1.052,0,0,1-1.278.958,8.744,8.744,0,0,0-5.122.352,9.408,9.408,0,0,0-6.112,8.291,9.241,9.241,0,0,0,9.232,9.611H35.07a1.053,1.053,0,1,1,0,2.105H11.344A11.345,11.345,0,0,1,.009,29.269,11.538,11.538,0,0,1,7.483,19.09a10.953,10.953,0,0,1,5.2-.629,8.38,8.38,0,0,1,12.314-5.625,13.506,13.506,0,0,1,.223-2.44A12.808,12.808,0,0,1,50.2,9.617a11.581,11.581,0,0,1,7.819-3A11.726,11.726,0,0,1,69.731,18.328c0,.175,0,.349-.015.524a11.344,11.344,0,0,1-3.24,22.215Z" transform="translate(0.503 0.118)" fill="#161616"/>
        </g>
        <g id="Group-3" data-name="Group" transform="translate(12.632 16.842)">
          <path id="Path-4" data-name="Path" d="M.527,15.065H.492A.526.526,0,0,1,0,14.505,6.347,6.347,0,0,1,6.965,8.878a6.759,6.759,0,0,1,.859.112,4.788,4.788,0,0,1,4.979-3.3,5.093,5.093,0,0,1,2.451.8c0-.04,0-.078.006-.116C15.515,2.6,19.039-.231,23.138.015a.526.526,0,0,1,.491.56.515.515,0,0,1-.56.491,6.139,6.139,0,0,0-6.758,5.383,5.5,5.5,0,0,0,.048,1.162.526.526,0,0,1-.914.427,3.983,3.983,0,0,0-2.712-1.3A3.675,3.675,0,0,0,8.746,9.7a.528.528,0,0,1-.661.436,5.955,5.955,0,0,0-1.192-.2A5.3,5.3,0,0,0,1.05,14.579.52.52,0,0,1,.527,15.065Z" transform="translate(0.515 0.082)" fill="#161616"/>
        </g>
        <g id="Group-4" data-name="Group" transform="translate(60.053 18.947)">
          <path id="Path-5" data-name="Path" d="M.527,5.69a.576.576,0,0,1-.118-.013.525.525,0,0,1-.4-.629,6.179,6.179,0,0,1,.463-1.32C2.125.313,6.586-.995,10.414.814a.527.527,0,0,1-.448.954C6.654.207,2.82,1.29,1.424,4.186a5.1,5.1,0,0,0-.385,1.1A.52.52,0,0,1,.527,5.69Z" transform="translate(0.902 0.738)" fill="#161616"/>
        </g>
      </g>
      <g id="Group-5" data-name="Group" transform="translate(21.053 118)">
        <g id="Group-6" data-name="Group" transform="translate(0 0.316)">
          <path id="Combined_Shape" data-name="Combined Shape" d="M16.524,17.808a1.053,1.053,0,0,1,0-2.105h3.7a1.053,1.053,0,0,1,0,2.105Zm0-3.924a1.053,1.053,0,1,1,0-2.105H36.77a1.053,1.053,0,1,1,0,2.105Zm-4.868,0a1.053,1.053,0,0,1,0-2.105H12.88a1.053,1.053,0,1,1,0,2.105Zm-6.848,0a1.053,1.053,0,1,1,0-2.105H7.876a1.053,1.053,0,0,1,0,2.105Zm26.6-3.929a1.053,1.053,0,1,1,0-2.105H36.77a1.053,1.053,0,1,1,0,2.105Zm-6.221,0a1.053,1.053,0,1,1,0-2.105h3.044a1.053,1.053,0,1,1,0,2.105Zm-24.139,0a1.053,1.053,0,1,1,0-2.105H22.169a1.053,1.053,0,0,1,0,2.105ZM16.527,6.032a1.053,1.053,0,1,1,0-2.105H27.11a1.053,1.053,0,0,1,0,2.105Zm7.936-3.927a1.053,1.053,0,0,1,0-2.105H27.11a1.053,1.053,0,0,1,0,2.105Z" transform="translate(0.101 0.811)" fill="#9b9b9b"/>
        </g>
      </g>
      <g id="Group-7" data-name="Group" transform="translate(116.789 29.474)">
        <g id="Group-8" data-name="Group" transform="translate(0.105 0.421)">
          <path id="Combined_Shape-2" data-name="Combined Shape" d="M31.918,9.956a1.053,1.053,0,0,1,0-2.105h5.36a1.053,1.053,0,0,1,0,2.105Zm-6.221,0a1.053,1.053,0,1,1,0-2.105h3.045a1.053,1.053,0,0,1,0,2.105Zm-24.137,0a1.053,1.053,0,0,1,0-2.105H22.676a1.053,1.053,0,1,1,0,2.105ZM17.033,6.029a1.053,1.053,0,0,1,0-2.105H27.617a1.053,1.053,0,1,1,0,2.105Zm-6.768,0a1.053,1.053,0,1,1,0-2.105h3.7a1.053,1.053,0,1,1,0,2.105Zm2.5-3.924a1.053,1.053,0,0,1,0-2.105H33.015a1.053,1.053,0,1,1,0,2.105Zm-4.867,0A1.053,1.053,0,1,1,7.9,0H9.122a1.053,1.053,0,0,1,0,2.105Zm-6.848,0A1.053,1.053,0,1,1,1.053,0H4.118a1.053,1.053,0,1,1,0,2.105Z" transform="translate(0.526 0.503)" fill="#9b9b9b"/>
        </g>
      </g>
      <g id="shape" transform="translate(42 41)">
        <g id="Combined_Shape-3" data-name="Combined Shape" transform="translate(0.201 0.195)" fill="#fff" stroke-miterlimit="10">
          <path d="M 83.92140960693359 118.813606262207 C 80.20551300048828 118.813606262207 76.71183776855469 117.3668823242188 74.08391571044922 114.7399291992188 C 71.45623779296875 112.1132202148438 70.00910186767578 108.6200790405273 70.00910186767578 104.9039993286133 C 70.00910186767578 101.1883087158203 71.45619201660156 97.69489288330078 74.08379364013672 95.06729888916016 C 74.36212921142578 94.78895568847656 74.65129089355469 94.52292633056641 74.95034790039063 94.26991271972656 L 69.98995208740234 84.48029327392578 C 66.73061370849609 85.83309173583984 63.27368545532227 86.51891326904297 59.71229934692383 86.51891326904297 C 56.09416198730469 86.51891326904297 52.58328247070313 85.81044769287109 49.27720642089844 84.41323089599609 C 46.08425140380859 83.0631103515625 43.21736145019531 81.13105010986328 40.75603866577148 78.67064666748047 C 40.12378692626953 78.03839874267578 39.52099990844727 77.37301635742188 38.95607376098633 76.68414306640625 L 27.05533981323242 86.56074523925781 C 27.96087455749512 88.49756622314453 28.43649864196777 90.63817596435547 28.43649864196777 92.80080413818359 C 28.43649864196777 96.73240661621094 26.90566825866699 100.428466796875 24.12600708007813 103.2081146240234 C 21.34635925292969 105.9877700805664 17.65029907226563 107.5186004638672 13.71869850158691 107.5186004638672 C 9.786514282226563 107.5186004638672 6.090144634246826 105.9877700805664 3.310498476028442 103.2081146240234 C 0.5308370590209961 100.428466796875 -0.9999937415122986 96.73240661621094 -0.9999937415122986 92.80080413818359 C -0.9999937415122986 88.86921691894531 0.5308370590209961 85.17315673828125 3.310498476028442 82.39349365234375 C 6.090729236602783 79.61325073242188 9.78709888458252 78.08209228515625 13.71869850158691 78.08209228515625 C 17.59875106811523 78.08209228515625 21.25029754638672 79.57445526123047 24.01796531677246 82.28740692138672 L 36.04056549072266 72.31085968017578 C 35.66658020019531 71.60789489746094 35.32174301147461 70.88407135009766 35.01145172119141 70.15026092529297 C 33.61357498168945 66.84395599365234 32.90480804443359 63.3321418762207 32.90480804443359 59.71231079101563 C 32.90480804443359 56.09537124633789 33.61360549926758 52.58591079711914 35.01151275634766 49.28140258789063 C 36.07347106933594 46.76993179321289 37.50089263916016 44.4526252746582 39.26108551025391 42.38052749633789 L 22.68118858337402 25.79836273193359 C 21.62883377075195 26.5633430480957 20.48116493225098 27.1724681854248 19.25868225097656 27.61398696899414 C 17.74589920043945 28.16037178039551 16.15328407287598 28.43740272521973 14.52509880065918 28.43740272521973 C 10.80942153930664 28.43740272521973 7.315698623657227 26.99000358581543 4.687498569488525 24.36181831359863 C 2.059898614883423 21.73421859741211 0.6128062605857849 18.24080276489258 0.6128062605857849 14.52509498596191 C 0.6128062605857849 10.8090181350708 2.059944629669189 7.315879821777344 4.687636852264404 4.689172267913818 C 7.315544605255127 2.062233924865723 10.8092212677002 0.6155108213424683 14.52509880065918 0.6155108213424683 C 18.24039077758789 0.6155108213424683 21.73376083374023 2.062233924865723 24.36166763305664 4.689172267913818 C 26.98936080932617 7.315879821777344 28.43649864196777 10.8090181350708 28.43649864196777 14.52509498596191 C 28.43649864196777 17.20454216003418 27.68941688537598 19.76840591430664 26.26815986633301 21.9920825958252 L 43.01348114013672 38.73969650268555 C 44.91878509521484 37.21907043457031 47.02138519287109 35.96759796142578 49.27582168579102 35.01338958740234 C 52.58295822143555 33.61421966552734 56.09425354003906 32.90480422973633 59.71229934692383 32.90480422973633 C 61.40834426879883 32.90480422973633 63.09669494628906 33.06270980834961 64.743408203125 33.37476348876953 L 68.24161529541016 23.30699920654297 C 67.35189819335938 22.76474571228027 66.52676391601563 22.11538124084473 65.78053283691406 21.36944961547852 C 63.305419921875 18.89434242248535 61.94240570068359 15.60358810424805 61.94240570068359 12.10320281982422 C 61.94240570068359 8.603403091430664 63.305419921875 5.312956809997559 65.78038787841797 2.837987661361694 C 68.25537872314453 0.3630185127258301 71.54582214355469 -0.9999968409538269 75.04560852050781 -0.9999968409538269 C 78.54537200927734 -0.9999968409538269 81.83582305908203 0.3630185127258301 84.31080627441406 2.837987661361694 C 86.78577423095703 5.312956809997559 88.1488037109375 8.603418350219727 88.1488037109375 12.10320281982422 C 88.1488037109375 15.60300350189209 86.78577423095703 18.8934497833252 84.31080627441406 21.3684024810791 C 81.83583831787109 23.8433723449707 78.54538726806641 25.2064037322998 75.04560852050781 25.2064037322998 C 74.41351318359375 25.2064037322998 73.78224182128906 25.16138648986816 73.15988922119141 25.07220458984375 L 69.76231384277344 34.85202789306641 C 69.89295959472656 34.90487670898438 70.02301025390625 34.95867538452148 70.15214538574219 35.0132942199707 C 73.34532928466797 36.36483383178711 76.21188354492188 38.29814147949219 78.67245483398438 40.7596321105957 C 81.13245391845703 43.22057342529297 83.06449890136719 46.0877571105957 84.41494750976563 49.28155517578125 C 85.81197357177734 52.58617401123047 86.51983642578125 56.09564971923828 86.51891326904297 59.71257400512695 C 86.51891326904297 60.40983200073242 86.49211120605469 61.10997772216797 86.43901824951172 61.80386734008789 L 91.75764465332031 62.54553604125977 C 92.40622711181641 60.74153518676758 93.45746612548828 59.08412933349609 94.82969665527344 57.71189498901367 C 97.30466461181641 55.2369270324707 100.5951156616211 53.87389373779297 104.0949020385742 53.87389373779297 C 107.5946807861328 53.87389373779297 110.8851470947266 55.2369270324707 113.3601150512695 57.71189498901367 C 115.8350830078125 60.18686294555664 117.198112487793 63.47732543945313 117.198112487793 66.97711181640625 C 117.198112487793 70.47689819335938 115.8350830078125 73.76734161376953 113.3601150512695 76.2423095703125 C 110.8851470947266 78.71727752685547 107.5946960449219 80.08029174804688 104.0949020385742 80.08029174804688 C 100.5951156616211 80.08029174804688 97.30466461181641 78.71727752685547 94.82969665527344 76.2423095703125 C 92.52996063232422 73.94257354736328 91.19028472900391 70.93876647949219 91.01210784912109 67.71714019775391 L 85.53179168701172 66.95292663574219 C 85.22782135009766 68.03782653808594 84.8529052734375 69.10976409912109 84.4132080078125 70.15009307861328 C 83.06285095214844 73.34363555908203 81.13076019287109 76.21026611328125 78.67051696777344 78.67050933837891 C 77.42174530029297 79.91926574707031 76.05590057373047 81.04128265380859 74.60090637207031 82.01438140869141 L 79.50983428955078 91.70243835449219 C 80.92313385009766 91.23036193847656 82.40203857421875 90.99169921875 83.92140960693359 90.99169921875 C 87.63690185546875 90.99169921875 91.13003540039063 92.43915557861328 93.75733184814453 95.06743621826172 C 96.38539123535156 97.69546508789063 97.83280944824219 101.1888809204102 97.83280944824219 104.9039993286133 C 97.83280944824219 108.6189422607422 96.38534545898438 112.1117553710938 93.75706481933594 114.7390518188477 C 91.12960815429688 117.3665084838867 87.63651275634766 118.813606262207 83.92140960693359 118.813606262207 Z M 83.92140960693359 96.35140228271484 C 79.20548248291016 96.35140228271484 75.36880493164063 100.1880798339844 75.36880493164063 104.9039993286133 C 75.36880493164063 109.6179428100586 79.20548248291016 113.4530029296875 83.92140960693359 113.4530029296875 C 88.63681793212891 113.4530029296875 92.47309875488281 109.6179428100586 92.47309875488281 104.9039993286133 C 92.47309875488281 100.1880798339844 88.63681793212891 96.35140228271484 83.92140960693359 96.35140228271484 Z M 13.71869850158691 83.44180297851563 C 8.55812931060791 83.44180297851563 4.35969877243042 87.64023590087891 4.35969877243042 92.80080413818359 C 4.35969877243042 97.96087646484375 8.55812931060791 102.1589126586914 13.71869850158691 102.1589126586914 C 18.87877464294434 102.1589126586914 23.07680702209473 97.96087646484375 23.07680702209473 92.80080413818359 C 23.07680702209473 87.64023590087891 18.87877464294434 83.44180297851563 13.71869850158691 83.44180297851563 Z M 59.71229934692383 38.26449584960938 C 47.88594436645508 38.26449584960938 38.26449966430664 47.88674163818359 38.26449966430664 59.71409606933594 C 38.26449966430664 71.54145050048828 47.88594436645508 81.16371154785156 59.71229934692383 81.16371154785156 C 69.09478759765625 81.16371154785156 77.34580993652344 75.06676483154297 80.15686798095703 66.20341491699219 L 78.29238891601563 65.94342041015625 L 77.30194854736328 65.80531311035156 L 77.44008636474609 64.81486511230469 L 77.88558959960938 61.62075805664063 L 78.02372741699219 60.63037109375 L 79.01411437988281 60.76847839355469 L 81.11722564697266 61.06175231933594 C 81.1451416015625 60.61314010620117 81.15920257568359 60.1626091003418 81.15920257568359 59.71409606933594 C 81.15920257568359 47.88674163818359 71.53816223144531 38.26449584960938 59.71229934692383 38.26449584960938 Z M 104.0949020385742 59.23360443115234 C 99.82512664794922 59.23360443115234 96.35140991210938 62.70854187011719 96.35140991210938 66.97980499267578 C 96.35140991210938 71.25058746337891 99.82512664794922 74.72511291503906 104.0949020385742 74.72511291503906 C 108.3646850585938 74.72511291503906 111.8384094238281 71.25058746337891 111.8384094238281 66.97980499267578 C 111.8384094238281 62.70854187011719 108.3646850585938 59.23360443115234 104.0949020385742 59.23360443115234 Z M 14.52509880065918 5.975203037261963 C 9.809175491333008 5.975203037261963 5.972498416900635 9.810665130615234 5.972498416900635 14.52509498596191 C 5.972498416900635 19.24052619934082 9.809175491333008 23.07680320739746 14.52509880065918 23.07680320739746 C 19.24053001403809 23.07680320739746 23.07680702209473 19.24052619934082 23.07680702209473 14.52509498596191 C 23.07680702209473 9.810665130615234 19.24053001403809 5.975203037261963 14.52509880065918 5.975203037261963 Z M 75.04560852050781 4.359695434570313 C 70.77581787109375 4.359695434570313 67.30210113525391 7.834633827209473 67.30210113525391 12.10589504241943 C 67.30210113525391 16.37668037414551 70.77581787109375 19.85120391845703 75.04560852050781 19.85120391845703 C 79.31537628173828 19.85120391845703 82.78910064697266 16.37668037414551 82.78910064697266 12.10589504241943 C 82.78910064697266 7.834633827209473 79.31537628173828 4.359695434570313 75.04560852050781 4.359695434570313 Z" stroke="none"/>
          <path d="M 83.92140960693359 117.813606262207 C 87.36929321289063 117.813606262207 90.61109161376953 116.4708023071289 93.05010986328125 114.0317993164063 C 95.48911285400391 111.5937042236328 96.83280944824219 108.3519058227539 96.83280944824219 104.9039993286133 C 96.83280944824219 101.4552001953125 95.48911285400391 98.21340179443359 93.05010986328125 95.77440643310547 C 90.61199188232422 93.33540344238281 87.36929321289063 91.99170684814453 83.92140960693359 91.99170684814453 C 82.11006927490234 91.99170684814453 80.35533142089844 92.36250305175781 78.74427032470703 93.06780242919922 L 79.01190948486328 92.93220520019531 L 73.30131530761719 81.66200256347656 C 74.98435211181641 80.61932373046875 76.54381561279297 79.38300323486328 77.96339416503906 77.96340179443359 C 80.33309173583984 75.59370422363281 82.19251251220703 72.83430480957031 83.49211120605469 69.76080322265625 C 84.03179168701172 68.48384094238281 84.46465301513672 67.1749267578125 84.78964996337891 65.83975982666016 L 91.99245452880859 66.84416198730469 C 91.99197387695313 66.88848114013672 91.99169158935547 66.93270111083984 91.99169158935547 66.97710418701172 C 91.99169158935547 70.20989990234375 93.25079345703125 73.24920654296875 95.53681182861328 75.53520202636719 C 97.82279205322266 77.82120513916016 100.8620910644531 79.08029937744141 104.0949096679688 79.08029937744141 C 107.3277130126953 79.08029937744141 110.3670120239258 77.82120513916016 112.6529922485352 75.53520202636719 C 114.9390106201172 73.24920654296875 116.198112487793 70.20989990234375 116.198112487793 66.97710418701172 C 116.198112487793 63.74430465698242 114.9390106201172 60.70500183105469 112.6529922485352 58.41900253295898 C 110.3670120239258 56.13300323486328 107.3277130126953 54.8739013671875 104.0949096679688 54.8739013671875 C 100.8620910644531 54.8739013671875 97.82279205322266 56.13300323486328 95.53681182861328 58.41900253295898 C 94.05741119384766 59.89840316772461 93.00809478759766 61.69334411621094 92.45177459716797 63.65200424194336 L 85.35340881347656 62.66216278076172 C 85.46356964111328 61.68880462646484 85.51891326904297 60.70478439331055 85.51891326904297 59.71230316162109 C 85.51979064941406 56.23020172119141 84.83849334716797 52.85160446166992 83.49391174316406 49.67100143432617 C 82.19431304931641 46.59750366210938 80.33489227294922 43.83720397949219 77.9652099609375 41.46660232543945 C 75.59551239013672 39.09600448608398 72.83521270751953 37.23480224609375 69.76261138916016 35.93430328369141 C 69.34506988525391 35.7577018737793 68.92399597167969 35.59248352050781 68.49985504150391 35.43876266479492 L 72.49505615234375 23.9387035369873 C 73.32413482666016 24.11564254760742 74.17781066894531 24.2064037322998 75.04559326171875 24.2064037322998 C 78.27841186523438 24.2064037322998 81.31771087646484 22.94730377197266 83.60369110107422 20.66130256652832 C 85.88970947265625 18.37530326843262 87.14881134033203 15.33600330352783 87.14881134033203 12.10320281982422 C 87.14881134033203 8.870403289794922 85.88970947265625 5.831103324890137 83.60369110107422 3.545103073120117 C 81.31771087646484 1.259103178977966 78.27841186523438 3.131103539999458e-06 75.04559326171875 3.131103539999458e-06 C 71.81281280517578 3.131103539999458e-06 68.77349090576172 1.259103178977966 66.48751068115234 3.545103073120117 C 64.20149230957031 5.831103324890137 62.9423942565918 8.870403289794922 62.9423942565918 12.10320281982422 C 62.9423942565918 15.33690357208252 64.20149230957031 18.3762035369873 66.48751068115234 20.66220283508301 C 67.37559509277344 21.5499439239502 68.37739562988281 22.28278350830078 69.46002960205078 22.8471622467041 L 65.39999389648438 34.53186416625977 C 63.54693222045898 34.11498260498047 61.64555358886719 33.90480422973633 59.71231079101563 33.90480422973633 C 56.22749328613281 33.90480422973633 52.84799194335938 34.5879020690918 49.66559219360352 35.93430328369141 C 47.21505355834961 36.97150421142578 44.9630126953125 38.36552429199219 42.94949340820313 40.09000396728516 L 24.97487258911133 22.11294364929199 C 26.57367324829102 19.92122268676758 27.43649291992188 17.2897834777832 27.43649291992188 14.52510356903076 C 27.43649291992188 11.07630348205566 26.09369277954102 7.834503173828125 23.65471267700195 5.396403312683105 C 21.2156925201416 2.958303213119507 17.97389221191406 1.615503072738647 14.52511215209961 1.615503072738647 C 11.07631206512451 1.615503072738647 7.833592414855957 2.958303213119507 5.39459228515625 5.396403312683105 C 2.955612421035767 7.834503173828125 1.612812399864197 11.07630348205566 1.612812399864197 14.52510356903076 C 1.612812399864197 17.97390365600586 2.955612421035767 21.2157039642334 5.39459228515625 23.65470314025879 C 7.833592414855957 26.09370231628418 11.07631206512451 27.43740272521973 14.52511215209961 27.43740272521973 C 17.56853294372559 27.43740272521973 20.45229148864746 26.39026260375977 22.76435279846191 24.46722221374512 L 40.63163375854492 42.33696365356445 C 38.65391159057617 44.50442123413086 37.07615280151367 46.96630477905273 35.93251419067383 49.67100143432617 C 34.58701324462891 52.85160446166992 33.90479278564453 56.23020172119141 33.90479278564453 59.71230316162109 C 33.90479278564453 63.19800186157227 34.58701324462891 66.57839965820313 35.93251419067383 69.76080322265625 C 36.33925247192383 70.72276306152344 36.80093383789063 71.65376281738281 37.31609344482422 72.55186462402344 L 23.93997192382813 83.65158081054688 C 23.77159309387207 83.46394348144531 23.59765243530273 83.28026580810547 23.41799163818359 83.10060119628906 C 20.8268928527832 80.50950622558594 17.38259315490723 79.08209991455078 13.71871280670166 79.08209991455078 C 10.05391216278076 79.08209991455078 6.608692646026611 80.50950622558594 4.017612457275391 83.10060119628906 C 1.42649245262146 85.69170379638672 1.242919915966922e-05 89.13690185546875 1.242919915966922e-05 92.80080413818359 C 1.242919915966922e-05 96.46560668945313 1.42649245262146 99.90990447998047 4.017612457275391 102.5009994506836 C 6.608692646026611 105.0921020507813 10.05391216278076 106.5186004638672 13.71871280670166 106.5186004638672 C 17.38259315490723 106.5186004638672 20.82779312133789 105.0921020507813 23.41889190673828 102.5009994506836 C 26.01001167297363 99.90990447998047 27.43649291992188 96.46560668945313 27.43649291992188 92.80080413818359 C 27.43649291992188 90.49410247802734 26.87053298950195 88.27386474609375 25.8047924041748 86.29907989501953 L 39.10659408569336 75.25968170166016 C 39.82469177246094 76.208984375 40.61095428466797 77.11136627197266 41.46299362182617 77.96340179443359 C 43.83271408081055 80.33220672607422 46.59301376342773 82.1925048828125 49.6664924621582 83.49210357666016 C 52.84799194335938 84.83670043945313 56.22749328613281 85.51890563964844 59.71231079101563 85.51890563964844 C 63.19799423217773 85.51890563964844 66.57929229736328 84.83670043945313 69.76081085205078 83.49210357666016 C 69.99417114257813 83.39342498779297 70.22566986083984 83.29148101806641 70.45537567138672 83.18636322021484 L 76.1328125 94.39110565185547 L 77.46343231201172 93.71684265136719 C 76.49869537353516 94.27596282958984 75.60043334960938 94.96488189697266 74.7908935546875 95.77440643310547 C 72.35189056396484 98.21340179443359 71.00910949707031 101.4552001953125 71.00910949707031 104.9039993286133 C 71.00910949707031 108.3528060913086 72.35189056396484 111.5946044921875 74.7908935546875 114.0326995849609 C 77.22991180419922 116.4708023071289 80.47261047363281 117.813606262207 83.92140960693359 117.813606262207 M 83.92140960693359 95.35140228271484 C 89.18820953369141 95.35140228271484 93.47309112548828 99.63719940185547 93.47309112548828 104.9039993286133 C 93.47309112548828 110.1699066162109 89.18820953369141 114.4530029296875 83.92140960693359 114.4530029296875 C 78.65369415283203 114.4530029296875 74.36881256103516 110.1699066162109 74.36881256103516 104.9039993286133 C 74.36881256103516 99.63719940185547 78.65369415283203 95.35140228271484 83.92140960693359 95.35140228271484 M 13.71871280670166 82.44180297851563 C 19.43009185791016 82.44180297851563 24.07681274414063 87.08940124511719 24.07681274414063 92.80080413818359 C 24.07681274414063 98.51219940185547 19.43009185791016 103.1589050292969 13.71871280670166 103.1589050292969 C 8.006412506103516 103.1589050292969 3.359692335128784 98.51219940185547 3.359692335128784 92.80080413818359 C 3.359692335128784 87.08940124511719 8.006412506103516 82.44180297851563 13.71871280670166 82.44180297851563 M 59.71231079101563 37.26450347900391 C 72.09001159667969 37.26450347900391 82.15921020507813 47.33550262451172 82.15921020507813 59.71410369873047 C 82.15921020507813 60.55350494384766 82.11289215087891 61.38194274902344 82.02271270751953 62.19770431518555 L 78.87599182128906 61.75890350341797 L 78.43051147460938 64.9530029296875 L 81.43721008300781 65.37228393554688 C 78.92313385009766 75.02072143554688 70.1363525390625 82.16370391845703 59.71231079101563 82.16370391845703 C 47.33461380004883 82.16370391845703 37.26449203491211 72.09270477294922 37.26449203491211 59.71410369873047 C 37.26449203491211 47.33550262451172 47.33461380004883 37.26450347900391 59.71231079101563 37.26450347900391 M 104.0949096679688 58.23360443115234 C 108.9162139892578 58.23360443115234 112.8384094238281 62.15670394897461 112.8384094238281 66.97980499267578 C 112.8384094238281 71.802001953125 108.9162139892578 75.72510528564453 104.0949096679688 75.72510528564453 C 99.27361297607422 75.72510528564453 95.35140991210938 71.802001953125 95.35140991210938 66.97980499267578 C 95.35140991210938 62.15670394897461 99.27361297607422 58.23360443115234 104.0949096679688 58.23360443115234 M 14.52511215209961 4.975203037261963 C 19.79189300537109 4.975203037261963 24.07681274414063 9.25920295715332 24.07681274414063 14.52510356903076 C 24.07681274414063 19.79190254211426 19.79189300537109 24.07680320739746 14.52511215209961 24.07680320739746 C 9.257411956787109 24.07680320739746 4.972492218017578 19.79190254211426 4.972492218017578 14.52510356903076 C 4.972492218017578 9.25920295715332 9.257411956787109 4.975203037261963 14.52511215209961 4.975203037261963 M 75.04559326171875 3.359703063964844 C 79.86691284179688 3.359703063964844 83.78909301757813 7.282803058624268 83.78909301757813 12.10590267181396 C 83.78909301757813 16.92810249328613 79.86691284179688 20.85120391845703 75.04559326171875 20.85120391845703 C 70.22431182861328 20.85120391845703 66.30209350585938 16.92810249328613 66.30209350585938 12.10590267181396 C 66.30209350585938 7.282803058624268 70.22431182861328 3.359703063964844 75.04559326171875 3.359703063964844 M 83.92140960693359 119.813606262207 C 79.93849182128906 119.813606262207 76.19373321533203 118.2629013061523 73.376953125 115.4471817016602 C 70.56031036376953 112.6315841674805 69.00910949707031 108.8872833251953 69.00910949707031 104.9039993286133 C 69.00910949707031 100.9211807250977 70.56021118164063 97.17666625976563 73.37667083740234 94.36018371582031 C 73.48649597167969 94.25035858154297 73.59791564941406 94.14231109619141 73.71084594726563 94.03610229492188 L 69.51001739501953 85.74552917480469 C 66.38382720947266 86.92277526855469 63.09321594238281 87.51890563964844 59.71231079101563 87.51890563964844 C 55.95965194702148 87.51890563964844 52.31779098510742 86.78390502929688 48.88791275024414 85.33432006835938 C 45.57563400268555 83.93376159667969 42.60193252563477 81.92976379394531 40.04905319213867 79.37788391113281 C 39.63103866577148 78.95986938476563 39.22548294067383 78.52792358398438 38.83453369140625 78.08451080322266 L 28.27277755737305 86.84989929199219 C 29.0373477935791 88.72556304931641 29.43649291992188 90.75405120849609 29.43649291992188 92.80080413818359 C 29.43649291992188 96.99951934814453 27.8016529083252 100.9467010498047 24.83309173583984 103.9152221679688 C 21.86457252502441 106.8837661743164 17.91739273071289 108.5186004638672 13.71871280670166 108.5186004638672 C 9.519412040710449 108.5186004638672 5.571912288665771 106.8837661743164 2.603392362594604 103.9152069091797 C -0.3651475608348846 100.9467010498047 -1.999987602233887 96.99951934814453 -1.999987602233887 92.80080413818359 C -1.999987602233887 88.60208129882813 -0.3651475608348846 84.65489959716797 2.603412389755249 81.68638610839844 C 5.572492599487305 78.71726226806641 9.519992828369141 77.08209991455078 13.71871280670166 77.08209991455078 C 17.55935096740723 77.08209991455078 21.18999481201172 78.45090484619141 24.05398750305176 80.95804595947266 L 34.78457260131836 72.05363464355469 C 34.53817367553711 71.55587005615234 34.30621719360352 71.05007934570313 34.09041213989258 70.53968048095703 C 32.64013290405273 67.10946655273438 31.90479278564453 63.46662139892578 31.90479278564453 59.71230316162109 C 31.90479278564453 55.96082305908203 32.64019393920898 52.32026290893555 34.09055328369141 48.89178466796875 C 35.0717658996582 46.57121276855469 36.35396957397461 44.41021728515625 37.91296005249023 42.44655227661133 L 22.5604076385498 27.09188461303711 C 21.6312198638916 27.6885871887207 20.64017868041992 28.17825508117676 19.59839248657227 28.55452346801758 C 17.97635269165039 29.1403636932373 16.26945304870605 29.43740272521973 14.52511215209961 29.43740272521973 C 10.54229259490967 29.43740272521973 6.797432422637939 27.88598251342773 3.980372428894043 25.06892395019531 C 1.163912415504456 22.25242233276367 -0.3871875703334808 18.50790405273438 -0.3871875703334808 14.52510356903076 C -0.3871875703334808 10.54186344146729 1.163992404937744 6.797543048858643 3.980632543563843 3.981943130493164 C 6.797412395477295 1.166203141212463 10.5421724319458 -0.3844968676567078 14.52511215209961 -0.3844968676567078 C 18.50743293762207 -0.3844968676567078 22.25187301635742 1.166203141212463 25.06865310668945 3.98192310333252 C 27.88531303405762 6.797543048858643 29.43649291992188 10.54186344146729 29.43649291992188 14.52510356903076 C 29.43649291992188 17.12286567687988 28.78093528747559 19.61978340148926 27.52774810791016 21.83755302429199 L 43.09878158569336 37.41070175170898 C 44.88391876220703 36.07808685302734 46.82376480102539 34.96535110473633 48.88603210449219 34.09248352050781 C 52.3172721862793 32.64080429077148 55.95967102050781 31.9048023223877 59.71231079101563 31.9048023223877 C 61.17954254150391 31.9048023223877 62.64126205444336 32.018798828125 64.07745361328125 32.24459457397461 L 67.04006195068359 23.71826553344727 C 66.33999633789063 23.2339973449707 65.68229675292969 22.68518447875977 65.07357025146484 22.07668304443359 C 62.40945053100586 19.41258239746094 60.9423942565918 15.87070274353027 60.9423942565918 12.10320281982422 C 60.9423942565918 8.336282730102539 62.40945053100586 4.794723033905029 65.07331085205078 2.13088321685791 C 67.73711395263672 -0.5329568982124329 71.27867126464844 -1.999996900558472 75.04559326171875 -1.999996900558472 C 78.81251525878906 -1.999996900558472 82.35409545898438 -0.5329568982124329 85.01791381835938 2.130903244018555 C 87.68175506591797 4.794723033905029 89.14881134033203 8.336282730102539 89.14881134033203 12.10320281982422 C 89.14881134033203 15.8701229095459 87.68175506591797 19.41168403625488 85.01789093017578 22.07552337646484 C 82.35409545898438 24.7393627166748 78.81251525878906 26.2064037322998 75.04559326171875 26.2064037322998 C 74.64356994628906 26.2064037322998 74.24181365966797 26.1894588470459 73.84209442138672 26.15575218200684 L 71.01371002197266 34.29716873168945 C 74.13718414306641 35.68704223632813 76.949462890625 37.62151718139648 79.37969207763672 40.05266189575195 C 81.93115234375 42.6051025390625 83.93515014648438 45.57912445068359 85.33601379394531 48.89208221435547 C 86.78545379638672 52.32074356079102 87.51985168457031 55.9613037109375 87.51891326904297 59.71280288696289 C 87.51891326904297 60.12177658081055 87.510009765625 60.53181076049805 87.49230194091797 60.94106674194336 L 91.11576843261719 61.44634246826172 C 91.81980133056641 59.79916000366211 92.84121704101563 58.28615951538086 94.12258911132813 57.00478363037109 C 96.78641510009766 54.3409423828125 100.327995300293 52.8739013671875 104.0949096679688 52.8739013671875 C 107.8618316650391 52.8739013671875 111.4033889770508 54.3409423828125 114.0672149658203 57.00480270385742 C 116.7310562133789 59.66862487792969 118.198112487793 63.21018218994141 118.198112487793 66.97710418701172 C 118.198112487793 70.74402618408203 116.7310562133789 74.28558349609375 114.0671920776367 76.94942474365234 C 111.4033889770508 79.61326599121094 107.8618316650391 81.08029937744141 104.0949096679688 81.08029937744141 C 100.327995300293 81.08029937744141 96.78641510009766 79.61326599121094 94.12258911132813 76.94940185546875 C 91.84441375732422 74.67124176025391 90.44159698486328 71.7513427734375 90.08315277099609 68.59727478027344 L 86.24510192871094 68.06208038330078 C 85.98114013671875 68.90093994140625 85.67665100097656 69.72945404052734 85.3343505859375 70.53938293457031 C 83.93350982666016 73.85230255126953 81.92941284179688 76.8258056640625 79.37760925292969 79.37762451171875 C 78.29367065429688 80.46157836914063 77.12445831298828 81.45355987548828 75.88697814941406 82.34008026123047 L 80.02333068847656 90.50340270996094 C 81.28404235839844 90.16331481933594 82.58837890625 89.99170684814453 83.92140960693359 89.99170684814453 C 87.90407562255859 89.99170684814453 91.64836883544922 91.54322052001953 94.46456909179688 94.36044311523438 C 97.28139495849609 97.17724609375 98.83280944824219 100.9217834472656 98.83280944824219 104.9039993286133 C 98.83280944824219 108.886100769043 97.28129577636719 112.6300811767578 94.46407318115234 115.4462814331055 C 91.64781188964844 118.2625045776367 87.90361022949219 119.813606262207 83.92140960693359 119.813606262207 Z M 83.92140960693359 97.35140228271484 C 79.75688934326172 97.35140228271484 76.36881256103516 100.7394866943359 76.36881256103516 104.9039993286133 C 76.36881256103516 109.0665435791016 79.75688934326172 112.4530029296875 83.92140960693359 112.4530029296875 C 88.08543395996094 112.4530029296875 91.47309112548828 109.0665435791016 91.47309112548828 104.9039993286133 C 91.47309112548828 100.7394866943359 88.08543395996094 97.35140228271484 83.92140960693359 97.35140228271484 Z M 13.71871280670166 84.44180297851563 C 9.109532356262207 84.44180297851563 5.359692573547363 88.19164276123047 5.359692573547363 92.80080413818359 C 5.359692573547363 97.40948486328125 9.109532356262207 101.1589050292969 13.71871280670166 101.1589050292969 C 18.327392578125 101.1589050292969 22.07681274414063 97.40948486328125 22.07681274414063 92.80080413818359 C 22.07681274414063 88.19164276123047 18.327392578125 84.44180297851563 13.71871280670166 84.44180297851563 Z M 59.71231079101563 39.26450347900391 C 48.43735122680664 39.26450347900391 39.26449203491211 48.43816375732422 39.26449203491211 59.71410369873047 C 39.26449203491211 70.99004364013672 48.43735122680664 80.16370391845703 59.71231079101563 80.16370391845703 C 68.25469207763672 80.16370391845703 75.81343841552734 74.86225128173828 78.81078338623047 67.025390625 L 78.15428924560547 66.93384552001953 L 76.17341613769531 66.65760040283203 L 76.44969177246094 64.67674255371094 L 76.89517211914063 61.48264312744141 L 77.17143249511719 59.50186157226563 L 79.15221405029297 59.7780647277832 L 80.15819549560547 59.91834259033203 C 80.15886688232422 59.85024261474609 80.15921020507813 59.78212356567383 80.15921020507813 59.71410369873047 C 80.15921020507813 48.43816375732422 70.98677062988281 39.26450347900391 59.71231079101563 39.26450347900391 Z M 104.0949096679688 60.23360443115234 C 100.3765335083008 60.23360443115234 97.35140991210938 63.25994491577148 97.35140991210938 66.97980499267578 C 97.35140991210938 70.69918060302734 100.3765335083008 73.72510528564453 104.0949096679688 73.72510528564453 C 107.8132934570313 73.72510528564453 110.8384094238281 70.69918060302734 110.8384094238281 66.97980499267578 C 110.8384094238281 63.25994491577148 107.8132934570313 60.23360443115234 104.0949096679688 60.23360443115234 Z M 14.52511215209961 6.975203037261963 C 10.36059284210205 6.975203037261963 6.972492218017578 10.36208343505859 6.972492218017578 14.52510356903076 C 6.972492218017578 18.68912315368652 10.36059284210205 22.07680320739746 14.52511215209961 22.07680320739746 C 18.68913269042969 22.07680320739746 22.07681274414063 18.68912315368652 22.07681274414063 14.52510356903076 C 22.07681274414063 10.36208343505859 18.68913269042969 6.975203037261963 14.52511215209961 6.975203037261963 Z M 75.04559326171875 5.359703063964844 C 71.32720947265625 5.359703063964844 68.30209350585938 8.386043548583984 68.30209350585938 12.10590267181396 C 68.30209350585938 15.82528305053711 71.32720947265625 18.85120391845703 75.04559326171875 18.85120391845703 C 78.76396942138672 18.85120391845703 81.78909301757813 15.82528305053711 81.78909301757813 12.10590267181396 C 81.78909301757813 8.386043548583984 78.76396942138672 5.359703063964844 75.04559326171875 5.359703063964844 Z" stroke="none" fill="#161616"/>
        </g>
        <g id="Group-9" data-name="Group" transform="translate(91.6 54.2)">
          <path id="Path-6" data-name="Path" d="M10.426,20.849A10.424,10.424,0,1,1,20.849,10.426,10.435,10.435,0,0,1,10.426,20.849Z" transform="translate(2.27 2.546)" fill="#bd10e0"/>
        </g>
        <g id="Group-10" data-name="Group" transform="translate(62.8)">
          <path id="Path-7" data-name="Path" d="M10.423,20.849A10.424,10.424,0,1,1,20.849,10.426,10.434,10.434,0,0,1,10.423,20.849Z" transform="translate(2.023 1.875)" fill="#b8e986"/>
        </g>
        <g id="Group-11" data-name="Group" transform="translate(1.4 1.4)">
          <path id="Path-8" data-name="Path" d="M11.232,22.462a11.231,11.231,0,1,1,11.232-11.23A11.244,11.244,0,0,1,11.232,22.462Z" transform="translate(2.094 2.088)" fill="#4a90e2"/>
        </g>
        <g id="Group-12" data-name="Group" transform="translate(0 79.2)">
          <circle id="Oval" cx="12.038" cy="12.038" r="12.038" transform="translate(1.881 1.755)" fill="#ffc15c"/>
        </g>
        <g id="Group-13" data-name="Group" transform="translate(71 91.2)">
          <path id="Path-9" data-name="Path" d="M11.23,22.464A11.232,11.232,0,1,1,22.462,11.232,11.244,11.244,0,0,1,11.23,22.464Z" transform="translate(1.892 2.667)" fill="#ff8191"/>
        </g>
        <g id="Group-14" data-name="Group" transform="translate(34 33.6)">
          <path id="Path-10" data-name="Path" d="M24.13,48.257a24.128,24.128,0,1,1,24.127-24.13A24.156,24.156,0,0,1,24.13,48.257Z" transform="translate(1.786 2.182)" fill="#f70031"/>
        </g>
        <path id="Path-11" data-name="Path" d="M.979,20.978a.81.81,0,0,1-.8-.691A18.208,18.208,0,0,1,0,17.753,17.775,17.775,0,0,1,17.753,0c.283,0,.564.007.845.022a.806.806,0,1,1-.077,1.61c-.254-.012-.509-.017-.768-.017A16.14,16.14,0,0,0,1.778,20.062a.81.81,0,0,1-.684.914Z" transform="translate(42.16 42.159)" fill="#161616"/>
        <path id="Path-12" data-name="Path" d="M14.12,12.913A17.668,17.668,0,0,1,.173,6.15a.807.807,0,0,1,1.267-1A16.067,16.067,0,0,0,14.12,11.3,16.171,16.171,0,0,0,29.343.538a.807.807,0,1,1,1.522.54A17.784,17.784,0,0,1,14.12,12.913Z" transform="translate(45.793 64.75)" fill="#161616"/>
        <path id="Path-13" data-name="Path" d="M1.116,4.844A.958.958,0,0,1,1,4.837a.807.807,0,0,1-.686-.912A16.467,16.467,0,0,0,.478,1.616c0-.259-.007-.514-.017-.77A.8.8,0,0,1,1.229,0a.788.788,0,0,1,.845.768c.012.278.019.559.019.845a17.848,17.848,0,0,1-.18,2.534A.807.807,0,0,1,1.116,4.844Z" transform="translate(75.575 58.294)" fill="#161616"/>
        <path id="Path-14" data-name="Path" d="M1.442,3.229A.806.806,0,0,1,.66,2.614C.53,2.094.376,1.578.2,1.078A.807.807,0,1,1,1.72.538q.292.828.5,1.692a.806.806,0,0,1-.59.974A.739.739,0,0,1,1.442,3.229Z" transform="translate(74.932 53.453)" fill="#161616"/>
        <path id="Path-15" data-name="Path" d="M.705,2.778a.7.7,0,0,1-.079-1.4A5.608,5.608,0,0,0,3.54.158.7.7,0,0,1,4.425,1.25,6.988,6.988,0,0,1,.78,2.771.253.253,0,0,1,.705,2.778Z" transform="translate(14.75 18.942)" fill="#161616"/>
        <path id="Path-16" data-name="Path" d="M12.657,9.857a.731.731,0,0,1-.235-.038.7.7,0,0,1-.427-.9A5.635,5.635,0,0,0,1.368,5.165.7.7,0,1,1,.04,4.694,7.043,7.043,0,0,1,13.322,9.389.706.706,0,0,1,12.657,9.857Z" transform="translate(8.071 7.678)" fill="#161616"/>
        <path id="Path-17" data-name="Path" d="M7.006,7.706A7.014,7.014,0,0,1,0,.7.7.7,0,0,1,1.4.7a5.6,5.6,0,0,0,9.127,4.358.7.7,0,0,1,.881,1.087A7.018,7.018,0,0,1,7.006,7.706Z" transform="translate(77.116 104.398)" fill="#161616"/>
        <path id="Path-18" data-name="Path" d="M1.341,4.2c-.026,0-.053,0-.077,0a.7.7,0,0,1-.619-.773A5.932,5.932,0,0,0,.679,2.8,5.592,5.592,0,0,0,.36.936.7.7,0,1,1,1.68.468a6.943,6.943,0,0,1,.4,2.335,6.908,6.908,0,0,1-.043.778A.7.7,0,0,1,1.341,4.2Z" transform="translate(89.049 102.296)" fill="#161616"/>
        <path id="Path-19" data-name="Path" d="M4.9,3.007a.7.7,0,0,1-.466-.178A5.6,5.6,0,0,0,.7,1.4.7.7,0,0,1,.7,0a7,7,0,0,1,4.67,1.783A.7.7,0,0,1,4.9,3.007Z" transform="translate(83.423 98.091)" fill="#161616"/>
      </g>
      <g id="Group-15" data-name="Group" transform="translate(-0.526 75.789)">
        <g id="Group-16" data-name="Group">
          <g id="Group-17" data-name="Group">
            <path id="Shape-2" data-name="Shape" d="M43.676,29.8H8.044A7.953,7.953,0,0,1,.006,21.613a8,8,0,0,1,5.309-7.065,7.883,7.883,0,0,1,4.469-.3A5.692,5.692,0,0,1,15.512,9a5.783,5.783,0,0,1,4.207,1.8,8.958,8.958,0,0,1-.023-3.506A9.218,9.218,0,0,1,37.882,8.308a8.366,8.366,0,0,1,6.642-3.249,8.245,8.245,0,0,1,8.33,8.154,7.987,7.987,0,0,1-.071,1.011A7.859,7.859,0,0,1,51.128,29.8Zm-13.636,0h0Z" transform="translate(1.665 1.158)" fill="#9b9b9b"/>
            <path id="Shape-3" data-name="Shape" d="M44.729,31.912a1.053,1.053,0,0,1,0-2.105h7.455a6.806,6.806,0,0,0,1.443-13.493,1.053,1.053,0,0,1-.834-1.165,6.735,6.735,0,0,0,.061-.877,7.2,7.2,0,0,0-7.277-7.1,7.275,7.275,0,0,0-5.809,2.838,1.052,1.052,0,0,1-1.882-.562A7.825,7.825,0,0,0,35,3.965a8.236,8.236,0,0,0-6.259-1.794A8.062,8.062,0,0,0,21.78,8.545a7.864,7.864,0,0,0,.021,3.1,1.053,1.053,0,0,1-1.8.937,4.7,4.7,0,0,0-3.444-1.473,4.647,4.647,0,0,0-4.675,4.267,1.053,1.053,0,0,1-1.273.958,6.752,6.752,0,0,0-3.884.261A6.972,6.972,0,0,0,2.106,22.71a6.685,6.685,0,0,0,1.885,4.937,7.005,7.005,0,0,0,5.1,2.156H27.635a1.053,1.053,0,1,1,0,2.105H9.1a9.214,9.214,0,0,1-6.62-2.8A8.769,8.769,0,0,1,.007,22.626a9.091,9.091,0,0,1,6-8.011A8.954,8.954,0,0,1,9.963,14.1a6.788,6.788,0,0,1,6.6-5.1,6.884,6.884,0,0,1,2.977.68,10.269,10.269,0,0,1,.175-1.528A10.186,10.186,0,0,1,28.494.076a10.337,10.337,0,0,1,7.844,2.256,9.948,9.948,0,0,1,3.255,4.847,9.418,9.418,0,0,1,15.368,7.087c0,.071,0,.143,0,.214a8.909,8.909,0,0,1-2.775,17.432Zm-13.633,0a1.053,1.053,0,1,1,0-2.105h.756a1.053,1.053,0,0,1,0,2.105Z" transform="translate(0.61 0.098)" fill="#161616"/>
          </g>
          <path id="Path-20" data-name="Path" d="M.525,4.421a.542.542,0,0,1-.116-.013.524.524,0,0,1-.4-.629A4.665,4.665,0,0,1,.369,2.77C1.641.194,5.159-.756,8.205.65a.527.527,0,0,1-.442.956C5.235.438,2.336,1.168,1.315,3.236a3.443,3.443,0,0,0-.274.773A.528.528,0,0,1,.525,4.421Z" transform="translate(48.673 15.371)" fill="#472b29"/>
        </g>
        <path id="Path-21" data-name="Path" d="M3.383,2.105H1.053A1.053,1.053,0,0,1,1.053,0H3.383a1.053,1.053,0,1,1,0,2.105Z" transform="translate(34.956 29.905)" fill="#472b29"/>
      </g>
    </g>
  </g>
</svg>
