<svg id="asset_create" data-name="asset / create" xmlns="http://www.w3.org/2000/svg" xmlns:xlink="http://www.w3.org/1999/xlink" width="200" height="200" viewBox="0 0 200 200">
  <defs>
    <clipPath id="clip-path">
      <rect id="Mask" width="200" height="200" fill="none"/>
    </clipPath>
  </defs>
  <g id="ilustration_-_create" data-name="ilustration - create">
    <rect id="Mask-2" data-name="Mask" width="200" height="200" fill="none"/>
    <g id="ilustration_-_create-2" data-name="ilustration - create" clip-path="url(#clip-path)">
      <path id="Path" d="M181.9,99.326a35.984,35.984,0,0,0-19.107-50.437c0-.016,0-.033,0-.051A48.808,48.808,0,0,0,66.714,36.644,34.827,34.827,0,0,0,21.186,65.7a26.743,26.743,0,0,0,5.558,52.9c.412,0,.819-.028,1.223-.051-.009.407-.06.8-.06,1.214a47.659,47.659,0,0,0,84.73,29.967,27.848,27.848,0,0,0,44.726-6.753A25.564,25.564,0,0,0,181.9,99.326Z" transform="translate(9.302 16)" fill="#292929"/>
      <path id="Path-2" data-name="Path" d="M49.709,39.535h16.57a10.437,10.437,0,0,0,1.035-20.826,10.351,10.351,0,0,0,.128-1.267,10.428,10.428,0,0,0-18.667-6.428,11.6,11.6,0,0,0-23.193.614,11.487,11.487,0,0,0,.435,2.981,8.076,8.076,0,0,0-14.284,4.123,10.351,10.351,0,0,0-1.267-.128,10.465,10.465,0,0,0,0,20.93H49.709Z" transform="translate(122.093 84.605)" fill="#9b9b9b"/>
      <path id="Path-3" data-name="Path" d="M38.372,0A12.8,12.8,0,0,0,25.581,12.791V12.9a9.147,9.147,0,0,0-4.651-1.272,9.3,9.3,0,0,0-8.972,6.988c-.109-.007-.219-.012-.33-.012a11.628,11.628,0,0,0,0,23.256H45.349a1.163,1.163,0,0,0,0-2.326H11.628a9.3,9.3,0,0,1,0-18.6,6.016,6.016,0,0,1,.8.074l.328.044a1,1,0,0,0,.144.009,1.168,1.168,0,0,0,1.151-1.016,6.913,6.913,0,0,1,12.233-3.53,1.169,1.169,0,0,0,.9.423,1.131,1.131,0,0,0,.53-.13,1.162,1.162,0,0,0,.591-1.333,10.349,10.349,0,0,1-.393-2.681,10.442,10.442,0,0,1,20.87-.551,1.162,1.162,0,0,0,2.077.656A9.263,9.263,0,0,1,67.442,18.6a6.016,6.016,0,0,1-.074.8l-.044.328a1.163,1.163,0,0,0,1.037,1.3,9.275,9.275,0,0,1-.919,18.507H52.326a1.163,1.163,0,0,0,0,2.326H67.442a11.6,11.6,0,0,0,2.319-22.97q.007-.143.007-.286A11.641,11.641,0,0,0,58.14,6.977a11.469,11.469,0,0,0-7.4,2.707A12.759,12.759,0,0,0,38.372,0Z" transform="translate(120.93 83.442)" fill="#161616"/>
      <path id="Path-4" data-name="Path" d="M23.211,0a7,7,0,0,0-6.774,5.444,5.45,5.45,0,0,0-2.819-.793A5.528,5.528,0,0,0,8.146,9.46,6.111,6.111,0,0,0,6.788,9.3,6.837,6.837,0,0,0,0,15.656a.583.583,0,0,0,.537.623H.581a.581.581,0,0,0,.579-.54,5.673,5.673,0,0,1,5.626-5.274,5.652,5.652,0,0,1,1.716.3.517.517,0,0,0,.156.023.618.618,0,0,0,.363-.126.606.606,0,0,0,.237-.484,4.337,4.337,0,0,1,7.223-3.26.586.586,0,0,0,.384.147.537.537,0,0,0,.216-.044.574.574,0,0,0,.36-.493,5.835,5.835,0,0,1,5.77-5.36,5.73,5.73,0,0,1,1.586.249.562.562,0,0,0,.163.023A.582.582,0,0,0,25.115.293,6.839,6.839,0,0,0,23.211,0Z" transform="translate(132.603 99.721)" fill="#472b29"/>
      <path id="Path-5" data-name="Path" d="M6.706,0A6.992,6.992,0,0,0,.023,5.074a.581.581,0,0,0,.4.719.661.661,0,0,0,.16.021.581.581,0,0,0,.558-.423A5.825,5.825,0,0,1,6.706,1.163a5.948,5.948,0,0,1,.8.067.481.481,0,0,0,.081.007A.582.582,0,0,0,7.657.079,7.122,7.122,0,0,0,6.706,0Z" transform="translate(181.394 103.209)" fill="#472b29"/>
      <path id="Combined_Shape" data-name="Combined Shape" d="M19.768,20.93a1.163,1.163,0,0,1,0-2.326h4.651a1.163,1.163,0,0,1,0,2.326Zm2.326-4.651a1.163,1.163,0,1,1,0-2.326H43a1.163,1.163,0,1,1,0,2.326Zm-6.977,0a1.163,1.163,0,1,1,0-2.326h2.326a1.163,1.163,0,1,1,0,2.326Zm20.93-4.651a1.163,1.163,0,0,1,0-2.326h6.977a1.163,1.163,0,0,1,0,2.326Zm-6.977,0a1.163,1.163,0,1,1,0-2.326H31.4a1.163,1.163,0,0,1,0,2.326Zm-27.907,0a1.163,1.163,0,1,1,0-2.326H24.419a1.163,1.163,0,0,1,0,2.326Zm18.6-4.651a1.163,1.163,0,0,1,0-2.326H31.4a1.163,1.163,0,0,1,0,2.326Zm9.3-4.651A1.163,1.163,0,1,1,29.07,0H31.4a1.163,1.163,0,0,1,0,2.326Z" transform="translate(0 90.419)" fill="#9b9b9b"/>
      <path id="Path-6" data-name="Path" d="M0,81.447V16.279A16.279,16.279,0,0,1,16.279,0h65.17A16.279,16.279,0,0,1,97.728,16.279v65.17A16.279,16.279,0,0,1,81.449,97.728H16.279A16.283,16.283,0,0,1,0,81.447Z" transform="translate(58.114 50.858)" fill="#f70031"/>
      <path id="Shape" d="M83.721,102.326H18.6A18.606,18.606,0,0,1,0,83.721V18.6A18.6,18.6,0,0,1,18.6,0H83.721a18.6,18.6,0,0,1,18.6,18.6V83.721a18.605,18.605,0,0,1-18.6,18.6ZM18.6,3.256A15.366,15.366,0,0,0,3.256,18.605V83.721A15.366,15.366,0,0,0,18.6,99.07H83.721A15.366,15.366,0,0,0,99.07,83.721V18.605A15.366,15.366,0,0,0,83.721,3.256Z" transform="translate(55.814 48.558)" fill="#161616"/>
      <path id="Path-7" data-name="Path" d="M0,72.093V6.977A6.976,6.976,0,0,1,6.977,0H72.093A6.976,6.976,0,0,1,79.07,6.977V72.093a6.976,6.976,0,0,1-6.977,6.977H6.977A6.976,6.976,0,0,1,0,72.093Z" transform="translate(67.442 60.186)" fill="#fff"/>
      <path id="Path-8" data-name="Path" d="M52.326,34.884H1.163a1.163,1.163,0,1,1,0-2.326H52.326a8.148,8.148,0,0,0,8.14-8.14V1.163a1.163,1.163,0,0,1,2.326,0V24.419A10.478,10.478,0,0,1,52.326,34.884Z" transform="translate(86.047 106.698)" fill="#161616"/>
      <path id="Path-9" data-name="Path" d="M1.163,6.977A1.163,1.163,0,0,1,0,5.814V1.163a1.163,1.163,0,1,1,2.326,0V5.814A1.163,1.163,0,0,1,1.163,6.977Z" transform="translate(146.512 81.116)" fill="#161616"/>
      <path id="Path-10" data-name="Path" d="M1.163,9.3A1.163,1.163,0,0,1,0,8.14V1.163a1.163,1.163,0,1,1,2.326,0V8.14A1.163,1.163,0,0,1,1.163,9.3Z" transform="translate(146.512 92.744)" fill="#161616"/>
      <path id="Path-11" data-name="Path" d="M1.163,58.14A1.163,1.163,0,0,1,0,56.977V10.465A10.478,10.478,0,0,1,10.465,0H61.628a1.163,1.163,0,1,1,0,2.326H10.465a8.148,8.148,0,0,0-8.14,8.14V56.977A1.163,1.163,0,0,1,1.163,58.14Z" transform="translate(65.116 57.86)" fill="#161616"/>
      <g id="Group" transform="translate(30.233 122.977)">
        <path id="Path-12" data-name="Path" d="M41.86,30.233H50a8.119,8.119,0,0,0,1.035-16.174,8.128,8.128,0,0,0,.128-1.267A8.112,8.112,0,0,0,37,7.36,9.3,9.3,0,0,0,18.6,9.3a9.187,9.187,0,0,0,.13,1.3,5.768,5.768,0,0,0-9.328,3.481,8.127,8.127,0,0,0-1.267-.128,8.14,8.14,0,1,0,0,16.279H25.581" transform="translate(1.163 1.163)" fill="#9b9b9b"/>
        <path id="Path-13" data-name="Path" d="M.581,5.74A.582.582,0,0,1,0,5.158,5.164,5.164,0,0,1,5.158,0,14.7,14.7,0,0,1,8.051.316a.58.58,0,1,1-.3,1.121A11.717,11.717,0,0,0,5.16,1.163a4,4,0,0,0-4,4A.582.582,0,0,1,.581,5.74Z" transform="translate(46.512 15.191)" fill="#472b29"/>
        <circle id="Oval" cx="1.163" cy="1.163" r="1.163" transform="translate(30.233 30.233)" fill="#472b29"/>
        <path id="Path-14" data-name="Path" d="M51.163,32.558h-8.14a1.163,1.163,0,0,1,0-2.326h8.14a6.956,6.956,0,0,0,.888-13.858,1.163,1.163,0,0,1-1-1.333,7.313,7.313,0,0,0,.112-1.088,6.985,6.985,0,0,0-6.977-6.977A6.878,6.878,0,0,0,39.026,9.3a1.163,1.163,0,0,1-2-.537,8.137,8.137,0,0,0-16.1,1.7,6.715,6.715,0,0,0,.1.972,1.275,1.275,0,0,1-.563,1.256,1.141,1.141,0,0,1-1.293-.023,4.582,4.582,0,0,0-2.891-1.042,4.636,4.636,0,0,0-4.565,3.823,1.158,1.158,0,0,1-1.323.942A7.018,7.018,0,0,0,9.3,16.279a6.977,6.977,0,1,0,0,13.953H26.744a1.163,1.163,0,0,1,0,2.326H9.3a9.3,9.3,0,0,1,0-18.6c.137,0,.27,0,.4.014A6.96,6.96,0,0,1,16.279,9.3a6.76,6.76,0,0,1,2.351.419,10.462,10.462,0,0,1,20.1-3.27,9.271,9.271,0,0,1,14.76,7.5c0,.112,0,.221-.009.33a9.281,9.281,0,0,1-2.316,18.274Z" fill="#161616"/>
        <path id="Path-15" data-name="Path" d="M3.488,0H1.163a1.163,1.163,0,0,0,0,2.326H3.488A1.163,1.163,0,0,0,3.488,0Z" transform="translate(34.884 30.233)" fill="#472b29"/>
      </g>
      <g id="Group-2" data-name="Group" transform="translate(109.302 29.953)">
        <path id="Path-16" data-name="Path" d="M21.767,15.072,1.674,21.77,0,20.1,6.7,0Z" transform="translate(0 47.998)" fill="#fdfcee"/>
        <path id="Path-17" data-name="Path" d="M11.256,8.374,1.674,11.491,0,9.816,2.884,0Z" transform="translate(0.465 58.044)" fill="#4a4a4a"/>
        <path id="Path-18" data-name="Path" d="M61.267,16.461l-46.2,46.2L0,47.584l46.2-46.2A4.743,4.743,0,0,1,52.288.868a39.846,39.846,0,0,1,5.077,4.426,39.846,39.846,0,0,1,4.426,5.077A4.749,4.749,0,0,1,61.267,16.461Z" transform="translate(7.102 0)" fill="#ffc15c"/>
        <path id="Path-19" data-name="Path" d="M20.93,15.072l-5.86,5.86L0,5.86,5.86,0Z" transform="translate(41.86 6.97)" fill="#4a4a4a"/>
        <path id="Path-20" data-name="Path" d="M21.488,16.461,15.07,22.879,0,7.807,6.419,1.389A4.743,4.743,0,0,1,12.507.868a39.846,39.846,0,0,1,5.077,4.426,39.846,39.846,0,0,1,4.426,5.077A4.746,4.746,0,0,1,21.488,16.461Z" transform="translate(46.881 0)" fill="#ff8191"/>
        <rect id="Rectangle" width="1.163" height="19.011" transform="translate(7.115 49.23) rotate(-45)" fill="#161616"/>
        <path id="Path-21" data-name="Path" d="M9.94,9.94a.594.594,0,0,1-.837,0L.173,1.01A.592.592,0,0,1,1.01.173L9.94,9.1A.594.594,0,0,1,9.94,9.94Z" transform="translate(47.409 7.495)" fill="#161616"/>
        <path id="Path-22" data-name="Path" d="M3.1,3.1a.594.594,0,0,1-.837,0L.173,1.01A.592.592,0,0,1,1.01.173L3.1,2.266A.594.594,0,0,1,3.1,3.1Z" transform="translate(58.851 18.939)" fill="#161616"/>
        <path id="Shape-2" data-name="Shape" d="M2.146,69.767a1.168,1.168,0,0,1-.83-.349l-.967-.968a1.158,1.158,0,0,1-.272-1.242l6.269-18.2a4.67,4.67,0,0,1,1.11-1.772L53.3,1.388A4.7,4.7,0,0,1,56.649,0,4.768,4.768,0,0,1,59.39.867a40.129,40.129,0,0,1,5.077,4.426,40.011,40.011,0,0,1,4.46,5.127,4.717,4.717,0,0,1-.555,6.037L22.527,62.309a4.643,4.643,0,0,1-1.772,1.11L2.56,69.691A1.157,1.157,0,0,1,2.146,69.767Zm54.5-68.024a2.974,2.974,0,0,0-2.116.878L8.221,48.94,2,67.621l.151.151,18.679-6.228L67.139,15.226a2.96,2.96,0,0,0,.375-3.784,38.3,38.3,0,0,0-4.279-4.914A38.694,38.694,0,0,0,58.388,2.3,3.009,3.009,0,0,0,56.651,1.744Z" transform="translate(0)" fill="#161616"/>
        <path id="Rectangle-2" data-name="Rectangle" d="M.086,0H.914V9.077H.086Z" transform="translate(3.539 59.539) rotate(-45)" fill="#472b29"/>
        <path id="Rectangle-3" data-name="Rectangle" d="M0,.086H41.028V.914H0Z" transform="translate(16.971 47.633) rotate(-45)" fill="#472b29"/>
        <circle id="Oval-2" data-name="Oval" cx="0.414" cy="0.414" r="0.414" transform="translate(16.916 47.584)" fill="#472b29"/>
        <path id="Rectangle-4" data-name="Rectangle" d="M0,.086H36.29V.914H0Z" transform="translate(24.757 48.724) rotate(-45)" fill="#472b29"/>
        <circle id="Oval-3" data-name="Oval" cx="0.414" cy="0.414" r="0.414" transform="translate(24.702 48.672)" fill="#472b29"/>
      </g>
    </g>
  </g>
</svg>
