<svg id="icon_report_abuse" data-name="icon / report abuse" xmlns="http://www.w3.org/2000/svg" width="156.001" height="97.649" viewBox="0 0 156.001 97.649">
  <g id="ilustration_-_report_abuse" data-name="ilustration - report abuse" transform="translate(0 -1.122)">
    <g id="shape" transform="translate(68 35) rotate(90)">
      <path id="Path" d="M28.636,0H0V66L14.318,52.864,28.636,66Z" transform="translate(0.682 1)" fill="#c8102e"/>
      <path id="Path-2" data-name="Path" d="M24.545,56.677c0,.393-.295.632-.522.424L12.273,46.32.522,57.1C.295,57.31,0,57.07,0,56.677V.5C0,.224.153,0,.341,0H24.2C24.393,0,24.545,56.677,24.545,56.677Z" transform="translate(2.727 4)" fill="#ab0a24"/>
      <path id="Combined_Shape" data-name="Combined Shape" d="M28.957,67.848,15,55.043,1.043,67.848A.535.535,0,0,1,.682,68a.524.524,0,0,1-.331-.125A1.142,1.142,0,0,1,0,67V1C0,.448.306,0,.682,0H29.318C29.694,0,30,.448,30,1V67a1.141,1.141,0,0,1-.352.876.525.525,0,0,1-.329.125A.531.531,0,0,1,28.957,67.848Zm-13.6-14.833L28.636,65.2V2H1.363V65.2l13.275-12.18a.505.505,0,0,1,.723,0ZM26.59,26.5v-3c0-.276.153-.5.341-.5s.341.223.341.5v3c0,.276-.153.5-.341.5S26.59,26.776,26.59,26.5Zm0-6v-1c0-.276.153-.5.341-.5s.341.224.341.5v1c0,.275-.153.5-.341.5S26.59,20.776,26.59,20.5Z" fill="#161616"/>
    </g>
    <g id="shape-2" data-name="shape" transform="translate(88 35) rotate(-90)">
      <path id="Path-3" data-name="Path" d="M-28.636,0H0V66L-14.318,52.864-28.636,66Z" transform="translate(-0.682 1)" fill="#ab0a24"/>
      <path id="Path-4" data-name="Path" d="M-24.545.5V56.677c0,.393.295.632.522.424L-12.273,46.32-.522,57.1c.227.209.522-.031.522-.424V.5C0,.224-.153,0-.341,0H-24.2C-24.393,0-24.545.224-24.545.5Z" transform="translate(-2.727 4)" fill="#ab0a24"/>
      <path id="Combined_Shape-2" data-name="Combined Shape" d="M-28.957,67.848-15,55.043-1.043,67.848A.535.535,0,0,0-.682,68a.524.524,0,0,0,.331-.125A1.142,1.142,0,0,0,0,67V1C0,.448-.306,0-.682,0H-29.318C-29.694,0-30,.448-30,1V67a1.141,1.141,0,0,0,.352.876.525.525,0,0,0,.329.125A.531.531,0,0,0-28.957,67.848Zm13.6-14.833L-28.636,65.2V2H-1.363V65.2l-13.275-12.18A.531.531,0,0,0-15,52.863.531.531,0,0,0-15.361,53.015ZM-26.59,26.5v-3c0-.276-.153-.5-.341-.5s-.341.223-.341.5v3c0,.276.153.5.341.5S-26.59,26.776-26.59,26.5Zm0-6v-1c0-.276-.153-.5-.341-.5s-.341.224-.341.5v1c0,.275.153.5.341.5S-26.59,20.776-26.59,20.5Z" fill="#161616"/>
    </g>
    <g id="shape-3" data-name="shape" transform="translate(28)">
      <g id="Group" transform="translate(50.074 0.226) rotate(45)">
        <g id="Group-2" data-name="Group">
          <path id="Path-5" data-name="Path" d="M53,67.077H14.077A14.119,14.119,0,0,1,0,53V14.077A14.119,14.119,0,0,1,14.077,0H53A14.119,14.119,0,0,1,67.077,14.077V53A14.117,14.117,0,0,1,53,67.077Z" transform="translate(1.654 1.584)" fill="#f70031"/>
          <path id="Shape-4" data-name="Shape" d="M53.987,69.048H15.063A15.08,15.08,0,0,1,0,53.985V15.063A15.08,15.08,0,0,1,15.063,0H53.985A15.08,15.08,0,0,1,69.048,15.063V53.985A15.077,15.077,0,0,1,53.987,69.048ZM15.063,1.97A13.107,13.107,0,0,0,1.971,15.063V53.985A13.107,13.107,0,0,0,15.063,67.077H53.985A13.107,13.107,0,0,0,67.078,53.985V15.063A13.107,13.107,0,0,0,53.985,1.97Z" transform="translate(0.669 0.598)" fill="#161616"/>
        </g>
      </g>
      <g id="Group-3" data-name="Group" transform="translate(45.262 30.32)">
        <path id="Combined_Shape-3" data-name="Combined Shape" d="M1.133,35.492a3.746,3.746,0,0,1,0-5.368,3.7,3.7,0,0,1,2.72-1.13,3.578,3.578,0,0,1,2.65,1.13,3.81,3.81,0,0,1,0,5.368,3.616,3.616,0,0,1-2.65,1.11A3.741,3.741,0,0,1,1.133,35.492Zm.625-18.733Q1.4,13.2,1.038,10.765C.8,9.142.587,7.82.411,6.791A16.621,16.621,0,0,1,.147,4q0-2.313,1.034-3.155A4.259,4.259,0,0,1,3.95,0,3.912,3.912,0,0,1,6.623.866,3.889,3.889,0,0,1,7.611,3.9a19.176,19.176,0,0,1-.24,2.84q-.24,1.59-.6,4.024T6,16.758q-.412,3.564-.746,8.814H2.36Q2.118,20.324,1.759,16.759Z" transform="translate(0.933 1.336)" fill="#fff"/>
        <path id="Shape-5" data-name="Shape" d="M1.282,36.332a4.238,4.238,0,0,1,0-6.069,4.2,4.2,0,0,1,3.069-1.275,4.078,4.078,0,0,1,3,1.278,4.3,4.3,0,0,1,0,6.063,4.1,4.1,0,0,1-3,1.254A4.226,4.226,0,0,1,1.282,36.332Zm.692-5.372a3.257,3.257,0,0,0,0,4.669,3.243,3.243,0,0,0,2.377.968,3.109,3.109,0,0,0,2.3-.966,3.16,3.16,0,0,0,.962-2.346,3.193,3.193,0,0,0-.967-2.328,3.075,3.075,0,0,0-2.3-.983A3.208,3.208,0,0,0,1.974,30.96Zm.878-4.4a.492.492,0,0,1-.492-.471C2.2,22.6,2,19.643,1.76,17.3s-.478-4.341-.718-5.972C.813,9.779.6,8.446.417,7.364A17.232,17.232,0,0,1,.145,4.489c0-1.712.4-2.868,1.217-3.536A4.743,4.743,0,0,1,4.442,0a4.4,4.4,0,0,1,3,.988,4.354,4.354,0,0,1,1.156,3.4,19.851,19.851,0,0,1-.246,2.914l-.6,4.02c-.239,1.6-.5,3.614-.768,5.979-.276,2.4-.527,5.359-.744,8.79a.494.494,0,0,1-.493.459ZM1.984,1.715A3.508,3.508,0,0,0,1.13,4.489,16.315,16.315,0,0,0,1.388,7.2c.178,1.034.39,2.375.63,3.985.241,1.635.484,3.66.723,6.017.23,2.262.426,5.078.583,8.371H5.282c.215-3.3.457-6.115.719-8.377.277-2.413.536-4.435.771-6.011l.6-4.025A18.646,18.646,0,0,0,7.61,4.392a3.474,3.474,0,0,0-.821-2.665A3.417,3.417,0,0,0,4.442.984,3.8,3.8,0,0,0,1.984,1.715Z" transform="translate(0.44 0.846)" fill="#161616"/>
      </g>
    </g>
  </g>
</svg>
