<svg id="logo_splash" data-name="logo / splash" xmlns="http://www.w3.org/2000/svg" width="295" height="279" viewBox="0 0 295 279">
  <g id="logo_white" data-name="logo white">
    <g id="logo_GS_UNN_white" data-name="logo / GS UNN / white" transform="translate(0 240)">
      <g id="logo">
        <path id="Fill_1" data-name="Fill 1" d="M11.551,15.03h4.39v2.076a6.081,6.081,0,0,1-3.158.745,5.46,5.46,0,0,1-5.641-5.77v-.062a5.45,5.45,0,0,1,5.29-5.705,7.463,7.463,0,0,1,5.116,2l.311.261L22,3.6l-.3-.26A13.441,13.441,0,0,0,12.4,0C5.331,0,0,5.152,0,11.985v.064c0,6.908,5.268,11.921,12.527,11.921a15.411,15.411,0,0,0,9.928-3.528l.147-.121V9.7H11.551V15.03" transform="translate(0 0.284)" fill="#fff"/>
        <path id="Fill_3" data-name="Fill 3" d="M6.981,0H0V23.08H17.766V16.863H6.981V0" transform="translate(25.705 0.73)" fill="#fff"/>
        <path id="Fill_4" data-name="Fill 4" d="M12.367,23.971A12.021,12.021,0,0,1,0,12.049v-.064A12.084,12.084,0,0,1,12.431,0,12.021,12.021,0,0,1,24.8,11.92v.065A12.084,12.084,0,0,1,12.367,23.971Zm0-17.594A5.274,5.274,0,0,0,7.141,11.92v.065a5.4,5.4,0,0,0,5.29,5.61,5.29,5.29,0,0,0,5.26-5.546v-.064A5.352,5.352,0,0,0,12.367,6.377Z" transform="translate(43.703 0.284)" fill="#fff"/>
        <path id="Fill_6" data-name="Fill 6" d="M11.891,23.08H0V0H11.827c2.854,0,4.935.694,6.362,2.122A5.287,5.287,0,0,1,19.74,6v.064a5.436,5.436,0,0,1-2.833,4.908c2.606,1.1,3.82,2.845,3.82,5.5v.063C20.727,20.633,17.424,23.08,11.891,23.08ZM6.822,14.012v3.3H11.19c.954,0,2.555-.212,2.555-1.633v-.063c0-1.323-1.424-1.6-2.618-1.6Zm0-8.24v3.1H10.3c2.522,0,2.522-1.156,2.522-1.536V7.276c0-1.242-1.3-1.5-2.395-1.5Z" transform="translate(70.506 0.73)" fill="#fff"/>
        <path id="Fill_7" data-name="Fill 7" d="M7.374,23.24H0L9.823,0h6.485l.1.248,9.719,22.99h-7.5l-1.622-3.978H8.966L7.375,23.239ZM13.016,8.824h0L11.1,13.649h3.807L13.016,8.824Z" transform="translate(91.067 0.571)" fill="#fff"/>
        <path id="Fill_8" data-name="Fill 8" d="M6.981,16.863V0H0V23.08H17.765V16.863H6.981" transform="translate(119.259 0.73)" fill="#fff"/>
        <path id="Fill_9" data-name="Fill 9" d="M11.578,8.573C8.4,7.853,8.172,7.462,8.172,6.9V6.839c0-.585.66-.949,1.723-.949A10.421,10.421,0,0,1,15.72,7.95l.366.256L19.6,3.247l-.328-.264A14.128,14.128,0,0,0,10.052,0C4.754,0,1.2,2.973,1.2,7.4v.062c0,4.909,4.039,6.236,8.538,7.262,3.064.71,3.313,1.163,3.313,1.642v.062c0,.907-1.275,1.042-2.035,1.042A10.693,10.693,0,0,1,4.25,14.959l-.342-.273L0,19.356l.322.289A15.582,15.582,0,0,0,10.8,23.358c5.606,0,9.228-2.953,9.228-7.523v-.063c0-2.785-1.023-5.584-8.446-7.2" transform="translate(142.233 0.764)" fill="#fff"/>
        <path id="Fill_10" data-name="Fill 10" d="M16.391,14.622c-1.258,1.526-2.459,2.473-4.556,2.473C9.091,17.1,7.1,14.843,7.1,11.741v-.062c0-3.017,2.035-5.292,4.734-5.292a5.363,5.363,0,0,1,4.4,2.377l.275.344,5.221-4.042-.253-.351A11.169,11.169,0,0,0,11.9,0,11.56,11.56,0,0,0,0,11.741V11.8A11.539,11.539,0,0,0,11.648,23.482a11.466,11.466,0,0,0,9.98-5.086l.266-.366L16.657,14.3l-.266.322" transform="translate(163.18 0.701)" fill="#fff"/>
        <path id="Fill_11" data-name="Fill 11" d="M6.915,22.613H0V0H10.717C14,0,16.491.839,18.112,2.493a7.185,7.185,0,0,1,2.05,5.369v.062a7.309,7.309,0,0,1-4.245,6.855l5.359,7.83-8.038,0L8.863,16.034H6.915v6.577Zm0-16.506v4.317h3.523c1.766,0,2.778-.775,2.778-2.127V8.236c0-1.76-1.528-2.129-2.81-2.129Z" transform="translate(186.684 1.136)" fill="#fff"/>
        <path id="Fill_12" data-name="Fill 12" d="M11.648,22.612H0V0H11.587c2.795,0,4.837.682,6.242,2.086a5.206,5.206,0,0,1,1.526,3.821V5.97a5.344,5.344,0,0,1-2.7,4.777,5.384,5.384,0,0,1,3.661,5.369v.062C20.317,20.206,17.076,22.612,11.648,22.612ZM6.76,13.771v3.106h4.206c.911,0,2.438-.2,2.438-1.538v-.061c0-1.245-1.36-1.507-2.5-1.507Zm0-8.035v2.92H10.1c2.406,0,2.406-1.088,2.406-1.445V7.149c0-.938-.768-1.413-2.281-1.413Z" transform="translate(233.246 1.136)" fill="#fff"/>
        <path id="Fill_13" data-name="Fill 13" d="M6.853,14.05H17.277V8.408H6.853V6.015H18.362V0H0V22.612H18.518V16.6H6.853V14.05" transform="translate(255.428 1.136)" fill="#fff"/>
        <path id="Fill_14" data-name="Fill 14" d="M11.579,8.573C8.4,7.853,8.173,7.462,8.173,6.9V6.839c0-.585.661-.949,1.725-.949A10.425,10.425,0,0,1,15.721,7.95l.365.256L19.6,3.247l-.329-.264A14.12,14.12,0,0,0,10.053,0C4.755,0,1.2,2.973,1.2,7.4v.062c0,4.909,4.039,6.236,8.538,7.262,3.064.71,3.313,1.163,3.313,1.642v.062c0,.907-1.275,1.042-2.034,1.042a10.689,10.689,0,0,1-6.762-2.507l-.342-.273L0,19.356l.323.289A15.585,15.585,0,0,0,10.8,23.358c5.6,0,9.226-2.953,9.226-7.523v-.063c0-2.785-1.023-5.584-8.445-7.2" transform="translate(274.747 0.764)" fill="#fff"/>
        <path id="Fill_15" data-name="Fill 15" d="M22.5,17.044C18.367,11.088,20.189,0,20.189,0H2.317S4.136,10.26,0,17.044c0,0,9.432,9.432,9.6,18.7h.814V10.794l-1.14.6L9.64,9.242,8.076,7.717,10.238,7.4l.849-1.722.116-.235L12.17,7.4l2.16.313L12.767,9.242l.367,2.149L12,10.8V35.742h.906c.165-9.266,9.6-18.7,9.6-18.7" transform="translate(208.563 1.625)" fill="#fff"/>
        <path id="Fill_16" data-name="Fill 16" d="M3.169,4.606,0,0H1.046l2.57,3.812L6.206,0h1L4.04,4.6V7.622H3.169V4.606" transform="translate(91.828 29.339)" fill="#fff"/>
        <path id="Fill_17" data-name="Fill 17" d="M2.918,5.88A2.887,2.887,0,0,1,0,2.962V2.94A2.909,2.909,0,0,1,2.94,0,2.893,2.893,0,0,1,5.869,2.919V2.94A2.914,2.914,0,0,1,2.918,5.88Zm0-5.139A2.074,2.074,0,0,0,.86,2.919V2.94A2.114,2.114,0,0,0,2.94,5.129,2.073,2.073,0,0,0,5.009,2.962V2.94A2.124,2.124,0,0,0,2.918.741Z" transform="translate(98.722 31.212)" fill="#fff"/>
        <path id="Fill_18" data-name="Fill 18" d="M0,3.5V0H.838V3.289A1.5,1.5,0,0,0,2.4,4.987,1.663,1.663,0,0,0,4.083,3.223V0h.827V5.629H4.083V4.65a2.146,2.146,0,0,1-1.928,1.1A2.056,2.056,0,0,1,0,3.5" transform="translate(106.021 31.332)" fill="#fff"/>
        <path id="Fill_19" data-name="Fill 19" d="M.784,5.836v-3.4H0V1.7H.784V0h.838V1.7H3.408v.74H1.622V5.727a.833.833,0,0,0,.947.936,1.76,1.76,0,0,0,.817-.2v.718a2.1,2.1,0,0,1-1.013.24A1.433,1.433,0,0,1,.784,5.836" transform="translate(112.327 29.634)" fill="#fff"/>
        <path id="Fill_20" data-name="Fill 20" d="M0,0H.839V3.3A2.131,2.131,0,0,1,2.766,2.2,2.056,2.056,0,0,1,4.922,4.453v3.5H4.083V4.66a1.5,1.5,0,0,0-1.557-1.7A1.656,1.656,0,0,0,.839,4.726V7.948H0V0" transform="translate(117.218 29.013)" fill="#fff"/>
        <path id="Fill_21" data-name="Fill 21" d="M0,4.432V0H.86V4.378c0,1.644.871,2.57,2.33,2.57,1.4,0,2.3-.849,2.3-2.515V0h.86V4.366c0,2.222-1.274,3.375-3.18,3.375A2.985,2.985,0,0,1,0,4.432" transform="translate(127.217 29.339)" fill="#fff"/>
        <path id="Fill_22" data-name="Fill 22" d="M0,.12H.838V1.1A2.131,2.131,0,0,1,2.765,0,2.056,2.056,0,0,1,4.922,2.254v3.5H4.083V2.461A1.5,1.5,0,0,0,2.526.762,1.657,1.657,0,0,0,.838,2.526V5.749H0V.12" transform="translate(135.463 31.212)" fill="#fff"/>
        <path id="Fill_23" data-name="Fill 23" d="M.932,7.786H.057V2.156H.932V7.785ZM1,.925H0V0H1V.924Z" transform="translate(142.194 29.176)" fill="#fff"/>
        <path id="Fill_24" data-name="Fill 24" d="M.784,5.836v-3.4H0V1.7H.784V0h.838V1.7H3.408v.74H1.622V5.727a.833.833,0,0,0,.947.936,1.76,1.76,0,0,0,.817-.2v.718a2.1,2.1,0,0,1-1.013.24A1.433,1.433,0,0,1,.784,5.836" transform="translate(144.547 29.634)" fill="#fff"/>
        <path id="Fill_25" data-name="Fill 25" d="M.932,7.786H.057V2.156H.932V7.785ZM1,.925H0V0H1V.924Z" transform="translate(149.459 29.176)" fill="#fff"/>
        <path id="Fill_26" data-name="Fill 26" d="M0,.12H.838V1.1A2.132,2.132,0,0,1,2.766,0,2.056,2.056,0,0,1,4.922,2.254v3.5H4.083V2.461A1.5,1.5,0,0,0,2.526.762,1.657,1.657,0,0,0,.838,2.526V5.749H0V.12" transform="translate(152.301 31.212)" fill="#fff"/>
        <path id="Fill_27" data-name="Fill 27" d="M2.821,7.513a4.4,4.4,0,0,1-2.56-.784l.382-.653A3.614,3.614,0,0,0,2.809,6.8a1.844,1.844,0,0,0,2.047-2V4.127a2.652,2.652,0,0,1-2.21,1.186A2.721,2.721,0,0,1,.817,4.6,2.584,2.584,0,0,1,0,2.679V2.658A2.626,2.626,0,0,1,2.647,0a2.638,2.638,0,0,1,2.2,1.132V.12h.839V4.769a2.709,2.709,0,0,1-.719,1.993A2.959,2.959,0,0,1,2.821,7.513ZM2.809.741A1.859,1.859,0,0,0,.86,2.635v.023A1.912,1.912,0,0,0,2.809,4.574,2,2,0,0,0,4.878,2.668V2.646A1.977,1.977,0,0,0,2.809.741Z" transform="translate(158.684 31.212)" fill="#fff"/>
        <path id="Fill_28" data-name="Fill 28" d="M0,0H.806l4.8,6.109V0h.838V7.622H5.76L.839,1.372v6.25H0V0" transform="translate(169.653 29.339)" fill="#fff"/>
        <path id="Fill_29" data-name="Fill 29" d="M2.1,5.837A1.9,1.9,0,0,1,0,4.083V4.062c0-1.152.9-1.84,2.407-1.84a5.937,5.937,0,0,1,1.72.239V2.287C4.127,1.3,3.535.762,2.462.762a3.938,3.938,0,0,0-1.71.4L.5.48A4.585,4.585,0,0,1,2.548,0,2.5,2.5,0,0,1,4.366.621a2.216,2.216,0,0,1,.589,1.655V5.717H4.127V4.878A2.472,2.472,0,0,1,2.1,5.837Zm.391-2.95C1.48,2.886.85,3.32.85,4.018V4.04c0,.66.582,1.121,1.416,1.121A1.683,1.683,0,0,0,4.138,3.649V3.126A5.77,5.77,0,0,0,2.494,2.886Z" transform="translate(177.691 31.245)" fill="#fff"/>
        <path id="Fill_30" data-name="Fill 30" d="M.784,5.836v-3.4H0V1.7H.784V0h.838V1.7H3.408v.74H1.622V5.727a.833.833,0,0,0,.947.936,1.763,1.763,0,0,0,.817-.2v.718a2.1,2.1,0,0,1-1.013.24A1.433,1.433,0,0,1,.784,5.836" transform="translate(183.879 29.634)" fill="#fff"/>
        <path id="Fill_31" data-name="Fill 31" d="M.932,7.786H.057V2.156H.932V7.785ZM1,.925H0V0H1V.924Z" transform="translate(188.791 29.176)" fill="#fff"/>
        <path id="Fill_32" data-name="Fill 32" d="M2.918,5.88A2.887,2.887,0,0,1,0,2.962V2.94A2.909,2.909,0,0,1,2.939,0a2.893,2.893,0,0,1,2.93,2.919V2.94A2.914,2.914,0,0,1,2.918,5.88Zm0-5.139A2.074,2.074,0,0,0,.86,2.919V2.94a2.114,2.114,0,0,0,2.08,2.189A2.073,2.073,0,0,0,5.009,2.962V2.94A2.124,2.124,0,0,0,2.918.741Z" transform="translate(191.285 31.212)" fill="#fff"/>
        <path id="Fill_33" data-name="Fill 33" d="M0,.12H.838V1.1A2.132,2.132,0,0,1,2.766,0,2.056,2.056,0,0,1,4.922,2.254v3.5H4.083V2.461A1.5,1.5,0,0,0,2.526.762,1.657,1.657,0,0,0,.838,2.526V5.749H0V.12" transform="translate(198.67 31.212)" fill="#fff"/>
        <path id="Fill_34" data-name="Fill 34" d="M0,5.009l.424-.6a3.294,3.294,0,0,0,1.949.719c.675,0,1.165-.349,1.165-.893V4.214c0-.566-.665-.784-1.4-.991C1.252,2.973.272,2.668.272,1.634V1.612A1.7,1.7,0,0,1,2.189,0,3.853,3.853,0,0,1,4.214.621l-.382.631A3.185,3.185,0,0,0,2.167.707c-.664,0-1.089.349-1.089.817v.022c0,.534.7.74,1.448.969.871.261,1.808.6,1.808,1.612v.022a1.773,1.773,0,0,1-2,1.688A3.875,3.875,0,0,1,0,5.009" transform="translate(204.912 31.234)" fill="#fff"/>
        <path id="Fill_35" data-name="Fill 35" d="M2.5,4.863A2.47,2.47,0,0,1,0,2.431,2.477,2.477,0,0,1,2.516,0,2.477,2.477,0,0,1,4.274.715a2.4,2.4,0,0,1,.715,1.716A2.434,2.434,0,0,1,2.5,4.863ZM2.488.6A1.775,1.775,0,0,0,.744,2.445,1.766,1.766,0,0,0,2.5,4.258h.024a1.676,1.676,0,0,0,1.241-.537,1.882,1.882,0,0,0,.491-1.29A1.78,1.78,0,0,0,2.488.6Zm-.3,2.966H1.5V1.363a5.921,5.921,0,0,1,.984-.084,1.477,1.477,0,0,1,.9.183.54.54,0,0,1,.239.478c0,.219-.2.418-.506.506v.028a.663.663,0,0,1,.45.562,2.234,2.234,0,0,0,.154.532l-.758,0a1.2,1.2,0,0,1-.149-.4L2.8,3.092a.34.34,0,0,0-.379-.324H2.192v.8Zm.253-1.814c-.047,0-.094,0-.135.008s-.065.006-.09.006V2.3h.2c.268,0,.421-.1.421-.267S2.692,1.756,2.445,1.756Z" transform="translate(210.121 31.919)" fill="#fff"/>
      </g>
    </g>
    <g id="logo_compass_white" data-name="logo / compass / white" transform="translate(48)">
      <g id="White_Compass" data-name="White Compass">
        <path id="Path" d="M52.316,14.018C38.738,13.78,24.947,0,24.947,0,17.387,5.242,4.18,3.938.807,3.5A49.5,49.5,0,0,1,0,29.505c.048,0,15.046-2.645,24.954,3.388,0,0,13.806-13.78,27.369-14.022v-.9H15.659L15.607,15.3H52.3Z" transform="translate(147.424 85.399)" fill="#fff"/>
        <path id="Path-2" data-name="Path" d="M.011,18.875c13.578.238,27.372,14.018,27.372,14.018,7.56-5.242,20.763-3.938,24.136-3.5a49.6,49.6,0,0,1,.807-26.007c-.044,0-15.046,2.645-24.954-3.388C27.372,0,13.563,13.78,0,14.022v.9H36.668l.051,2.674H.011Z" transform="translate(0.356 85.385)" fill="#fff"/>
        <path id="Path-3" data-name="Path" d="M14.044.007C13.806,13.56,0,27.326,0,27.326c5.251,7.549,3.945,20.729,3.5,24.1a49.761,49.761,0,0,1,26.055.806c0-.048-2.65-15.018,3.394-24.908,0,0-13.806-13.78-14.048-27.319H18V36.6l-2.675.051V.007Z" transform="translate(82.176 0.359)" fill="#fff"/>
        <path id="Path-4" data-name="Path" d="M18.906,52.22C19.149,38.667,32.954,24.9,32.954,24.9,27.7,17.352,29.009,4.172,29.446.806A49.761,49.761,0,0,1,3.391,0C3.391.048,6.044,15.018,0,24.908c0,0,13.806,13.78,14.048,27.319h.9V15.63l2.675-.051v36.63Z" transform="translate(82.161 147.714)" fill="#fff"/>
        <path id="Path-5" data-name="Path" d="M9.2,24.121c1.229-1.429,5.89-6.48,10.661-7.077,0,0,.543-10.256,5.783-15.147l-.327-.414L10.91,14.414,9.85,13.231,24.22.315,23.923,0c-5.406,4.685-15.7,4.143-15.7,4.143C6.708,9.2,1.424,13.055,0,14.033A49.85,49.85,0,0,1,9.2,24.121Z" transform="translate(131.743 48.333)" fill="#fff"/>
        <path id="Path-6" data-name="Path" d="M16.426,24.121c-1.233-1.429-5.872-6.476-10.642-7.077,0,0-.543-10.256-5.783-15.143l.334-.418,14.4,12.934L15.8,13.231,1.417.315,1.714,0c5.406,4.685,15.7,4.143,15.7,4.143,1.519,5.062,6.8,8.912,8.228,9.89a49.85,49.85,0,0,0-9.211,10.088Z" transform="translate(43.956 47.407)" fill="#fff"/>
        <path id="Path-7" data-name="Path" d="M9.2,0c1.229,1.429,5.89,6.48,10.661,7.081,0,0,.543,10.256,5.783,15.147l-.334.414L10.91,9.711,9.85,10.9,24.22,23.81l-.3.315c-5.406-4.685-15.7-4.143-15.7-4.143C6.708,14.919,1.424,11.07,0,10.092A49.78,49.78,0,0,0,9.2,0Z" transform="translate(131.743 130.125)" fill="#fff"/>
        <path id="Path-8" data-name="Path" d="M16.426,0C15.193,1.432,10.554,6.48,5.783,7.081c0,0-.543,10.256-5.783,15.143l.334.418,14.4-12.934L15.8,10.894,1.417,23.81l.3.315c5.406-4.689,15.7-4.143,15.7-4.143,1.519-5.062,6.8-8.912,8.228-9.89A49.975,49.975,0,0,1,16.426,0Z" transform="translate(43.956 131.051)" fill="#fff"/>
        <path id="Path-9" data-name="Path" d="M10.418.516l-.756,9.33a6.543,6.543,0,0,1-1.908,4.245C5.607,16.033,1.017,20.945.147,25.634L0,26.4l2.411,4.971.624.1c.253-.128.591-.319,1.178-.63,4.22-2.234,7.53-8.081,8.741-10.707a6.821,6.821,0,0,1,3.475-3.154l11.417-4.586.653-.264A38.536,38.536,0,0,0,10.462,0Z" transform="translate(100.906 64.385)" fill="#fff"/>
        <path id="Path-10" data-name="Path" d="M18.844,33.128l-.194-.641L14.87,19.982a6.6,6.6,0,0,1,.228-4.7c1.3-2.612,3.809-8.93,2.9-13.663-.132-.674-.2-1.07-.257-1.352L17.237,0,12.793,2.286c-.092.128-.18.256-.3.425C9.7,6.579,9.321,13.289,9.4,16.176a6.8,6.8,0,0,1-1.717,4.366L.345,28.733,0,29.1a38.355,38.355,0,0,0,17.215,4.059C17.765,33.172,18.3,33.15,18.844,33.128Z" transform="translate(82.536 106.322)" fill="#fff"/>
        <path id="Path-11" data-name="Path" d="M30.576,22.773A38.6,38.6,0,0,0,29.512,0l-.668.4-11.1,6.714a6.5,6.5,0,0,1-4.565.938C10.517,7.491,4.462,6.714.161,8.308l4.4.67L0,13.348l.716.366c4.4,2.223,11.321,1.538,14.261.993a7.081,7.081,0,0,1,4.73,1.055l10.132,6.549Z" transform="translate(106.466 87.945)" fill="#fff"/>
        <path id="Path-12" data-name="Path" d="M28.477,20.337,16.65,15.172a6.781,6.781,0,0,1-3.508-3.3C11.967,9.132,8.7,3,4.415.579L3.4,0,4.631,7.535,0,5.07l.022.077c1.13,4.681,6.033,9.4,8.3,11.234a6.8,6.8,0,0,1,2.2,4.19l1.7,12.821.1.733v.037A38.626,38.626,0,0,0,29.2,20.681Z" transform="translate(102.018 102.469)" fill="#fff"/>
        <path id="Path-13" data-name="Path" d="M5.061,13.941l-.154-.689L4.8,12.769,3.938,8.791,2.3,0,0,.429,2.484,13.78l.128.681v.051l.734-.172.158-.029h0c.47-.1.936-.209,1.4-.319Z" transform="translate(104.066 124.399)" fill="#fff"/>
        <path id="Path-14" data-name="Path" d="M3.794.253a.505.505,0,0,1-.18-.022C3.1.161,2.572.092,2.048.044L1.464,0,1.4.425,0,9.52l2.316.366L3.728.707Z" transform="translate(101.461 62.751)" fill="#fff"/>
        <path id="Path-15" data-name="Path" d="M0,.626V.85C.018,1.4.051,1.949.088,2.5a3.918,3.918,0,0,0,.04.462H.374l13.468-.63L13.725,0,.228.63Z" transform="translate(61.284 101.465)" fill="#fff"/>
        <path id="Path-16" data-name="Path" d="M.18,1.842,10.844,10.81l1.512-1.791L1.817.158,1.736.092,1.626,0C1.068.549.525,1.1,0,1.692l.07.059Z" transform="translate(71.141 73.615)" fill="#fff"/>
        <path id="Path-17" data-name="Path" d="M33.494,16.747C29.9,13.608,23.244,12.6,20.356,12.407a6.831,6.831,0,0,1-4.191-2.117L6.972.37l-.191-.2L6.624,0A38.234,38.234,0,0,0,0,16.8l.235-.029L12.969,15.1a6.873,6.873,0,0,1,4.771,1.022c2.371,1.7,8.073,5.106,12.943,5.238l-3.615-3.593,6.558-.9Z" transform="translate(61.611 78.971)" fill="#fff"/>
        <path id="Path-18" data-name="Path" d="M10.675,15.315a6.489,6.489,0,0,1,2.5,3.923c.444,2.853,2.033,9.385,5.483,12.685l.543.527L22.07,26.74c.466-4.667-2.228-10.52-3.615-12.971a6.78,6.78,0,0,1-.528-4.659L20.084.4l.1-.4A38.317,38.317,0,0,0,0,7.018l.217.168Z" transform="translate(77.49 62.659)" fill="#fff"/>
        <path id="Path-19" data-name="Path" d="M19.439,12.868c2.569-.656,8.15-2.564,11.339-5.769L32,.348,31.629,0l-.906.073C25.736.44,20.081,4.659,17.813,6.667a7.165,7.165,0,0,1-4.664,1.564L.283,7.828H0a38.33,38.33,0,0,0,9.494,17.7l.22-.344,6.033-9.447A6.661,6.661,0,0,1,19.439,12.868Z" transform="translate(62.22 101.879)" fill="#fff"/>
        <path id="Path-20" data-name="Path" d="M10.844,3.985,7.112,3.421,5.453,0l-1.7,3.377L0,3.89,2.694,6.564l-.675,3.711L5.387,8.538,8.723,10.33,8.088,6.447l.62-.414,2.136-2.048Z" transform="translate(94.411 94.762)" fill="#fff"/>
        <path id="Path-21" data-name="Path" d="M1.1,8.48,12.565,2.355l.635-.341c-.048-.081-.1-.161-.139-.242-.257-.462-.517-.919-.793-1.366C12.183.271,12.092.136,12,0l-.628.348L0,6.432Z" transform="translate(120.367 80.604)" fill="#fff"/>
        <path id="Path-22" data-name="Path" d="M0,2.1,6.837,5.4l4.749,2.293.734.366c.2-.418.389-.835.569-1.26.128-.293.246-.593.367-.89L12.5,5.542,1.035,0Z" transform="translate(122.268 109.366)" fill="#fff"/>
        <path id="Path-23" data-name="Path" d="M7.64,0,.279,8.952,0,9.293c.139.11.279.223.422.33.415.319.844.626,1.273.927l.194.139.286-.366L9.45,1.476Z" transform="translate(76.004 122.004)" fill="#fff"/>
      </g>
    </g>
    <g id="star" transform="translate(60 177)">
      <path id="Path-24" data-name="Path" d="M9.211,14.064,14.9,17.5l-1.511-6.475,5.029-4.357L11.8,6.107,9.211,0,6.622,6.107,0,6.668l5.029,4.357L3.518,17.5Z" transform="translate(0.789)" fill="#fff"/>
    </g>
  </g>
</svg>
