<?xml version="1.0" encoding="UTF-8" standalone="no"?><!-- Generator: Gravit.io --><svg xmlns="http://www.w3.org/2000/svg" xmlns:xlink="http://www.w3.org/1999/xlink" style="isolation:isolate" viewBox="0 0 295 290" width="295pt" height="290pt"><defs><clipPath id="_clipPath_4IuwwsRkPVev7u4apPpGPGs2BkXuXsdL"><rect width="295" height="290"/></clipPath></defs><g clip-path="url(#_clipPath_4IuwwsRkPVev7u4apPpGPGs2BkXuXsdL)"><clipPath id="_clipPath_oeOMo7GbdNsjwoljyhR90lJO8Te3N3wV"><rect x="0" y="0" width="295" height="290" transform="matrix(1,0,0,1,0,0)" fill="rgb(255,255,255)"/></clipPath><g clip-path="url(#_clipPath_oeOMo7GbdNsjwoljyhR90lJO8Te3N3wV)"><g><g><g><path d=" M 232.245 87.679 C 220.349 87.471 208.267 75.398 208.267 75.398 C 201.643 79.99 190.073 78.848 187.117 78.464 C 188.917 85.986 188.673 93.852 186.41 101.248 C 186.452 101.248 199.592 98.93 208.273 104.216 C 208.273 104.216 220.369 92.143 232.251 91.931 L 232.251 91.142 L 200.129 91.142 L 200.084 88.802 L 232.231 88.802 L 232.245 87.679 L 232.245 87.679 Z " fill="rgb(255,255,255)"/><path d=" M 57.571 91.922 C 69.467 92.131 81.552 104.204 81.552 104.204 C 88.176 99.611 99.743 100.753 102.698 101.137 C 100.902 93.614 101.146 85.749 103.405 78.352 C 103.367 78.352 90.223 80.669 81.542 75.384 C 81.542 75.385 69.444 87.458 57.561 87.67 L 57.561 88.459 L 89.687 88.459 L 89.732 90.802 L 57.571 90.802 L 57.571 91.922 L 57.571 91.922 Z " fill="rgb(255,255,255)"/><path d=" M 141.55 0.899 C 141.341 12.773 129.245 24.833 129.245 24.833 C 133.846 31.447 132.702 42.994 132.312 45.948 C 139.848 44.151 147.728 44.394 155.139 46.654 C 155.139 46.612 152.817 33.496 158.113 24.832 C 158.113 24.832 146.017 12.759 145.805 0.897 L 145.015 0.897 L 145.015 32.958 L 142.672 33.003 L 142.672 0.899 L 141.55 0.899 L 141.55 0.899 Z " fill="rgb(255,255,255)"/><path d=" M 145.796 175.744 C 146.009 163.87 158.104 151.808 158.104 151.808 C 153.501 145.195 154.648 133.648 155.03 130.699 C 147.494 132.496 139.614 132.253 132.203 129.993 C 132.203 130.035 134.527 143.151 129.232 151.815 C 129.232 151.815 141.328 163.888 141.54 175.75 L 142.328 175.75 L 142.328 143.687 L 144.672 143.642 L 144.672 175.734 L 145.796 175.744 L 145.796 175.744 Z " fill="rgb(255,255,255)"/><path d=" M 180.732 64.056 C 181.809 62.804 185.893 58.379 190.073 57.856 C 190.073 57.856 190.548 48.871 195.139 44.585 L 194.853 44.223 L 182.23 55.552 L 181.302 54.515 L 193.892 43.199 L 193.631 42.923 C 188.895 47.028 179.876 46.553 179.876 46.553 C 178.549 50.984 173.92 54.361 172.672 55.218 C 175.751 57.78 178.464 60.754 180.732 64.056 L 180.732 64.056 L 180.732 64.056 Z " fill="rgb(255,255,255)"/><path d=" M 110.151 63.245 C 109.071 61.993 105.007 57.571 100.828 57.045 C 100.828 57.045 100.352 48.059 95.761 43.778 L 96.054 43.411 L 108.67 54.743 L 109.603 53.704 L 97.002 42.388 L 97.262 42.112 C 101.998 46.217 111.017 45.742 111.017 45.742 C 112.348 50.177 116.974 53.55 118.226 54.407 C 115.143 56.969 112.427 59.943 110.156 63.245 L 110.151 63.245 L 110.151 63.245 Z " fill="rgb(255,255,255)"/><path d=" M 180.732 114.583 C 181.809 115.835 185.893 120.26 190.073 120.787 C 190.073 120.787 190.548 129.772 195.139 134.057 L 194.846 134.42 L 182.23 123.091 L 181.302 124.133 L 193.892 135.443 L 193.629 135.719 C 188.892 131.615 179.874 132.09 179.874 132.09 C 178.549 127.654 173.92 124.282 172.672 123.425 C 175.752 120.862 178.464 117.886 180.732 114.583 L 180.732 114.583 L 180.732 114.583 Z " fill="rgb(255,255,255)"/><path d=" M 110.151 115.394 C 109.071 116.649 105.007 121.071 100.827 121.598 C 100.827 121.598 100.351 130.583 95.76 134.865 L 96.053 135.231 L 108.669 123.9 L 109.603 124.939 L 97.002 136.255 L 97.264 136.531 C 102.001 132.422 111.019 132.901 111.019 132.901 C 112.35 128.466 116.977 125.093 118.228 124.236 C 115.144 121.673 112.426 118.697 110.151 115.394 L 110.151 115.394 L 110.151 115.394 Z " fill="rgb(255,255,255)"/><path d=" M 154.782 57.439 L 154.12 65.613 C 154.038 67.016 153.443 68.339 152.448 69.332 C 150.567 71.034 146.546 75.337 145.784 79.445 L 145.655 80.116 L 147.767 84.472 L 148.314 84.559 C 148.536 84.447 148.832 84.28 149.346 84.007 C 153.043 82.05 155.943 76.927 157.004 74.627 C 157.66 73.374 158.739 72.395 160.049 71.863 L 170.051 67.845 L 170.624 67.614 C 166.485 62.629 160.999 58.94 154.821 56.987 L 154.782 57.439 L 154.782 57.439 Z " fill="rgb(255,255,255)"/><path d=" M 146.07 122.753 L 145.9 122.191 L 142.589 111.235 C 142.147 109.885 142.218 108.419 142.788 107.118 C 143.927 104.829 146.126 99.294 145.329 95.147 C 145.214 94.557 145.154 94.21 145.104 93.963 L 144.662 93.729 L 140.769 95.731 C 140.688 95.844 140.611 95.956 140.506 96.104 C 138.059 99.493 137.727 105.371 137.796 107.901 C 137.764 109.314 137.231 110.67 136.292 111.726 L 129.863 118.902 L 129.561 119.224 C 134.243 121.568 139.407 122.786 144.643 122.78 C 145.125 122.791 145.594 122.772 146.07 122.753 Z " fill="rgb(255,255,255)"/><path d=" M 177.314 97.58 C 179.02 90.987 178.695 84.033 176.382 77.628 L 175.797 77.979 L 166.072 83.861 C 164.886 84.62 163.462 84.913 162.073 84.683 C 159.74 84.191 154.436 83.51 150.667 84.907 L 154.522 85.494 L 150.526 89.323 L 151.154 89.643 C 155.009 91.591 161.072 90.991 163.648 90.513 C 165.095 90.324 166.562 90.652 167.792 91.438 L 176.669 97.175 L 177.314 97.58 L 177.314 97.58 Z " fill="rgb(255,255,255)"/><path d=" M 171.579 108.171 L 161.217 103.645 C 159.873 103.09 158.779 102.062 158.143 100.754 C 157.114 98.354 154.252 92.981 150.497 90.86 L 149.608 90.353 L 150.687 96.955 L 146.629 94.795 L 146.649 94.862 C 147.639 98.963 151.934 103.098 153.92 104.705 C 154.982 105.658 155.666 106.961 155.848 108.376 L 157.337 119.608 L 157.425 120.251 L 157.425 120.283 C 163.377 117.832 168.506 113.735 172.212 108.472 L 171.579 108.171 L 171.579 108.171 Z " fill="rgb(255,255,255)"/><path d=" M 152.858 121.78 L 152.723 121.177 L 152.629 120.753 L 151.874 117.268 L 150.439 109.566 L 148.424 109.942 L 150.6 121.639 L 150.712 122.236 L 150.712 122.28 L 151.355 122.13 L 151.494 122.104 L 151.494 122.104 C 151.905 122.017 152.314 121.921 152.72 121.825 L 152.858 121.78 L 152.858 121.78 Z " fill="rgb(255,255,255)"/><path d=" M 149.465 55.777 C 149.412 55.78 149.359 55.774 149.308 55.758 C 148.857 55.696 148.395 55.636 147.936 55.594 L 147.424 55.555 L 147.368 55.928 L 146.141 63.896 L 148.17 64.217 L 149.407 56.175 L 149.465 55.777 L 149.465 55.777 Z " fill="rgb(255,255,255)"/><path d=" M 110.941 90.022 L 110.941 90.218 C 110.957 90.7 110.986 91.181 111.019 91.664 C 111.022 91.799 111.034 91.934 111.054 92.068 L 111.269 92.068 L 123.069 91.516 L 122.966 89.473 L 111.141 90.025 L 110.941 90.022 L 110.941 90.022 Z " fill="rgb(255,255,255)"/><path d=" M 119.735 66.687 L 129.078 74.544 L 130.403 72.975 L 121.169 65.212 L 121.098 65.154 L 121.002 65.073 C 120.513 65.554 120.037 66.037 119.577 66.556 L 119.639 66.608 L 119.735 66.687 L 119.735 66.687 Z " fill="rgb(255,255,255)"/><path d=" M 140.573 84.438 C 137.424 81.688 131.592 80.805 129.062 80.636 C 127.658 80.471 126.357 79.814 125.39 78.781 L 117.336 70.09 L 117.169 69.915 L 117.031 69.766 C 113.949 74.138 111.959 79.185 111.228 84.485 L 111.434 84.459 L 122.59 82.995 C 124.046 82.773 125.533 83.091 126.77 83.891 C 128.848 85.38 133.843 88.364 138.11 88.48 L 134.943 85.332 L 140.688 84.543 L 140.573 84.438 L 140.573 84.438 Z " fill="rgb(255,255,255)"/><path d=" M 134.492 68.892 C 135.622 69.728 136.402 70.952 136.683 72.329 C 137.072 74.829 138.464 80.552 141.486 83.443 L 141.962 83.905 L 144.476 78.902 C 144.884 74.813 142.524 69.685 141.309 67.538 C 140.674 66.276 140.51 64.828 140.846 63.456 L 142.736 55.825 L 142.823 55.475 C 136.465 55.806 130.332 57.938 125.14 61.623 L 125.33 61.77 L 134.492 68.892 L 134.492 68.892 Z " fill="rgb(255,255,255)"/><path d=" M 128.792 101.11 C 131.043 100.535 135.933 98.864 138.727 96.056 L 139.797 90.141 L 139.472 89.836 L 138.679 89.9 C 134.309 90.222 129.355 93.918 127.368 95.677 C 126.21 96.602 124.763 97.087 123.282 97.047 L 112.009 96.694 L 111.762 96.694 C 113.106 102.511 115.978 107.864 120.079 112.202 L 120.272 111.9 L 125.558 103.624 C 126.297 102.422 127.446 101.529 128.792 101.11 Z " fill="rgb(255,255,255)"/><path d=" M 149.465 87.092 L 146.196 86.598 L 144.742 83.601 L 143.253 86.559 L 139.965 87.009 L 142.325 89.352 L 141.734 92.603 L 144.684 91.081 L 147.607 92.651 L 147.051 89.249 L 147.594 88.886 L 149.465 87.092 L 149.465 87.092 Z " fill="rgb(255,255,255)"/><path d=" M 163.669 78.626 L 173.714 73.26 L 174.27 72.961 C 174.228 72.89 174.182 72.82 174.148 72.749 C 173.923 72.344 173.695 71.944 173.453 71.552 C 173.379 71.434 173.299 71.316 173.219 71.197 L 172.668 71.502 L 162.705 76.832 L 163.669 78.626 L 163.669 78.626 Z " fill="rgb(255,255,255)"/><path d=" M 164.371 98.235 L 170.361 101.127 L 174.521 103.136 L 175.164 103.456 C 175.34 103.09 175.505 102.725 175.663 102.352 C 175.775 102.096 175.879 101.833 175.985 101.573 L 175.322 101.251 L 165.277 96.396 L 164.371 98.235 L 164.371 98.235 Z " fill="rgb(255,255,255)"/><path d=" M 130.532 107.468 L 124.082 115.311 L 123.838 115.61 C 123.96 115.706 124.082 115.805 124.208 115.899 C 124.571 116.178 124.947 116.447 125.323 116.711 L 125.493 116.833 L 125.744 116.512 L 132.117 108.761 L 130.532 107.468 L 130.532 107.468 Z " fill="rgb(255,255,255)"/></g></g><g><path d=" M 76 179.064 L 81.689 182.5 L 80.178 176.025 L 85.207 171.668 L 78.589 171.107 L 76 165 L 73.411 171.107 L 66.789 171.668 L 71.818 176.025 L 70.307 182.5 L 76 179.064 L 76 179.064 Z " fill="rgb(200,17,46)"/></g><clipPath id="_clipPath_IvwnJabgHnHeeA4HS3VpNMXbnGKp1zw7"><rect x="57.561" y="204.515" width="188.98" height="84.485" transform="matrix(1,0,0,1,0,0)" fill="rgb(255,255,255)"/></clipPath><g clip-path="url(#_clipPath_IvwnJabgHnHeeA4HS3VpNMXbnGKp1zw7)"><g><g><g><path d=" M 72.019 260.701 Q 64.46 260.701 61.125 256.938 Q 57.79 253.175 57.79 244.959 L 57.79 239.566 L 68.702 239.566 L 68.702 246.458 Q 68.702 248.373 69.283 249.453 Q 69.863 250.534 71.305 250.535 Q 72.811 250.535 73.39 249.658 Q 73.969 248.781 73.97 246.767 Q 73.97 244.227 73.468 242.519 C 73.102 241.332 72.508 240.228 71.719 239.268 Q 70.481 237.712 68.285 235.646 L 63.333 230.949 Q 57.784 225.71 57.784 218.969 Q 57.784 211.914 61.06 208.214 Q 64.336 204.515 70.545 204.515 Q 78.134 204.515 81.316 208.559 Q 84.499 212.603 84.503 220.846 L 73.276 220.846 L 73.276 217.053 Q 73.276 215.925 72.633 215.297 Q 71.991 214.668 70.892 214.67 Q 69.577 214.67 68.965 215.407 Q 68.352 216.144 68.353 217.303 Q 68.353 218.464 68.98 219.812 Q 69.607 221.161 71.457 222.917 L 77.822 229.031 C 79.082 230.227 80.255 231.51 81.334 232.872 C 82.439 234.291 83.308 235.88 83.905 237.576 Q 84.878 240.255 84.878 244.114 Q 84.878 251.895 82.009 256.295 Q 79.14 260.695 72.019 260.701 Z " fill="rgb(200,17,46)"/><path d=" M 92.872 260.198 L 86.949 205.01 L 97.732 205.01 L 100.773 239.848 L 103.878 205.01 L 114.163 205.01 L 117.11 239.848 L 120.058 205.01 L 130.97 205.01 L 124.949 260.198 L 111.721 260.198 L 108.96 233.639 L 106.326 260.198 L 92.872 260.198 L 92.872 260.198 Z " fill="rgb(200,17,46)"/><path d=" M 147.746 260.701 Q 133.698 260.701 133.698 246.119 L 133.698 227.242 Q 133.698 220.596 137.43 216.628 Q 141.162 212.661 147.746 212.662 Q 154.363 212.662 158.094 216.628 Q 161.826 220.595 161.825 227.242 L 161.825 246.119 Q 161.825 260.7 147.746 260.701 Z  M 147.746 252.045 Q 149.157 252.045 149.769 251.027 Q 150.382 250.009 150.381 248.439 L 150.381 225.455 Q 150.381 221.347 147.746 221.342 Q 145.111 221.336 145.113 225.455 L 145.113 248.439 Q 145.113 250.009 145.724 251.027 Q 146.335 252.045 147.746 252.045 L 147.746 252.045 L 147.746 252.045 Z " fill="rgb(255,255,255)"/><path d=" M 165.965 260.198 L 165.965 213.162 L 177.378 213.162 L 177.378 218.399 Q 178.194 215.671 180.268 214.134 Q 182.343 212.596 185.474 212.597 L 185.474 221.973 C 184.371 221.989 183.27 222.089 182.182 222.271 C 181.04 222.437 179.917 222.71 178.827 223.087 Q 177.382 223.604 177.382 224.231 L 177.382 260.197 L 165.965 260.198 L 165.965 260.198 Z " fill="rgb(255,255,255)"/><path d=" M 188.228 260.198 L 188.228 205.01 L 199.642 205.01 L 199.642 260.198 L 188.228 260.198 L 188.228 260.198 Z " fill="rgb(255,255,255)"/><path d=" M 213.408 260.701 Q 210.146 260.701 208.233 259.509 C 206.969 258.727 205.974 257.579 205.381 256.216 Q 204.44 254.115 204.141 251.293 C 203.936 249.282 203.836 247.262 203.843 245.241 L 203.843 224.797 Q 203.843 219.373 205.772 216.015 Q 207.701 212.656 212.31 212.66 Q 215.728 212.66 217.562 214.117 Q 219.396 215.574 220.4 218.178 L 220.4 205.01 L 231.815 205.01 L 231.815 260.198 L 220.4 260.198 L 220.4 255.213 Q 219.46 257.753 217.908 259.227 Q 216.356 260.701 213.408 260.701 Z  M 217.703 251.919 Q 219.303 251.919 219.851 250.633 Q 220.399 249.346 220.4 246.023 L 220.4 226.235 C 220.399 225.125 220.236 224.021 219.914 222.958 Q 219.427 221.344 217.767 221.343 Q 215.948 221.343 215.477 222.879 C 215.154 223.968 214.996 225.099 215.006 226.235 L 215.006 246.023 Q 215.011 251.921 217.703 251.921 L 217.703 251.919 L 217.703 251.919 Z " fill="rgb(255,255,255)"/><path d=" M 173.806 286.152 L 170.382 286.152 L 170.382 268.105 L 173.99 268.105 L 175.6 276.74 L 175.6 268.105 L 178.983 268.105 L 178.983 286.152 L 175.559 286.152 L 173.806 277.118 L 173.806 286.152 L 173.806 286.152 Z  M 183.181 286.32 L 183.181 286.32 Q 181.449 286.32 180.807 285.133 L 180.807 285.133 L 180.807 285.133 Q 180.165 283.946 180.165 281.74 L 180.165 281.74 L 180.165 281.74 Q 180.165 279.933 180.623 278.967 L 180.623 278.967 L 180.623 278.967 Q 181.082 278 181.897 277.549 L 181.897 277.549 L 181.897 277.549 Q 182.712 277.097 184.383 276.551 L 184.383 276.551 L 185.362 276.214 L 185.362 276.172 L 185.362 274.639 L 185.362 274.639 Q 185.362 274.029 185.127 273.704 L 185.127 273.704 L 185.127 273.704 Q 184.893 273.378 184.567 273.378 L 184.567 273.378 L 184.567 273.378 Q 184.281 273.378 184.067 273.651 L 184.067 273.651 L 184.067 273.651 Q 183.853 273.924 183.853 274.387 L 183.853 274.387 L 183.853 275.311 L 180.389 275.311 L 180.389 274.807 L 180.389 274.807 Q 180.389 272.538 181.418 271.571 L 181.418 271.571 L 181.418 271.571 Q 182.447 270.605 184.771 270.605 L 184.771 270.605 L 184.771 270.605 Q 186.625 270.605 187.787 271.603 L 187.787 271.603 L 187.787 271.603 Q 188.948 272.601 188.948 274.429 L 188.948 274.429 L 188.948 286.152 L 185.402 286.152 L 185.402 284.324 L 185.402 284.324 Q 185.137 285.27 184.557 285.795 L 184.557 285.795 L 184.557 285.795 Q 183.976 286.32 183.181 286.32 L 183.181 286.32 L 183.181 286.32 Z  M 184.587 283.463 L 184.587 283.463 Q 184.995 283.463 185.168 283.116 L 185.168 283.116 L 185.168 283.116 Q 185.341 282.77 185.341 282.265 L 185.341 282.265 L 185.341 277.979 L 185.341 277.979 Q 184.546 278.294 184.169 278.778 L 184.169 278.778 L 184.169 278.778 Q 183.792 279.261 183.792 280.122 L 183.792 280.122 L 183.792 282.097 L 183.792 282.097 Q 183.792 283.463 184.587 283.463 L 184.587 283.463 L 184.587 283.463 Z  M 193.391 286.32 L 193.391 286.32 Q 191.985 286.32 191.455 285.711 L 191.455 285.711 L 191.455 285.711 Q 190.925 285.102 190.925 283.757 L 190.925 283.757 L 190.925 274.155 L 189.927 274.155 L 189.927 271.361 L 190.925 271.361 L 190.925 268.105 L 194.39 268.105 L 194.39 271.361 L 195.409 271.361 L 195.409 274.155 L 194.39 274.155 L 194.39 282.791 L 194.39 282.791 Q 194.39 283.19 194.451 283.379 L 194.451 283.379 L 194.451 283.379 Q 194.512 283.568 194.777 283.568 L 194.777 283.568 L 194.777 283.568 Q 194.981 283.568 195.164 283.547 L 195.164 283.547 L 195.164 283.547 Q 195.348 283.526 195.409 283.526 L 195.409 283.526 L 195.409 286.047 L 195.409 286.047 Q 195.103 286.131 194.522 286.226 L 194.522 286.226 L 194.522 286.226 Q 193.942 286.32 193.391 286.32 L 193.391 286.32 L 193.391 286.32 Z  M 200.076 269.743 L 196.509 269.743 L 196.509 267.18 L 200.076 267.18 L 200.076 269.743 L 200.076 269.743 Z  M 200.076 286.152 L 196.509 286.152 L 196.509 270.773 L 200.076 270.773 L 200.076 286.152 L 200.076 286.152 Z  M 205.823 286.32 L 205.823 286.32 Q 201.36 286.32 201.36 281.551 L 201.36 281.551 L 201.36 275.374 L 201.36 275.374 Q 201.36 273.189 202.552 271.897 L 202.552 271.897 L 202.552 271.897 Q 203.744 270.605 205.823 270.605 L 205.823 270.605 L 205.823 270.605 Q 207.902 270.605 209.094 271.897 L 209.094 271.897 L 209.094 271.897 Q 210.286 273.189 210.286 275.374 L 210.286 275.374 L 210.286 281.551 L 210.286 281.551 Q 210.286 286.32 205.823 286.32 L 205.823 286.32 L 205.823 286.32 Z  M 205.823 283.484 L 205.823 283.484 Q 206.251 283.484 206.455 283.169 L 206.455 283.169 L 206.455 283.169 Q 206.659 282.854 206.659 282.307 L 206.659 282.307 L 206.659 274.786 L 206.659 274.786 Q 206.659 273.441 205.823 273.441 L 205.823 273.441 L 205.823 273.441 Q 204.987 273.441 204.987 274.786 L 204.987 274.786 L 204.987 282.307 L 204.987 282.307 Q 204.987 282.854 205.191 283.169 L 205.191 283.169 L 205.191 283.169 Q 205.395 283.484 205.823 283.484 L 205.823 283.484 L 205.823 283.484 Z  M 211.611 286.152 L 211.611 270.773 L 215.177 270.773 L 215.177 272.727 L 215.177 272.727 Q 215.401 271.781 215.952 271.193 L 215.952 271.193 L 215.952 271.193 Q 216.502 270.605 217.419 270.605 L 217.419 270.605 L 217.419 270.605 Q 218.927 270.605 219.651 271.561 L 219.651 271.561 L 219.651 271.561 Q 220.374 272.517 220.374 274.282 L 220.374 274.282 L 220.374 286.152 L 216.869 286.152 L 216.869 274.66 L 216.869 274.66 Q 216.869 274.155 216.675 273.798 L 216.675 273.798 L 216.675 273.798 Q 216.482 273.441 216.074 273.441 L 216.074 273.441 L 216.074 273.441 Q 215.524 273.441 215.351 273.956 L 215.351 273.956 L 215.351 273.956 Q 215.177 274.471 215.177 275.332 L 215.177 275.332 L 215.177 286.152 L 211.611 286.152 L 211.611 286.152 Z  M 225.877 286.32 L 225.877 286.32 Q 221.454 286.32 221.454 281.698 L 221.454 281.698 L 221.475 280.48 L 225.041 280.48 L 225.062 282.286 L 225.062 282.286 Q 225.062 282.833 225.265 283.116 L 225.265 283.116 L 225.265 283.116 Q 225.469 283.4 225.938 283.4 L 225.938 283.4 L 225.938 283.4 Q 226.651 283.4 226.651 282.202 L 226.651 282.202 L 226.651 282.202 Q 226.651 281.32 226.315 280.816 L 226.315 280.816 L 226.315 280.816 Q 225.979 280.311 225.245 279.744 L 225.245 279.744 L 223.35 278.231 L 223.35 278.231 Q 222.371 277.454 221.943 276.624 L 221.943 276.624 L 221.943 276.624 Q 221.515 275.794 221.515 274.282 L 221.515 274.282 L 221.515 274.282 Q 221.515 273.105 222.117 272.275 L 222.117 272.275 L 222.117 272.275 Q 222.718 271.445 223.717 271.025 L 223.717 271.025 L 223.717 271.025 Q 224.715 270.605 225.938 270.605 L 225.938 270.605 L 225.938 270.605 Q 230.279 270.605 230.279 275.059 L 230.279 275.059 L 230.279 275.353 L 226.59 275.353 L 226.59 274.765 L 226.59 274.765 Q 226.59 274.219 226.417 273.83 L 226.417 273.83 L 226.417 273.83 Q 226.244 273.441 225.836 273.441 L 225.836 273.441 L 225.836 273.441 Q 225.469 273.441 225.276 273.662 L 225.276 273.662 L 225.276 273.662 Q 225.082 273.882 225.082 274.261 L 225.082 274.261 L 225.082 274.261 Q 225.082 275.101 225.714 275.563 L 225.714 275.563 L 227.915 277.223 L 227.915 277.223 Q 229.097 278.126 229.729 279.187 L 229.729 279.187 L 229.729 279.187 Q 230.36 280.248 230.36 281.866 L 230.36 281.866 L 230.36 281.866 Q 230.36 284.009 229.178 285.165 L 229.178 285.165 L 229.178 285.165 Q 227.996 286.32 225.877 286.32 L 225.877 286.32 L 225.877 286.32 Z  M 113.278 286.32 L 113.278 286.32 Q 111.118 286.32 110.068 285.06 L 110.068 285.06 L 110.068 285.06 Q 109.019 283.799 109.019 281.32 L 109.019 281.32 L 109.019 268.105 L 112.422 268.105 L 112.422 281.173 L 112.422 281.173 Q 112.422 282.034 112.585 282.518 L 112.585 282.518 L 112.585 282.518 Q 112.748 283.001 113.278 283.001 L 113.278 283.001 L 113.278 283.001 Q 113.808 283.001 113.971 282.528 L 113.971 282.528 L 113.971 282.528 Q 114.134 282.055 114.134 281.173 L 114.134 281.173 L 114.134 268.105 L 117.537 268.105 L 117.537 281.32 L 117.537 281.32 Q 117.537 283.799 116.488 285.06 L 116.488 285.06 L 116.488 285.06 Q 115.438 286.32 113.278 286.32 L 113.278 286.32 L 113.278 286.32 Z  M 118.821 286.152 L 118.821 270.773 L 122.388 270.773 L 122.388 272.727 L 122.388 272.727 Q 122.612 271.781 123.162 271.193 L 123.162 271.193 L 123.162 271.193 Q 123.713 270.605 124.63 270.605 L 124.63 270.605 L 124.63 270.605 Q 126.138 270.605 126.861 271.561 L 126.861 271.561 L 126.861 271.561 Q 127.585 272.517 127.585 274.282 L 127.585 274.282 L 127.585 286.152 L 124.079 286.152 L 124.079 274.66 L 124.079 274.66 Q 124.079 274.155 123.886 273.798 L 123.886 273.798 L 123.886 273.798 Q 123.692 273.441 123.285 273.441 L 123.285 273.441 L 123.285 273.441 Q 122.734 273.441 122.561 273.956 L 122.561 273.956 L 122.561 273.956 Q 122.388 274.471 122.388 275.332 L 122.388 275.332 L 122.388 286.152 L 118.821 286.152 L 118.821 286.152 Z  M 132.537 269.743 L 128.971 269.743 L 128.971 267.18 L 132.537 267.18 L 132.537 269.743 L 132.537 269.743 Z  M 132.537 286.152 L 128.971 286.152 L 128.971 270.773 L 132.537 270.773 L 132.537 286.152 L 132.537 286.152 Z  M 137.021 286.32 L 137.021 286.32 Q 135.614 286.32 135.085 285.711 L 135.085 285.711 L 135.085 285.711 Q 134.555 285.102 134.555 283.757 L 134.555 283.757 L 134.555 274.155 L 133.556 274.155 L 133.556 271.361 L 134.555 271.361 L 134.555 268.105 L 138.019 268.105 L 138.019 271.361 L 139.038 271.361 L 139.038 274.155 L 138.019 274.155 L 138.019 282.791 L 138.019 282.791 Q 138.019 283.19 138.08 283.379 L 138.08 283.379 L 138.08 283.379 Q 138.141 283.568 138.406 283.568 L 138.406 283.568 L 138.406 283.568 Q 138.61 283.568 138.794 283.547 L 138.794 283.547 L 138.794 283.547 Q 138.977 283.526 139.038 283.526 L 139.038 283.526 L 139.038 286.047 L 139.038 286.047 Q 138.733 286.131 138.152 286.226 L 138.152 286.226 L 138.152 286.226 Q 137.571 286.32 137.021 286.32 L 137.021 286.32 L 137.021 286.32 Z  M 143.705 269.743 L 140.139 269.743 L 140.139 267.18 L 143.705 267.18 L 143.705 269.743 L 143.705 269.743 Z  M 143.705 286.152 L 140.139 286.152 L 140.139 270.773 L 143.705 270.773 L 143.705 286.152 L 143.705 286.152 Z  M 145.111 286.152 L 145.111 270.773 L 148.678 270.773 L 148.678 272.727 L 148.678 272.727 Q 148.902 271.781 149.452 271.193 L 149.452 271.193 L 149.452 271.193 Q 150.003 270.605 150.92 270.605 L 150.92 270.605 L 150.92 270.605 Q 152.428 270.605 153.151 271.561 L 153.151 271.561 L 153.151 271.561 Q 153.875 272.517 153.875 274.282 L 153.875 274.282 L 153.875 286.152 L 150.369 286.152 L 150.369 274.66 L 150.369 274.66 Q 150.369 274.155 150.176 273.798 L 150.176 273.798 L 150.176 273.798 Q 149.982 273.441 149.575 273.441 L 149.575 273.441 L 149.575 273.441 Q 149.024 273.441 148.851 273.956 L 148.851 273.956 L 148.851 273.956 Q 148.678 274.471 148.678 275.332 L 148.678 275.332 L 148.678 286.152 L 145.111 286.152 L 145.111 286.152 Z  M 159.296 288.4 L 159.296 288.4 Q 157.706 288.4 156.799 288.138 L 156.799 288.138 L 156.799 288.138 Q 155.892 287.875 155.016 287.14 L 155.016 287.14 L 156.239 285.018 L 156.239 285.018 Q 157.543 285.816 158.827 285.816 L 158.827 285.816 L 158.827 285.816 Q 159.663 285.816 160.091 285.27 L 160.091 285.27 L 160.091 285.27 Q 160.519 284.724 160.519 283.778 L 160.519 283.778 L 160.519 282.938 L 160.519 282.938 Q 160.091 284.513 158.256 284.513 L 158.256 284.513 L 158.256 284.513 Q 156.728 284.513 156.004 283.442 L 156.004 283.442 L 156.004 283.442 Q 155.281 282.37 155.281 280.585 L 155.281 280.585 L 155.281 274.807 L 155.281 274.807 Q 155.281 272.769 155.943 271.687 L 155.943 271.687 L 155.943 271.687 Q 156.606 270.605 158.256 270.605 L 158.256 270.605 L 158.256 270.605 Q 159.214 270.605 159.775 271.099 L 159.775 271.099 L 159.775 271.099 Q 160.335 271.592 160.519 272.496 L 160.519 272.496 L 160.519 270.773 L 164.167 270.773 L 164.167 283.547 L 164.167 283.547 Q 164.167 286.131 163.005 287.266 L 163.005 287.266 L 163.005 287.266 Q 161.843 288.4 159.296 288.4 L 159.296 288.4 L 159.296 288.4 Z  M 159.683 281.74 L 159.683 281.74 Q 160.519 281.74 160.519 280.185 L 160.519 280.185 L 160.519 274.702 L 160.519 274.702 Q 160.519 274.24 160.274 273.819 L 160.274 273.819 L 160.274 273.819 Q 160.029 273.399 159.663 273.399 L 159.663 273.399 L 159.663 273.399 Q 159.194 273.399 159.031 273.746 L 159.031 273.746 L 159.031 273.746 Q 158.868 274.092 158.868 274.702 L 158.868 274.702 L 158.868 280.185 L 158.868 280.185 Q 158.868 280.879 159.031 281.31 L 159.031 281.31 L 159.031 281.31 Q 159.194 281.74 159.683 281.74 L 159.683 281.74 L 159.683 281.74 Z  M 63.979 286.152 L 60.678 286.152 L 60.678 280.206 L 57.886 268.105 L 61.35 268.105 L 62.328 274.219 L 63.307 268.105 L 66.771 268.105 L 63.979 280.206 L 63.979 286.152 L 63.979 286.152 Z  M 71.927 286.32 L 71.927 286.32 Q 67.464 286.32 67.464 281.551 L 67.464 281.551 L 67.464 275.374 L 67.464 275.374 Q 67.464 273.189 68.656 271.897 L 68.656 271.897 L 68.656 271.897 Q 69.849 270.605 71.927 270.605 L 71.927 270.605 L 71.927 270.605 Q 74.006 270.605 75.198 271.897 L 75.198 271.897 L 75.198 271.897 Q 76.39 273.189 76.39 275.374 L 76.39 275.374 L 76.39 281.551 L 76.39 281.551 Q 76.39 286.32 71.927 286.32 L 71.927 286.32 L 71.927 286.32 Z  M 71.927 283.484 L 71.927 283.484 Q 72.355 283.484 72.559 283.169 L 72.559 283.169 L 72.559 283.169 Q 72.763 282.854 72.763 282.307 L 72.763 282.307 L 72.763 274.786 L 72.763 274.786 Q 72.763 273.441 71.927 273.441 L 71.927 273.441 L 71.927 273.441 Q 71.092 273.441 71.092 274.786 L 71.092 274.786 L 71.092 282.307 L 71.092 282.307 Q 71.092 282.854 71.296 283.169 L 71.296 283.169 L 71.296 283.169 Q 71.499 283.484 71.927 283.484 L 71.927 283.484 L 71.927 283.484 Z  M 80.589 286.32 L 80.589 286.32 Q 78.918 286.32 78.296 285.291 L 78.296 285.291 L 78.296 285.291 Q 77.674 284.261 77.674 282.223 L 77.674 282.223 L 77.674 270.773 L 81.261 270.773 L 81.261 281.488 L 81.261 281.488 Q 81.261 281.635 81.261 282.276 L 81.261 282.276 L 81.261 282.276 Q 81.261 282.917 81.455 283.179 L 81.455 283.179 L 81.455 283.179 Q 81.648 283.442 82.056 283.442 L 82.056 283.442 L 82.056 283.442 Q 82.606 283.442 82.749 282.969 L 82.749 282.969 L 82.749 282.969 Q 82.892 282.497 82.892 281.614 L 82.892 281.614 L 82.892 281.488 L 82.912 270.773 L 86.458 270.773 L 86.458 286.152 L 82.892 286.152 L 82.892 284.513 L 82.892 284.513 Q 82.525 285.48 82.036 285.9 L 82.036 285.9 L 82.036 285.9 Q 81.547 286.32 80.589 286.32 L 80.589 286.32 L 80.589 286.32 Z  M 90.962 286.32 L 90.962 286.32 Q 89.556 286.32 89.026 285.711 L 89.026 285.711 L 89.026 285.711 Q 88.496 285.102 88.496 283.757 L 88.496 283.757 L 88.496 274.155 L 87.497 274.155 L 87.497 271.361 L 88.496 271.361 L 88.496 268.105 L 91.961 268.105 L 91.961 271.361 L 92.98 271.361 L 92.98 274.155 L 91.961 274.155 L 91.961 282.791 L 91.961 282.791 Q 91.961 283.19 92.022 283.379 L 92.022 283.379 L 92.022 283.379 Q 92.083 283.568 92.348 283.568 L 92.348 283.568 L 92.348 283.568 Q 92.552 283.568 92.735 283.547 L 92.735 283.547 L 92.735 283.547 Q 92.919 283.526 92.98 283.526 L 92.98 283.526 L 92.98 286.047 L 92.98 286.047 Q 92.674 286.131 92.093 286.226 L 92.093 286.226 L 92.093 286.226 Q 91.512 286.32 90.962 286.32 L 90.962 286.32 L 90.962 286.32 Z  M 94.101 286.152 L 94.101 268 L 97.769 268 L 97.769 272.286 L 97.769 272.286 Q 98.34 270.605 99.95 270.605 L 99.95 270.605 L 99.95 270.605 Q 101.458 270.605 102.232 271.592 L 102.232 271.592 L 102.232 271.592 Q 103.007 272.58 103.007 274.303 L 103.007 274.303 L 103.007 286.152 L 99.44 286.152 L 99.44 274.534 L 99.44 274.534 Q 99.44 274.029 99.216 273.714 L 99.216 273.714 L 99.216 273.714 Q 98.992 273.399 98.564 273.399 L 98.564 273.399 L 98.564 273.399 Q 98.197 273.399 97.983 273.725 L 97.983 273.725 L 97.983 273.725 Q 97.769 274.05 97.769 274.513 L 97.769 274.513 L 97.769 286.152 L 94.101 286.152 L 94.101 286.152 Z " fill="rgb(255,255,255)"/><path d=" M 239.86 280.812 L 239.86 280.812 Q 238.133 280.812 236.733 280.006 L 236.733 280.006 L 236.733 280.006 Q 235.332 279.2 234.526 277.79 L 234.526 277.79 L 234.526 277.79 Q 233.72 276.379 233.72 274.653 L 233.72 274.653 L 233.72 274.653 Q 233.72 272.926 234.526 271.515 L 234.526 271.515 L 234.526 271.515 Q 235.332 270.105 236.733 269.299 L 236.733 269.299 L 236.733 269.299 Q 238.133 268.494 239.86 268.494 L 239.86 268.494 L 239.86 268.494 Q 241.587 268.494 242.997 269.299 L 242.997 269.299 L 242.997 269.299 Q 244.408 270.105 245.213 271.515 L 245.213 271.515 L 245.213 271.515 Q 246.019 272.926 246.019 274.653 L 246.019 274.653 L 246.019 274.653 Q 246.019 276.379 245.213 277.79 L 245.213 277.79 L 245.213 277.79 Q 244.408 279.2 242.997 280.006 L 242.997 280.006 L 242.997 280.006 Q 241.587 280.812 239.86 280.812 L 239.86 280.812 L 239.86 280.812 Z  M 239.86 279.603 L 239.86 279.603 Q 241.184 279.603 242.259 278.941 L 242.259 278.941 L 242.259 278.941 Q 243.333 278.279 243.938 277.147 L 243.938 277.147 L 243.938 277.147 Q 244.542 276.015 244.542 274.653 L 244.542 274.653 L 244.542 274.653 Q 244.542 273.29 243.938 272.158 L 243.938 272.158 L 243.938 272.158 Q 243.333 271.026 242.259 270.364 L 242.259 270.364 L 242.259 270.364 Q 241.184 269.702 239.86 269.702 L 239.86 269.702 L 239.86 269.702 Q 238.536 269.702 237.471 270.364 L 237.471 270.364 L 237.471 270.364 Q 236.407 271.026 235.802 272.168 L 235.802 272.168 L 235.802 272.168 Q 235.198 273.309 235.198 274.653 L 235.198 274.653 L 235.198 274.653 Q 235.198 275.996 235.802 277.137 L 235.802 277.137 L 235.802 277.137 Q 236.407 278.279 237.471 278.941 L 237.471 278.941 L 237.471 278.941 Q 238.536 279.603 239.86 279.603 L 239.86 279.603 L 239.86 279.603 Z  M 237.788 278.701 L 237.788 270.719 L 240.493 270.719 L 240.493 270.719 Q 241.453 270.719 241.779 271.276 L 241.779 271.276 L 241.779 271.276 Q 242.105 271.832 242.105 272.964 L 242.105 272.964 L 242.105 272.964 Q 242.105 273.636 241.904 274.01 L 241.904 274.01 L 241.904 274.01 Q 241.702 274.384 241.223 274.557 L 241.223 274.557 L 241.223 274.557 Q 241.971 274.691 241.971 275.689 L 241.971 275.689 L 241.971 278.701 L 240.244 278.701 L 240.244 275.593 L 240.244 275.593 Q 240.244 275.267 240.1 275.171 L 240.1 275.171 L 240.1 275.171 Q 239.956 275.075 239.572 275.075 L 239.572 275.075 L 239.572 278.701 L 237.788 278.701 L 237.788 278.701 Z  M 239.572 273.693 L 240.033 273.693 L 240.033 273.693 Q 240.378 273.693 240.378 272.964 L 240.378 272.964 L 240.378 272.964 Q 240.378 272.465 240.225 272.331 L 240.225 272.331 L 240.225 272.331 Q 240.071 272.197 239.572 272.197 L 239.572 272.197 L 239.572 273.693 L 239.572 273.693 Z " fill-rule="evenodd" fill="rgb(255,255,255)"/></g></g></g></g></g></g></g></svg>