<svg id="eXTkxA9cMpR1" xmlns="http://www.w3.org/2000/svg" xmlns:xlink="http://www.w3.org/1999/xlink" viewBox="0 0 295 290" shape-rendering="geometricPrecision" text-rendering="geometricPrecision"><g clip-path="url(#eXTkxA9cMpR49)"><g><g clip-path="url(#eXTkxA9cMpR47)"><g><g><g><g><path d="M232.245,87.679c-11.896-.208-23.978-12.281-23.978-12.281-6.624,4.592-18.194,3.45-21.15,3.066c1.8,7.522,1.556,15.388-.707,22.784.042,0,13.182-2.318,21.863,2.968c0,0,12.096-12.073,23.978-12.285v-.789h-32.122l-.045-2.34h32.147l.014-1.123v0Z" fill="#fff"/><path d="M57.571,91.922c11.896.209,23.981,12.282,23.981,12.282c6.624-4.593,18.191-3.451,21.146-3.067-1.796-7.523-1.552-15.388.707-22.785-.038,0-13.182,2.317-21.863-2.968c0,.001-12.098,12.074-23.981,12.286v.789h32.126l.045,2.343h-32.161v1.12v0Z" fill="#fff"/><path d="M141.55,0.899c-.209,11.874-12.305,23.934-12.305,23.934c4.601,6.614,3.457,18.161,3.067,21.115c7.536-1.797,15.416-1.554,22.827.706c0-.042-2.322-13.158,2.974-21.822c0,0-12.096-12.073-12.308-23.935h-.79v32.061l-2.343.045v-32.104h-1.122v0Z" fill="#fff"/><path d="M145.796,175.744c.213-11.874,12.308-23.936,12.308-23.936-4.603-6.613-3.456-18.16-3.074-21.109-7.536,1.797-15.416,1.554-22.827-.706c0,.042,2.324,13.158-2.971,21.822c0,0,12.096,12.073,12.308,23.935h.788v-32.063l2.344-.045v32.092l1.124.01v0Z" fill="#fff"/><path d="M180.732,64.056c1.077-1.252,5.161-5.677,9.341-6.2c0,0,.475-8.985,5.066-13.271l-.286-.362L182.23,55.552l-.928-1.037l12.59-11.316-.261-.276c-4.736,4.105-13.755,3.63-13.755,3.63-1.327,4.431-5.956,7.808-7.204,8.665c3.079,2.562,5.792,5.536,8.06,8.838v0v0Z" fill="#fff"/><path d="M110.151,63.245c-1.08-1.252-5.144-5.674-9.323-6.2c0,0-.476-8.986-5.067-13.267l.293-.367L108.67,54.743l.933-1.039L97.002,42.388l.26-.276c4.736,4.105,13.755,3.63,13.755,3.63c1.331,4.435,5.957,7.808,7.209,8.665-3.083,2.562-5.799,5.536-8.07,8.838h-.005v0Z" fill="#fff"/><path d="M180.732,114.583c1.077,1.252,5.161,5.677,9.341,6.204c0,0,.475,8.985,5.066,13.27l-.293.363-12.616-11.329-.928,1.042l12.59,11.31-.263.276c-4.737-4.104-13.755-3.629-13.755-3.629-1.325-4.436-5.954-7.808-7.202-8.665c3.08-2.563,5.792-5.539,8.06-8.842v0v0Z" fill="#fff"/><path d="M110.151,115.394c-1.08,1.255-5.144,5.677-9.324,6.204c0,0-.476,8.985-5.067,13.267l.293.366L108.669,123.9l.934,1.039-12.601,11.316.262.276c4.737-4.109,13.755-3.63,13.755-3.63c1.331-4.435,5.958-7.808,7.209-8.665-3.084-2.563-5.802-5.539-8.077-8.842v0v0Z" fill="#fff"/><path d="M154.782,57.439l-.662,8.174c-.082,1.403-.677,2.726-1.672,3.719-1.881,1.702-5.902,6.005-6.664,10.113l-.129.671l2.112,4.356.547.087c.222-.112.518-.279,1.032-.552c3.697-1.957,6.597-7.08,7.658-9.38.656-1.253,1.735-2.232,3.045-2.764l10.002-4.018.573-.231c-4.139-4.985-9.625-8.674-15.803-10.627l-.039.452v0Z" fill="#fff"/><path d="M146.07,122.753l-.17-.562-3.311-10.956c-.442-1.35-.371-2.816.199-4.117c1.139-2.289,3.338-7.824,2.541-11.971-.115-.59-.175-.937-.225-1.184l-.442-.234-3.893,2.002c-.081.113-.158.225-.263.373-2.447,3.389-2.779,9.267-2.71,11.797-.032,1.413-.565,2.769-1.504,3.825l-6.429,7.176-.302.322c4.682,2.344,9.846,3.562,15.082,3.556.482.011.951-.008,1.427-.027Z" fill="#fff"/><path d="M177.314,97.58c1.706-6.593,1.381-13.547-.932-19.952l-.585.351-9.725,5.882c-1.186.759-2.61,1.052-3.999.822-2.333-.492-7.637-1.173-11.406.224l3.855.587-3.996,3.829.628.32c3.855,1.948,9.918,1.348,12.494.87c1.447-.189,2.914.139,4.144.925l8.877,5.737.645.405v0Z" fill="#fff"/><path d="M171.579,108.171l-10.362-4.526c-1.344-.555-2.438-1.583-3.074-2.891-1.029-2.4-3.891-7.773-7.646-9.894l-.889-.507l1.079,6.602-4.058-2.16.02.067c.99,4.101,5.285,8.236,7.271,9.843c1.062.953,1.746,2.256,1.928,3.671l1.489,11.232.088.643v.032c5.952-2.451,11.081-6.548,14.787-11.811l-.633-.301v0Z" fill="#fff"/><path d="M152.858,121.78l-.135-.603-.094-.424-.755-3.485-1.435-7.702-2.015.376l2.176,11.697.112.597v.044l.643-.15.139-.026v0c.411-.087.82-.183,1.226-.279l.138-.045v0Z" fill="#fff"/><path d="M149.465,55.777c-.053.003-.106-.003-.157-.019-.451-.062-.913-.122-1.372-.164l-.512-.039-.056.373-1.227,7.968l2.029.321l1.237-8.042.058-.398v0Z" fill="#fff"/><path d="M110.941,90.022v.196c.016.482.045.963.078,1.446.003.135.015.27.035.404h.215l11.8-.552-.103-2.043-11.825.552-.2-.003v0Z" fill="#fff"/><path d="M119.735,66.687l9.343,7.857l1.325-1.569-9.234-7.763-.071-.058-.096-.081c-.489.481-.965.964-1.425,1.483l.062.052.096.079v0Z" fill="#fff"/><path d="M140.573,84.438c-3.149-2.75-8.981-3.633-11.511-3.802-1.404-.165-2.705-.822-3.672-1.855l-8.054-8.691-.167-.175-.138-.149c-3.082,4.372-5.072,9.419-5.803,14.719l.206-.026l11.156-1.464c1.456-.222,2.943.096,4.18.896c2.078,1.489,7.073,4.473,11.34,4.589l-3.167-3.148l5.745-.789-.115-.105v0Z" fill="#fff"/><path d="M134.492,68.892c1.13.836,1.91,2.06,2.191,3.437.389,2.5,1.781,8.223,4.803,11.114l.476.462l2.514-5.003c.408-4.089-1.952-9.217-3.167-11.364-.635-1.262-.799-2.71-.463-4.082l1.89-7.631.087-.35c-6.358.331-12.491,2.463-17.683,6.148l.19.147l9.162,7.122v0Z" fill="#fff"/><path d="M128.792,101.11c2.251-.575,7.141-2.246,9.935-5.054l1.07-5.915-.325-.305-.793.064c-4.37.322-9.324,4.018-11.311,5.777-1.158.925-2.605,1.41-4.086,1.37l-11.273-.353h-.247c1.344,5.817,4.216,11.17,8.317,15.508l.193-.302l5.286-8.276c.739-1.202,1.888-2.095,3.234-2.514Z" fill="#fff"/><path d="M149.465,87.092l-3.269-.494-1.454-2.997-1.489,2.958-3.288.45l2.36,2.343-.591,3.251l2.95-1.522l2.923,1.57-.556-3.402.543-.363l1.871-1.794v0Z" fill="#fff"/><path d="M163.669,78.626l10.045-5.366.556-.299c-.042-.071-.088-.141-.122-.212-.225-.405-.453-.805-.695-1.197-.074-.118-.154-.236-.234-.355l-.551.305-9.963,5.33.964,1.794v0Z" fill="#fff"/><path d="M164.371,98.235l5.99,2.892l4.16,2.009.643.32c.176-.366.341-.731.499-1.104.112-.256.216-.519.322-.779l-.663-.322-10.045-4.855-.906,1.839v0Z" fill="#fff"/><path d="M130.532,107.468l-6.45,7.843-.244.299c.122.096.244.195.37.289.363.279.739.548,1.115.812l.17.122.251-.321l6.373-7.751-1.585-1.293v0Z" fill="#fff"/></g></g><g clip-path="url(#eXTkxA9cMpR45)"><g><g><g><g><path d="M72.019,260.701q-7.559,0-10.894-3.763t-3.335-11.979v-5.393h10.912v6.892q0,1.915.581,2.995.58,1.081,2.022,1.082q1.506,0,2.085-.877t.58-2.891q0-2.54-.502-4.248c-.366-1.187-.96-2.291-1.749-3.251q-1.238-1.556-3.434-3.622l-4.952-4.697q-5.549-5.239-5.549-11.98q0-7.055,3.276-10.755q3.276-3.699,9.485-3.699q7.589,0,10.771,4.044q3.183,4.044,3.187,12.287h-11.227v-3.793q0-1.128-.643-1.756-.642-.629-1.741-.627-1.315,0-1.927.737-.613.737-.612,1.896q0,1.161.627,2.509.627,1.349,2.477,3.105l6.365,6.114c1.26,1.196,2.433,2.479,3.512,3.841c1.105,1.419,1.974,3.008,2.571,4.704q.973,2.679.973,6.538q0,7.781-2.869,12.181t-9.99,4.406Z" fill="#c8112e"/><path d="M92.872,260.198L86.949,205.01h10.783l3.041,34.838l3.105-34.838h10.285l2.947,34.838l2.948-34.838h10.912l-6.021,55.188h-13.228l-2.761-26.559-2.634,26.559h-13.454v0Z" fill="#c8112e"/><path d="M147.746,260.701q-14.048,0-14.048-14.582v-18.877q0-6.646,3.732-10.614q3.732-3.967,10.316-3.966q6.617,0,10.348,3.966q3.732,3.967,3.731,10.614v18.877q0,14.581-14.079,14.582Zm0-8.656q1.411,0,2.023-1.018.613-1.018.612-2.588v-22.984q0-4.108-2.635-4.113-2.635-.006-2.633,4.113v22.984q0,1.57.611,2.588t2.022,1.018v0v0Z" fill="#fff"/><path d="M165.965,260.198v-47.036h11.413v5.237q.816-2.728,2.89-4.265q2.075-1.538,5.206-1.537v9.376c-1.103.016-2.204.116-3.292.298-1.142.166-2.265.439-3.355.816q-1.445.517-1.445,1.144v35.966l-11.417.001v0Z" fill="#fff"/><path d="M188.228,260.198v-55.188h11.414v55.188h-11.414v0Z" fill="#fff"/><path d="M213.408,260.701q-3.262,0-5.175-1.192c-1.264-.782-2.259-1.93-2.852-3.293q-.941-2.101-1.24-4.923c-.205-2.011-.305-4.031-.298-6.052v-20.444q0-5.424,1.929-8.782q1.929-3.359,6.538-3.355q3.418,0,5.252,1.457t2.838,4.061v-13.168h11.415v55.188h-11.415v-4.985q-.94,2.54-2.492,4.014t-4.5,1.474Zm4.295-8.782q1.6,0,2.148-1.286.548-1.287.549-4.61v-19.788c-.001-1.11-.164-2.214-.486-3.277q-.487-1.614-2.147-1.615-1.819,0-2.29,1.536c-.323,1.089-.481,2.22-.471,3.356v19.788q.005,5.898,2.697,5.898v-.002v0Z" fill="#fff"/><path d="M173.806,286.152h-3.424v-18.047h3.608l1.61,8.635v-8.635h3.383v18.047h-3.424l-1.753-9.034v9.034v0Zm9.375.168v0q-1.732,0-2.374-1.187v0v0q-.642-1.187-.642-3.393v0v0q0-1.807.458-2.773v0v0q.459-.967,1.274-1.418v0v0q.815-.452,2.486-.998v0l.979-.337v-.042-1.533v0q0-.61-.235-.935v0v0q-.234-.326-.56-.326v0v0q-.286,0-.5.273v0v0q-.214.273-.214.736v0v.924h-3.464v-.504v0q0-2.269,1.029-3.236v0v0q1.029-.966,3.353-.966v0v0q1.854,0,3.016.998v0v0q1.161.998,1.161,2.826v0v11.723h-3.546v-1.828v0q-.265.946-.845,1.471v0v0q-.581.525-1.376.525v0v0Zm1.406-2.857v0q.408,0,.581-.347v0v0q.173-.346.173-.851v0-4.286v0q-.795.315-1.172.799v0v0q-.377.483-.377,1.344v0v1.975v0q0,1.366.795,1.366v0v0Zm8.804,2.857v0q-1.406,0-1.936-.609v0v0q-.53-.609-.53-1.954v0-9.602h-.998v-2.794h.998v-3.256h3.465v3.256h1.019v2.794h-1.019v8.636v0q0,.399.061.588v0v0q.061.189.326.189v0v0q.204,0,.387-.021v0v0q.184-.021.245-.021v0v2.521v0q-.306.084-.887.179v0v0q-.58.094-1.131.094v0v0Zm6.685-16.577h-3.567v-2.563h3.567v2.563v0Zm0,16.409h-3.567v-15.379h3.567v15.379v0Zm5.747.168v0q-4.463,0-4.463-4.769v0-6.177v0q0-2.185,1.192-3.477v0v0q1.192-1.292,3.271-1.292v0v0q2.079,0,3.271,1.292v0v0q1.192,1.292,1.192,3.477v0v6.177v0q0,4.769-4.463,4.769v0v0Zm0-2.836v0q.428,0,.632-.315v0v0q.204-.315.204-.862v0-7.521v0q0-1.345-.836-1.345v0v0q-.836,0-.836,1.345v0v7.521v0q0,.547.204.862v0v0q.204.315.632.315v0v0Zm5.788,2.668v-15.379h3.566v1.954v0q.224-.946.775-1.534v0v0q.55-.588,1.467-.588v0v0q1.508,0,2.232.956v0v0q.723.956.723,2.721v0v11.87h-3.505v-11.492v0q0-.505-.194-.862v0v0q-.193-.357-.601-.357v0v0q-.55,0-.723.515v0v0q-.174.515-.174,1.376v0v10.82h-3.566v0Zm14.266.168v0q-4.423,0-4.423-4.622v0l.021-1.218h3.566l.021,1.806v0q0,.547.203.83v0v0q.204.284.673.284v0v0q.713,0,.713-1.198v0v0q0-.882-.336-1.386v0v0q-.336-.505-1.07-1.072v0l-1.895-1.513v0q-.979-.777-1.407-1.607v0v0q-.428-.83-.428-2.342v0v0q0-1.177.602-2.007v0v0q.601-.83,1.6-1.25v0v0q.998-.42,2.221-.42v0v0q4.341,0,4.341,4.454v0v.294h-3.689v-.588v0q0-.546-.173-.935v0v0q-.173-.389-.581-.389v0v0q-.367,0-.56.221v0v0q-.194.22-.194.599v0v0q0,.84.632,1.302v0l2.201,1.66v0q1.182.903,1.814,1.964v0v0q.631,1.061.631,2.679v0v0q0,2.143-1.182,3.299v0v0q-1.182,1.155-3.301,1.155v0v0Zm-112.599,0v0q-2.16,0-3.21-1.26v0v0q-1.049-1.261-1.049-3.74v0-13.215h3.403v13.068v0q0,.861.163,1.345v0v0q.163.483.693.483v0v0q.53,0,.693-.473v0v0q.163-.473.163-1.355v0-13.068h3.403v13.215v0q0,2.479-1.049,3.74v0v0q-1.05,1.26-3.21,1.26v0v0Zm5.543-.168v-15.379h3.567v1.954v0q.224-.946.774-1.534v0v0q.551-.588,1.468-.588v0v0q1.508,0,2.231.956v0v0q.724.956.724,2.721v0v11.87h-3.506v-11.492v0q0-.505-.193-.862v0v0q-.194-.357-.601-.357v0v0q-.551,0-.724.515v0v0q-.173.515-.173,1.376v0v10.82h-3.567v0Zm13.716-16.409h-3.566v-2.563h3.566v2.563v0Zm0,16.409h-3.566v-15.379h3.566v15.379v0Zm4.484.168v0q-1.407,0-1.936-.609v0v0q-.53-.609-.53-1.954v0-9.602h-.999v-2.794h.999v-3.256h3.464v3.256h1.019v2.794h-1.019v8.636v0q0,.399.061.588v0v0q.061.189.326.189v0v0q.204,0,.388-.021v0v0q.183-.021.244-.021v0v2.521v0q-.305.084-.886.179v0v0q-.581.094-1.131.094v0v0Zm6.684-16.577h-3.566v-2.563h3.566v2.563v0Zm0,16.409h-3.566v-15.379h3.566v15.379v0Zm1.406,0v-15.379h3.567v1.954v0q.224-.946.774-1.534v0v0q.551-.588,1.468-.588v0v0q1.508,0,2.231.956v0v0q.724.956.724,2.721v0v11.87h-3.506v-11.492v0q0-.505-.193-.862v0v0q-.194-.357-.601-.357v0v0q-.551,0-.724.515v0v0q-.173.515-.173,1.376v0v10.82h-3.567v0Zm14.185,2.248v0q-1.59,0-2.497-.262v0v0q-.907-.263-1.783-.998v0l1.223-2.122v0q1.304.798,2.588.798v0v0q.836,0,1.264-.546v0v0q.428-.546.428-1.492v0-.84v0q-.428,1.575-2.263,1.575v0v0q-1.528,0-2.252-1.071v0v0q-.723-1.072-.723-2.857v0-5.778v0q0-2.038.662-3.12v0v0q.663-1.082,2.313-1.082v0v0q.958,0,1.519.494v0v0q.56.493.744,1.397v0-1.723h3.648v12.774v0q0,2.584-1.162,3.719v0v0q-1.162,1.134-3.709,1.134v0v0Zm.387-6.66v0q.836,0,.836-1.555v0-5.483v0q0-.462-.245-.883v0v0q-.245-.42-.611-.42v0v0q-.469,0-.632.347v0v0q-.163.346-.163.956v0v5.483v0q0,.694.163,1.125v0v0q.163.43.652.43v0v0Zm-95.704,4.412h-3.301v-5.946l-2.792-12.101h3.464l.978,6.114.979-6.114h3.464l-2.792,12.101v5.946v0Zm7.948.168v0q-4.463,0-4.463-4.769v0-6.177v0q0-2.185,1.192-3.477v0v0q1.193-1.292,3.271-1.292v0v0q2.079,0,3.271,1.292v0v0q1.192,1.292,1.192,3.477v0v6.177v0q0,4.769-4.463,4.769v0v0Zm0-2.836v0q.428,0,.632-.315v0v0q.204-.315.204-.862v0-7.521v0q0-1.345-.836-1.345v0v0q-.835,0-.835,1.345v0v7.521v0q0,.547.204.862v0v0q.203.315.631.315v0v0Zm8.662,2.836v0q-1.671,0-2.293-1.029v0v0q-.622-1.03-.622-3.068v0-11.45h3.587v10.715v0q0,.147,0,.788v0v0q0,.641.194.903v0v0q.193.263.601.263v0v0q.55,0,.693-.473v0v0q.143-.472.143-1.355v0-.126l.02-10.715h3.546v15.379h-3.566v-1.639v0q-.367.967-.856,1.387v0v0q-.489.42-1.447.42v0v0Zm10.373,0v0q-1.406,0-1.936-.609v0v0q-.53-.609-.53-1.954v0-9.602h-.999v-2.794h.999v-3.256h3.465v3.256h1.019v2.794h-1.019v8.636v0q0,.399.061.588v0v0q.061.189.326.189v0v0q.204,0,.387-.021v0v0q.184-.021.245-.021v0v2.521v0q-.306.084-.887.179v0v0q-.581.094-1.131.094v0v0Zm3.139-.168v-18.152h3.668v4.286v0q.571-1.681,2.181-1.681v0v0q1.508,0,2.282.987v0v0q.775.988.775,2.711v0v11.849h-3.567v-11.618v0q0-.505-.224-.82v0v0q-.224-.315-.652-.315v0v0q-.367,0-.581.326v0v0q-.214.325-.214.788v0v11.639h-3.668v0Z" fill="#fff"/><path d="M239.86,280.812v0q-1.727,0-3.127-.806v0v0q-1.401-.806-2.207-2.216v0v0q-.806-1.411-.806-3.137v0v0q0-1.727.806-3.138v0v0q.806-1.41,2.207-2.216v0v0q1.4-.805,3.127-.805v0v0q1.727,0,3.137.805v0v0q1.411.806,2.216,2.216v0v0q.806,1.411.806,3.138v0v0q0,1.726-.806,3.137v0v0q-.805,1.41-2.216,2.216v0v0q-1.41.806-3.137.806v0v0Zm0-1.209v0q1.324,0,2.399-.662v0v0q1.074-.662,1.679-1.794v0v0q.604-1.132.604-2.494v0v0q0-1.363-.604-2.495v0v0q-.605-1.132-1.679-1.794v0v0q-1.075-.662-2.399-.662v0v0q-1.324,0-2.389.662v0v0q-1.064.662-1.669,1.804v0v0q-.604,1.141-.604,2.485v0v0q0,1.343.604,2.484v0v0q.605,1.142,1.669,1.804v0v0q1.065.662,2.389.662v0v0Zm-2.072-.902v-7.982h2.705v0q.96,0,1.286.557v0v0q.326.556.326,1.688v0v0q0,.672-.201,1.046v0v0q-.202.374-.681.547v0v0q.748.134.748,1.132v0v3.012h-1.727v-3.108v0q0-.326-.144-.422v0v0q-.144-.096-.528-.096v0v3.626h-1.784v0Zm1.784-5.008h.461v0q.345,0,.345-.729v0v0q0-.499-.153-.633v0v0q-.154-.134-.653-.134v0v1.496v0Z" fill="#fff" fill-rule="evenodd"/></g></g></g></g><clipPath id="eXTkxA9cMpR45"><rect width="188.98" height="84.485" rx="0" ry="0" transform="translate(57.561 204.515)" fill="#fff"/></clipPath></g></g></g><clipPath id="eXTkxA9cMpR47"><rect width="295" height="290" rx="0" ry="0" fill="#fff"/></clipPath></g></g><clipPath id="eXTkxA9cMpR49"><rect width="295" height="290" rx="0" ry="0"/></clipPath></g></svg>