<svg xmlns="http://www.w3.org/2000/svg" width="54.904" height="51.115" viewBox="0 0 54.904 51.115">
  <g id="icon_peace_treaty" data-name="icon / peace treaty" transform="translate(0.5 0.615)">
    <g id="Group_9" data-name="Group 9">
      <path id="Path_9" data-name="Path 9" d="M11.95,16.358A18.846,18.846,0,0,1,8.559,8.951C7.99,5.176,9.484,0,9.484,0S5.736.244,4.552,1.543,3.01,7.1,3.01,7.1A5.021,5.021,0,0,0,.236,9.877c-.594,1.933.308,5.247.308,5.247l8.323,5.556Z" transform="translate(13.212 2.469)" fill="#fff" stroke="#000" stroke-miterlimit="10" stroke-width="1"/>
      <path id="Path_8" data-name="Path 8" d="M22.388,21.914l6.782-8.951s.925-1.852,4.316-1.852,4.624,4.63,4.624,4.63l2.774,4.321s-7.09-.617-7.4,0,3.281,7.965,0,13.272S22.08,38.889,21.463,39.506s0,6.79,0,6.79A21.724,21.724,0,0,1,10.057,50c-6.285,0-8.632-3.7-8.632-3.7L13.14,33.951S8.392,32.9,6.666,31.173,4.2,25,4.2,25A10.6,10.6,0,0,1,.193,19.136c-.717-3.588,1.233-8.025,1.233-8.025S.361,5.953,1.426,3.4,6.05,0,6.05,0s.919,7.784,5.241,13.58A27.557,27.557,0,0,0,22.388,21.914Z" transform="translate(0 0)" fill="#fff" stroke="#000" stroke-miterlimit="10" stroke-width="1"/>
      <circle id="Oval" cx="1" cy="1" r="1" transform="translate(33 13)"/>
      <g id="Group_2" data-name="Group 2" transform="translate(36 9.5)">
        <path id="Path_11" data-name="Path 11" d="M0,9.628C0,9.868,7.283,8.256,10,6.48a20.344,20.344,0,0,0,5-5c2.083-3.124,2.272-1.071-5,4C7.962,6.9,0,9.387,0,9.628Z" transform="translate(0 4.02)" fill="#cee5b5" stroke="#000" stroke-linecap="round" stroke-miterlimit="10" stroke-width="0.35"/>
        <path id="Path_12" data-name="Path 12" d="M.5.5" transform="translate(8.5)" fill="none" stroke="#979797" stroke-miterlimit="10" stroke-width="1"/>
        <path id="Path_13" data-name="Path 13" d="M1.5,0S0,1.851,0,3,1.5,5,1.5,5a2.355,2.355,0,0,0,1-2A6.878,6.878,0,0,0,1.5,0Z" transform="matrix(0.966, -0.259, 0.259, 0.966, 10, 3.147)" fill="#cee5b5" stroke="#000" stroke-miterlimit="10" stroke-width="0.5"/>
        <path id="Path_13_Copy" data-name="Path 13 Copy" d="M.729,0S-.241,2.177.057,3.286,2.023,4.83,2.023,4.83a2.355,2.355,0,0,0,.448-2.191A6.878,6.878,0,0,0,.729,0Z" transform="translate(7.72 5.759)" fill="#cee5b5" stroke="#000" stroke-miterlimit="10" stroke-width="0.5"/>
        <path id="Path_13-2" data-name="Path 13" d="M4.981,1.761S3.267.105,2.123.005,0,1.325,0,1.325A2.355,2.355,0,0,0,1.905,2.5,6.878,6.878,0,0,0,4.981,1.761Z" transform="translate(12.087 7.669)" fill="#cee5b5" stroke="#000" stroke-miterlimit="10" stroke-width="0.5"/>
        <path id="Path_13_Copy_2" data-name="Path 13 Copy 2" d="M4.981,1.761S3.267.105,2.123.005,0,1.325,0,1.325A2.355,2.355,0,0,0,1.905,2.5,6.878,6.878,0,0,0,4.981,1.761Z" transform="translate(9.087 9.669)" fill="#cee5b5" stroke="#000" stroke-miterlimit="10" stroke-width="0.5"/>
        <path id="Path_13-3" data-name="Path 13" d="M1.8,0S0,2.222,0,3.6,1.8,6,1.8,6A2.826,2.826,0,0,0,3,3.6,8.253,8.253,0,0,0,1.8,0Z" transform="translate(15.052 0.5) rotate(20)" fill="#cee5b5" stroke="#000" stroke-miterlimit="10" stroke-width="0.5"/>
      </g>
    </g>
  </g>
</svg>
