<svg xmlns="http://www.w3.org/2000/svg" width="181.398" height="22.82" viewBox="0 0 181.398 22.82">
  <g id="logo_with_red" data-name="logo with red" transform="translate(0 -0.175)">
    <path id="Fill_1" data-name="Fill 1" d="M7.108,9.249h2.7v1.277a3.742,3.742,0,0,1-1.944.458A3.36,3.36,0,0,1,4.394,7.434V7.4A3.354,3.354,0,0,1,7.65,3.885,4.593,4.593,0,0,1,10.8,5.118l.191.161,2.549-3.061-.185-.16A8.271,8.271,0,0,0,7.631,0,7.342,7.342,0,0,0,0,7.375v.04c0,4.251,3.242,7.336,7.709,7.336a9.483,9.483,0,0,0,6.11-2.171l.09-.075V5.972h-6.8V9.249" transform="translate(0 0.175)" fill="#c8102e"/>
    <path id="Fill_3" data-name="Fill 3" d="M4.3,0H0V14.2H10.933V10.377H4.3V0" transform="translate(15.818 0.449)" fill="#c8102e"/>
    <path id="Fill_4" data-name="Fill 4" d="M7.61,14.751A7.4,7.4,0,0,1,0,7.415v-.04A7.436,7.436,0,0,1,7.649,0,7.4,7.4,0,0,1,15.26,7.336v.04A7.437,7.437,0,0,1,7.61,14.751Zm0-10.827A3.245,3.245,0,0,0,4.395,7.336v.04a3.322,3.322,0,0,0,3.254,3.452,3.255,3.255,0,0,0,3.237-3.413v-.04A3.293,3.293,0,0,0,7.61,3.924Z" transform="translate(26.894 0.175)" fill="#c8102e"/>
    <path id="Fill_6" data-name="Fill 6" d="M7.317,14.2H0V0H7.278a5.271,5.271,0,0,1,3.915,1.306,3.254,3.254,0,0,1,.954,2.389v.039A3.346,3.346,0,0,1,10.4,6.754a3.384,3.384,0,0,1,2.351,3.382v.039C12.755,12.7,10.722,14.2,7.317,14.2ZM4.2,8.623v2.028H6.886c.587,0,1.572-.13,1.572-1V9.608c0-.814-.876-.985-1.611-.985Zm0-5.071v1.91h2.14c1.552,0,1.552-.711,1.552-.945v-.04c0-.765-.8-.925-1.473-.925Z" transform="translate(43.388 0.449)" fill="#c8102e"/>
    <path id="Fill_7" data-name="Fill 7" d="M4.538,14.3H0L6.045,0h3.992L10.1.152,16.081,14.3H11.466l-1-2.448H5.517L4.539,14.3ZM8.01,5.43,6.831,8.4H9.174Z" transform="translate(56.041 0.351)" fill="#c8102e"/>
    <path id="Fill_8" data-name="Fill 8" d="M4.3,10.377V0H0V14.2H10.933V10.377H4.3" transform="translate(73.39 0.449)" fill="#c8102e"/>
    <path id="Fill_9" data-name="Fill 9" d="M7.125,5.275c-1.954-.443-2.1-.684-2.1-1.029V4.209c0-.36.406-.584,1.06-.584A6.413,6.413,0,0,1,9.674,4.892L9.9,5.05,12.059,2l-.2-.162A8.694,8.694,0,0,0,6.186,0C2.926,0,.736,1.829.736,4.552V4.59c0,3.021,2.486,3.838,5.254,4.469,1.885.437,2.039.716,2.039,1.011v.038c0,.558-.785.641-1.252.641A6.58,6.58,0,0,1,2.615,9.206L2.4,9.038,0,11.911l.2.178a9.589,9.589,0,0,0,6.445,2.285c3.45,0,5.679-1.817,5.679-4.629V9.706c0-1.714-.63-3.437-5.2-4.431" transform="translate(87.528 0.47)" fill="#fff"/>
    <path id="Fill_10" data-name="Fill 10" d="M10.087,9a3.366,3.366,0,0,1-2.8,1.522,3.019,3.019,0,0,1-2.913-3.3V7.187A3.03,3.03,0,0,1,7.283,3.931,3.3,3.3,0,0,1,9.989,5.394l.169.212,3.213-2.488L13.215,2.9A6.874,6.874,0,0,0,7.321,0,7.114,7.114,0,0,0,0,7.225v.039a7.1,7.1,0,0,0,7.168,7.187,7.056,7.056,0,0,0,6.142-3.13l.164-.225L10.25,8.8l-.164.2" transform="translate(100.418 0.431)" fill="#fff"/>
    <path id="Fill_11" data-name="Fill 11" d="M4.255,13.916H0V0H6.6a6.138,6.138,0,0,1,4.55,1.534,4.422,4.422,0,0,1,1.262,3.3v.039A4.5,4.5,0,0,1,9.795,9.1l3.3,4.818-4.945,0L5.454,9.868h-1.2v4.047Zm0-10.158V6.414H6.423c1.087,0,1.71-.477,1.71-1.309V5.068c0-1.083-.94-1.31-1.729-1.31Z" transform="translate(114.882 0.699)" fill="#fff"/>
    <path id="Fill_12" data-name="Fill 12" d="M7.168,13.915H0V0H7.13a5.174,5.174,0,0,1,3.842,1.284,3.2,3.2,0,0,1,.94,2.352v.038a3.288,3.288,0,0,1-1.662,2.939,3.313,3.313,0,0,1,2.253,3.3v.038C12.5,12.435,10.508,13.915,7.168,13.915ZM4.16,8.474v1.912H6.748c.56,0,1.5-.123,1.5-.947V9.4c0-.766-.837-.927-1.539-.927Zm0-4.945v1.8H6.214c1.48,0,1.48-.669,1.48-.888V4.4c0-.577-.473-.869-1.4-.869Z" transform="translate(143.536 0.699)" fill="#fff"/>
    <path id="Fill_13" data-name="Fill 13" d="M4.217,8.646h6.415V5.174H4.217V3.7H11.3V0H0V13.915H11.4v-3.7H4.217V8.646" transform="translate(157.186 0.699)" fill="#fff"/>
    <path id="Fill_14" data-name="Fill 14" d="M7.126,5.275c-1.955-.443-2.1-.684-2.1-1.029V4.209c0-.36.407-.584,1.062-.584A6.415,6.415,0,0,1,9.674,4.892L9.9,5.05,12.059,2l-.2-.162A8.689,8.689,0,0,0,6.186,0C2.926,0,.736,1.829.736,4.552V4.59c0,3.021,2.485,3.838,5.254,4.469,1.886.437,2.039.716,2.039,1.011v.038c0,.558-.784.641-1.252.641A6.578,6.578,0,0,1,2.616,9.206l-.211-.168L0,11.911l.2.178a9.591,9.591,0,0,0,6.446,2.285c3.449,0,5.678-1.817,5.678-4.629V9.706c0-1.714-.629-3.436-5.2-4.431" transform="translate(169.075 0.47)" fill="#fff"/>
    <path id="Fill_15" data-name="Fill 15" d="M13.849,10.489C11.3,6.823,12.424,0,12.424,0h-11S2.545,6.314,0,10.489c0,0,5.8,5.8,5.906,11.507h.5V6.642l-.7.368.227-1.323L4.97,4.749,6.3,4.556,6.823,3.5l.071-.144.6,1.2,1.329.193-.962.939L8.083,7.01l-.7-.366V22h.558c.1-5.7,5.905-11.507,5.905-11.507" transform="translate(128.346 1)" fill="#fff"/>
  </g>
</svg>
