<svg xmlns="http://www.w3.org/2000/svg" width="26.355" height="26.6" viewBox="0 0 26.355 26.6">
  <g id="error" transform="translate(11.211 -1.763)">
    <path id="Subtraction_27" data-name="Subtraction 27" d="M-2240.05-120.381h-14.713a5.327,5.327,0,0,1-5.321-5.322v-14.712a5.327,5.327,0,0,1,5.321-5.322h14.713a5.327,5.327,0,0,1,5.321,5.322V-125.7a5.283,5.283,0,0,1-1.562,3.758A5.283,5.283,0,0,1-2240.05-120.381Zm-7.764-8.211a1.4,1.4,0,0,0-1.028.428,1.385,1.385,0,0,0-.428,1.01,1.379,1.379,0,0,0,.428,1.02,1.421,1.421,0,0,0,1.028.419,1.373,1.373,0,0,0,1-.419,1.394,1.394,0,0,0,.418-1.02,1.4,1.4,0,0,0-.418-1.01A1.357,1.357,0,0,0-2247.814-128.592Zm.037-10.959a1.615,1.615,0,0,0-1.047.319,1.485,1.485,0,0,0-.392,1.192,6.329,6.329,0,0,0,.1,1.056c.067.392.147.9.237,1.5s.182,1.381.272,2.266.167,2.011.228,3.332h1.094c.083-1.313.178-2.434.282-3.332.1-.88.2-1.643.291-2.265s.168-1.132.228-1.521a7.321,7.321,0,0,0,.091-1.074,1.476,1.476,0,0,0-.374-1.147A1.485,1.485,0,0,0-2247.777-139.551Z" transform="translate(2249.372 148)" fill="#f70031" stroke="rgba(0,0,0,0)" stroke-miterlimit="10" stroke-width="1"/>
    <g id="Group" transform="translate(-0.084 0.264)">
      <g id="Group-2" data-name="Group" transform="translate(-11 2)">
        <path id="Shape" d="M20.407,26.1H5.694A5.7,5.7,0,0,1,0,20.406V5.694A5.7,5.7,0,0,1,5.694,0H20.407A5.7,5.7,0,0,1,26.1,5.694V20.406A5.7,5.7,0,0,1,20.407,26.1ZM5.694.745A4.954,4.954,0,0,0,.745,5.694V20.406a4.954,4.954,0,0,0,4.948,4.949H20.407a4.954,4.954,0,0,0,4.948-4.949V5.694A4.954,4.954,0,0,0,20.407.745Z" fill="#161616"/>
      </g>
    </g>
  </g>
</svg>
