<?xml version="1.0" encoding="utf-8"?>
<!-- Generator: Adobe Illustrator 23.0.1, SVG Export Plug-In . SVG Version: 6.00 Build 0)  -->
<svg version="1.1" id="Layer_1" xmlns="http://www.w3.org/2000/svg" xmlns:xlink="http://www.w3.org/1999/xlink" x="0px" y="0px"
	 viewBox="0 0 20 20" style="enable-background:new 0 0 20 20;" xml:space="preserve">
<style type="text/css">
	.st0{fill:#9B9B9B;}
</style>
<g id="icon_-_clear_text" transform="translate(-2 -1.985)">
	<g>
		<path class="st0" d="M12,2C6.5,2,2,6.5,2,12c0,5.5,4.5,10,10,10c5.5,0,10-4.5,10-10C22,6.5,17.5,2,12,2z M12,20.4
			c-4.7,0-8.5-3.8-8.5-8.4c0,0,0,0,0,0c0-4.7,3.8-8.5,8.5-8.5c4.7,0,8.5,3.8,8.5,8.5C20.5,16.7,16.7,20.4,12,20.4z"/>
		<polygon class="st0" points="16,9.1 14.9,8 12,10.9 9.1,8 8,9.1 10.9,12 8,14.9 9.1,16 12,13.1 14.9,16 16,14.9 13.1,12 		"/>
	</g>
</g>
</svg>
