<?xml version="1.0" encoding="UTF-8"?>
<svg width="200px" height="200px" viewBox="0 0 200 200" version="1.1" xmlns="http://www.w3.org/2000/svg" xmlns:xlink="http://www.w3.org/1999/xlink">
    <!-- Generator: Sketch 53.2 (72643) - https://sketchapp.com -->
    <title>asset / our mission</title>
    <desc>Created with Sketch.</desc>
    <defs>
        <rect id="path-1" x="0" y="0" width="200" height="200"></rect>
    </defs>
    <g id="asset-/-our-mission" stroke="none" stroke-width="1" fill="none" fill-rule="evenodd">
        <g id="ilustration---our-mission">
            <mask id="mask-2" fill="white">
                <use xlink:href="#path-1"></use>
            </mask>
            <g id="Mask"></g>
            <path d="M191.197674,115.325581 C193.837209,110.313953 195.348837,104.616279 195.348837,98.5581395 C195.348837,83.1604651 185.676744,70.0534884 172.090698,64.8883721 C172.090698,64.872093 172.093023,64.855814 172.093023,64.8372093 C172.093023,37.8651163 150.227907,16 123.255814,16 C100.502326,16 81.4395349,31.5837209 76.0162791,52.644186 C72.5837209,51.5162791 68.9255814,50.8837209 65.1162791,50.8837209 C47.227907,50.8837209 32.5046512,64.355814 30.4883721,81.7023256 C18.3860465,84.2627907 9.30232558,94.9976744 9.30232558,107.860465 C9.30232558,122.630233 21.2767442,134.604651 36.0465116,134.604651 C36.4581395,134.604651 36.8651163,134.576744 37.2697674,134.553488 C37.2604651,134.960465 37.2093023,135.35814 37.2093023,135.767442 C37.2093023,162.097674 58.5534884,183.44186 84.8837209,183.44186 C99.8534884,183.44186 113.197674,176.530233 121.939535,165.734884 C127.004651,170.909302 134.046512,174.139535 141.860465,174.139535 C152.674419,174.139535 162.032558,167.976744 166.665116,158.981395 C169.111628,159.760465 171.713953,160.186047 174.418605,160.186047 C188.546512,160.186047 200,148.732558 200,134.604651 C200,126.904651 196.581395,120.016279 191.197674,115.325581 Z" id="Path" fill="#292929" mask="url(#mask-2)"></path>
            <g id="Group" mask="url(#mask-2)">
                <g transform="translate(118.604651, 83.441860)" id="Path">
                    <path d="M47.6744186,40.6976744 L47.6744186,41.8604651 L54.6511628,41.8604651 L54.6511628,40.6976744 C54.6511628,40.6976744 64.3813953,40.6976744 67.4418605,40.6976744 C73.2209302,40.6976744 77.9069767,36.0116279 77.9069767,30.2325581 C77.9069767,24.8069767 73.7627907,20.3976744 68.4767442,19.872093 C68.527907,19.4511628 68.6046512,19.0395349 68.6046512,18.6046512 C68.6046512,12.8255814 63.9186047,8.13953488 58.1395349,8.13953488 C54.7953488,8.13953488 51.8534884,9.73488372 49.9372093,12.1767442 C49.6116279,6.04651163 44.5837209,1.1627907 38.372093,1.1627907 C31.9511628,1.1627907 26.744186,6.36976744 26.744186,12.7906977 C26.744186,13.827907 26.9232558,14.8139535 27.1790698,15.772093 C25.6860465,13.9651163 23.455814,12.7906977 20.9302326,12.7906977 C16.7883721,12.7906977 13.4093023,15.8953488 12.8953488,19.8953488 C12.4744186,19.844186 12.0627907,19.7674419 11.627907,19.7674419 C5.84883721,19.7674419 1.1627907,24.4534884 1.1627907,30.2325581 C1.1627907,36.0116279 5.84883721,40.6976744 11.627907,40.6976744 C17.4069767,40.6976744 33.7209302,40.6976744 33.7209302,40.6976744 L47.6744186,40.6976744 Z" fill="#9B9B9B"></path>
                    <path d="M38.372093,0 C31.3186047,0 25.5813953,5.7372093 25.5813953,12.7906977 C25.5813953,12.827907 25.5813953,12.8627907 25.5813953,12.9 C24.1813953,12.0744186 22.5813953,11.627907 20.9302326,11.627907 C16.672093,11.627907 12.9976744,14.5604651 11.9581395,18.6162791 C11.8488372,18.6093023 11.7395349,18.6046512 11.627907,18.6046512 C5.21627907,18.6046512 0,23.8209302 0,30.2325581 C0,36.644186 5.21627907,41.8604651 11.627907,41.8604651 L47.6744186,41.8604651 C48.3162791,41.8604651 48.8372093,41.3395349 48.8372093,40.6976744 C48.8372093,40.055814 48.3162791,39.5348837 47.6744186,39.5348837 L11.627907,39.5348837 C6.49767442,39.5348837 2.3255814,35.3627907 2.3255814,30.2325581 C2.3255814,25.1023256 6.49767442,20.9302326 11.627907,20.9302326 C11.9,20.9302326 12.1627907,20.9697674 12.4255814,21.0046512 L12.7534884,21.0488372 C12.8023256,21.055814 12.8488372,21.0581395 12.8976744,21.0581395 C13.4697674,21.0581395 13.972093,20.627907 14.0488372,20.0418605 C14.4930233,16.5697674 17.4511628,13.9534884 20.9302326,13.9534884 C22.9883721,13.9534884 24.9372093,14.8860465 26.2813953,16.5116279 C26.5093023,16.7860465 26.8418605,16.9348837 27.1790698,16.9348837 C27.3604651,16.9348837 27.5418605,16.8930233 27.7093023,16.8046512 C28.1953488,16.555814 28.4395349,16 28.3,15.472093 C28.0325581,14.4604651 27.9069767,13.6093023 27.9069767,12.7906977 C27.9069767,7.02093023 32.6023256,2.3255814 38.372093,2.3255814 C43.9093023,2.3255814 48.4813953,6.67906977 48.7767442,12.2395349 C48.8023256,12.7232558 49.1255814,13.1395349 49.5883721,13.2860465 C49.7046512,13.3232558 49.8232558,13.3418605 49.9418605,13.3418605 C50.2906977,13.3418605 50.6302326,13.1813953 50.8534884,12.8953488 C52.6465116,10.6116279 55.3,9.30232558 58.1395349,9.30232558 C63.2697674,9.30232558 67.4418605,13.4744186 67.4418605,18.6046512 C67.4418605,18.8767442 67.4023256,19.1395349 67.3674419,19.4023256 L67.3232558,19.7302326 C67.2860465,20.0418605 67.3744186,20.3534884 67.5697674,20.5976744 C67.7651163,20.8418605 68.0511628,20.9976744 68.3604651,21.027907 C73.1418605,21.5046512 76.744186,25.4627907 76.744186,30.2325581 C76.744186,35.3627907 72.572093,39.5348837 67.4418605,39.5348837 L54.6511628,39.5348837 C54.0093023,39.5348837 53.4883721,40.055814 53.4883721,40.6976744 C53.4883721,41.3395349 54.0093023,41.8604651 54.6511628,41.8604651 L67.4418605,41.8604651 C73.8534884,41.8604651 79.0697674,36.644186 79.0697674,30.2325581 C79.0697674,24.6581395 75.1418605,19.9697674 69.7604651,18.8906977 C69.7651163,18.7953488 69.7674419,18.7 69.7674419,18.6046512 C69.7674419,12.1930233 64.5511628,6.97674419 58.1395349,6.97674419 C55.4046512,6.97674419 52.8069767,7.94418605 50.7372093,9.68372093 C49.3465116,4.09302326 44.3139535,0 38.372093,0 L38.372093,0 Z" fill="#161616"></path>
                    <path d="M34.8837209,16.2790698 C31.6209302,16.2790698 28.8162791,18.6023256 28.1093023,21.7232558 C27.255814,21.2069767 26.2813953,20.9302326 25.2906977,20.9302326 C22.4953488,20.9302326 20.1790698,23.0162791 19.8186047,25.7395349 C19.3465116,25.6325581 18.8976744,25.5813953 18.4581395,25.5813953 C14.9023256,25.5813953 11.9209302,28.372093 11.672093,31.9348837 C11.6511628,32.255814 11.8930233,32.5348837 12.2116279,32.5581395 C12.2255814,32.5581395 12.2395349,32.5581395 12.2534884,32.5581395 C12.555814,32.5581395 12.8116279,32.3232558 12.8325581,32.0186047 C13.0395349,29.0627907 15.5093023,26.744186 18.4581395,26.744186 C18.9906977,26.744186 19.5511628,26.8418605 20.1744186,27.0395349 C20.2255814,27.055814 20.2790698,27.0627907 20.3302326,27.0627907 C20.4581395,27.0627907 20.5860465,27.0162791 20.6930233,26.9372093 C20.8418605,26.8302326 20.9302326,26.6395349 20.9302326,26.4534884 C20.9302326,24.0488372 22.8860465,22.0930233 25.2906977,22.0930233 C26.3302326,22.0930233 27.3488372,22.4837209 28.1534884,23.1930233 C28.2627907,23.2883721 28.4,23.3395349 28.5372093,23.3395349 C28.6116279,23.3395349 28.6837209,23.3255814 28.7534884,23.2953488 C28.9581395,23.2139535 29.0976744,23.0232558 29.1139535,22.8023256 C29.355814,19.7953488 31.8883721,17.4418605 34.8837209,17.4418605 C35.3674419,17.4418605 35.872093,17.5209302 36.4697674,17.6906977 C36.5232558,17.7069767 36.5790698,17.7139535 36.6325581,17.7139535 C36.8860465,17.7139535 37.1139535,17.544186 37.1883721,17.2906977 C37.2767442,16.9813953 37.0976744,16.6604651 36.7883721,16.572093 C36.0860465,16.372093 35.4790698,16.2790698 34.8837209,16.2790698 L34.8837209,16.2790698 Z" fill="#472B29"></path>
                    <path d="M67.1697674,19.7674419 C64.0860465,19.7674419 61.3372093,21.8534884 60.4860465,24.8418605 C60.3976744,25.1511628 60.5767442,25.472093 60.8860465,25.5604651 C60.9418605,25.5744186 60.9953488,25.5813953 61.0465116,25.5813953 C61.3,25.5813953 61.5325581,25.4139535 61.6046512,25.1581395 C62.3139535,22.6697674 64.6023256,20.9302326 67.1697674,20.9302326 C67.4418605,20.9302326 67.7046512,20.9627907 67.9651163,20.9976744 C67.9930233,21.0023256 68.0186047,21.0046512 68.0465116,21.0046512 C68.327907,21.0046512 68.5790698,20.7906977 68.6186047,20.5 C68.6627907,20.1813953 68.4395349,19.8883721 68.1209302,19.8465116 C67.8093023,19.8046512 67.4930233,19.7674419 67.1697674,19.7674419 L67.1697674,19.7674419 Z" fill="#161616"></path>
                </g>
            </g>
            <g id="Group" mask="url(#mask-2)" fill="#9B9B9B">
                <g transform="translate(0.000000, 90.418605)" id="Combined-Shape">
                    <path d="M24.4186047,11.627907 L1.1627907,11.627907 C0.520930233,11.627907 4.79616347e-14,11.1069767 4.79616347e-14,10.4651163 C4.79616347e-14,9.82325581 0.520930233,9.30232558 1.1627907,9.30232558 L24.4186047,9.30232558 C25.0604651,9.30232558 25.5813953,9.82325581 25.5813953,10.4651163 C25.5813953,11.1069767 25.0627907,11.627907 24.4186047,11.627907 Z M31.3953488,11.627907 L29.0697674,11.627907 C28.427907,11.627907 27.9069767,11.1069767 27.9069767,10.4651163 C27.9069767,9.82325581 28.427907,9.30232558 29.0697674,9.30232558 L31.3953488,9.30232558 C32.0372093,9.30232558 32.5581395,9.82325581 32.5581395,10.4651163 C32.5581395,11.1069767 32.0395349,11.627907 31.3953488,11.627907 Z M43.0023256,16.2790698 L22.0930233,16.2790698 C21.4511628,16.2790698 20.9302326,15.7581395 20.9302326,15.1162791 C20.9302326,14.4744186 21.4511628,13.9534884 22.0930233,13.9534884 L43.0023256,13.9534884 C43.644186,13.9534884 44.1651163,14.4744186 44.1651163,15.1162791 C44.1651163,15.7581395 43.644186,16.2790698 43.0023256,16.2790698 Z M17.4418605,16.2790698 L15.1162791,16.2790698 C14.4744186,16.2790698 13.9534884,15.7581395 13.9534884,15.1162791 C13.9534884,14.4744186 14.4744186,13.9534884 15.1162791,13.9534884 L17.4418605,13.9534884 C18.0837209,13.9534884 18.6046512,14.4744186 18.6046512,15.1162791 C18.6046512,15.7581395 18.0860465,16.2790698 17.4418605,16.2790698 Z M10.4651163,16.2790698 L5.81395349,16.2790698 C5.17209302,16.2790698 4.65116279,15.7581395 4.65116279,15.1162791 C4.65116279,14.4744186 5.17209302,13.9534884 5.81395349,13.9534884 L10.4651163,13.9534884 C11.1069767,13.9534884 11.627907,14.4744186 11.627907,15.1162791 C11.627907,15.7581395 11.1093023,16.2790698 10.4651163,16.2790698 Z M24.4186047,20.9302326 L19.7674419,20.9302326 C19.1255814,20.9302326 18.6046512,20.4093023 18.6046512,19.7674419 C18.6046512,19.1255814 19.1255814,18.6046512 19.7674419,18.6046512 L24.4186047,18.6046512 C25.0604651,18.6046512 25.5813953,19.1255814 25.5813953,19.7674419 C25.5813953,20.4093023 25.0604651,20.9302326 24.4186047,20.9302326 Z M31.3953488,-3.68594044e-14 C32.0372093,-3.68594044e-14 32.5581395,0.520930233 32.5581395,1.1627907 C32.5581395,1.80465116 32.0372093,2.3255814 31.3953488,2.3255814 C30.9837209,2.3255814 29.4813953,2.3255814 29.0697674,2.3255814 C28.427907,2.3255814 27.9069767,1.80465116 27.9069767,1.1627907 C27.9069767,0.520930233 28.427907,-3.68594044e-14 29.0697674,-3.68594044e-14 C29.4813953,-3.68594044e-14 30.9837209,-3.68594044e-14 31.3953488,-3.68594044e-14 Z M31.3953488,4.65116279 C32.0372093,4.65116279 32.5581395,5.17209302 32.5581395,5.81395349 C32.5581395,6.45581395 32.0372093,6.97674419 31.3953488,6.97674419 C30.9837209,6.97674419 20.1790698,6.97674419 19.7674419,6.97674419 C19.1255814,6.97674419 18.6046512,6.45581395 18.6046512,5.81395349 C18.6046512,5.17209302 19.1255814,4.65116279 19.7674419,4.65116279 C20.1790698,4.65116279 30.9837209,4.65116279 31.3953488,4.65116279 Z M43.0232558,9.30232558 C43.6651163,9.30232558 44.1860465,9.82325581 44.1860465,10.4651163 C44.1860465,11.1069767 43.6651163,11.627907 43.0232558,11.627907 C42.6116279,11.627907 36.4581395,11.627907 36.0465116,11.627907 C35.4046512,11.627907 34.8837209,11.1069767 34.8837209,10.4651163 C34.8837209,9.82325581 35.4046512,9.30232558 36.0465116,9.30232558 C36.4581395,9.30232558 42.6116279,9.30232558 43.0232558,9.30232558 Z"></path>
                </g>
            </g>
            <g id="Group" mask="url(#mask-2)" fill="#9B9B9B">
                <g transform="translate(132.558140, 32.279070)" id="Combined-Shape">
                    <path d="M24.4186047,6.97674419 L1.1627907,6.97674419 C0.520930233,6.97674419 4.79616347e-14,6.45581395 4.79616347e-14,5.81395349 C4.79616347e-14,5.17209302 0.520930233,4.65116279 1.1627907,4.65116279 L24.4186047,4.65116279 C25.0604651,4.65116279 25.5813953,5.17209302 25.5813953,5.81395349 C25.5813953,6.45581395 25.0604651,6.97674419 24.4186047,6.97674419 Z M33.7209302,6.97674419 L29.0697674,6.97674419 C28.427907,6.97674419 27.9069767,6.45581395 27.9069767,5.81395349 C27.9069767,5.17209302 28.427907,4.65116279 29.0697674,4.65116279 L33.7209302,4.65116279 C34.3627907,4.65116279 34.8837209,5.17209302 34.8837209,5.81395349 C34.8837209,6.45581395 34.3627907,6.97674419 33.7209302,6.97674419 Z M45.3488372,11.627907 L22.0930233,11.627907 C21.4511628,11.627907 20.9302326,11.1069767 20.9302326,10.4651163 C20.9302326,9.82325581 21.4511628,9.30232558 22.0930233,9.30232558 L45.3488372,9.30232558 C45.9906977,9.30232558 46.5116279,9.82325581 46.5116279,10.4651163 C46.5116279,11.1069767 45.9930233,11.627907 45.3488372,11.627907 Z M17.4418605,11.627907 L15.1162791,11.627907 C14.4744186,11.627907 13.9534884,11.1069767 13.9534884,10.4651163 C13.9534884,9.82325581 14.4744186,9.30232558 15.1162791,9.30232558 L17.4418605,9.30232558 C18.0837209,9.30232558 18.6046512,9.82325581 18.6046512,10.4651163 C18.6046512,11.1069767 18.0837209,11.627907 17.4418605,11.627907 Z M10.3953488,11.627907 L5.81395349,11.627907 C5.17209302,11.627907 4.65116279,11.1069767 4.65116279,10.4651163 C4.65116279,9.82325581 5.17209302,9.30232558 5.81395349,9.30232558 L10.3953488,9.30232558 C11.0372093,9.30232558 11.5581395,9.82325581 11.5581395,10.4651163 C11.5581395,11.1069767 11.0372093,11.627907 10.3953488,11.627907 Z M31.3953488,2.3255814 L19.7674419,2.3255814 C19.1255814,2.3255814 18.6046512,1.80465116 18.6046512,1.1627907 C18.6046512,0.520930233 19.1255814,-3.68594044e-14 19.7674419,-3.68594044e-14 L31.3953488,-3.68594044e-14 C32.0372093,-3.68594044e-14 32.5581395,0.520930233 32.5581395,1.1627907 C32.5581395,1.80465116 32.0395349,2.3255814 31.3953488,2.3255814 Z M24.4186047,16.2790698 L19.7674419,16.2790698 C19.1255814,16.2790698 18.6046512,15.7581395 18.6046512,15.1162791 C18.6046512,14.4744186 19.1255814,13.9534884 19.7674419,13.9534884 L24.4186047,13.9534884 C25.0604651,13.9534884 25.5813953,14.4744186 25.5813953,15.1162791 C25.5813953,15.7581395 25.0604651,16.2790698 24.4186047,16.2790698 Z"></path>
                </g>
            </g>
            <g id="Group" mask="url(#mask-2)">
                <g transform="translate(53.488372, 43.906977)">
                    <circle id="Oval" fill="#F70031" fill-rule="evenodd" cx="55.4883721" cy="55.4883721" r="53.4883721"></circle>
                    <path d="M92.9790698,92.9767442 C72.4860465,113.469767 39.1418605,113.469767 18.6511628,92.9790698 C-1.84186047,72.4860465 -1.84186047,39.1418605 18.6511628,18.6488372 C39.144186,-1.84418605 72.4860465,-1.84186047 92.9790698,18.6488372 C113.472093,39.1395349 113.472093,72.4860465 92.9790698,92.9767442 L92.9790698,92.9767442 Z M95.2813953,95.2790698 C117.044186,73.5162791 117.04186,38.1093023 95.2813953,16.3465116 C73.5186047,-5.41627907 38.1116279,-5.41627907 16.3488372,16.3465116 C-5.41395349,38.1093023 -5.41162791,73.5209302 16.3488372,95.2813953 C38.1093023,117.04186 73.5186047,117.04186 95.2813953,95.2790698 L95.2813953,95.2790698 Z" id="Shape" fill="#161616" fill-rule="nonzero"></path>
                    <circle id="Oval" fill="#FFFFFF" fill-rule="evenodd" cx="56" cy="55" r="47"></circle>
                </g>
            </g>
            <g id="Group" mask="url(#mask-2)">
                <g transform="translate(30.232558, 122.976744)">
                    <path d="M43.0232558,31.3953488 C43.0232558,31.3953488 46.6674419,31.3953488 51.1627907,31.3953488 C55.6581395,31.3953488 59.3023256,27.7511628 59.3023256,23.255814 C59.3023256,19.1139535 56.1976744,15.7348837 52.1976744,15.2209302 C52.2627907,14.8046512 52.3255814,14.3883721 52.3255814,13.9534884 C52.3255814,9.45813953 48.6813953,5.81395349 44.1860465,5.81395349 C41.7860465,5.81395349 39.6511628,6.87209302 38.1627907,8.52325581 C37.2697674,4.31860465 33.5418605,1.1627907 29.0697674,1.1627907 C23.9325581,1.1627907 19.7674419,5.32790698 19.7674419,10.4651163 C19.7674419,10.9093023 19.8372093,11.3348837 19.8976744,11.7627907 C18.9023256,10.9627907 17.655814,10.4651163 16.2790698,10.4651163 C13.4232558,10.4651163 11.0581395,12.527907 10.5697674,15.244186 C10.1534884,15.1790698 9.7372093,15.1162791 9.30232558,15.1162791 C4.80697674,15.1162791 1.1627907,18.7604651 1.1627907,23.255814 C1.1627907,27.7511628 4.80697674,31.3953488 9.30232558,31.3953488 C13.7976744,31.3953488 26.744186,31.3953488 26.744186,31.3953488 L26.744186,32.5581395 L43.0232558,32.5581395 L43.0232558,31.3953488 Z" id="Path" fill="#9B9B9B"></path>
                    <path d="M47.0930233,20.9302326 C46.772093,20.9302326 46.5116279,20.6697674 46.5116279,20.3488372 C46.5116279,17.5046512 48.8255814,15.1906977 51.6697674,15.1906977 C51.7488372,15.2116279 53.3837209,15.1883721 54.5627907,15.5069767 C54.872093,15.5906977 55.055814,15.9093023 54.972093,16.2186047 C54.8883721,16.5302326 54.5697674,16.7139535 54.2604651,16.627907 C53.227907,16.3488372 51.7023256,16.3488372 51.672093,16.3534884 C49.4674419,16.3534884 47.6744186,18.1465116 47.6744186,20.3488372 C47.6744186,20.6697674 47.4139535,20.9302326 47.0930233,20.9302326 Z" id="Path" fill="#161616"></path>
                    <circle id="Oval" fill="#161616" cx="31.3953488" cy="31.3953488" r="1.1627907"></circle>
                    <path d="M51.1627907,32.5581395 L43.0232558,32.5581395 C42.3813953,32.5581395 41.8604651,32.0372093 41.8604651,31.3953488 C41.8604651,30.7534884 42.3813953,30.2325581 43.0232558,30.2325581 L51.1627907,30.2325581 C55.0093023,30.2325581 58.1395349,27.1023256 58.1395349,23.255814 C58.1395349,19.7767442 55.5232558,16.8186047 52.0511628,16.3744186 C51.7395349,16.3325581 51.4581395,16.1697674 51.2697674,15.9186047 C51.0813953,15.6674419 51.0023256,15.3511628 51.0511628,15.0418605 C51.1046512,14.6837209 51.1627907,14.3255814 51.1627907,13.9534884 C51.1627907,10.1069767 48.0325581,6.97674419 44.1860465,6.97674419 C42.2093023,6.97674419 40.3767442,7.80232558 39.0255814,9.30232558 C38.7348837,9.6255814 38.2790698,9.7627907 37.8627907,9.64651163 C37.4395349,9.53255814 37.1162791,9.19302326 37.0255814,8.76511628 C36.2325581,5.03488372 32.8860465,2.3255814 29.0697674,2.3255814 C24.5813953,2.3255814 20.9302326,5.97674419 20.9302326,10.4651163 C20.9302326,10.7976744 20.9790698,11.1162791 21.0255814,11.4372093 C21.0930233,11.9093023 20.8790698,12.455814 20.4627907,12.6930233 C20.0465116,12.9302326 19.5418605,12.9674419 19.1697674,12.6697674 C18.3209302,11.9883721 17.3232558,11.627907 16.2790698,11.627907 C14.0325581,11.627907 12.1116279,13.2348837 11.7139535,15.4511628 C11.6023256,16.072093 11.0255814,16.4883721 10.3906977,16.3930233 C10.0325581,16.3372093 9.6744186,16.2790698 9.30232558,16.2790698 C5.45581395,16.2790698 2.3255814,19.4093023 2.3255814,23.255814 C2.3255814,27.1023256 5.45581395,30.2325581 9.30232558,30.2325581 L26.744186,30.2325581 C27.3860465,30.2325581 27.9069767,30.7534884 27.9069767,31.3953488 C27.9069767,32.0372093 27.3860465,32.5581395 26.744186,32.5581395 L9.30232558,32.5581395 C4.17209302,32.5581395 0,28.3860465 0,23.255814 C0,18.1255814 4.17209302,13.9534884 9.30232558,13.9534884 C9.43953488,13.9534884 9.57209302,13.9581395 9.70697674,13.9674419 C10.6697674,11.2093023 13.2813953,9.30232558 16.2790698,9.30232558 C17.0906977,9.30232558 17.8813953,9.44418605 18.6302326,9.72093023 C19.0139535,4.29534884 23.5488372,0 29.0697674,0 C33.327907,0 37.1302326,2.62093023 38.727907,6.45116279 C40.3093023,5.29302326 42.2209302,4.65116279 44.1860465,4.65116279 C49.3162791,4.65116279 53.4883721,8.82325581 53.4883721,13.9534884 C53.4883721,14.0651163 53.4860465,14.1744186 53.4790698,14.2837209 C57.5325581,15.3255814 60.4651163,18.9976744 60.4651163,23.255814 C60.4651163,28.3860465 56.2930233,32.5581395 51.1627907,32.5581395 Z" id="Path" fill="#161616"></path>
                    <path d="M38.372093,30.2325581 C38.0023256,30.2325581 36.4162791,30.2325581 36.0465116,30.2325581 C35.4046512,30.2325581 34.8837209,30.7534884 34.8837209,31.3953488 C34.8837209,32.0372093 35.4046512,32.5581395 36.0465116,32.5581395 C36.4162791,32.5581395 38.0023256,32.5581395 38.372093,32.5581395 C39.0139535,32.5581395 39.5348837,32.0372093 39.5348837,31.3953488 C39.5348837,30.7534884 39.0139535,30.2325581 38.372093,30.2325581 Z" id="Path" fill="#161616"></path>
                </g>
            </g>
            <g id="Group" mask="url(#mask-2)">
                <g transform="translate(83.720930, 83.441860)">
                    <path d="M1.7744186,19.155814 L18.0534884,35.4348837 C18.8232558,36.2046512 19.844186,36.627907 20.9302326,36.627907 C22.1209302,36.6023256 23.1837209,36.1232558 23.9302326,35.3093023 L49.5116279,7.40232558 C50.2465116,6.6 50.6255814,5.56046512 50.5767442,4.4744186 C50.5302326,3.38837209 50.0627907,2.38604651 49.2604651,1.65116279 C48.5069767,0.960465116 47.5302326,0.581395349 46.5093023,0.581395349 C45.3697674,0.581395349 44.2767442,1.0627907 43.5093023,1.90232558 L21.2093023,26.2302326 L20.8,26.6790698 L20.3697674,26.2488372 L7.5255814,13.4046512 C6.75813953,12.6348837 5.73488372,12.2116279 4.64883721,12.2116279 C3.5627907,12.2116279 2.53953488,12.6348837 1.77209302,13.4046512 C1.00232558,14.1744186 0.579069767,15.1953488 0.579069767,16.2813953 C0.579069767,17.3674419 1.00465116,18.3883721 1.7744186,19.155814 Z" id="Path" fill="#7ED321" fill-rule="evenodd"></path>
                    <path d="M46.5116279,1.74418605 L46.5116279,1.74418605 C47.2395349,1.74418605 47.9372093,2.01627907 48.4767442,2.50930233 C49.0488372,3.03255814 49.3813953,3.74883721 49.4162791,4.5255814 C49.4488372,5.30232558 49.1790698,6.04418605 48.6534884,6.61627907 L23.072093,34.5232558 C22.5395349,35.1046512 21.7813953,35.4488372 20.9302326,35.4651163 C20.1534884,35.4651163 19.4232558,35.1627907 18.8744186,34.6139535 L2.59534884,18.3348837 C2.04651163,17.7860465 1.74418605,17.055814 1.74418605,16.2790698 C1.74418605,15.5023256 2.04651163,14.772093 2.59767442,14.2232558 C3.14418605,13.6744186 3.8744186,13.372093 4.65116279,13.372093 C5.42790698,13.372093 6.15813953,13.6744186 6.70697674,14.2232558 L19.5511628,27.0674419 L20.8395349,28.355814 L22.0697674,27.0139535 L44.3697674,2.68604651 C44.9255814,2.07906977 45.6860465,1.74418605 46.5116279,1.74418605 L46.5116279,1.74418605 Z M46.5116279,0 C45.2534884,0 44,0.506976744 43.0837209,1.50930233 L20.7837209,25.8348837 L7.93953488,12.9906977 C7.03255814,12.0813953 5.84186047,11.627907 4.65116279,11.627907 C3.46046512,11.627907 2.26976744,12.0813953 1.3627907,12.9906977 C-0.453488372,14.8069767 -0.453488372,17.7511628 1.3627907,19.5674419 L17.6418605,35.8465116 C18.5139535,36.7209302 19.6976744,37.2093023 20.9302326,37.2093023 C20.9651163,37.2093023 20.9976744,37.2093023 21.0302326,37.2093023 C22.2976744,37.1813953 23.5,36.6372093 24.3581395,35.7023256 L49.9395349,7.79534884 C51.6767442,5.90232558 51.5465116,2.95813953 49.6534884,1.22325581 C48.7604651,0.404651163 47.6348837,0 46.5116279,0 L46.5116279,0 Z" id="Shape" fill="#161616" fill-rule="nonzero"></path>
                </g>
            </g>
        </g>
    </g>
</svg>