<svg id="icon_add_video" data-name="icon / add video" xmlns="http://www.w3.org/2000/svg" width="24" height="24" viewBox="0 0 24 24">
  <g id="ilustration_-_create_new_video" data-name="ilustration - create new video" transform="translate(0 3)">
    <g id="Group" transform="translate(0.02 0.317)">
      <path id="Path" d="M16.136,10.849H2.449A2.444,2.444,0,0,1,0,8.424v-6A2.444,2.444,0,0,1,2.449,0H16.136a2.444,2.444,0,0,1,2.449,2.426v6A2.444,2.444,0,0,1,16.136,10.849Z" transform="translate(0.284 5.36)" fill="#9b9b9b"/>
      <ellipse id="Oval" cx="0.472" cy="0.468" rx="0.472" ry="0.468" transform="translate(1.753 13.791)" fill="#fff"/>
      <g id="Group-2" data-name="Group" transform="translate(0.64)">
        <ellipse id="Oval-2" data-name="Oval" cx="4.315" cy="4.274" rx="4.315" ry="4.274" transform="translate(0.248 0.443)" fill="#f70031"/>
        <ellipse id="Oval-3" data-name="Oval" cx="0.308" cy="0.305" rx="0.308" ry="0.305" transform="translate(4.255 4.411)" fill="#fff"/>
        <g id="Group-3" data-name="Group" transform="translate(3.2 1.268)">
          <ellipse id="Oval-4" data-name="Oval" cx="1.156" cy="1.145" rx="1.156" ry="1.145" transform="translate(0.207 0.167)" fill="#fefdef"/>
          <ellipse id="Oval-5" data-name="Oval" cx="1.156" cy="1.145" rx="1.156" ry="1.145" transform="translate(0.207 4.441)" fill="#fefdef"/>
        </g>
        <g id="Group-4" data-name="Group" transform="translate(1.28 3.487)">
          <ellipse id="Oval-6" data-name="Oval" cx="1.156" cy="1.145" rx="1.156" ry="1.145" transform="translate(4.208 0.085)" fill="#fefdef"/>
          <ellipse id="Oval-7" data-name="Oval" cx="1.156" cy="1.145" rx="1.156" ry="1.145" transform="translate(0.047 0.085)" fill="#fefdef"/>
        </g>
        <g id="Group-5" data-name="Group" transform="translate(9.28)">
          <ellipse id="Oval-8" data-name="Oval" cx="4.315" cy="4.274" rx="4.315" ry="4.274" transform="translate(0.012 0.224)" fill="#f70031"/>
          <ellipse id="Oval-9" data-name="Oval" cx="0.308" cy="0.305" rx="0.308" ry="0.305" transform="translate(4.018 4.193)" fill="#fff"/>
          <g id="Group-6" data-name="Group" transform="translate(2.88 0.951)">
            <ellipse id="Oval-10" data-name="Oval" cx="1.156" cy="1.145" rx="1.156" ry="1.145" transform="translate(0.291 0.265)" fill="#fefdef"/>
            <ellipse id="Oval-11" data-name="Oval" cx="1.156" cy="1.145" rx="1.156" ry="1.145" transform="translate(0.291 4.539)" fill="#fefdef"/>
          </g>
          <g id="Group-7" data-name="Group" transform="translate(0.96 3.17)">
            <ellipse id="Oval-12" data-name="Oval" cx="1.156" cy="1.145" rx="1.156" ry="1.145" transform="translate(4.291 0.183)" fill="#fefdef"/>
            <ellipse id="Oval-13" data-name="Oval" cx="1.156" cy="1.145" rx="1.156" ry="1.145" transform="translate(0.13 0.183)" fill="#fefdef"/>
          </g>
        </g>
      </g>
      <path id="Path-2" data-name="Path" d="M3.537.02,0,.879V5.366l3.537.858a.848.848,0,0,0,.973-.915V.935A.848.848,0,0,0,3.537.02Z" transform="translate(19.019 8.22)" fill="#9b9b9b"/>
    </g>
    <path id="Combined_Shape" data-name="Combined Shape" d="M2.768,16.522A2.759,2.759,0,0,1,0,13.78V7.853A2.711,2.711,0,0,1,.778,5.959,4.515,4.515,0,0,1,.6,4.715,4.643,4.643,0,0,1,9.7,3.479,4.642,4.642,0,0,1,18.84,4.6a4.531,4.531,0,0,1-.269,1.528A2.685,2.685,0,0,1,19.2,7.853V8.78l3.117-.757a1,1,0,0,1,.242-.03,1.042,1.042,0,0,1,.643.226,1.29,1.29,0,0,1,.478,1.021v4.345a1.29,1.29,0,0,1-.478,1.021,1.049,1.049,0,0,1-.645.224,1.015,1.015,0,0,1-.24-.029l-3.13-.76a2.747,2.747,0,0,1-2.755,2.481ZM.64,13.78a2.121,2.121,0,0,0,2.128,2.109H16.431A2.121,2.121,0,0,0,18.56,13.78v-.744H.64Zm18.56-.389,3.27.794a.384.384,0,0,0,.09.011.407.407,0,0,0,.247-.09.658.658,0,0,0,.233-.522v-.548h-.159a.158.158,0,1,1,0-.317h.159V9.239a.658.658,0,0,0-.233-.522.407.407,0,0,0-.247-.09.384.384,0,0,0-.09.011l-3.27.793v3.288h2.4a.158.158,0,1,1,0,.317H19.2ZM.64,7.853v4.865H18.56V7.853A2.057,2.057,0,0,0,18.268,6.8a4.652,4.652,0,0,1-8.533-.969,4.646,4.646,0,0,1-8.7.812A2.079,2.079,0,0,0,.64,7.853Zm.6-3.138a4,4,0,0,0,8,0,4,4,0,0,0-8,0ZM10.2,4.6a4,4,0,0,0,8,0,4,4,0,0,0-8,0ZM1.6,14.3a.64.64,0,1,1,.64.635A.638.638,0,0,1,1.6,14.3Zm.32,0a.32.32,0,1,0,.32-.317A.319.319,0,0,0,1.921,14.3Zm20.258-1.28a.117.117,0,0,1-.051-.035.152.152,0,0,1,0-.221.117.117,0,0,1,.051-.035.158.158,0,0,1,.122,0,.108.108,0,0,1,.051.035.148.148,0,0,1,.048.111.146.146,0,0,1-.048.111.108.108,0,0,1-.051.035.145.145,0,0,1-.06.013A.149.149,0,0,1,22.179,13.023ZM3.96,6.934A1.28,1.28,0,1,1,5.24,8.2,1.275,1.275,0,0,1,3.96,6.934Zm.32,0a.96.96,0,1,0,.959-.951A.955.955,0,0,0,4.28,6.934Zm8.64-.277A1.28,1.28,0,1,1,14.2,7.924,1.275,1.275,0,0,1,12.92,6.656Zm.32,0a.96.96,0,1,0,.959-.951A.956.956,0,0,0,13.241,6.656ZM6.04,4.715A1.28,1.28,0,1,1,7.32,5.983,1.275,1.275,0,0,1,6.04,4.715Zm.32,0a.96.96,0,1,0,.959-.951A.956.956,0,0,0,6.36,4.715Zm-4.48,0A1.28,1.28,0,1,1,3.16,5.983,1.275,1.275,0,0,1,1.88,4.715Zm.32,0a.96.96,0,1,0,.959-.951A.956.956,0,0,0,2.2,4.715ZM15,4.6a1.28,1.28,0,1,1,1.28,1.268A1.275,1.275,0,0,1,15,4.6Zm.32,0a.96.96,0,1,0,.959-.951A.956.956,0,0,0,15.321,4.6Zm-4.481,0a1.28,1.28,0,1,1,1.28,1.268A1.275,1.275,0,0,1,10.84,4.6Zm.32,0a.96.96,0,1,0,.959-.951A.957.957,0,0,0,11.16,4.6Zm-6.4.143a.5.5,0,1,1,.5.5A.5.5,0,0,1,4.76,4.739Zm.333,0a.167.167,0,1,0,.167-.167A.167.167,0,0,0,5.093,4.739Zm8.627-.119a.5.5,0,1,1,.5.5A.5.5,0,0,1,13.72,4.621Zm.333,0a.167.167,0,1,0,.167-.167A.167.167,0,0,0,14.053,4.621ZM12.92,2.535A1.28,1.28,0,1,1,14.2,3.8,1.275,1.275,0,0,1,12.92,2.535Zm.32,0a.96.96,0,1,0,.959-.951A.955.955,0,0,0,13.241,2.535ZM3.96,2.5A1.28,1.28,0,1,1,5.24,3.764,1.276,1.276,0,0,1,3.96,2.5Zm.32,0a.96.96,0,1,0,.959-.951A.955.955,0,0,0,4.28,2.5Z" transform="translate(0.005 0.273)" fill="#161616"/>
  </g>
</svg>
