<svg id="icon_add_budy" data-name="icon / add budy" xmlns="http://www.w3.org/2000/svg" width="24" height="24" viewBox="0 0 24 24">
  <g id="ilustration_-_add_buddy" data-name="ilustration - add buddy">
    <g id="Group">
      <path id="Path" d="M19.4,23.028H3.632A3.643,3.643,0,0,1,0,19.4V3.632A3.643,3.643,0,0,1,3.632,0H19.4a3.643,3.643,0,0,1,3.632,3.632V19.4A3.643,3.643,0,0,1,19.4,23.028Z" transform="translate(0.57 0.405)" fill="#fff"/>
      <path id="Shape" d="M4,23.77a4.008,4.008,0,0,1-4-4V4A4.009,4.009,0,0,1,4,0H19.767a4.009,4.009,0,0,1,4,4V19.767a4.008,4.008,0,0,1-4,4Z" transform="translate(0.199 0.033)" fill="#161616"/>
    </g>
    <path id="Path-2" data-name="Path" d="M16.794,19.738H2.944A2.952,2.952,0,0,1,0,16.795V2.944A2.952,2.952,0,0,1,2.944,0H16.795a2.952,2.952,0,0,1,2.944,2.944V16.795A2.953,2.953,0,0,1,16.794,19.738Z" transform="translate(2.308 2.077)" fill="#9b9b9b"/>
    <g id="Group_8" data-name="Group 8" transform="translate(5.769 5.077)">
      <g id="Group-2" data-name="Group">
        <g id="Path-3" data-name="Path" transform="translate(1.368)" fill="#f70031" stroke-miterlimit="10">
          <path d="M 5.181292057037354 10.07123851776123 C 4.873378753662109 10.07123851776123 4.583767890930176 9.91883659362793 4.410687446594238 9.67402458190918 C 3.75472617149353 9.557746887207031 3.129219532012939 9.312835693359375 2.584290027618408 8.959451675415039 C 2.524589776992798 9.002500534057617 2.458948850631714 9.038341522216797 2.393020391464233 9.063477516174316 C 2.254226446151733 9.142082214355469 2.101029396057129 9.142078399658203 2.006912231445313 9.142078399658203 C 1.875215411186218 9.142078399658203 1.732795238494873 9.102484703063965 1.619154334068298 9.035140991210938 C 1.514375805854797 8.99491024017334 1.410478830337524 8.927714347839355 1.330032110214233 8.84755802154541 L 1.301252126693726 8.818888664245605 L 1.283042192459106 8.782578468322754 L 1.272502541542053 8.761570930480957 C 1.183808207511902 8.667322158813477 1.081621646881104 8.530713081359863 1.041592121124268 8.37117862701416 L 1.034082174301147 8.341228485107422 L 1.034082174301147 8.31489372253418 C 1.033018231391907 8.308259010314941 1.031261205673218 8.301667213439941 1.029507040977478 8.295047760009766 C 1.018763184547424 8.286663055419922 1.007618546485901 8.276995658874512 0.9964121580123901 8.265828132629395 L 0.9788621664047241 8.248348236083984 L 0.9650821685791016 8.227738380432129 C 0.9047821164131165 8.137618064880371 0.8297421336174011 8.025468826293945 0.7913821339607239 7.872568607330322 L 0.7838621139526367 7.842608451843262 L 0.7838621139526367 7.811728477478027 C 0.7838621139526367 7.700706481933594 0.7990409731864929 7.601221084594727 0.8298014402389526 7.512190818786621 C 0.723432719707489 7.482600688934326 0.6294519901275635 7.446173191070557 0.5341121554374695 7.382838726043701 L 0.5135021209716797 7.369148254394531 L 0.4993633627891541 7.355058193206787 C 0.4962281286716461 7.352528095245361 0.4927763640880585 7.349976062774658 0.4892121553421021 7.347248554229736 C 0.4645077586174011 7.328354358673096 0.4256471693515778 7.29863452911377 0.3890855312347412 7.254308223724365 C 0.2594311237335205 7.176483154296875 0.1716064512729645 7.078365802764893 0.1164984181523323 7.000457763671875 C -0.006966596003621817 6.865921974182129 -0.0573660209774971 6.683659076690674 -0.0209568589925766 6.503572463989258 C -0.01339574903249741 6.414223194122314 0.02260582149028778 6.352083206176758 0.04510214179754257 6.313258647918701 C 0.04778182134032249 6.308635711669922 0.05061608180403709 6.303824424743652 0.05349404364824295 6.298662662506104 C 0.06208337098360062 6.275092124938965 0.0765039399266243 6.238227367401123 0.09660771489143372 6.195873737335205 C 0.07821044325828552 6.174731731414795 0.06054076179862022 6.152379035949707 0.04328478500247002 6.128505706787109 C -0.08142132312059402 6.023622035980225 -0.1663640588521957 5.883669853210449 -0.2094678580760956 5.711878299713135 L -0.2109278589487076 5.706088542938232 L -0.2120978534221649 5.700238704681396 L -0.2398978620767593 5.561728477478027 L -0.2417078614234924 5.552738666534424 L -0.2428478598594666 5.543648719787598 C -0.2760775089263916 5.278733253479004 -0.1932283937931061 5.045493125915527 -0.02146172523498535 4.89548921585083 C -0.02237794175744057 4.870054244995117 -0.02237785793840885 4.844921588897705 -0.02237785793840885 4.819998264312744 C -0.02237785793840885 4.749600410461426 -0.02237862907350063 4.637609481811523 0.04598116129636765 4.543016910552979 C 0.02502222917973995 4.482185840606689 0.005422142799943686 4.412442684173584 0.005422142799943686 4.321378707885742 C 0.005422142799943686 4.215728282928467 0.005422142799943686 4.095978260040283 0.05977214127779007 3.987658500671387 C 0.09300275146961212 3.921444177627563 0.1271985620260239 3.853320837020874 0.176021009683609 3.799078702926636 C 0.1815195828676224 3.78771710395813 0.1874221712350845 3.777129173278809 0.1934471875429153 3.767377376556396 C 0.211037889122963 3.723773717880249 0.2416078597307205 3.678492546081543 0.2924262881278992 3.63634204864502 C 0.2676157355308533 3.597979545593262 0.2462638318538666 3.558572053909302 0.2265921384096146 3.519368410110474 C 0.1328621357679367 3.33258843421936 0.121532142162323 3.124908447265625 0.1938321441411972 2.918778419494629 C 0.2680566310882568 2.707151889801025 0.4279518723487854 2.513933181762695 0.6352442502975464 2.379207611083984 C 0.6414594054222107 2.304152727127075 0.6605455279350281 2.240254640579224 0.6783207058906555 2.186283349990845 C 0.6847580671310425 2.153634309768677 0.6955426335334778 2.126966238021851 0.7045289278030396 2.107703924179077 C 0.7173555493354797 2.023226022720337 0.7581158876419067 1.949736833572388 0.7920021414756775 1.888668537139893 C 0.7987521290779114 1.876488447189331 0.8052321672439575 1.864988446235657 0.8104121685028076 1.854668498039246 C 0.8564221262931824 1.76296854019165 0.9307621717453003 1.68889844417572 0.9963521361351013 1.623538494110107 C 1.088052868843079 1.532160997390747 1.181596994400024 1.467861652374268 1.284823656082153 1.426023364067078 C 1.284292101860046 1.402018666267395 1.284292101860046 1.379066824913025 1.284292101860046 1.357358455657959 L 1.284292101860046 1.309058547019958 L 1.302282094955444 1.264228463172913 L 1.357882142066956 1.125718474388123 C 1.425787925720215 0.9565646648406982 1.56729793548584 0.8090096712112427 1.790434241294861 0.6747366786003113 C 1.900816440582275 0.6025233268737793 2.015869140625 0.5622230768203735 2.133041143417358 0.5546509623527527 C 2.187804698944092 0.5399790406227112 2.243410110473633 0.5325585007667542 2.298832178115845 0.5325585007667542 C 2.323083162307739 0.5325585007667542 2.347368955612183 0.5339795351028442 2.371603012084961 0.5368065237998962 C 2.468109130859375 0.4780941605567932 2.593931436538696 0.4233071208000183 2.748798608779907 0.4157218039035797 C 2.782749176025391 0.4079082310199738 2.817445516586304 0.4039584994316101 2.852402210235596 0.4039584994316101 C 2.88906717300415 0.4039584994316101 2.925532579421997 0.4081177413463593 2.962033271789551 0.4165147542953491 C 3.015828847885132 0.3697635233402252 3.083215951919556 0.3223996758460999 3.171352386474609 0.2917248904705048 L 3.30442214012146 0.2386884987354279 L 3.320142030715942 0.232418492436409 L 3.336562156677246 0.2283284962177277 C 3.411652088165283 0.2096284925937653 3.488102197647095 0.2001484930515289 3.56379222869873 0.2001484930515289 C 3.61085057258606 0.2001484930515289 3.658196687698364 0.2038120627403259 3.705327749252319 0.2110765129327774 C 3.753679037094116 0.1499052494764328 3.815348148345947 0.09717392921447754 3.882162570953369 0.06101749464869499 C 4.01548957824707 -0.02434488199651241 4.171317100524902 -0.07123150676488876 4.322542190551758 -0.07123150676488876 C 4.364168167114258 -0.07123150676488876 4.405174255371094 -0.06771440058946609 4.445192337036133 -0.06079170852899551 C 4.544363975524902 -0.1776612401008606 4.687629699707031 -0.2500015199184418 4.842662334442139 -0.2500015199184418 L 4.926062107086182 -0.2500015199184418 C 5.025507926940918 -0.2500015199184418 5.171947479248047 -0.250003844499588 5.295247077941895 -0.1485971659421921 C 5.326219081878662 -0.1291934251785278 5.352322578430176 -0.1070619449019432 5.374589443206787 -0.08379054069519043 C 5.419994831085205 -0.08377895504236221 5.48018741607666 -0.08334421366453171 5.546972274780273 -0.06708785891532898 C 5.603514671325684 -0.07893359661102295 5.662000179290771 -0.08491151034832001 5.721732139587402 -0.08491151034832001 C 5.876332759857178 -0.08491151034832001 6.031149387359619 -0.04407266899943352 6.158778667449951 0.03023131191730499 C 6.223381996154785 0.06411167979240417 6.283442497253418 0.1135854199528694 6.331658840179443 0.1713750660419464 C 6.381604194641113 0.1582687944173813 6.432162761688232 0.1516684889793396 6.4829421043396 0.1516684889793396 C 6.57472038269043 0.1516684889793396 6.665801048278809 0.1732357144355774 6.753778457641602 0.2157949358224869 L 6.934378623962402 0.2929125726222992 C 7.033262252807617 0.3280246257781982 7.105837821960449 0.3841148018836975 7.162381649017334 0.436301052570343 C 7.224353790283203 0.4227087497711182 7.288355827331543 0.4148284792900085 7.344792366027832 0.4148284792900085 C 7.516522407531738 0.4148284792900085 7.654549121856689 0.4735417068004608 7.758536815643311 0.5368070602416992 C 7.782771110534668 0.5339800715446472 7.807061195373535 0.5325585007667542 7.83131217956543 0.5325585007667542 C 7.886763095855713 0.5325585007667542 7.942389965057373 0.5399846434593201 7.99718189239502 0.5546719431877136 C 8.116252899169922 0.562479555606842 8.228034973144531 0.6043070554733276 8.314658164978027 0.6731864213943481 C 8.500171661376953 0.7619845271110535 8.669363021850586 0.9386686086654663 8.744441986083984 1.1257084608078 L 8.800051689147949 1.264208436012268 L 8.806391716003418 1.280008435249329 L 8.810532569885254 1.296518445014954 C 8.828298568725586 1.367321848869324 8.837666511535645 1.433247923851013 8.838613510131836 1.496106147766113 C 8.955680847167969 1.537116527557373 9.059738159179688 1.60516893863678 9.161521911621094 1.706568479537964 C 9.201922416687012 1.746828436851501 9.230961799621582 1.785418510437012 9.254302024841309 1.816428542137146 C 9.271632194519043 1.83944845199585 9.285311698913574 1.857628464698792 9.300521850585938 1.872778534889221 L 9.329301834106445 1.901448488235474 L 9.347532272338867 1.937758445739746 C 9.373038291931152 1.988598704338074 9.401464462280273 2.045244455337524 9.43010139465332 2.123214721679688 C 9.459797859191895 2.168672561645508 9.473511695861816 2.213890314102173 9.47984504699707 2.25150728225708 C 9.503373146057129 2.29927921295166 9.517834663391113 2.346232891082764 9.526719093322754 2.390613079071045 C 9.706137657165527 2.478898048400879 9.853096008300781 2.624628067016602 9.940742492675781 2.804918527603149 C 10.05078220367432 3.031278610229492 10.06079196929932 3.286998510360718 9.968941688537598 3.524968385696411 L 9.964582443237305 3.536268472671509 L 9.959152221679688 3.547088384628296 C 9.938488960266113 3.588254928588867 9.915605545043945 3.625797510147095 9.891499519348145 3.659931898117065 C 9.909090042114258 3.676760911941528 9.926366806030273 3.696634292602539 9.9429931640625 3.720011949539185 C 9.967354774475098 3.740380048751831 9.988044738769531 3.764922380447388 10.00406932830811 3.792643070220947 L 10.02434253692627 3.812838554382324 L 10.04256248474121 3.849138498306274 C 10.04946231842041 3.862908601760864 10.0570821762085 3.874288558959961 10.06860256195068 3.89150857925415 C 10.08484172821045 3.915778398513794 10.10506248474121 3.945998430252075 10.12595176696777 3.987608432769775 L 10.13395214080811 4.003548622131348 L 10.13961219787598 4.020458698272705 C 10.18032169342041 4.142178535461426 10.18032169342041 4.229218482971191 10.18032169342041 4.321378707885742 C 10.18032169342041 4.407017230987549 10.16307163238525 4.484857559204102 10.1425895690918 4.547089099884033 L 10.15377235412598 4.569368362426758 C 10.20045852661133 4.662415027618408 10.21251392364502 4.748002052307129 10.18994045257568 4.83719539642334 C 10.19223499298096 4.862573623657227 10.19213676452637 4.888733863830566 10.18966007232666 4.915496349334717 C 10.33722114562988 5.060062885284424 10.4302806854248 5.275870323181152 10.45708179473877 5.542978286743164 L 10.45833206176758 5.555428504943848 L 10.45833206176758 5.567938327789307 C 10.45833206176758 5.636348724365234 10.44154167175293 5.686518669128418 10.43152236938477 5.716498374938965 C 10.43119621276855 5.717469215393066 10.43086433410645 5.718437194824219 10.43053245544434 5.719406604766846 L 10.43053245544434 5.731278419494629 L 10.4256420135498 5.755638599395752 C 10.38540744781494 5.956117153167725 10.2700080871582 6.080419540405273 10.1789722442627 6.171674251556396 C 10.162917137146 6.194544315338135 10.14654731750488 6.216031551361084 10.12960433959961 6.236387729644775 C 10.14798736572266 6.276341915130615 10.1618595123291 6.317926406860352 10.17040729522705 6.359668254852295 C 10.21191024780273 6.429502010345459 10.23592185974121 6.512554168701172 10.23592185974121 6.592878341674805 C 10.23592185974121 6.757948398590088 10.19131183624268 6.915538311004639 10.11030197143555 7.036608695983887 L 10.10644245147705 7.042388439178467 L 10.10226249694824 7.047938346862793 C 10.00512599945068 7.176981925964355 9.905540466308594 7.25023889541626 9.821226119995117 7.307024002075195 C 9.793893814086914 7.342423915863037 9.746136665344238 7.402270317077637 9.66856575012207 7.445356845855713 C 9.579534530639648 7.502657890319824 9.491239547729492 7.537123680114746 9.392458915710449 7.565140724182129 C 9.433584213256836 7.670680522918701 9.446659088134766 7.782202243804932 9.429139137268066 7.892170906066895 C 9.420280456542969 8.095623970031738 9.304819107055664 8.233868598937988 9.217122077941895 8.321248054504395 L 9.199612617492676 8.338688850402832 L 9.185948371887207 8.347766876220703 L 9.176042556762695 8.406988143920898 L 9.174391746520996 8.416878700256348 L 9.171952247619629 8.426608085632324 C 9.127351760864258 8.604308128356934 9.005612373352051 8.753598213195801 8.911332130432129 8.847548484802246 L 8.855691909790039 8.902978897094727 C 8.77556037902832 8.982820510864258 8.672137260437012 9.049813270568848 8.567751884460449 9.090093612670898 C 8.448009490966797 9.163240432739258 8.323562622070313 9.197478294372559 8.178832054138184 9.197478294372559 C 8.046901702880859 9.197478294372559 7.898652076721191 9.154788017272949 7.822021961212158 9.129338264465332 C 7.745840549468994 9.104023933410645 7.668975830078125 9.063738822937012 7.600083351135254 9.013856887817383 C 7.090357303619385 9.339210510253906 6.532608985900879 9.56055736541748 5.938104152679443 9.673295021057129 C 5.93520450592041 9.676983833312988 5.932153701782227 9.680717468261719 5.928941249847412 9.68448543548584 C 5.865906238555908 9.774371147155762 5.758865833282471 9.892232894897461 5.593562126159668 9.974578857421875 C 5.464832305908203 10.03871822357178 5.326122283935547 10.07123851776123 5.181292057037354 10.07123851776123 Z" stroke="none"/>
          <path d="M 5.181288719177246 9.821237564086914 C 5.283182144165039 9.821237564086914 5.386062145233154 9.798650741577148 5.482092380523682 9.750808715820313 C 5.593302249908447 9.695408821105957 5.67670202255249 9.612308502197266 5.732302188873291 9.52919864654541 C 5.760102272033691 9.501498222351074 5.760102272033691 9.473798751831055 5.787912368774414 9.446098327636719 C 6.455142021179199 9.335288047790527 7.066771984100342 9.085978507995605 7.622802257537842 8.698168754577637 C 7.622802257537842 8.725868225097656 7.650602340698242 8.725868225097656 7.678401947021484 8.753568649291992 C 7.734002113342285 8.808968544006348 7.817412376403809 8.864368438720703 7.900812149047852 8.892078399658203 C 7.984221935272217 8.919778823852539 8.09542179107666 8.947478294372559 8.178832054138184 8.947478294372559 C 8.290032386779785 8.947478294372559 8.373441696166992 8.919778823852539 8.456842422485352 8.864368438720703 C 8.540251731872559 8.836668968200684 8.623652458190918 8.781268119812012 8.679251670837402 8.725868225097656 L 8.734862327575684 8.670468330383301 C 8.818262100219727 8.587358474731445 8.90166187286377 8.476558685302734 8.929471969604492 8.365748405456543 L 8.957272529602051 8.199548721313477 L 9.040672302246094 8.144138336181641 C 9.124082565307617 8.061038017272949 9.179681777954102 7.977938652038574 9.179681777954102 7.867128372192383 C 9.20748233795166 7.728628635406494 9.151882171630859 7.590118408203125 9.040672302246094 7.479318618774414 C 9.012871742248535 7.451618671417236 8.957272529602051 7.3962082862854 8.90166187286377 7.368508338928223 L 8.929471969604492 7.313108444213867 C 9.008100509643555 7.332695007324219 9.086739540100098 7.35228157043457 9.165370941162109 7.352282047271729 C 9.197943687438965 7.352282524108887 9.230510711669922 7.348922252655029 9.263082504272461 7.340808391571045 C 9.374292373657227 7.313108444213867 9.45769214630127 7.285408496856689 9.541102409362793 7.230008602142334 C 9.596702575683594 7.202298641204834 9.624502182006836 7.14689826965332 9.652301788330078 7.119198322296143 C 9.735712051391602 7.063798427581787 9.819111824035645 7.008398532867432 9.902522087097168 6.897588729858398 C 9.958122253417969 6.814488410949707 9.985921859741211 6.703678607940674 9.985921859741211 6.592878341674805 C 9.985921859741211 6.537478446960449 9.958122253417969 6.482068538665771 9.93032169342041 6.454368591308594 C 9.93032169342041 6.371268272399902 9.874711990356445 6.260458469390869 9.791312217712402 6.205058574676514 C 9.874711990356445 6.149658679962158 9.93032169342041 6.094258308410645 9.985921859741211 6.011148452758789 C 10.06932258605957 5.928048610687256 10.15273189544678 5.844948291778564 10.18053245544434 5.706438541412354 C 10.18053245544434 5.651038646697998 10.20833206176758 5.62333869934082 10.20833206176758 5.567938327789307 C 10.18053245544434 5.290918350219727 10.06932258605957 5.097018718719482 9.902522087097168 5.013908386230469 C 9.93032169342041 4.958508491516113 9.958122253417969 4.87540864944458 9.93032169342041 4.819998264312744 C 9.958122253417969 4.764598369598389 9.958122253417969 4.736898422241211 9.93032169342041 4.681498527526855 C 9.902522087097168 4.653798580169678 9.874711990356445 4.6260986328125 9.846912384033203 4.598388671875 L 9.874711990356445 4.542988300323486 C 9.902522087097168 4.487588405609131 9.93032169342041 4.404488563537598 9.93032169342041 4.321378707885742 C 9.93032169342041 4.238278388977051 9.93032169342041 4.182878494262695 9.902522087097168 4.09976863861084 C 9.874711990356445 4.044368267059326 9.846912384033203 4.016668319702148 9.819111824035645 3.961268424987793 L 9.791312217712402 3.933568477630615 C 9.791312217712402 3.933568477630615 9.791312217712402 3.905868530273438 9.76351261138916 3.905868530273438 C 9.735712051391602 3.850458383560181 9.707912445068359 3.822758436203003 9.680102348327637 3.822758436203003 L 9.652301788330078 3.795058488845825 L 9.624502182006836 3.767358541488647 C 9.596702575683594 3.73965859413147 9.541102409362793 3.711958408355713 9.513301849365234 3.684258460998535 C 9.596702575683594 3.628848552703857 9.680102348327637 3.545748472213745 9.735712051391602 3.434948444366455 C 9.874711990356445 3.074828386306763 9.680102348327637 2.687008380889893 9.318692207336426 2.576208591461182 L 9.290882110595703 2.576208591461182 C 9.290882110595703 2.493108510971069 9.290882110595703 2.409998416900635 9.235281944274902 2.326898574829102 C 9.235281944274902 2.299198389053345 9.235281944274902 2.271498441696167 9.20748233795166 2.243798494338989 C 9.179681777954102 2.160688400268555 9.151882171630859 2.105288505554199 9.124082565307617 2.049888372421265 C 9.068471908569336 1.994488477706909 9.040672302246094 1.939078450202942 8.985072135925293 1.883678436279297 C 8.90166187286377 1.800578474998474 8.818262100219727 1.745178461074829 8.707061767578125 1.717468500137329 L 8.568052291870117 1.634368538856506 C 8.595851898193359 1.551268458366394 8.595851898193359 1.468158483505249 8.568052291870117 1.357358455657959 L 8.512442588806152 1.218848466873169 C 8.456842422485352 1.080348491668701 8.317831993103027 0.9418385028839111 8.178832054138184 0.8864384889602661 C 8.123231887817383 0.8310384750366211 8.039822578430176 0.8033384680747986 7.956422328948975 0.8033384680747986 C 7.914717197418213 0.7894834876060486 7.873014450073242 0.7825559973716736 7.83131217956543 0.7825559973716736 C 7.789609432220459 0.7825559973716736 7.747907161712646 0.7894834876060486 7.706202030181885 0.8033384680747986 C 7.595002174377441 0.7202284932136536 7.483792304992676 0.6648284792900085 7.344792366027832 0.6648284792900085 C 7.261382102966309 0.6648284792900085 7.150182247161865 0.6925284862518311 7.094572067260742 0.7202284932136536 C 7.094572067260742 0.6925284862518311 7.066771984100342 0.6925284862518311 7.0389723777771 0.6648284792900085 C 6.983372211456299 0.6094284653663635 6.927762031555176 0.554018497467041 6.844362258911133 0.5263184905052185 L 6.649752140045166 0.4432184994220734 C 6.594147205352783 0.4155184924602509 6.538544654846191 0.4016684889793396 6.4829421043396 0.4016684889793396 C 6.427339553833008 0.4016684889793396 6.371737003326416 0.4155184924602509 6.316132068634033 0.4432184994220734 L 6.260532379150391 0.4709185063838959 C 6.23273229598999 0.4432184994220734 6.20493221282959 0.4155184924602509 6.177132129669189 0.3878184854984283 C 6.149322032928467 0.3324185013771057 6.093722343444824 0.2770085036754608 6.038122177124023 0.2493084967136383 C 5.948364734649658 0.195651575922966 5.835394859313965 0.1650861501693726 5.72172737121582 0.1650861501693726 C 5.659354686737061 0.1650861501693726 5.596794605255127 0.1742797642946243 5.537692070007324 0.1939084976911545 C 5.482092380523682 0.166208490729332 5.426492214202881 0.166208490729332 5.370882034301758 0.166208490729332 C 5.343081951141357 0.166208490729332 5.287482261657715 0.1939084976911545 5.259682178497314 0.1939084976911545 C 5.231882095336914 0.1385084986686707 5.204082012176514 0.08310849219560623 5.148472309112549 0.05539849027991295 C 5.092872142791748 -1.508483933321259e-06 5.009472370147705 -1.508483933321259e-06 4.926062107086182 -1.508483933321259e-06 L 4.842662334442139 -1.508483933321259e-06 C 4.703651905059814 -1.508483933321259e-06 4.592442035675049 0.1108084917068481 4.564641952514648 0.2493084967136383 C 4.491509914398193 0.2007320523262024 4.407672882080078 0.1787732988595963 4.322537422180176 0.1787732988595963 C 4.213484287261963 0.1787732988595963 4.102290153503418 0.2147849351167679 4.008612155914307 0.2770085036754608 C 3.953012228012085 0.3047084808349609 3.897412061691284 0.3601184785366058 3.869612216949463 0.4155184924602509 C 3.841812133789063 0.4432184994220734 3.81400203704834 0.4709185063838959 3.786202192306519 0.498618483543396 L 3.730602025985718 0.4709185063838959 C 3.675002098083496 0.4570685029029846 3.619399547576904 0.4501434862613678 3.563795804977417 0.4501434862613678 C 3.50819206237793 0.4501434862613678 3.452587127685547 0.4570685029029846 3.396982192993164 0.4709185063838959 L 3.25798225402832 0.5263184905052185 C 3.174572229385376 0.554018497467041 3.118972063064575 0.6094284653663635 3.063372135162354 0.6648284792900085 L 3.035572052001953 0.7202284932136536 C 2.97451639175415 0.6796759963035583 2.9134521484375 0.6539616584777832 2.852399349212646 0.6539616584777832 C 2.830045938491821 0.6539616584777832 2.807706356048584 0.6574047207832336 2.785352230072021 0.6648284792900085 C 2.646352052688599 0.6648284792900085 2.535142183303833 0.7202284932136536 2.423932075500488 0.8033384680747986 C 2.382232189178467 0.7894834876060486 2.340532064437866 0.7825559973716736 2.298830986022949 0.7825559973716736 C 2.257129669189453 0.7825559973716736 2.215427160263062 0.7894834876060486 2.1737220287323 0.8033384680747986 C 2.090322256088257 0.8033384680747986 2.006912231445313 0.8310384750366211 1.923512101173401 0.8864384889602661 C 1.784502148628235 0.9695385098457336 1.645492196083069 1.080348491668701 1.589892148971558 1.218848466873169 L 1.534292101860046 1.357358455657959 C 1.534292101860046 1.440458536148071 1.534292101860046 1.523568511009216 1.562092185020447 1.606668472290039 L 1.450882196426392 1.634368538856506 C 1.339682102203369 1.662068486213684 1.256272196769714 1.717468500137329 1.172872185707092 1.800578474998474 C 1.117272138595581 1.855978488922119 1.061662197113037 1.911378502845764 1.033862113952637 1.966778516769409 C 1.006062150001526 2.022188425064087 0.9504621624946594 2.105288505554199 0.9504621624946594 2.160688400268555 C 0.9504621624946594 2.188388586044312 0.9226621389389038 2.216088533401489 0.9226621389389038 2.243798494338989 C 0.8948621153831482 2.326898574829102 0.8670521378517151 2.409998416900635 0.8948621153831482 2.520808458328247 C 0.5334421396255493 2.687008380889893 0.2832221388816833 3.074828386306763 0.4500321447849274 3.407238483428955 C 0.5056421160697937 3.518048524856567 0.5612421631813049 3.60114860534668 0.6724421381950378 3.656558513641357 C 0.6168421506881714 3.684258460998535 0.5890421271324158 3.711958408355713 0.5612421631813049 3.73965859413147 L 0.5334421396255493 3.767358541488647 C 0.5334421396255493 3.767358541488647 0.5056421160697937 3.767358541488647 0.5056421160697937 3.795058488845825 C 0.4500321447849274 3.822758436203003 0.4222321510314941 3.850458383560181 0.4222321510314941 3.878158569335938 C 0.4222321510314941 3.878158569335938 0.3944321572780609 3.905868530273438 0.3944321572780609 3.933568477630615 L 0.3666321337223053 3.961268424987793 C 0.3388321399688721 3.988968372344971 0.3110321462154388 4.044368267059326 0.2832221388816833 4.09976863861084 C 0.2554221451282501 4.155178546905518 0.2554221451282501 4.238278388977051 0.2554221451282501 4.321378707885742 C 0.2554221451282501 4.404488563537598 0.2832221388816833 4.459888458251953 0.3110321462154388 4.542988300323486 C 0.3110321462154388 4.570688724517822 0.3388321399688721 4.570688724517822 0.3388321399688721 4.598388671875 C 0.3110321462154388 4.6260986328125 0.2832221388816833 4.653798580169678 0.2554221451282501 4.681498527526855 C 0.2276221364736557 4.709198474884033 0.2276221364736557 4.764598369598389 0.2276221364736557 4.819998264312744 C 0.2276221364736557 4.903108596801758 0.2276221364736557 4.958508491516113 0.2554221451282501 5.013908386230469 C 0.06081214174628258 5.097018718719482 -0.02258785627782345 5.290918350219727 0.00521214259788394 5.512528419494629 L 0.03301214426755905 5.651038646697998 C 0.06081214174628258 5.761838436126709 0.116422139108181 5.8726487159729 0.2276221364736557 5.955748558044434 C 0.2832221388816833 6.038858413696289 0.3388321399688721 6.094258308410645 0.4222321510314941 6.149658679962158 C 0.3666321337223053 6.205058574676514 0.3110321462154388 6.315868377685547 0.2832221388816833 6.398968696594238 C 0.2554221451282501 6.454368591308594 0.2276221364736557 6.482068538665771 0.2276221364736557 6.537478446960449 C 0.1998221427202225 6.648278713226318 0.2276221364736557 6.759088516235352 0.3110321462154388 6.842188358306885 C 0.3666321337223053 6.925288677215576 0.4500321447849274 7.008398532867432 0.5612421631813049 7.063798427581787 C 0.5890421271324158 7.119198322296143 0.6446421146392822 7.14689826965332 0.6724421381950378 7.174598693847656 C 0.7558521628379822 7.230008602142334 0.8392521142959595 7.257708549499512 0.9504621624946594 7.285408496856689 C 0.9830266833305359 7.293520450592041 1.015607595443726 7.296882152557373 1.048173666000366 7.296882152557373 C 1.12681257724762 7.296882152557373 1.205439567565918 7.277296543121338 1.284082174301147 7.257708549499512 L 1.311882138252258 7.313108444213867 C 1.256272196769714 7.340808391571045 1.228472113609314 7.368508338928223 1.172872185707092 7.423908710479736 C 1.061662197113037 7.53471851348877 1.033862113952637 7.673218727111816 1.033862113952637 7.811728477478027 C 1.061662197113037 7.922528266906738 1.117272138595581 8.005638122558594 1.172872185707092 8.088738441467285 C 1.200672149658203 8.116438865661621 1.228472113609314 8.116438865661621 1.256272196769714 8.144138336181641 C 1.256272196769714 8.199548721313477 1.284082174301147 8.254948616027832 1.284082174301147 8.310348510742188 C 1.311882138252258 8.421158790588379 1.39528214931488 8.53195858001709 1.478692173957825 8.615058898925781 L 1.506492137908936 8.670468330383301 C 1.562092185020447 8.725868225097656 1.645492196083069 8.781268119812012 1.728902101516724 8.808968544006348 C 1.812302112579346 8.864368438720703 1.923512101173401 8.892078399658203 2.006912231445313 8.892078399658203 C 2.090322256088257 8.892078399658203 2.2015221118927 8.892078399658203 2.284932136535645 8.836668968200684 C 2.368332147598267 8.808968544006348 2.451742172241211 8.753568649291992 2.507342100143433 8.698168754577637 C 2.535142183303833 8.670468330383301 2.535142183303833 8.670468330383301 2.562942028045654 8.642758369445801 C 3.146772146224976 9.05827808380127 3.841812133789063 9.335288047790527 4.564641952514648 9.446098327636719 C 4.683437347412109 9.682826995849609 4.929190635681152 9.821237564086914 5.181288719177246 9.821237564086914 M 5.181292057037354 10.32123851776123 C 4.828833103179932 10.32123851776123 4.495073795318604 10.16283988952637 4.272223949432373 9.902487754821777 C 3.670676946640015 9.784491539001465 3.095300197601318 9.563139915466309 2.581663131713867 9.252728462219238 C 2.554738759994507 9.266407012939453 2.527461767196655 9.278867721557617 2.500082492828369 9.289958000183105 C 2.309613227844238 9.392072677612305 2.115893840789795 9.392078399658203 2.006912231445313 9.392078399658203 C 1.83927059173584 9.392078399658203 1.658345699310303 9.343708992004395 1.510249614715576 9.260833740234375 C 1.380244731903076 9.207601547241211 1.252938508987427 9.123661994934082 1.153572201728821 9.024658203125 L 1.096022129058838 8.967308044433594 L 1.064611554145813 8.904711723327637 C 0.9608049988746643 8.788631439208984 0.8478204011917114 8.626161575317383 0.7991121411323547 8.432018280029297 L 0.7958142757415771 8.418872833251953 L 0.7848621606826782 8.407958030700684 L 0.7573021650314331 8.366758346557617 C 0.6899921298027039 8.266168594360352 0.5978221297264099 8.128408432006836 0.5488921403884888 7.933408260345459 L 0.5338621139526367 7.873498439788818 L 0.5338621139526367 7.811728477478027 C 0.5338621139526367 7.764074325561523 0.536241888999939 7.717733383178711 0.5409868359565735 7.672752380371094 C 0.493196427822113 7.650325298309326 0.4447266757488251 7.623600482940674 0.3957721292972565 7.591078281402588 L 0.3545721471309662 7.563708305358887 L 0.3342850506305695 7.543496608734131 C 0.3077336847782135 7.523166656494141 0.2674395740032196 7.491859912872314 0.2250681221485138 7.44649600982666 C 0.1078166589140892 7.370053768157959 0.004652268253266811 7.271961688995361 -0.07864256948232651 7.157339572906494 C -0.2456619292497635 6.968231201171875 -0.3148939311504364 6.717069625854492 -0.2686980068683624 6.467862606048584 C -0.2582768797874451 6.370306968688965 -0.2275669872760773 6.294418811798096 -0.2005444467067719 6.241208076477051 C -0.3205764591693878 6.113523960113525 -0.4064095914363861 5.954256534576416 -0.4519578516483307 5.77271842956543 L -0.4548578560352325 5.761138439178467 L -0.4572078585624695 5.749428272247314 L -0.4850078523159027 5.610918521881104 L -0.488617867231369 5.592948436737061 L -0.4908978641033173 5.574768543243408 C -0.5286188721656799 5.274075508117676 -0.4462352097034454 4.996487140655518 -0.2722902297973633 4.794973850250244 C -0.271650493144989 4.728559494018555 -0.2663319408893585 4.62382173538208 -0.2221990525722504 4.515302181243896 C -0.2350756227970123 4.459715366363525 -0.2445778548717499 4.395108699798584 -0.2445778548717499 4.321378707885742 C -0.2445778548717499 4.201268672943115 -0.2445778548717499 4.036778450012207 -0.1636878550052643 3.875548601150513 C -0.1304270625114441 3.809293985366821 -0.09068252891302109 3.730119943618774 -0.03152541816234589 3.657280206680298 C -0.02987352386116982 3.654350996017456 -0.02820701524615288 3.651452541351318 -0.02653720043599606 3.648600816726685 C -0.02071293629705906 3.636007785797119 -0.01426170207560062 3.623297214508057 -0.007090852130204439 3.610488653182983 C -0.120744027197361 3.370196342468262 -0.1333071142435074 3.096143960952759 -0.04207785800099373 2.836038589477539 C 0.0383409820497036 2.606749773025513 0.1977759301662445 2.39588475227356 0.4050590395927429 2.236383676528931 C 0.4146764278411865 2.192259073257446 0.4262039959430695 2.153478860855103 0.4367479085922241 2.120752334594727 C 0.444399893283844 2.087484836578369 0.4542063474655151 2.058628559112549 0.4636542499065399 2.034985780715942 C 0.4871373176574707 1.922866702079773 0.5371237397193909 1.832749843597412 0.5733821392059326 1.767388463020325 C 0.578322172164917 1.758488535881042 0.5831321477890015 1.750108480453491 0.5869921445846558 1.742498517036438 C 0.6511921286582947 1.614548444747925 0.744732141494751 1.52133846282959 0.8198921680450439 1.446448445320129 C 0.88930344581604 1.377282857894897 0.9600675106048584 1.320161461830139 1.034292101860046 1.273854494094849 L 1.034292101860046 1.260748505592346 L 1.070282101631165 1.171098470687866 L 1.125882148742676 1.032588481903076 C 1.214353084564209 0.8122116327285767 1.388236403465271 0.6258397698402405 1.657339334487915 0.4630649983882904 C 1.795934081077576 0.3731601536273956 1.941940665245056 0.3208478391170502 2.092504978179932 0.3070443272590637 C 2.160588502883911 0.2907746732234955 2.229701280593872 0.2825585007667542 2.298832178115845 0.2825585007667542 C 2.303483963012695 0.2825585007667542 2.308128356933594 0.2825962007045746 2.312779664993286 0.2826705574989319 C 2.421422243118286 0.2259324938058853 2.555258989334106 0.1781503260135651 2.715733528137207 0.1671906560659409 C 2.760682821273804 0.1583940386772156 2.806386709213257 0.1539584845304489 2.852402210235596 0.1539584845304489 C 2.865695476531982 0.1539584845304489 2.878973007202148 0.1543266326189041 2.892252445220947 0.1550625115633011 C 2.945923089981079 0.1186551153659821 3.009137868881226 0.0841313824057579 3.083317518234253 0.05768139660358429 L 3.211862087249756 0.006448491476476192 L 3.2433021068573 -0.006081508472561836 L 3.276142120361328 -0.0142615083605051 C 3.370972156524658 -0.0378815084695816 3.46775221824646 -0.04985150694847107 3.56379222869873 -0.04985150694847107 C 3.578707695007324 -0.04985150694847107 3.593634366989136 -0.04956261068582535 3.608575105667114 -0.04898621141910553 C 3.653756618499756 -0.08957157284021378 3.702991008758545 -0.1251858472824097 3.754478454589844 -0.1540353000164032 C 3.926109552383423 -0.262017548084259 4.126781940460205 -0.3212315142154694 4.322542190551758 -0.3212315142154694 C 4.333068370819092 -0.3212315142154694 4.343575954437256 -0.3210630416870117 4.35404634475708 -0.3207288682460785 C 4.48957633972168 -0.4334303438663483 4.660490036010742 -0.5000014901161194 4.842662334442139 -0.5000014901161194 L 4.926062107086182 -0.5000014901161194 C 5.035640716552734 -0.5000014901161194 5.252278327941895 -0.5000130534172058 5.442060947418213 -0.3513103425502777 C 5.452066898345947 -0.3446613252162933 5.461747646331787 -0.3378288745880127 5.471076488494873 -0.3308702707290649 C 5.495245456695557 -0.32908695936203 5.521477699279785 -0.3262128829956055 5.549274921417236 -0.3215876817703247 C 5.605709552764893 -0.3304494917392731 5.66332483291626 -0.3349114954471588 5.721732139587402 -0.3349114954471588 C 5.918128967285156 -0.3349114954471588 6.115723609924316 -0.2829618155956268 6.280167579650879 -0.1883628815412521 C 6.327784538269043 -0.1628394275903702 6.373626232147217 -0.1314812302589417 6.416284084320068 -0.09568606317043304 C 6.438432216644287 -0.09744863212108612 6.46065092086792 -0.0983315110206604 6.4829421043396 -0.0983315110206604 C 6.610898017883301 -0.0983315110206604 6.736737251281738 -0.06924355775117874 6.857287406921387 -0.01183527335524559 L 7.026001453399658 0.06020692363381386 C 7.108172416687012 0.09034281969070435 7.176686763763428 0.1303271055221558 7.233545303344727 0.1715168505907059 C 7.271781444549561 0.1671507507562637 7.309274673461914 0.1648284941911697 7.344792366027832 0.1648284941911697 C 7.536585807800293 0.1648284941911697 7.693371295928955 0.2179126143455505 7.817363739013672 0.2826705276966095 C 7.822014331817627 0.2825962007045746 7.826660633087158 0.2825585007667542 7.83131217956543 0.2825585007667542 C 7.900701522827148 0.2825585007667542 7.970067024230957 0.2908373177051544 8.038386344909668 0.3072242736816406 C 8.188582420349121 0.321503072977066 8.330710411071777 0.3747082054615021 8.446836471557617 0.4597037732601166 C 8.678726196289063 0.5785706043243408 8.881248474121094 0.7954272031784058 8.976451873779297 1.032578468322754 L 9.032052040100098 1.171068549156189 L 9.044732093811035 1.202658534049988 L 9.053022384643555 1.235678434371948 C 9.060823440551758 1.266774296760559 9.067357063293457 1.297217965126038 9.072627067565918 1.327131152153015 C 9.165717124938965 1.377990245819092 9.252846717834473 1.444671034812927 9.33796215057373 1.529468536376953 C 9.390972137451172 1.582278490066528 9.427422523498535 1.630718469619751 9.454042434692383 1.666078448295593 C 9.462252616882324 1.676988482475281 9.473502159118652 1.691928505897522 9.477401733398438 1.696108460426331 L 9.534961700439453 1.753458499908447 L 9.570972442626953 1.82563853263855 C 9.595769882202148 1.875054240226746 9.625285148620605 1.933878421783447 9.655574798583984 2.012559652328491 C 9.683809280395508 2.061327457427979 9.704596519470215 2.11400842666626 9.71784782409668 2.170375823974609 C 9.72569465637207 2.188089370727539 9.732699394226074 2.205649375915527 9.738950729370117 2.222994327545166 C 9.9215087890625 2.336917400360107 10.07068157196045 2.500394582748413 10.16558170318604 2.695618391036987 C 10.30629253387451 2.985068559646606 10.31928253173828 3.311578512191772 10.20217227935791 3.614988565444946 L 10.19600582122803 3.630969047546387 L 10.22957229614258 3.664418458938599 L 10.26600170135498 3.737018585205078 C 10.26872253417969 3.741478443145752 10.27265167236328 3.74690842628479 10.27637195587158 3.75247859954834 C 10.29434204101563 3.779328584671021 10.32150173187256 3.819908380508423 10.3493824005127 3.87544846534729 L 10.36538219451904 3.907328605651855 L 10.37670230865479 3.941158533096313 C 10.43032169342041 4.101468563079834 10.43032169342041 4.218298435211182 10.43032169342041 4.321378707885742 C 10.43032169342041 4.394717693328857 10.42111015319824 4.463477611541748 10.40744686126709 4.525116920471191 C 10.44677734375 4.626290321350098 10.45979499816895 4.726341247558594 10.44651222229004 4.826773643493652 C 10.58851146697998 5.004673480987549 10.67792892456055 5.239977359771729 10.70583248138428 5.518008708953857 L 10.70833206176758 5.542908668518066 L 10.70833206176758 5.567938327789307 C 10.70833206176758 5.652082920074463 10.6923770904541 5.719041347503662 10.67915916442871 5.762958526611328 L 10.67075252532959 5.804828643798828 C 10.62584018707275 6.02863073348999 10.51168346405029 6.181910037994385 10.41493988037109 6.28703784942627 C 10.46068286895752 6.382021427154541 10.48592185974121 6.487802982330322 10.48592185974121 6.592878341674805 C 10.48592185974121 6.80690860748291 10.42631244659424 7.01386833190918 10.31808185577393 7.175628662109375 L 10.31035232543945 7.187178611755371 L 10.302001953125 7.198288440704346 C 10.19407653808594 7.34165620803833 10.0844259262085 7.428831577301025 9.993431091308594 7.492144107818604 C 9.95371150970459 7.540245056152344 9.890876770019531 7.606430530548096 9.796958923339844 7.659986972808838 C 9.758920669555664 7.684067726135254 9.721194267272949 7.704760074615479 9.683872222900391 7.722768783569336 C 9.689298629760742 7.787322998046875 9.687474250793457 7.852560520172119 9.678136825561523 7.917649269104004 C 9.660670280456543 8.201990127563477 9.499276161193848 8.389950752258301 9.417849540710449 8.47383975982666 L 9.414432525634766 8.487458229064941 C 9.355881690979004 8.720768928527832 9.204492568969727 8.908348083496094 9.087801933288574 9.024638175964355 L 9.032132148742676 9.08008861541748 C 8.933697700500488 9.178171157836914 8.807803153991699 9.261481285095215 8.679023742675781 9.314781188964844 C 8.525740623474121 9.403990745544434 8.361483573913574 9.447478294372559 8.178832054138184 9.447478294372559 C 8.020102500915527 9.447478294372559 7.854331970214844 9.403498649597168 7.743232250213623 9.366598129272461 C 7.695706844329834 9.350808143615723 7.648009777069092 9.330602645874023 7.601389408111572 9.306755065917969 C 7.128657341003418 9.588334083557129 6.618484497070313 9.787211418151855 6.07879638671875 9.900151252746582 C 5.976090908050537 10.02486896514893 5.848601341247559 10.12683963775635 5.705042362213135 10.19834804534912 C 5.543662071228027 10.27874851226807 5.362552165985107 10.32123851776123 5.181292057037354 10.32123851776123 Z" stroke="none" fill="#161616"/>
        </g>
        <g id="Combined_Shape" data-name="Combined Shape" transform="translate(0.154 3.248)" fill="#fff" stroke-miterlimit="10">
          <path d="M 12.9093599319458 10.8484001159668 L 12.66660022735596 10.8484001159668 L 0.01710028015077114 10.8484001159668 L -0.2256597131490707 10.8484001159668 L -0.2327897250652313 10.60575008392334 L -0.2498897165060043 10.0243501663208 L -0.2519697248935699 9.953789710998535 L -0.2168297171592712 9.892570495605469 C 0.8902286887168884 7.963479042053223 2.744861125946045 6.632092475891113 4.895300388336182 6.214076995849609 L 4.895300388336182 5.638308048248291 C 3.546718597412109 5.126968860626221 2.740120887756348 3.896124601364136 2.673400163650513 2.232120037078857 C 2.641520261764526 1.437050104141235 2.813880205154419 0.8550300598144531 3.200330257415771 0.4527700543403625 C 3.875490188598633 -0.2499999403953552 5.073720455169678 -0.2499999403953552 6.342300415039063 -0.2499999403953552 C 8.199390411376953 -0.2499999403953552 9.953500747680664 -0.2499999403953552 10.01043033599854 2.216330051422119 C 10.04898834228516 3.857458114624023 9.222028732299805 5.126285552978516 7.788400173187256 5.646139621734619 L 7.788400173187256 6.213969707489014 C 9.93958568572998 6.632016181945801 11.79426765441895 7.963480472564697 12.90056991577148 9.892629623413086 L 12.93566989898682 9.953829765319824 L 12.93358993530273 10.0243501663208 L 12.91649055480957 10.60575008392334 L 12.9093599319458 10.8484001159668 Z" stroke="none"/>
          <path d="M 12.66660022735596 10.5984001159668 L 12.68370056152344 10.01700019836426 C 11.60891056060791 8.142800331115723 9.742630004882813 6.787479877471924 7.538400173187256 6.422999858856201 L 7.538400173187256 5.466440200805664 C 8.851280212402344 5.059880256652832 9.801130294799805 3.951470136642456 9.760499954223633 2.222100019454956 C 9.709199905395508 5.79833994152068e-08 8.229599952697754 5.79833994152068e-08 6.342300415039063 5.79833994152068e-08 C 4.454100131988525 5.79833994152068e-08 2.834100246429443 5.79833994152068e-08 2.923200368881226 2.222100019454956 C 2.992240190505981 3.944010019302368 3.873440265655518 5.050300121307373 5.145300388336182 5.461130142211914 L 5.145300388336182 6.423099994659424 C 2.940910339355469 6.787700176239014 1.075480222702026 8.142940521240234 2.807617249800387e-07 10.01700019836426 L 0.01710028015077114 10.5984001159668 L 12.66660022735596 10.5984001159668 M 13.15211009979248 11.0984001159668 L 12.66660022735596 11.0984001159668 L 0.01710028015077114 11.0984001159668 L -0.4684097170829773 11.0984001159668 L -0.4826797246932983 10.61310005187988 L -0.4997797310352325 10.03170013427734 L -0.5039297342300415 9.890580177307129 L -0.4336597323417664 9.768130302429199 C 0.6748698353767395 7.83646821975708 2.509704828262329 6.484969139099121 4.645300388336182 6.010783672332764 L 4.645300388336182 5.806865692138672 C 3.295578241348267 5.224809169769287 2.491913318634033 3.945863723754883 2.423600196838379 2.242130041122437 C 2.388850212097168 1.375460028648376 2.583950281143188 0.7335100769996643 3.020050287246704 0.2795700430870056 C 3.768990278244019 -0.4999999403953552 5.018950462341309 -0.4999999403953552 6.342300415039063 -0.4999999403953552 C 7.316050052642822 -0.4999999403953552 8.235790252685547 -0.4999999403953552 8.946480751037598 -0.1775699406862259 C 9.802460670471191 0.2107800543308258 10.2322301864624 0.9919500350952148 10.2603702545166 2.210560083389282 C 10.3001127243042 3.902301073074341 9.476509094238281 5.225043773651123 8.038400650024414 5.817524909973145 L 8.038400650024414 6.010663509368896 C 10.17470073699951 6.48489236831665 12.0096435546875 7.836504459381104 13.11744022369385 9.76826000213623 L 13.18763065338135 9.890660285949707 L 13.18348026275635 10.03170013427734 L 13.16637992858887 10.61310005187988 L 13.15211009979248 11.0984001159668 Z" stroke="none" fill="#161616"/>
        </g>
      </g>
    </g>
    <path id="Path-4" data-name="Path" d="M16.924,20.109H3.185A3.188,3.188,0,0,1,0,16.924V3.185A3.188,3.188,0,0,1,3.185,0H16.269a.186.186,0,1,1,0,.371H3.185A2.818,2.818,0,0,0,.371,3.186V16.925a2.817,2.817,0,0,0,2.814,2.814H16.924a2.817,2.817,0,0,0,2.814-2.814v-7.6a.186.186,0,1,1,.371,0v7.6A3.188,3.188,0,0,1,16.924,20.109Z" transform="translate(2.03 1.864)" fill="#161616"/>
    <path id="Path-5" data-name="Path" d="M.265,1.833A.186.186,0,0,1,.08,1.648V.186a.186.186,0,0,1,.371,0V1.648A.185.185,0,0,1,.265,1.833Z" transform="translate(21.688 8.443)" fill="#161616"/>
    <path id="Path-6" data-name="Path" d="M.265,1.1A.186.186,0,0,1,.08.917V.186a.186.186,0,0,1,.371,0V.917A.186.186,0,0,1,.265,1.1Z" transform="translate(21.688 6.981)" fill="#161616"/>
    <g id="shape-2" data-name="shape" transform="translate(14 14)">
      <circle id="Oval" cx="4.861" cy="4.861" r="4.861" transform="translate(0.139 0.139)" fill="#f70031"/>
      <path id="Path-7" data-name="Path" d="M4.236,2.083h-1.6V.347a.347.347,0,1,0-.694,0V2.083H.347a.347.347,0,1,0,0,.694h1.6V4.514a.347.347,0,1,0,.694,0V2.778h1.6a.347.347,0,1,0,0-.694Z" transform="translate(2.708 2.569)" fill="#fff"/>
      <g id="Group-3" data-name="Group">
        <path id="Shape-3" data-name="Shape" d="M0,5a5,5,0,1,1,5,5A5.006,5.006,0,0,1,0,5Z" fill="#161616"/>
        <path id="Path-8" data-name="Path" d="M.039.132c.092.046.184.1.273.148A.07.07,0,0,0,.383.16C.29.106.2.054.1.007A.07.07,0,0,0,.039.132Z" transform="translate(6.805 1.131)" fill="#161616"/>
        <path id="Path-9" data-name="Path" d="M.166.226A.069.069,0,0,0,.251.116C.2.081.157.046.109.013A.07.07,0,0,0,.03.126C.076.159.122.192.166.226Z" transform="translate(7.361 1.461)" fill="#161616"/>
        <path id="Path-10" data-name="Path" d="M7.2,1.118a.069.069,0,0,0-.093.1A4.151,4.151,0,1,1,5.74.392a.069.069,0,0,0,.048-.13A4.31,4.31,0,1,0,7.2,1.118Z" transform="translate(0.694 0.694)" fill="#161616"/>
        <path id="Shape-4" data-name="Shape" d="M1.944,4.584V2.917H.417a.417.417,0,1,1,0-.833H1.944V.417a.417.417,0,1,1,.833,0V2.084H4.306a.417.417,0,0,1,0,.833H2.777V4.584a.417.417,0,0,1-.833,0Z" transform="translate(2.639 2.5)" fill="#161616"/>
      </g>
    </g>
  </g>
</svg>
