<svg id="icon_comment" data-name="icon / comment" xmlns="http://www.w3.org/2000/svg" width="24" height="24" viewBox="0 0 24 24">
  <g id="ilustration_-_comment" data-name="ilustration - comment">
    <rect id="Rectangle" width="24" height="24" fill="none"/>
    <g id="shape" transform="translate(1 2)">
      <path id="Path" d="M18.526,0H2.895A2.9,2.9,0,0,0,0,2.895v11a2.894,2.894,0,0,0,2.895,2.894h.289a3.977,3.977,0,0,1-1.158,3.184c1.942,0,4.632-.579,5.789-3.184H18.526a2.9,2.9,0,0,0,2.895-2.895v-11A2.9,2.9,0,0,0,18.526,0Z" transform="translate(0.289 0.289)" fill="#f70031"/>
      <rect id="Rectangle-2" data-name="Rectangle" width="19" height="14.2" rx="2" transform="translate(1.5 1.5)" fill="#fff"/>
      <rect id="Rectangle-3" data-name="Rectangle" width="14" height="1" rx="0.5" transform="translate(4 5)" fill="#161616"/>
      <rect id="Rectangle-4" data-name="Rectangle" width="10" height="1" rx="0.5" transform="translate(4 8)" fill="#161616"/>
      <rect id="Rectangle-5" data-name="Rectangle" width="6" height="1" rx="0.5" transform="translate(4 11)" fill="#161616"/>
      <path id="Combined_Shape" data-name="Combined Shape" d="M2.048,20.374a.289.289,0,0,1,.063-.316,3.536,3.536,0,0,0,1.071-2.69A3.188,3.188,0,0,1,0,14.185v-11A3.188,3.188,0,0,1,3.184,0H18.815A3.188,3.188,0,0,1,22,3.184v11a3.188,3.188,0,0,1-3.184,3.184H8.29c-1.342,2.77-4.319,3.184-5.974,3.184A.288.288,0,0,1,2.048,20.374ZM.579,3.184v11a2.608,2.608,0,0,0,2.606,2.6h.29a.289.289,0,0,1,.289.29A4.386,4.386,0,0,1,2.97,19.95a5.4,5.4,0,0,0,4.871-2.989.29.29,0,0,1,.265-.172h10.71a2.609,2.609,0,0,0,2.605-2.606v-11A2.609,2.609,0,0,0,18.815.579H3.184A2.609,2.609,0,0,0,.579,3.184ZM11.145,15.921a.145.145,0,0,1,0-.29H18.96a1.3,1.3,0,0,0,1.3-1.3V3.039a1.3,1.3,0,0,0-1.3-1.3H3.039a1.3,1.3,0,0,0-1.3,1.3v11a.145.145,0,0,1-.29,0v-11A1.594,1.594,0,0,1,3.039,1.447H18.96a1.594,1.594,0,0,1,1.592,1.592v11.29a1.594,1.594,0,0,1-1.592,1.592Zm-2.316,0a.145.145,0,1,1,0-.29H9.7a.145.145,0,1,1,0,.29Z" fill="#161616"/>
    </g>
  </g>
</svg>
