<svg id="icon_event" data-name="icon / event" xmlns="http://www.w3.org/2000/svg" width="24" height="25.263" viewBox="0 0 24 25.263">
  <g id="ilustration_-_event" data-name="ilustration - event" transform="translate(0.299 0.311)">
    <g id="shape">
      <path id="Combined_Shape" data-name="Combined Shape" d="M.888,23.32A.891.891,0,0,1,0,22.433V2.516A2.525,2.525,0,0,1,2.519,0H20.507a2.525,2.525,0,0,1,2.519,2.516v20a.808.808,0,0,1-.807.806Z" transform="translate(0.324 1.296)" fill="#fff"/>
      <path id="Path" d="M20.155.011,2.295,0A2.324,2.324,0,0,0,0,2.44V4.869H22.378V2.44A2.259,2.259,0,0,0,20.155.011Z" transform="translate(0.648 1.609)" fill="#f70031"/>
      <path id="Combined_Shape-2" data-name="Combined Shape" d="M1.212,23.967A1.213,1.213,0,0,1,0,22.757V2.839A2.845,2.845,0,0,1,2.844,0H20.832a2.845,2.845,0,0,1,2.844,2.839v20a1.132,1.132,0,0,1-1.132,1.129ZM.649,22.757a.564.564,0,0,0,.564.563H22.544a.482.482,0,0,0,.482-.482V5.506H21.892a.162.162,0,1,1,0-.324h1.135V2.839A2.2,2.2,0,0,0,20.831.648H2.843A2.2,2.2,0,0,0,.649,2.839V5.182h19.3a.162.162,0,1,1,0,.324H.649ZM20.594,5.506a.162.162,0,1,1,0-.324h.649a.162.162,0,1,1,0,.324ZM19.459,2.753a.811.811,0,1,1,.811.809A.811.811,0,0,1,19.459,2.753Zm.325,0a.486.486,0,1,0,.486-.486A.486.486,0,0,0,19.784,2.753Zm-17.19,0a.811.811,0,1,1,.811.809A.811.811,0,0,1,2.594,2.753Zm.325,0A.486.486,0,1,0,3.4,2.267.486.486,0,0,0,2.919,2.753Z" transform="translate(0 0.972)" fill="#161616"/>
      <path id="Combined_Shape-3" data-name="Combined Shape" d="M9.73,11.66V9.717h1.946v1.3l-.325.648Zm-3.243,0V9.717H8.433V11.66Zm-3.243,0V9.717H5.189V11.66ZM0,11.66V9.717H1.946V11.66ZM16.216,8.421V6.478h1.946V8.421Zm-3.243,0V6.478h1.946V8.421Zm-3.243,0V6.478h1.946V8.421Zm-3.243,0V6.478H8.433V8.421Zm-3.243,0V6.478H5.189V8.421ZM0,8.421V6.478H1.946V8.421ZM16.216,5.182V3.239h1.946V5.182Zm-3.243,0V3.239h1.946V5.182Zm-3.243,0V3.239h1.946V5.182Zm-3.243,0V3.239H8.433V5.182Zm-3.243,0V3.239H5.189V5.182ZM0,5.182V3.239H1.946V5.182ZM16.216,1.943V0h1.946V1.943Zm-3.243,0V0h1.946V1.943Zm-3.243,0V0h1.946V1.943Zm-3.243,0V0H8.433V1.943Zm-3.243,0V.971L4.541,0h.649V1.943Z" transform="translate(2.756 9.555)" fill="#ffc15c"/>
      <path id="Combined_Shape-4" data-name="Combined Shape" d="M9.892,11.984a.162.162,0,0,1-.162-.162V9.879a.162.162,0,0,1,.162-.162h1.946A.162.162,0,0,1,12,9.879v1.3a.162.162,0,0,1-.324,0V10.041H10.054V11.66h1.459a.162.162,0,1,1,0,.324Zm-3.243,0a.162.162,0,0,1-.162-.162V9.879a.162.162,0,0,1,.162-.162H8.595a.162.162,0,0,1,.162.162v1.943a.162.162,0,0,1-.162.162Zm.163-.324H8.432V10.041H6.811Zm-3.405.324a.162.162,0,0,1-.162-.162V9.879a.162.162,0,0,1,.162-.162H5.352a.162.162,0,0,1,.162.162v1.943a.162.162,0,0,1-.162.162Zm.163-.324H5.189V10.041H3.568Zm-3.406.324A.162.162,0,0,1,0,11.822V9.879a.162.162,0,0,1,.162-.162H2.108a.162.162,0,0,1,.162.162v1.943a.162.162,0,0,1-.162.162Zm.163-.324H1.946V10.041H.325ZM16.378,8.745a.162.162,0,0,1-.162-.162V6.64a.162.162,0,0,1,.162-.162h1.946a.162.162,0,0,1,.162.162V8.583a.162.162,0,0,1-.162.162Zm.163-.324h1.621V6.8H16.541Zm-3.406.324a.162.162,0,0,1-.162-.162V6.64a.162.162,0,0,1,.162-.162h1.946a.162.162,0,0,1,.162.162V8.583a.162.162,0,0,1-.162.162Zm.163-.324h1.621V6.8H13.3Zm-3.406.324a.162.162,0,0,1-.162-.162V6.64a.162.162,0,0,1,.162-.162h1.946A.162.162,0,0,1,12,6.64V8.583a.162.162,0,0,1-.162.162Zm.163-.324h1.621V6.8H10.054Zm-3.406.324a.162.162,0,0,1-.162-.162V6.64a.162.162,0,0,1,.162-.162H8.595a.162.162,0,0,1,.162.162V8.583a.162.162,0,0,1-.162.162Zm.163-.324H8.432V6.8H6.811Zm-3.405.324a.162.162,0,0,1-.162-.162V6.64a.162.162,0,0,1,.162-.162H5.352a.162.162,0,0,1,.162.162V8.583a.162.162,0,0,1-.162.162Zm.163-.324H5.189V6.8H3.568ZM.162,8.745A.162.162,0,0,1,0,8.583V6.64a.162.162,0,0,1,.162-.162H2.108a.162.162,0,0,1,.162.162V8.583a.162.162,0,0,1-.162.162Zm.163-.324H1.946V6.8H.325ZM16.378,5.506a.162.162,0,0,1-.162-.162V3.4a.162.162,0,0,1,.162-.162h1.946a.162.162,0,0,1,.162.162V5.344a.162.162,0,0,1-.162.162Zm.163-.324h1.621V3.563H16.541Zm-3.406.324a.162.162,0,0,1-.162-.162V3.4a.162.162,0,0,1,.162-.162h1.946a.162.162,0,0,1,.162.162V5.344a.162.162,0,0,1-.162.162Zm.163-.324h1.621V3.563H13.3Zm-3.406.324a.162.162,0,0,1-.162-.162V3.4a.162.162,0,0,1,.162-.162h1.946A.162.162,0,0,1,12,3.4V5.344a.162.162,0,0,1-.162.162Zm.163-.324h1.621V3.563H10.054Zm-3.406.324a.162.162,0,0,1-.162-.162V3.4a.162.162,0,0,1,.162-.162H8.595a.162.162,0,0,1,.162.162V5.344a.162.162,0,0,1-.162.162Zm.163-.324H8.432V3.563H6.811Zm-3.405.324a.162.162,0,0,1-.162-.162V3.4a.162.162,0,0,1,.162-.162H5.352a.162.162,0,0,1,.162.162V5.344a.162.162,0,0,1-.162.162Zm.163-.324H5.189V3.563H3.568ZM.162,5.506A.162.162,0,0,1,0,5.344V3.4a.162.162,0,0,1,.162-.162H2.108A.162.162,0,0,1,2.27,3.4V5.344a.162.162,0,0,1-.162.162Zm.163-.324H1.946V3.563H.325ZM16.378,2.267a.162.162,0,0,1-.162-.162V.162A.162.162,0,0,1,16.378,0h1.946a.162.162,0,0,1,.162.162V2.105a.162.162,0,0,1-.162.162Zm.163-.324h1.621V.324H16.541Zm-3.406.324a.162.162,0,0,1-.162-.162V.162A.162.162,0,0,1,13.135,0h1.946a.162.162,0,0,1,.162.162V2.105a.162.162,0,0,1-.162.162Zm.163-.324h1.621V.324H13.3Zm-3.406.324a.162.162,0,0,1-.162-.162V.162A.162.162,0,0,1,9.892,0h1.946A.162.162,0,0,1,12,.162V2.105a.162.162,0,0,1-.162.162Zm.163-.324h1.621V.324H10.054Zm-3.406.324a.162.162,0,0,1-.162-.162V.162A.162.162,0,0,1,6.648,0H8.595a.162.162,0,0,1,.162.162V2.105a.162.162,0,0,1-.162.162Zm.163-.324H8.432V.324H6.811Zm-3.405.324a.162.162,0,0,1-.162-.162V1.133a.162.162,0,1,1,.324,0v.81H5.189V.324H4.7A.162.162,0,0,1,4.7,0h.649a.162.162,0,0,1,.163.162V2.105a.162.162,0,0,1-.163.162Z" transform="translate(2.594 9.393)" fill="#161616"/>
      <path id="Combined_Shape-5" data-name="Combined Shape" d="M15.892,2.267V.324a.324.324,0,0,1,.649,0V2.267a.324.324,0,0,1-.649,0Zm-2.27,0V.324a.324.324,0,0,1,.649,0V2.267a.324.324,0,0,1-.649,0Zm-2.27,0V.324a.324.324,0,0,1,.649,0V2.267a.324.324,0,0,1-.649,0Zm-2.27,0V.324a.324.324,0,0,1,.649,0V2.267a.324.324,0,0,1-.649,0Zm-2.27,0V.324a.324.324,0,0,1,.649,0V2.267a.324.324,0,0,1-.649,0Zm-2.27,0V.324a.324.324,0,0,1,.649,0V2.267a.324.324,0,0,1-.649,0Zm-2.27,0V.324a.324.324,0,0,1,.649,0V2.267a.324.324,0,0,1-.649,0ZM0,2.267V.324a.324.324,0,0,1,.649,0V2.267a.324.324,0,0,1-.649,0Z" transform="translate(3.567)" fill="#4a4a4a"/>
    </g>
  </g>
</svg>
