<svg id="icon_event" data-name="icon / event" xmlns="http://www.w3.org/2000/svg" width="38" height="40" viewBox="0 0 38 40">
  <g id="ilustration_-_event" data-name="ilustration - event">
    <g id="shape">
      <path id="Combined_Shape" data-name="Combined Shape" d="M1.407,36.923A1.411,1.411,0,0,1,0,35.519V3.983A4,4,0,0,1,3.989,0H32.47a4,4,0,0,1,3.989,3.983V35.647a1.28,1.28,0,0,1-1.277,1.276Z" transform="translate(0.986 2.544)" fill="#fff"/>
      <path id="Path" d="M31.912.017,3.634,0A3.68,3.68,0,0,0,0,3.863V7.709H35.432V3.863A3.577,3.577,0,0,0,31.912.017Z" transform="translate(1.5 3.04)" fill="#f70031"/>
      <path id="Combined_Shape-2" data-name="Combined Shape" d="M1.92,37.949A1.921,1.921,0,0,1,0,36.032V4.5A4.5,4.5,0,0,1,4.5,0H32.984a4.5,4.5,0,0,1,4.5,4.5V36.16a1.793,1.793,0,0,1-1.792,1.788Zm-.893-1.917a.894.894,0,0,0,.893.892H35.695a.764.764,0,0,0,.763-.763V8.718h-1.8a.256.256,0,1,1,0-.513h1.8V4.5a3.476,3.476,0,0,0-3.475-3.47H4.5A3.476,3.476,0,0,0,1.027,4.5v3.71H31.581a.256.256,0,1,1,0,.513H1.027ZM32.608,8.718a.257.257,0,1,1,0-.513h1.027a.256.256,0,1,1,0,.513Zm-1.8-4.359a1.284,1.284,0,1,1,1.283,1.282A1.284,1.284,0,0,1,30.811,4.36Zm.514,0a.77.77,0,1,0,.77-.77A.77.77,0,0,0,31.325,4.36Zm-27.217,0A1.284,1.284,0,1,1,5.391,5.641,1.284,1.284,0,0,1,4.108,4.36Zm.514,0a.77.77,0,1,0,.77-.77A.77.77,0,0,0,4.622,4.36Z" transform="translate(0.473 2.031)" fill="#161616"/>
      <path id="Combined_Shape-3" data-name="Combined Shape" d="M15.405,18.462V15.385h3.082v2.051l-.514,1.026Zm-5.135,0V15.385h3.082v3.077Zm-5.135,0V15.385H8.216v3.077ZM0,18.462V15.385H3.081v3.077Zm25.676-5.128V10.256h3.081v3.077Zm-5.135,0V10.256h3.081v3.077Zm-5.135,0V10.256h3.082v3.077Zm-5.135,0V10.256h3.082v3.077Zm-5.135,0V10.256H8.216v3.077ZM0,13.333V10.256H3.081v3.077ZM25.676,8.205V5.128h3.081V8.205Zm-5.135,0V5.128h3.081V8.205Zm-5.135,0V5.128h3.082V8.205Zm-5.135,0V5.128h3.082V8.205Zm-5.135,0V5.128H8.216V8.205ZM0,8.205V5.128H3.081V8.205ZM25.676,3.077V0h3.081V3.077Zm-5.135,0V0h3.081V3.077Zm-5.135,0V0h3.082V3.077Zm-5.135,0V0h3.082V3.077Zm-5.135,0V1.538L7.189,0H8.216V3.077Z" transform="translate(4.838 15.621)" fill="#ffc15c"/>
      <path id="Combined_Shape-4" data-name="Combined Shape" d="M15.662,18.975a.257.257,0,0,1-.257-.257V15.641a.257.257,0,0,1,.257-.256h3.082a.257.257,0,0,1,.257.256v2.051a.257.257,0,1,1-.513,0V15.9H15.919v2.564h2.31a.257.257,0,1,1,0,.513Zm-5.135,0a.257.257,0,0,1-.257-.257V15.641a.257.257,0,0,1,.257-.256h3.082a.256.256,0,0,1,.256.256v3.077a.256.256,0,0,1-.256.257Zm.257-.513h2.567V15.9H10.784Zm-5.392.513a.257.257,0,0,1-.256-.257V15.641a.257.257,0,0,1,.256-.256H8.474a.257.257,0,0,1,.257.256v3.077a.257.257,0,0,1-.257.257Zm.257-.513H8.216V15.9H5.649Zm-5.393.513A.257.257,0,0,1,0,18.718V15.641a.257.257,0,0,1,.257-.256H3.338a.257.257,0,0,1,.257.256v3.077a.257.257,0,0,1-.257.257Zm.257-.513H3.081V15.9H.514Zm25.419-4.615a.256.256,0,0,1-.257-.257V10.513a.256.256,0,0,1,.257-.257h3.082a.257.257,0,0,1,.257.257V13.59a.257.257,0,0,1-.257.257Zm.257-.513h2.567V10.769H26.19Zm-5.393.513a.257.257,0,0,1-.257-.257V10.513a.257.257,0,0,1,.257-.257h3.082a.257.257,0,0,1,.256.257V13.59a.257.257,0,0,1-.256.257Zm.257-.513h2.567V10.769H21.055Zm-5.393.513a.257.257,0,0,1-.257-.257V10.513a.257.257,0,0,1,.257-.257h3.082a.257.257,0,0,1,.257.257V13.59a.257.257,0,0,1-.257.257Zm.257-.513h2.567V10.769H15.919Zm-5.393.513a.257.257,0,0,1-.257-.257V10.513a.257.257,0,0,1,.257-.257h3.082a.256.256,0,0,1,.256.257V13.59a.256.256,0,0,1-.256.257Zm.257-.513h2.567V10.769H10.784Zm-5.392.513a.257.257,0,0,1-.256-.257V10.513a.257.257,0,0,1,.256-.257H8.474a.257.257,0,0,1,.257.257V13.59a.257.257,0,0,1-.257.257Zm.257-.513H8.216V10.769H5.649Zm-5.393.513A.257.257,0,0,1,0,13.59V10.513a.257.257,0,0,1,.257-.257H3.338a.257.257,0,0,1,.257.257V13.59a.257.257,0,0,1-.257.257Zm.257-.513H3.081V10.769H.514ZM25.933,8.718a.256.256,0,0,1-.257-.256V5.385a.256.256,0,0,1,.257-.257h3.082a.257.257,0,0,1,.257.257V8.462a.257.257,0,0,1-.257.256Zm.257-.513h2.567V5.641H26.19ZM20.8,8.718a.257.257,0,0,1-.257-.256V5.385a.257.257,0,0,1,.257-.257h3.082a.257.257,0,0,1,.256.257V8.462a.257.257,0,0,1-.256.256Zm.257-.513h2.567V5.641H21.055Zm-5.393.513a.257.257,0,0,1-.257-.256V5.385a.257.257,0,0,1,.257-.257h3.082A.257.257,0,0,1,19,5.385V8.462a.257.257,0,0,1-.257.256Zm.257-.513h2.567V5.641H15.919Zm-5.393.513a.257.257,0,0,1-.257-.256V5.385a.257.257,0,0,1,.257-.257h3.082a.256.256,0,0,1,.256.257V8.462a.256.256,0,0,1-.256.256Zm.257-.513h2.567V5.641H10.784Zm-5.392.513a.257.257,0,0,1-.256-.256V5.385a.257.257,0,0,1,.256-.257H8.474a.257.257,0,0,1,.257.257V8.462a.257.257,0,0,1-.257.256Zm.257-.513H8.216V5.641H5.649ZM.257,8.718A.257.257,0,0,1,0,8.462V5.385a.257.257,0,0,1,.257-.257H3.338a.257.257,0,0,1,.257.257V8.462a.257.257,0,0,1-.257.256Zm.257-.513H3.081V5.641H.514ZM25.933,3.59a.256.256,0,0,1-.257-.257V.257A.256.256,0,0,1,25.933,0h3.082a.257.257,0,0,1,.257.257V3.334a.257.257,0,0,1-.257.257Zm.257-.513h2.567V.513H26.19ZM20.8,3.59a.257.257,0,0,1-.257-.257V.257A.257.257,0,0,1,20.8,0h3.082a.257.257,0,0,1,.256.257V3.334a.257.257,0,0,1-.256.257Zm.257-.513h2.567V.513H21.055Zm-5.393.513a.257.257,0,0,1-.257-.257V.257A.257.257,0,0,1,15.662,0h3.082A.257.257,0,0,1,19,.257V3.334a.257.257,0,0,1-.257.257Zm.257-.513h2.567V.513H15.919Zm-5.393.513a.257.257,0,0,1-.257-.257V.257A.257.257,0,0,1,10.526,0h3.082a.256.256,0,0,1,.256.257V3.334a.256.256,0,0,1-.256.257Zm.257-.513h2.567V.513H10.784ZM5.392,3.59a.257.257,0,0,1-.256-.257V1.795a.257.257,0,1,1,.513,0V3.077H8.216V.513h-.77a.257.257,0,0,1,0-.513H8.473A.257.257,0,0,1,8.73.257V3.334a.257.257,0,0,1-.257.257Z" transform="translate(4.581 15.365)" fill="#161616"/>
      <path id="Combined_Shape-5" data-name="Combined Shape" d="M25.162,3.59V.513a.513.513,0,0,1,1.027,0V3.59a.513.513,0,0,1-1.027,0Zm-3.595,0V.513a.513.513,0,0,1,1.027,0V3.59a.513.513,0,0,1-1.027,0Zm-3.595,0V.513A.513.513,0,0,1,19,.513V3.59a.513.513,0,0,1-1.027,0Zm-3.595,0V.513a.513.513,0,0,1,1.027,0V3.59a.513.513,0,0,1-1.027,0Zm-3.595,0V.513a.513.513,0,0,1,1.027,0V3.59a.513.513,0,0,1-1.027,0Zm-3.595,0V.513a.513.513,0,0,1,1.027,0V3.59a.513.513,0,0,1-1.027,0Zm-3.595,0V.513a.513.513,0,0,1,1.027,0V3.59a.513.513,0,0,1-1.027,0ZM0,3.59V.513a.513.513,0,0,1,1.027,0V3.59A.513.513,0,0,1,0,3.59Z" transform="translate(6.122 0.493)" fill="#4a4a4a"/>
    </g>
  </g>
</svg>
