<svg id="icon_certificates" data-name="icon / certificates" xmlns="http://www.w3.org/2000/svg" width="50" height="50" viewBox="0 0 50 50">
  <g id="ilustration_-_my_certificates" data-name="ilustration - my certificates">
    <rect id="Rectangle" width="50" height="50" fill="none"/>
    <g id="shapes" transform="translate(5 5)">
      <path id="Path" d="M32.954,0,7.519,0A3.9,3.9,0,0,0,3.968,3.692V23.714h-.2L0,23.7c0,.175,0,10.121.018,10.279.331,3.271,4.769,2.9,4.769,2.9H33.378c1.841.115,1.876-3.513,1.876-3.513V3.692h2.751C38.125-.246,32.954,0,32.954,0Z" transform="translate(0.591 0.989)" fill="#fefdef"/>
      <path id="Path-2" data-name="Path" d="M3.9.013,0,0C0,.169,0,9.718.015,9.87.278,13.011,3.8,12.659,3.8,12.659h.1V.013Z" transform="translate(0.656 24.689)" fill="#f70031"/>
      <g id="Group" transform="translate(27.992 4.722)">
        <path id="Path-3" data-name="Path" d="M3.842,23.845V0H0V34.252l2-1.5,1.838,1.5Z" transform="translate(0.443 0.222)" fill="#f70031"/>
      </g>
      <path id="Combined_Shape" data-name="Combined Shape" d="M31.9,38.934l-1.227-1-.919,0L28.4,38.941a.285.285,0,0,1-.167.055.279.279,0,0,1-.119-.026.26.26,0,0,1-.153-.235v-.815L5.225,37.842c-.157.013-.31.011-.491.011-1.761,0-4.425-.534-4.7-3.249C.014,34.4,0,24.323,0,24.23a.54.54,0,0,1,.549-.516h0l3.368.01c-.047-8.366-.1-18.788-.1-19.505A4.553,4.553,0,0,1,8.13.1L33.607,0c.092,0,2.883-.122,4.5,1.4a3.565,3.565,0,0,1,1.1,2.835.538.538,0,0,1-.548.511H36.192V33.9c0,.267-.057,2.6-1.162,3.587a1.755,1.755,0,0,1-1.3.449l-1.386,0v.8a.262.262,0,0,1-.158.237.281.281,0,0,1-.291-.038ZM28.5,38.2l.367-.275H28.5Zm3.3-.031v-.234h-.288ZM.987,34.485c.273,2.694,4.01,2.415,4.17,2.4l22.8,0V4.746H9.1a.527.527,0,1,1,0-1.054H38.09a2.4,2.4,0,0,0-.753-1.539,5.854,5.854,0,0,0-3.7-1.1l-25.5,0A3.741,3.741,0,0,0,4.791,4.219c0,.18.016,11.151.032,19.754a.51.51,0,0,1,0,.556c.01,5.15.019,9.326.024,9.591.012.535.26,1.476-.547,1.927a.561.561,0,0,1-.75-.19.515.515,0,0,1,.2-.72c.231-.13.243-.49.234-.912-.005-.289-.029-4.376-.058-9.448L1.092,24.77C1.066,26.8.976,34.145.987,34.485Zm33.3,2.234c.645-.575.806-2.272.811-2.82V4.746H32.347V36.887h1.422A.662.662,0,0,0,34.283,36.719Zm-5.778.168h3.3V4.746H28.5ZM9.022,30.038a.264.264,0,1,1,0-.527h7.684a.264.264,0,1,1,0,.527Zm0-7.9a.263.263,0,1,1,0-.527H17.8a.263.263,0,1,1,0,.527Zm0-3.162a.263.263,0,1,1,0-.526H23.841a.263.263,0,1,1,0,.526Zm0-3.161a.264.264,0,1,1,0-.527H23.841a.264.264,0,1,1,0,.527Zm6.586-2.6c-.151,0-.274-.184-.274-.412s.122-.411.274-.411H24.39c.151,0,.274.184.274.411s-.123.412-.274.412Zm-6.586,0c-.151,0-.274-.184-.274-.412s.123-.411.274-.411h5.489c.151,0,.274.184.274.411s-.123.412-.274.412Zm13.173-2.635c-.152,0-.274-.184-.274-.411s.122-.411.274-.411h2.2c.151,0,.274.184.274.411s-.123.411-.274.411Zm-4.94,0c-.151,0-.274-.184-.274-.411s.123-.411.274-.411H21.1c.151,0,.274.184.274.411s-.123.411-.274.411Zm-8.233,0c-.151,0-.274-.184-.274-.411s.123-.411.274-.411h7.135c.152,0,.274.184.274.411s-.122.411-.274.411Z" transform="translate(0.203 0.461)" fill="#161616"/>
      <g id="Group-2" data-name="Group" transform="translate(26.346 27.926)">
        <ellipse id="Oval" cx="3.568" cy="3.425" rx="3.568" ry="3.425" transform="translate(0.443 0.728)" fill="#ffc15c"/>
        <path id="Shape" d="M0,3.686A3.77,3.77,0,0,1,3.84,0,3.77,3.77,0,0,1,7.68,3.686,3.77,3.77,0,0,1,3.84,7.373,3.77,3.77,0,0,1,0,3.686Z" transform="translate(0.171 0.467)" fill="#161616"/>
      </g>
    </g>
  </g>
</svg>
