<svg id="report_abuse" data-name="report abuse" xmlns="http://www.w3.org/2000/svg" width="50" height="50" viewBox="0 0 50 50">
  <rect id="Rectangle" width="50" height="50" fill="none"/>
  <g id="shape">
    <g id="Group" transform="translate(25.037 0.113) rotate(45)">
      <g id="Group-2" data-name="Group">
        <path id="Path" d="M26.5,33.539H7.039A7.059,7.059,0,0,1,0,26.5V7.039A7.059,7.059,0,0,1,7.039,0H26.5a7.059,7.059,0,0,1,7.039,7.039V26.5A7.058,7.058,0,0,1,26.5,33.539Z" transform="translate(0.827 0.792)" fill="#f70031"/>
        <path id="Shape-2" data-name="Shape" d="M26.993,34.524H7.531A7.54,7.54,0,0,1,0,26.992V7.532A7.54,7.54,0,0,1,7.531,0H26.993a7.54,7.54,0,0,1,7.531,7.532V26.992a7.539,7.539,0,0,1-7.53,7.531ZM7.532.985A6.554,6.554,0,0,0,.985,7.532V26.992a6.554,6.554,0,0,0,6.547,6.546H26.993a6.553,6.553,0,0,0,6.546-6.546V7.532A6.554,6.554,0,0,0,26.993.985Z" transform="translate(0.334 0.299)" fill="#161616"/>
      </g>
      <path id="Path-2" data-name="Path" d="M23.509,29.275H5.767A5.773,5.773,0,0,1,0,23.509V5.767A5.773,5.773,0,0,1,5.767,0h17.92a.264.264,0,1,1,0,.528H5.767A5.245,5.245,0,0,0,.528,5.767V23.509a5.245,5.245,0,0,0,5.239,5.239H23.508a5.245,5.245,0,0,0,5.239-5.239V13.573a.264.264,0,0,1,.528,0v9.935A5.772,5.772,0,0,1,23.509,29.275Z" transform="translate(2.959 2.923)" fill="#161616"/>
      <path id="Path-3" data-name="Path" d="M.352,2.657a.264.264,0,0,1-.264-.264V.264a.264.264,0,1,1,.528,0V2.393A.264.264,0,0,1,.352,2.657Z" transform="translate(31.618 12.506)" fill="#161616"/>
      <path id="Path-4" data-name="Path" d="M.352,1.593a.264.264,0,0,1-.264-.264V.264a.264.264,0,1,1,.528,0V1.329A.264.264,0,0,1,.352,1.593Z" transform="translate(31.618 10.376)" fill="#161616"/>
    </g>
    <g id="Group-3" data-name="Group" transform="translate(22.631 15.16)">
      <path id="Combined_Shape" data-name="Combined Shape" d="M.567,17.746a1.872,1.872,0,0,1,0-2.685,1.851,1.851,0,0,1,1.36-.565,1.788,1.788,0,0,1,1.324.565,1.9,1.9,0,0,1,0,2.685,1.808,1.808,0,0,1-1.324.554A1.872,1.872,0,0,1,.567,17.746ZM.879,8.38Q.7,6.6.518,5.383T.205,3.4A8.411,8.411,0,0,1,.073,2,1.96,1.96,0,0,1,.59.421,2.129,2.129,0,0,1,1.976,0,1.955,1.955,0,0,1,3.312.433,1.944,1.944,0,0,1,3.806,1.95a9.609,9.609,0,0,1-.121,1.42q-.12.794-.3,2.011T3,8.379q-.205,1.782-.373,4.406H1.18Q1.06,10.162.879,8.38Z" transform="translate(0.466 0.668)" fill="#fff"/>
      <path id="Shape-3" data-name="Shape" d="M.641,18.167A2.055,2.055,0,0,1,0,16.642a2.077,2.077,0,0,1,.638-1.51,2.1,2.1,0,0,1,1.535-.637,2.039,2.039,0,0,1,1.5.639,2.15,2.15,0,0,1,0,3.031,2.053,2.053,0,0,1-1.5.627A2.116,2.116,0,0,1,.641,18.167Zm.785-4.889a.246.246,0,0,1-.246-.235C1.1,11.3,1,9.822.88,8.649S.641,6.475.521,5.664.3,4.195.208,3.682A8.617,8.617,0,0,1,.073,2.245,2.161,2.161,0,0,1,.68.476,2.376,2.376,0,0,1,2.22,0a2.2,2.2,0,0,1,1.5.494A2.177,2.177,0,0,1,4.3,2.2a9.974,9.974,0,0,1-.123,1.457l-.3,2.01c-.119.8-.248,1.8-.383,2.99s-.262,2.656-.373,4.395a.247.247,0,0,1-.247.229Z" transform="translate(0.22 0.423)" fill="#fff"/>
    </g>
  </g>
</svg>
