<svg id="icon_stories" data-name="icon / stories" xmlns="http://www.w3.org/2000/svg" width="22" height="18" viewBox="0 0 22 18">
  <g id="shape" transform="translate(0 0)">
    <path id="Path" d="M1.363,0H.681A.681.681,0,0,0,0,.681V14.307a.681.681,0,0,0,.681.681H7.91a.777.777,0,0,1,.754.588h0a1.022,1.022,0,0,0,.991.774h1.129a1.021,1.021,0,0,0,.991-.774h0a.778.778,0,0,1,.754-.588h7.228a.681.681,0,0,0,.681-.681V.681A.681.681,0,0,0,19.757,0H1.363Z" transform="translate(0.341 1.022)" fill="#f70031"/>
    <path id="Path-2" data-name="Path" d="M8.857,15.67h0a1.363,1.363,0,0,0-1.363-1.363H.681A.681.681,0,0,1,0,13.626V.681A.681.681,0,0,1,.681,0H7.494A1.363,1.363,0,0,1,8.857,1.363V15.67Z" transform="translate(1.703 0.341)" fill="#faefde"/>
    <path id="Path-3" data-name="Path" d="M0,10.219V1.363A1.363,1.363,0,0,1,1.363,0H8.175a.681.681,0,0,1,.681.681V13.626a.681.681,0,0,1-.681.681H1.363A1.363,1.363,0,0,0,0,15.67H0Z" transform="translate(10.56 0.341)" fill="#faefde"/>
    <path id="Path-4" data-name="Path" d="M8.857,15.329l-.795-1.022H0V0H7.494A1.363,1.363,0,0,1,8.857,1.363Z" transform="translate(1.703 0.341)" fill="#fff"/>
    <path id="Path-5" data-name="Path" d="M0,15.329l.795-1.022H8.857V0H1.363A1.363,1.363,0,0,0,0,1.363Z" transform="translate(10.56 0.341)" fill="#fff"/>
    <path id="Path-6" data-name="Path" d="M2.044,0H1.363A1.363,1.363,0,0,0,0,1.363V15.329l.795-1.022H2.044Z" transform="translate(10.56 0.341)" fill="#9b9b9b"/>
    <rect id="Rectangle" width="1.703" height="14.307" transform="translate(1.703 0.341)" fill="#9b9b9b"/>
    <g id="Group">
      <path id="Shape-2" data-name="Shape" d="M10,17.714a1.361,1.361,0,0,1-1.322-1.032.434.434,0,0,0-.423-.33H1.021A1.023,1.023,0,0,1,0,15.329V1.7A1.022,1.022,0,0,1,1.021.681h.4A1.02,1.02,0,0,1,2.384,0H9.2A1.7,1.7,0,0,1,10.56.692,1.7,1.7,0,0,1,11.922,0h6.813a1.021,1.021,0,0,1,.959.681h.4A1.023,1.023,0,0,1,21.12,1.7V15.329A1.024,1.024,0,0,1,20.1,16.351H12.87a.436.436,0,0,0-.424.33,1.36,1.36,0,0,1-1.322,1.032Z" fill="#292929"/>
      <path id="Path-7" data-name="Path" d="M.341,2.044A.341.341,0,0,0,.681,1.7V.341A.341.341,0,0,0,0,.341V1.7A.341.341,0,0,0,.341,2.044Z" transform="translate(10.219 11.582)" fill="#292929"/>
      <path id="Path-8" data-name="Path" d="M.341,1.363a.341.341,0,0,0,.341-.341V.341A.341.341,0,0,0,0,.341v.681A.341.341,0,0,0,.341,1.363Z" transform="translate(3.066 2.044)" fill="#292929"/>
      <path id="Path-9" data-name="Path" d="M.341,1.363a.341.341,0,0,0,.341-.341V.341A.341.341,0,0,0,0,.341v.681A.341.341,0,0,0,.341,1.363Z" transform="translate(4.769 2.044)" fill="#292929"/>
      <path id="Path-10" data-name="Path" d="M.341,1.363a.341.341,0,0,0,.341-.341V.341A.341.341,0,0,0,0,.341v.681A.341.341,0,0,0,.341,1.363Z" transform="translate(6.472 2.044)" fill="#292929"/>
      <path id="Path-11" data-name="Path" d="M.341,1.363a.341.341,0,0,0,.341-.341V.341A.341.341,0,0,0,0,.341v.681A.341.341,0,0,0,.341,1.363Z" transform="translate(8.175 2.044)" fill="#292929"/>
      <path id="Path-12" data-name="Path" d="M.341,1.363a.341.341,0,0,0,.341-.341V.341A.341.341,0,0,0,0,.341v.681A.341.341,0,0,0,.341,1.363Z" transform="translate(12.263 2.044)" fill="#292929"/>
      <path id="Path-13" data-name="Path" d="M.341,1.363a.341.341,0,0,0,.341-.341V.341A.341.341,0,0,0,0,.341v.681A.341.341,0,0,0,.341,1.363Z" transform="translate(13.966 2.044)" fill="#292929"/>
      <path id="Path-14" data-name="Path" d="M.341,1.363a.341.341,0,0,0,.341-.341V.341A.341.341,0,0,0,0,.341v.681A.341.341,0,0,0,.341,1.363Z" transform="translate(15.67 2.044)" fill="#292929"/>
      <path id="Path-15" data-name="Path" d="M.341,1.363a.341.341,0,0,0,.341-.341V.341A.341.341,0,0,0,0,.341v.681A.341.341,0,0,0,.341,1.363Z" transform="translate(17.373 2.044)" fill="#292929"/>
    </g>
  </g>
</svg>
