<svg id="icon_activity_map_paw" data-name="icon / activity map paw" xmlns="http://www.w3.org/2000/svg" width="80" height="80" viewBox="0 0 80 80">
  <g id="button_-_paw" data-name="button - paw">
    <g id="Oval" fill="#f70031" stroke="#161616" stroke-miterlimit="10" stroke-width="1.5">
      <circle cx="40" cy="40" r="40" stroke="none"/>
      <circle cx="40" cy="40" r="39.25" fill="none"/>
    </g>
    <g id="shape" transform="translate(22 21)">
      <path id="Path" d="M2.456,4.348C3.712,1.908,1.934,0,1.573,0,1.248,0,.326,1.483,0,2.77" transform="translate(31.594 13.203)" fill="#161616"/>
      <path id="Path-2" data-name="Path" d="M3.478,3.768C3.013,1.638.737-.137.367.008.035.14-.1,1.467.084,3.427" transform="translate(22.319 0.869)" fill="#161616"/>
      <path id="Path-3" data-name="Path" d="M2.9,2.986C2.81,1.834,2.346.086,2.015.006,1.652-.079.088.712,0,3.478" transform="translate(3.188 11.884)" fill="#161616"/>
      <path id="Path-4" data-name="Path" d="M3.128,3.478C3.734,1.615,3.434.152,3.122.014,2.777-.131.606.82,0,3.234" transform="translate(13.623 0.29)" fill="#161616"/>
      <path id="Path-5" data-name="Path" d="M0,5.662C0,4.584.072,0,2.66,0,5.947,0,8.116,3.745,8.116,6.128c0,1.823-1.2,4.886-4.3,4.886S0,6.74,0,5.662Z" transform="translate(20.87 4.058)" fill="#fff"/>
      <path id="Path-6" data-name="Path" d="M5.477,0A4.449,4.449,0,0,0,1.9,2.265C1,3.573,0,4.865,0,5.684,0,6.968.828,7.213,1.59,8.307c.87,1.252,1.8,2.707,3.411,2.707,3.024,0,3.519-2.528,4.022-4.417C9.839,3.532,8.681,0,5.477,0Z" transform="translate(26.087 16.391)" fill="#fff"/>
      <path id="Path-7" data-name="Path" d="M7.815,8.617c.913-.823,1.46-1.243,1.46-2.526,0-.819-1.178-2.212-2.07-3.521C6.263,1.191,5.291,0,3.87,0,.692,0-.526,3.536.206,6.62c.52,2.2,2.311,4.395,4.747,4.395C6.552,11.014,6.676,9.642,7.815,8.617Z" transform="translate(1.16 15.072)" fill="#fff"/>
      <path id="Path-8" data-name="Path" d="M4.363,11.594c3.231,0,3.753-4.707,3.753-5.841S8.116,0,5.061,0C1.921,0,0,4.009,0,5.929S1.134,11.594,4.363,11.594Z" transform="translate(9.855 3.478)" fill="#fff"/>
      <path id="Path-9" data-name="Path" d="M11.949,0c-1.974,0-3.3,1.2-4.635,3.6C5.319,7.205,0,7.805,0,12.308c0,2.3,2.271,4.5,5.319,4.5,2.628,0,4.663-1.2,6.65-1.2s3.29,1.2,5.985,1.2c3.325,0,4.654-2.339,4.654-4.2,0-2.754-4.058-3.333-5.985-8.406C16.089,2.8,14.93,0,11.949,0Z" transform="translate(6.377 20.609)" fill="#fff"/>
      <g id="Group" transform="translate(8.116 22.348)">
        <path id="Path-10" data-name="Path" d="M9.123,9.434A14.929,14.929,0,0,1,4.6,3.286C3.872,1.364,3.145.58,2.093.58a1.868,1.868,0,0,0-1.582.861.29.29,0,0,1-.442-.374A2.439,2.439,0,0,1,2.093,0C3.43,0,4.313.892,5.141,3.08A14.4,14.4,0,0,0,9.5,8.994Z" transform="translate(8.115)" fill="#161616"/>
        <path id="Path-11" data-name="Path" d="M.29,1.449a.29.29,0,0,1-.246-.442C.11.9.174.79.236.677Q.4.388.547.14a.29.29,0,1,1,.5.3c-.1.159-.2.332-.3.518-.067.121-.136.239-.208.354A.29.29,0,0,1,.29,1.449Z" transform="translate(6.86 2.029)" fill="#161616"/>
        <path id="Path-12" data-name="Path" d="M.29.87A.29.29,0,0,1,.073.388C.154.3.233.2.31.108a.29.29,0,1,1,.45.365c-.083.1-.168.2-.254.3A.289.289,0,0,1,.29.87Z" transform="translate(5.995 3.768)" fill="#161616"/>
        <path id="Path-13" data-name="Path" d="M3.583,8.486C1.471,8.486,0,7.029,0,5.721,0,4.053,1.094,3.2,3.027,1.838A22.031,22.031,0,0,0,5.311.077.29.29,0,1,1,5.7.5,22.654,22.654,0,0,1,3.361,2.312C1.483,3.637.58,4.335.58,5.721c0,1.034,1.233,2.186,3,2.186a.29.29,0,0,1,0,.58Z" transform="translate(0 4.847)" fill="#161616"/>
      </g>
      <path id="Shape-2" data-name="Shape" d="M4.393,12.174C.781,12.174,0,7.419,0,6.243,0,2.217,1.151,0,3.24,0,6.868,0,9.275,4.038,9.275,6.708,9.275,8.977,7.76,12.174,4.393,12.174ZM3.24,1.159c-1.931,0-2.081,3.891-2.081,5.083,0,.785.562,4.772,3.234,4.772,2.813,0,3.723-2.9,3.723-4.307C8.116,4.474,6.068,1.159,3.24,1.159Z" transform="translate(20.29 3.478)" fill="#161616"/>
      <path id="Shape-3" data-name="Shape" d="M5.58,12.174c-1.841,0-2.908-1.541-3.765-2.78l-.123-.177a6.428,6.428,0,0,0-.677-.794A2.832,2.832,0,0,1,0,6.264C0,5.377.753,4.3,1.625,3.058L2,2.516A5,5,0,0,1,6.056,0,3.963,3.963,0,0,1,9.315,1.574a6.77,6.77,0,0,1,.848,5.752l-.079.3C9.61,9.437,8.894,12.174,5.58,12.174ZM6.056,1.159a3.865,3.865,0,0,0-3.1,2.013l-.383.549A7.4,7.4,0,0,0,1.159,6.264,1.722,1.722,0,0,0,1.852,7.62l.011.012a7.439,7.439,0,0,1,.781.924l.124.179c.776,1.121,1.578,2.279,2.811,2.279,2.245,0,2.818-1.526,3.382-3.683l.079-.3A5.68,5.68,0,0,0,8.4,2.28,2.8,2.8,0,0,0,6.056,1.159Z" transform="translate(25.507 15.812)" fill="#161616"/>
      <path id="Shape-4" data-name="Shape" d="M5.535,12.174C2.8,12.174.793,9.739.224,7.333a6.937,6.937,0,0,1,.984-5.782A4,4,0,0,1,4.453,0C6.194,0,7.334,1.458,8.267,2.825c.2.287.409.582.614.867l.011.015,0,.006c.827,1.149,1.541,2.141,1.541,2.959A3.364,3.364,0,0,1,8.926,9.5l-.14.126a5.47,5.47,0,0,0-.821,1A2.767,2.767,0,0,1,5.535,12.174ZM4.453,1.16A2.842,2.842,0,0,0,2.118,2.27a5.846,5.846,0,0,0-.765,4.8c.464,1.963,2.05,3.949,4.182,3.949.719,0,.972-.321,1.475-1.046a6.537,6.537,0,0,1,1-1.2l.141-.127c.8-.716,1.128-1.012,1.128-1.966A6.987,6.987,0,0,0,7.962,4.4l-.01-.015,0-.006c-.213-.3-.433-.6-.638-.9C6.332,2.047,5.514,1.16,4.453,1.16Z" transform="translate(0.577 14.493)" fill="#161616"/>
      <path id="Shape-5" data-name="Shape" d="M4.943,12.754C1.208,12.754,0,8.547,0,6.509A7.8,7.8,0,0,1,1.459,2.491,5.2,5.2,0,0,1,5.641,0C7.3,0,9.275,1.1,9.275,6.333,9.275,8.119,8.5,12.754,4.943,12.754Zm.7-11.595c-2.788,0-4.481,3.716-4.481,5.35,0,1.593.953,5.085,3.783,5.085,3.037,0,3.173-5.208,3.173-5.26C8.116,3.973,7.686,1.159,5.641,1.159Z" transform="translate(9.275 2.899)" fill="#161616"/>
      <path id="Shape-6" data-name="Shape" d="M18.534,17.971a10.751,10.751,0,0,1-3.647-.7,7.182,7.182,0,0,0-2.338-.5,10.509,10.509,0,0,0-2.7.515l-.011,0a14.393,14.393,0,0,1-3.941.682c-3.2,0-5.9-2.328-5.9-5.083C0,9.937,2.039,8.5,4.012,7.111A10.479,10.479,0,0,0,7.387,3.9C8.9,1.166,10.44,0,12.529,0c3.479,0,4.741,3.325,5.216,4.577a12.178,12.178,0,0,0,3.741,5.01c1.224,1.091,2.282,2.033,2.282,3.6C23.768,15.565,21.97,17.971,18.534,17.971Zm-5.985-2.36a8.211,8.211,0,0,1,2.7.562l.01,0a9.641,9.641,0,0,0,3.271.636c2.8,0,4.075-1.878,4.075-3.623,0-1.049-.793-1.756-1.891-2.736a13.166,13.166,0,0,1-4.056-5.464c-.677-1.783-1.758-3.829-4.133-3.829-1.632,0-2.828.957-4.127,3.3a11.353,11.353,0,0,1-3.72,3.594c-1.89,1.331-3.522,2.481-3.522,4.831,0,1.9,1.9,3.924,4.74,3.924a13.25,13.25,0,0,0,3.625-.639l.011,0A11.241,11.241,0,0,1,12.549,15.611Z" transform="translate(5.797 20.029)" fill="#161616"/>
    </g>
  </g>
</svg>
