<svg xmlns="http://www.w3.org/2000/svg" width="33.995" height="30.739" viewBox="0 0 33.995 30.739">
  <g id="art" transform="translate(0.002)">
    <g id="Group" transform="translate(5.716)">
      <path id="Path" d="M25.838,19.066a14.224,14.224,0,0,1-6.592,5.676,18.871,18.871,0,0,1-11.152,1.41,13.014,13.014,0,0,1-6.387-2.86A4.517,4.517,0,0,1,.143,21.016c-.8-2.454,1.974-2.479,2.689-2.67a8.555,8.555,0,0,0,3.063-1.283c1.913-1.457,1.905-2.364.348-4.271-.633-.775-1.254-1.467-1.846-2.269A5.134,5.134,0,0,1,4.834,4.25,10.7,10.7,0,0,1,8.811,1.142C12.08-.742,21.44-1.022,25.2,6.078,28.155,11.52,27.373,16.5,25.838,19.066Z" transform="translate(0.537 0.49)" fill="#fff"/>
      <path id="Shape" d="M11.974,27.425a20.474,20.474,0,0,1-3.442-.3A13.588,13.588,0,0,1,1.88,24.143,4.918,4.918,0,0,1,.158,21.62a2.21,2.21,0,0,1,.151-1.985,3.662,3.662,0,0,1,2.541-1.2c.161-.025.281-.045.369-.069A8.039,8.039,0,0,0,6.09,17.173c.862-.656,1.219-1.1,1.275-1.565.059-.5-.216-1.053-1.014-2.03-.205-.252-.414-.5-.608-.73l-.062-.074c-.415-.5-.805-.961-1.191-1.483a5.59,5.59,0,0,1,.454-6.848A11.178,11.178,0,0,1,9.091,1.2,11.838,11.838,0,0,1,14.666,0,15.477,15.477,0,0,1,18.6.5a11.761,11.761,0,0,1,7.614,5.853c3.041,5.607,2.237,10.747.625,13.444a14.786,14.786,0,0,1-6.826,5.881A19.5,19.5,0,0,1,11.974,27.425ZM14.639.979a10.65,10.65,0,0,0-5.007,1.07A10.246,10.246,0,0,0,5.8,5.038a4.659,4.659,0,0,0-.421,5.7c.4.535.812,1.03,1.214,1.507l.12.144c.144.172.324.386.5.6.932,1.142,1.309,1.987,1.22,2.74a3.523,3.523,0,0,1-1.655,2.208,8.98,8.98,0,0,1-3.255,1.376c-.126.033-.311.065-.474.092l-.011,0c-.588.1-1.476.247-1.81.749a1.384,1.384,0,0,0-.029,1.212A4.044,4.044,0,0,0,2.606,23.42a12.531,12.531,0,0,0,6.122,2.737,19.309,19.309,0,0,0,3.242.279,18.351,18.351,0,0,0,7.577-1.647,13.765,13.765,0,0,0,6.359-5.471c1.488-2.489,2.21-7.264-.647-12.532a10.734,10.734,0,0,0-6.95-5.341A14.46,14.46,0,0,0,14.639.979Z"/>
    </g>
    <g id="Group-2" data-name="Group" transform="translate(0 4.954)">
      <g id="Group-3" data-name="Group" transform="translate(7.177 10.489)">
        <path id="Path-2" data-name="Path" d="M12.088,11.7a1.661,1.661,0,0,1-.632,2.345l-.153.1a1.931,1.931,0,0,1-2.579-.165L8.5,13.708c-.016-.021.017.016.018.015l-.007,0L0,.923,1.75,0,11.965,11.56l-.007,0a.712.712,0,0,1-.046-.084Z" transform="translate(0.401 0.367)" fill="#f0f0f0"/>
        <path id="Shape-2" data-name="Shape" d="M10.414,15.3a2.634,2.634,0,0,1-.35-.024,1.935,1.935,0,0,1-1.264-.7l-.173-.217a.357.357,0,0,1-.054-.063L.059,1.484A.341.341,0,0,1,.013,1.2.372.372,0,0,1,.2.971L1.952.049A.436.436,0,0,1,2.152,0a.418.418,0,0,1,.313.136L12.552,11.553a.376.376,0,0,1,.091.088l.168.206a.013.013,0,0,0,0,.005,1.683,1.683,0,0,1,.323,1.31A2.367,2.367,0,0,1,12.1,14.713l-.152.1A2.763,2.763,0,0,1,10.414,15.3ZM2.055.846h0L.96,1.424l8.251,12.41a.511.511,0,0,1,.036.039.234.234,0,0,1,.036.052l.167.21a1.12,1.12,0,0,0,.739.4,1.479,1.479,0,0,0,.229.017,1.894,1.894,0,0,0,1.048-.336l.152-.1a1.634,1.634,0,0,0,.729-1.057.98.98,0,0,0-.183-.773l-.051-.061A.368.368,0,0,1,12,12.11l0-.005,0-.007L2.055.846Z" transform="translate(0 0)"/>
      </g>
      <g id="Group-4" data-name="Group" transform="translate(3.41 6.058)">
        <path id="Path-3" data-name="Path" d="M4.505,0,5.7,1.645A2.327,2.327,0,0,1,5.026,5.1l-.185.116A2.676,2.676,0,0,1,1.2,4.476L0,2.831Z" transform="translate(0.401 0.37)" fill="#f0f0f0"/>
        <path id="Shape-3" data-name="Shape" d="M3.815,6.379a3.036,3.036,0,0,1-.524-.046A3.238,3.238,0,0,1,1.266,5.052L.068,3.408a.346.346,0,0,1-.062-.271A.367.367,0,0,1,.175,2.9L4.68.065A.437.437,0,0,1,4.909,0a.43.43,0,0,1,.073.006A.409.409,0,0,1,5.24.163l1.2,1.646a2.8,2.8,0,0,1,.513,2.166,2.723,2.723,0,0,1-1.3,1.795l-.186.117A3.071,3.071,0,0,1,3.815,6.379ZM4.8.885.957,3.3l.977,1.34A2.415,2.415,0,0,0,3.445,5.6a2.057,2.057,0,0,0,.37.034,2.265,2.265,0,0,0,1.2-.364L5.2,5.159a2.006,2.006,0,0,0,.955-1.321,2.1,2.1,0,0,0-.384-1.616L4.8.885Z" transform="translate(0 0)"/>
      </g>
      <g id="Group-5" data-name="Group">
        <path id="Path-4" data-name="Path" d="M.18,4.189c.7,1.818,2.431,2.9,3.652,2.565,2.925-.8,2.875-3.807.605-4.361C1.653,1.713,1.043,0,1.043,0S-.518,2.371.18,4.189Z" transform="translate(0.375 0.345)" fill="#f70031"/>
        <path id="Shape-4" data-name="Shape" d="M3.731,7.507A4.25,4.25,0,0,1,.2,4.651C-.528,2.752.929.426,1.1.167A.382.382,0,0,1,1.411,0a.367.367,0,0,1,.05,0,.368.368,0,0,1,.313.235c.023.063.6,1.548,3.134,2.167A2.363,2.363,0,0,1,6.836,4.642,3,3,0,0,1,4.312,7.43,2.2,2.2,0,0,1,3.731,7.507ZM1.424,1.086h0A4.5,4.5,0,0,0,.909,4.419,3.534,3.534,0,0,0,3.756,6.813,1.348,1.348,0,0,0,4.1,6.77c1.486-.409,2-1.4,1.988-2.117a1.657,1.657,0,0,0-1.372-1.58A5.539,5.539,0,0,1,1.424,1.086Z"/>
      </g>
    </g>
    <g id="Group-6" data-name="Group" transform="translate(14.098 4.754)">
      <ellipse id="Oval" cx="2.336" cy="2.15" rx="2.336" ry="2.15" transform="translate(0.268 0.248)" fill="#f70031"/>
      <path id="Shape-5" data-name="Shape" d="M2.6,4.8A2.51,2.51,0,0,1,0,2.4,2.51,2.51,0,0,1,2.6,0a2.51,2.51,0,0,1,2.6,2.4A2.51,2.51,0,0,1,2.6,4.8Zm0-4.3A1.994,1.994,0,0,0,.535,2.4,1.994,1.994,0,0,0,2.6,4.3,1.994,1.994,0,0,0,4.673,2.4,2,2,0,0,0,2.6.494Z" fill="#472b29"/>
    </g>
    <g id="Group-7" data-name="Group" transform="translate(21.792 4.754)">
      <ellipse id="Oval-2" data-name="Oval" cx="2.336" cy="2.15" rx="2.336" ry="2.15" transform="translate(0.269 0.248)" fill="#ef8f70"/>
      <path id="Shape-6" data-name="Shape" d="M2.6,4.8A2.51,2.51,0,0,1,0,2.4,2.51,2.51,0,0,1,2.6,0a2.51,2.51,0,0,1,2.6,2.4A2.51,2.51,0,0,1,2.6,4.8Zm0-4.3A1.994,1.994,0,0,0,.535,2.4,1.994,1.994,0,0,0,2.6,4.3,1.994,1.994,0,0,0,4.673,2.4,2,2,0,0,0,2.6.494Z" fill="#472b29"/>
    </g>
    <g id="Group-8" data-name="Group" transform="translate(25.09 11.839)">
      <ellipse id="Oval-3" data-name="Oval" cx="2.336" cy="2.15" rx="2.336" ry="2.15" transform="translate(0.268 0.247)" fill="#f1bc19"/>
      <path id="Shape-7" data-name="Shape" d="M2.6,4.794A2.51,2.51,0,0,1,0,2.4,2.51,2.51,0,0,1,2.6,0a2.51,2.51,0,0,1,2.6,2.4A2.51,2.51,0,0,1,2.6,4.794Zm0-4.3A1.993,1.993,0,0,0,.535,2.4,1.994,1.994,0,0,0,2.6,4.3,1.994,1.994,0,0,0,4.671,2.4,1.993,1.993,0,0,0,2.6.494Z" fill="#472b29"/>
    </g>
    <g id="Group-9" data-name="Group" transform="translate(22.068 18.417)">
      <ellipse id="Oval-4" data-name="Oval" cx="1.923" cy="1.771" rx="1.923" ry="1.771" transform="translate(0.267 0.247)" fill="#78a0cf"/>
      <path id="Shape-8" data-name="Shape" d="M2.191,4.035A2.112,2.112,0,0,1,0,2.018,2.112,2.112,0,0,1,2.191,0a2.112,2.112,0,0,1,2.19,2.018A2.111,2.111,0,0,1,2.191,4.035Zm0-3.542A1.6,1.6,0,0,0,.535,2.019,1.6,1.6,0,0,0,2.191,3.544,1.6,1.6,0,0,0,3.846,2.019,1.6,1.6,0,0,0,2.191.494Z" fill="#472b29"/>
    </g>
  </g>
</svg>
