<svg id="games" xmlns="http://www.w3.org/2000/svg" width="31" height="31" viewBox="0 0 31 31">
  <rect id="Rectangle" width="31" height="31" fill="none"/>
  <g id="icons8-nintendo_gamecube_" transform="translate(1.886 3.276)">
    <g id="Group" transform="translate(0.281 6.665)">
      <path id="Path" d="M26.316,9.828c-.051-2.1-.92-7.154-.92-7.154C24.64,1.56,22.924.725,20.729.169H6.526A.1.1,0,0,1,6.45,0C3.911.549,1.9,1.44,1.058,2.674c0,0-.869,5.059-.92,7.154C.09,11.809-1,16.987,3.842,16.034a1.822,1.822,0,0,0,1.266-.947C6.067,13.24,8.653,8.47,9.847,8.346a64.39,64.39,0,0,1,6.759,0c1.15.119,3.589,4.544,4.625,6.521a2.309,2.309,0,0,0,1.7,1.221C27.409,16.758,26.363,11.765,26.316,9.828Z" transform="translate(0 1.222)" fill="#9b9b9b"/>
      <path id="Path-2" data-name="Path" d="M10.442,8.145a5.545,5.545,0,1,0-5.228,2.934,3.423,3.423,0,1,0,5.228-2.934Z" transform="translate(0.445)" fill="#fff"/>
      <path id="Path-3" data-name="Path" d="M12.06,5.544a5.544,5.544,0,1,0-10.442,2.6,3.422,3.422,0,1,0,5.227,2.934A5.544,5.544,0,0,0,12.06,5.544Z" transform="translate(13.935)" fill="#fff"/>
      <circle id="Oval" cx="1.452" cy="1.452" r="1.452" transform="translate(8.008 9.946)" fill="#4a4a4a"/>
      <circle id="Oval-2" data-name="Oval" cx="1.452" cy="1.452" r="1.452" transform="translate(15.963 9.946)" fill="#4a4a4a"/>
      <path id="Path-4" data-name="Path" d="M4.909,1.875H3.471V.437A.439.439,0,0,0,3.034,0H2.312a.439.439,0,0,0-.437.437V1.875H.437A.439.439,0,0,0,0,2.312v.721a.439.439,0,0,0,.437.437H1.875V4.909a.439.439,0,0,0,.437.437h.721a.439.439,0,0,0,.437-.437V3.471H4.909a.439.439,0,0,0,.437-.437V2.312A.439.439,0,0,0,4.909,1.875Z" transform="translate(3.175 2.801)" fill="#4a4a4a"/>
      <g id="Oval-3" data-name="Oval" transform="translate(17.269 2.248)">
        <g id="Group-2" data-name="Group" transform="translate(2.2)">
          <circle id="Oval-4" data-name="Oval" cx="1.025" cy="1.025" r="1.025" fill="#7ed321"/>
          <circle id="Oval-5" data-name="Oval" cx="1.025" cy="1.025" r="1.025" transform="translate(0 4.401)" fill="#4a90e2"/>
        </g>
        <g id="Group-3" data-name="Group" transform="translate(0 2.2)">
          <circle id="Oval-6" data-name="Oval" cx="1.025" cy="1.025" r="1.025" transform="translate(4.401)" fill="#f70031"/>
          <circle id="Oval-7" data-name="Oval" cx="1.025" cy="1.025" r="1.025" fill="#f5a623"/>
        </g>
      </g>
      <path id="Path-5" data-name="Path" d="M1.8,0H.484C.218,0,0,.352,0,.783H2.289C2.288.352,2.07,0,1.8,0Z" transform="translate(12.016 0.359)" fill="#9b9b9b"/>
    </g>
    <g id="Group-4" data-name="Group">
      <path id="Shape" d="M23.248,24.212A2.694,2.694,0,0,1,21.271,22.8c-.406-.775-.795-1.485-1.188-2.171a3.735,3.735,0,0,1-2.359.832,3.794,3.794,0,0,1-3.57-5.071l-.568,0-.569,0a3.738,3.738,0,0,1,.222,1.279,3.8,3.8,0,0,1-3.793,3.793A3.748,3.748,0,0,1,7.1,20.632c-.419.731-.858,1.533-1.3,2.382A2.156,2.156,0,0,1,4.294,24.15a5.962,5.962,0,0,1-1.167.124A2.959,2.959,0,0,1,1.1,23.6C-.221,22.425-.04,20.035.081,18.453c.023-.288.049-.611.054-.877a40.763,40.763,0,0,1,.446-4.159,5.9,5.9,0,0,1,9.478-5.859h2.217c.059-.435.318-.738.627-.738h.357a2.758,2.758,0,0,1,.048-3.164,3.1,3.1,0,0,1,2.356-1.128,1.978,1.978,0,0,1,.517.062,3.168,3.168,0,0,1,1.9,1.418c.349.477.6.822,1.252.849h.077A2.388,2.388,0,0,0,21.659,3.18,2.506,2.506,0,0,0,20.083.354a.185.185,0,0,1-.1-.242A.187.187,0,0,1,20.157,0a.162.162,0,0,1,.071.014,2.88,2.88,0,0,1,1.787,3.258,2.766,2.766,0,0,1-2.6,1.954c-.032,0-.064,0-.1,0a1.848,1.848,0,0,1-1.533-1,2.8,2.8,0,0,0-1.7-1.281,1.682,1.682,0,0,0-.426-.052,2.741,2.741,0,0,0-2.059.988c-.414.53-.739,1.467.068,2.921l0,.007.476.008c.311,0,.569.3.627.738h2.337A5.9,5.9,0,0,1,26.6,13.378a39.962,39.962,0,0,1,.451,4.2c.006.215.025.472.048.761l0,.011V18.4l0,.057,0,.006c.117,1.559.3,3.915-.975,5.1a2.929,2.929,0,0,1-2.072.717A5.423,5.423,0,0,1,23.248,24.212ZM21.5,18.031a3.766,3.766,0,0,1-.868,2.057c.425.736.848,1.51,1.3,2.364a1.95,1.95,0,0,0,1.432,1.029,5.024,5.024,0,0,0,.7.056,2.213,2.213,0,0,0,1.568-.52c1.012-.94.85-3.08.743-4.5V18.5l0-.031c-.024-.319-.047-.625-.053-.882-.014-.585-.1-1.5-.255-2.709A5.9,5.9,0,0,1,21.5,18.031ZM.874,17.593c-.007.264-.031.58-.057.915-.109,1.437-.273,3.61.773,4.538a2.251,2.251,0,0,0,1.537.49,5.343,5.343,0,0,0,1.023-.111,1.43,1.43,0,0,0,1-.751c.483-.93.956-1.8,1.4-2.577a3.763,3.763,0,0,1-.877-2.066A5.91,5.91,0,0,1,1.124,14.9C.973,16.091.888,17,.874,17.593ZM15.64,12.159a5.18,5.18,0,0,0,.6,2.426.369.369,0,0,1-.131.486A3.054,3.054,0,1,0,20.78,17.69a.366.366,0,0,1,.346-.365,5.176,5.176,0,1,0-5.485-5.166Zm-14.46,0a5.179,5.179,0,0,0,4.868,5.166.368.368,0,0,1,.346.365,3.055,3.055,0,1,0,4.665-2.618.369.369,0,0,1-.13-.486A5.176,5.176,0,1,0,1.18,12.158Zm9.642-3.864a5.892,5.892,0,0,1,.9,6.34,3.783,3.783,0,0,1,.932,1.014c.414,0,.7-.005.936-.005h.675l.248,0a3.828,3.828,0,0,1,.932-1.013,5.9,5.9,0,0,1,.9-6.34h-5.53Z" fill="#161616"/>
      <path id="Shape-2" data-name="Shape" d="M1.659,3.318A1.659,1.659,0,1,1,3.318,1.659,1.661,1.661,0,0,1,1.659,3.318Zm0-2.949a1.29,1.29,0,1,0,1.29,1.291A1.292,1.292,0,0,0,1.659.369Z" transform="translate(8.081 16.404)" fill="#1f212b"/>
      <path id="Shape-3" data-name="Shape" d="M1.659,3.318A1.659,1.659,0,1,1,3.318,1.659,1.66,1.66,0,0,1,1.659,3.318Zm0-2.949A1.29,1.29,0,1,0,2.949,1.659,1.292,1.292,0,0,0,1.659.369Z" transform="translate(16.192 16.404)" fill="#1f212b"/>
      <path id="Shape-4" data-name="Shape" d="M1.29,2.581A1.291,1.291,0,1,1,2.581,1.29,1.292,1.292,0,0,1,1.29,2.581Zm0-2.212a.922.922,0,1,0,.922.922A.923.923,0,0,0,1.29.369Z" transform="translate(19.51 8.662)" fill="#1f212b"/>
      <path id="Shape-5" data-name="Shape" d="M1.29,2.58a1.29,1.29,0,1,1,1.291-1.29A1.292,1.292,0,0,1,1.29,2.58Zm0-2.212a.922.922,0,1,0,.922.923A.923.923,0,0,0,1.29.368Z" transform="translate(19.51 13.086)" fill="#1f212b"/>
      <path id="Shape-6" data-name="Shape" d="M1.29,2.581A1.29,1.29,0,1,1,2.581,1.29,1.292,1.292,0,0,1,1.29,2.581Zm0-2.212a.922.922,0,1,0,.922.922A.923.923,0,0,0,1.29.369Z" transform="translate(21.721 10.874)" fill="#1f212b"/>
      <path id="Shape-7" data-name="Shape" d="M1.291,2.581A1.29,1.29,0,1,1,2.58,1.29,1.292,1.292,0,0,1,1.291,2.581Zm0-2.212a.922.922,0,1,0,.922.922A.923.923,0,0,0,1.291.369Z" transform="translate(17.298 10.874)" fill="#1f212b"/>
      <path id="Shape-8" data-name="Shape" d="M3.218,5.715H2.5a.622.622,0,0,1-.621-.622V3.839H.621A.622.622,0,0,1,0,3.218V2.5a.622.622,0,0,1,.621-.621H1.875V.622A.622.622,0,0,1,2.5,0h.722A.623.623,0,0,1,3.84.622V1.875H5.093a.622.622,0,0,1,.622.621v.722a.622.622,0,0,1-.622.621H3.84V5.093A.623.623,0,0,1,3.218,5.715ZM.621,2.243A.253.253,0,0,0,.369,2.5v.721a.253.253,0,0,0,.253.253H2.06a.184.184,0,0,1,.184.184V5.093a.253.253,0,0,0,.253.253h.722a.253.253,0,0,0,.253-.253V3.655a.185.185,0,0,1,.184-.184H5.093a.253.253,0,0,0,.253-.253V2.5a.253.253,0,0,0-.253-.253H3.655a.185.185,0,0,1-.184-.184V.622A.253.253,0,0,0,3.218.369H2.5a.253.253,0,0,0-.253.253V2.059a.184.184,0,0,1-.184.184Z" transform="translate(3.289 9.308)" fill="#1f212b"/>
    </g>
  </g>
</svg>
