<svg id="global_chat" data-name="global chat" xmlns="http://www.w3.org/2000/svg" width="31" height="31" viewBox="0 0 31 31">
  <rect id="Rectangle" width="31" height="31" fill="none"/>
  <g id="shape" transform="translate(4.34 4.34)">
    <circle id="Oval" cx="10.775" cy="10.775" r="10.775" transform="translate(0.385 0.385)" fill="#9b9b9b"/>
    <path id="Path" d="M4.982,10.6A15.628,15.628,0,0,1,8.83,0a10.775,10.775,0,0,0,0,21.2A15.628,15.628,0,0,1,4.982,10.6Z" transform="translate(0.406 0.562)" opacity="0.25"/>
    <path id="Combined-Shape" d="M9.217,21.246a.329.329,0,0,1,0-.2q.365-1.824.57-3.668a1.96,1.96,0,0,0-.02-.769c-.188-.624-.9-.913-1.289-1.436a1.594,1.594,0,0,1-.077-1.74c.147-.254.362-.535.212-.769a.6.6,0,0,0-.269-.2l-.093-.043.108.043a4.442,4.442,0,0,1,.715-.308,4.652,4.652,0,0,1,3.079.357c.47.238.966.732.769,1.228L15,14.3a.665.665,0,0,1,.338.162.5.5,0,0,1,0,.573c-.1.176-.25.319-.357.492a5.923,5.923,0,0,0-.331.908,3.5,3.5,0,0,1-.851,1.112q-1.636,1.628-3.309,3.221a1.953,1.953,0,0,1-.935.592.559.559,0,0,1-.086.007A.253.253,0,0,1,9.217,21.246Zm8.362-7.966a3.435,3.435,0,0,1-.061-1.655,15.948,15.948,0,0,1,1.473-1.87l.127,2.56L18.2,13.962A3.449,3.449,0,0,1,17.579,13.28ZM7.818,12.254c.144.05.287.107.432.172Zm-2.169-.709A5.669,5.669,0,0,1,4.26,10.3a7.984,7.984,0,0,1-.92-1.451l-.384.77A13.844,13.844,0,0,1,1.305,6.307C1.089,5.423.862,4.344,0,4.045L3.34,1.539a7.383,7.383,0,0,0,2.221.443c.1,0,.2-.492.23-.492.147-.069,1.1-.573,1.1-.573L6.177.793,6.73.215,9.113,0l3.079.77,3.69,2.44a3.031,3.031,0,0,0-1.716.931c-.2.293-.472.878-.919.769-.8-.2-.986-1.632-1.063-1.82a2.888,2.888,0,0,0-1.924-1.54c.331.4.25.939-1.02.789.089-.9-.5-1.185-1.066-.77s-1.128.866-1.72,1.3c-.262.192-.524.492-.385.77a.708.708,0,0,0,.3.265L8.3,5A1.779,1.779,0,0,0,8.681,3.74a.385.385,0,0,1,.747-.127c.262.427.916-.162,1.2-.162.385,0,.769.986.769,1.132a.866.866,0,0,1-.842.769c-.382,0-.509.25-.312.384s1.089.285,1.247.112.5-.242.58-.038-.176.377-.384.45c-.419.15-1.424.281-1.354.331A4.6,4.6,0,0,0,8.909,7.658a2.987,2.987,0,0,0-.732,1.924,1.434,1.434,0,0,0-1.566-.646c-.5.08-.839.188-.962.685a.711.711,0,0,0,.8.931c.166-.019.693-.234.751-.019s-.239.412-.154.6.4.1.558.223.108.854.108.854l.11.044A20.139,20.139,0,0,1,5.649,11.545ZM17.629,8.8a.634.634,0,0,1-.05-.489,2.252,2.252,0,0,1,.573-1.074.172.172,0,0,1,.1-.061l.866,1.285-.45.842A1.707,1.707,0,0,1,17.629,8.8Z" transform="translate(2.817 0.385)" fill="#fff"/>
    <path id="Combined-Shape-2" data-name="Combined-Shape" d="M3.265,19.05A11.161,11.161,0,0,1,19.049,3.267a11.161,11.161,0,0,1,0,15.783,11.164,11.164,0,0,1-15.784,0Zm-2.5-7.891A10.4,10.4,0,0,0,11.149,21.545h.47a.924.924,0,0,1,.023-.193c.247-1.223.436-2.445.565-3.632a1.534,1.534,0,0,0,0-.627,1.652,1.652,0,0,0-.6-.7,3.577,3.577,0,0,1-.623-.612,1.985,1.985,0,0,1-.1-2.178l.052-.081a1.415,1.415,0,0,0,.146-.27l-.08-.042-.637-.249c-.19-.062-.4-.12-.56-.165l-.006,0-.067-.018-.027-.007A8.118,8.118,0,0,1,8.3,12.279a5.26,5.26,0,0,1-1.4-1.216l-.1-.116a5.683,5.683,0,0,1-.625-.881l-.058.112a.374.374,0,0,1-.319.211H5.768a.377.377,0,0,1-.316-.169A13.922,13.922,0,0,1,3.745,6.78l-.026-.112A2.985,2.985,0,0,0,2.881,4.89,10.4,10.4,0,0,0,.769,11.159Zm11.19,1.759-.14.05a1.1,1.1,0,0,1-.227.95l-.046.073A1.213,1.213,0,0,0,11.6,15.3a3.064,3.064,0,0,0,.5.477,2.289,2.289,0,0,1,.842,1.089,2.229,2.229,0,0,1,.035.931c-.13,1.183-.311,2.362-.537,3.506a2.092,2.092,0,0,0,.589-.443c1.066-1.011,2.178-2.093,3.306-3.213a3.18,3.18,0,0,0,.77-.981,2.5,2.5,0,0,0,.1-.319,2.618,2.618,0,0,1,.253-.646,3.183,3.183,0,0,1,.2-.27,1.28,1.28,0,0,0,.153-.211.221.221,0,0,0,.037-.142l-.143-.035L15.643,14.5a.389.389,0,0,1-.247-.2.4.4,0,0,1-.017-.314c.094-.233-.227-.561-.591-.743a4.33,4.33,0,0,0-1.88-.433A4.391,4.391,0,0,0,11.958,12.918Zm3.163-.35a1.718,1.718,0,0,1,1.041,1.285l1.733.458a1.01,1.01,0,0,1,.526.273.883.883,0,0,1,.06,1.016,1.92,1.92,0,0,1-.227.323,2.335,2.335,0,0,0-.138.189,1.965,1.965,0,0,0-.172.458,3.977,3.977,0,0,1-.132.384,3.8,3.8,0,0,1-.936,1.239c-.967.963-2.013,1.98-3.11,3.025a10.435,10.435,0,0,0,7.14-6.523.377.377,0,0,1-.161-.076,3.757,3.757,0,0,1-.7-.769,3.544,3.544,0,0,1-.08-2.021A14.111,14.111,0,0,1,21.34,10.05a2.127,2.127,0,0,1-1.231-.661,1.033,1.033,0,0,1-.1-.77,2.622,2.622,0,0,1,.672-1.258,1.026,1.026,0,0,1,.1-.085A10.361,10.361,0,0,0,18.7,4.036l-.034-.027a2.612,2.612,0,0,0-1.391.77l-.1.149c-.175.278-.5.795-1.024.795a.807.807,0,0,1-.2-.025c-.895-.234-1.169-1.4-1.286-1.9l-.008-.026a.184.184,0,0,0,0-.022l0-.008,0-.009-.005-.019V3.712L14.639,3.7V3.69l0-.007a.19.19,0,0,1-.014-.059,2.047,2.047,0,0,0-1.01-1.055.568.568,0,0,1-.06.131,1.169,1.169,0,0,1-1.094.455,3.41,3.41,0,0,1-.445-.029.384.384,0,0,1-.338-.416c.026-.287-.04-.481-.118-.523a.165.165,0,0,0-.071-.015.505.505,0,0,0-.265.108c-.241.179-.458.344-.793.6l-.043.033-.01.007-.012.006-.036.028c-.208.16-.519.4-.831.624a.655.655,0,0,0-.253.293,1.26,1.26,0,0,0,.149.093L11,4.886a1.371,1.371,0,0,0,.135-.716.769.769,0,0,1,.536-.739.752.752,0,0,1,.238-.038.773.773,0,0,1,.665.384,1.543,1.543,0,0,0,.35-.142,1.325,1.325,0,0,1,.543-.174c.769,0,1.154,1.33,1.154,1.5a1.076,1.076,0,0,1-.384.813,1.087,1.087,0,0,1-.149.158h.026a.893.893,0,0,1,.6-.239,1.118,1.118,0,0,1,.115.007.579.579,0,0,1,.451.362.608.608,0,0,1,0,.47,1.027,1.027,0,0,1-.6.485,7.084,7.084,0,0,1-.932.223l-.347.073-.384.22a3.1,3.1,0,0,0-.962.769,2.6,2.6,0,0,0-.645,1.686.389.389,0,0,1-.3.389.343.343,0,0,1-.088.011.382.382,0,0,1-.35-.227.994.994,0,0,0-.913-.446,1.739,1.739,0,0,0-.244.02c-.5.069-.591.144-.649.384a.385.385,0,0,0,.08.354.28.28,0,0,0,.207.091.255.255,0,0,0,.051-.005l.112-.023a2.559,2.559,0,0,1,.514-.07c.307,0,.487.115.552.351a.668.668,0,0,1-.081.47.773.773,0,0,1,.328.139c.081.066.269.219.269.893l.236.127a3.778,3.778,0,0,1,.637-.258,5.091,5.091,0,0,1,1.133-.13A5.03,5.03,0,0,1,15.121,12.568Zm5.548-.369a3.765,3.765,0,0,0,.051,1.27,2.681,2.681,0,0,0,.445.492,10.323,10.323,0,0,0,.382-2.785v-.131A9.821,9.821,0,0,0,20.669,12.2ZM6.175,8.85a.381.381,0,0,1,.342.212,7.739,7.739,0,0,0,.858,1.363l.109.115a4.8,4.8,0,0,0,1.154,1.039,7.54,7.54,0,0,0,1.286.439l.2.058v-.031H10.1a.675.675,0,0,1-.588-.385.61.61,0,0,1-.029-.384l-.152.031a.849.849,0,0,1-.173.014,1.041,1.041,0,0,1-.771-.342A1.167,1.167,0,0,1,8.121,9.92a1.348,1.348,0,0,1,1.266-.971,2.217,2.217,0,0,1,.37-.034,2.168,2.168,0,0,1,.982.235,3.723,3.723,0,0,1,.72-1.362,3.791,3.791,0,0,1,1.154-.94l.261-.157a.607.607,0,0,1,.278-.139,1.17,1.17,0,0,1-.3-.127.567.567,0,0,1-.227-.654.736.736,0,0,1,.654-.418.7.7,0,0,1,.123.011.476.476,0,0,0,.293-.147.342.342,0,0,0,.132-.223,2.217,2.217,0,0,0-.384-.77l-.187.089-.008,0a1.784,1.784,0,0,1-.724.212.661.661,0,0,1-.589-.336l-.028-.042a2.147,2.147,0,0,1-.488,1.478.363.363,0,0,1-.3.14.39.39,0,0,1-.193-.051l-1.922-1.1a1.044,1.044,0,0,1-.448-.4c-.2-.4-.018-.85.491-1.243.144-.1.313-.23.5-.377l.025-.02.1-.074.13-.1.112-.085.85-.639a1.1,1.1,0,0,1,.688-.249,1.074,1.074,0,0,1,.465.107,1.077,1.077,0,0,1,.508.854.637.637,0,0,0,.106.008.7.7,0,0,0,.319-.076l-.006-.007L12.845,2.3,12.839,2.3l-.006-.013-.005-.011-.007-.009a.48.48,0,0,0-.048-.065.4.4,0,0,1-.017-.477.386.386,0,0,1,.311-.157.351.351,0,0,1,.149.03l.1.034a3.107,3.107,0,0,1,2.035,1.709,1.714,1.714,0,0,1,.075.257l0,.012,0,.006c.08.332.292,1.214.72,1.318a.042.042,0,0,0,.014,0c.094,0,.265-.264.356-.406l.014-.031.029-.04,0-.008.008-.009.031-.046.005-.008.034-.054.011-.016a2.964,2.964,0,0,1,1.39-.928A10.309,10.309,0,0,0,11.186.779a10.944,10.944,0,0,0-1.36.09L9.771.922a.386.386,0,0,1,.316.319.376.376,0,0,1-.2.4L8.9,2.15c-.075.241-.187.6-.537.6a7.736,7.736,0,0,1-2.31-.473A.427.427,0,0,1,5.911,2.2,10.62,10.62,0,0,0,3.369,4.3a3.616,3.616,0,0,1,1.1,2.183V6.5L4.5,6.61A11.22,11.22,0,0,0,5.73,9.234l.081-.173a.39.39,0,0,1,.344-.212Zm14.591-.068a.35.35,0,0,0,0,.193,1.586,1.586,0,0,0,.615.323,10.3,10.3,0,0,0-.292-1.216A1.849,1.849,0,0,0,20.766,8.781ZM6.83,1.735A6.157,6.157,0,0,0,8.162,2l.023-.073a.53.53,0,0,1,.255-.385l.246-.13A.449.449,0,0,1,8.631,1.3a.386.386,0,0,1-.011-.2A10.323,10.323,0,0,0,6.83,1.735ZM8.878,19.3a.384.384,0,0,1-.092-.382l.2-.743a.384.384,0,1,1,.742.2l-.2.742a.385.385,0,0,1-.651.182Zm-2.066-.907A.385.385,0,0,1,6.823,18l.385-.666a.384.384,0,0,1,.526-.142.384.384,0,0,1,.139.527l-.384.666a.385.385,0,0,1-.336.206h0A.384.384,0,0,1,6.812,18.392ZM5.351,17.249a.385.385,0,0,1-.175-.644l.543-.546a.385.385,0,1,1,.546.543l-.543.546a.382.382,0,0,1-.273.114A.389.389,0,0,1,5.351,17.249Zm-1.525-1.9a.385.385,0,0,1,.126-.517l.666-.385A.385.385,0,0,1,5,15.108l-.666.385a.385.385,0,0,1-.511-.149Zm-.8-1.9a.385.385,0,0,1,.182-.651l.743-.2a.384.384,0,0,1,.2.743l-.742.2a.385.385,0,0,1-.382-.092Z" fill="#161616"/>
  </g>
  <g id="Group" transform="translate(0 9.424)">
    <path id="Path-2" data-name="Path" d="M13.02,4.836A4.507,4.507,0,0,1,10.6,8.556h0a5.286,5.286,0,0,0,.5,2.17.3.3,0,0,1-.124.372c-.062,0-.124.062-.186,0a6.132,6.132,0,0,1-3.472-1.55H6.51C2.914,9.548,0,7.378,0,4.774S2.914,0,6.51,0s6.51,2.17,6.51,4.836" transform="translate(0.31 0.248)" fill="#f70031"/>
    <path id="Shape-2" data-name="Shape" d="M11.16,11.718h0a6.29,6.29,0,0,1-3.6-1.55H6.82a8.076,8.076,0,0,1-4.805-1.5A4.514,4.514,0,0,1,0,5.084C0,2.28,3.06,0,6.82,0A8.1,8.1,0,0,1,11.6,1.464,4.579,4.579,0,0,1,13.64,5.022v.062A4.8,4.8,0,0,1,11.222,8.99a5.091,5.091,0,0,0,.5,1.922.676.676,0,0,1-.248.805.276.276,0,0,0-.122-.027.57.57,0,0,0-.121.016A.354.354,0,0,1,11.16,11.718ZM6.82.558c-3.418,0-6.2,2-6.2,4.464S3.4,9.487,6.82,9.487h.806a.232.232,0,0,1,.186.061A5.949,5.949,0,0,0,11.1,11.036a4.794,4.794,0,0,1-.558-2.294.325.325,0,0,1,.121-.247,4.251,4.251,0,0,0,2.3-3.412V5.022a3.529,3.529,0,0,0-1.1-2.563A7.113,7.113,0,0,0,6.82.558Z" fill="#161616"/>
  </g>
</svg>
