<svg id="movies" xmlns="http://www.w3.org/2000/svg" width="24.956" height="32.932" viewBox="0 0 24.956 32.932">
  <path id="Fill-1" d="M0,9S.892,8.19.818,7.838s-.6-2.883,0-3.164,2.9-1.5,2.937-1.838S7.438.724,8.592.765A18.583,18.583,0,0,0,12.651.012a12.943,12.943,0,0,1,5.784,2.209c2.1,1.539,6.306,6.182,6.192,6.742-.023.113-2.139,22.465-3.534,23.256-1.562.58-11.619.463-16.778.228A1.457,1.457,0,0,1,2.928,31.3C2,26.53.82,14.456,0,9" transform="translate(0.205 0.292)" fill="#fff"/>
  <path id="Fill-3" d="M1.355,1.39C1.949.659,2.477-.238,3.68.058A7.789,7.789,0,0,1,5.188.787c-.009.373.007.748-.032,1.118Q4.042,12.688,2.917,23.469L0,23.5C.4,18,.812,12.492,1.178,6.987c.124-1.862.122-3.731.177-5.6" transform="translate(16.379 9.149)" fill="#e9e7e8"/>
  <path id="Fill-5" d="M0,.618A11.821,11.821,0,0,1,1.4.066C2.574-.236,3.2.555,3.861,1.24c.024,1.552-.027,3.109.085,4.656.424,5.877.9,11.751,1.356,17.627l-2.924.035C2.286,22.628,2.2,21.7,2.1,20.77Q1.052,10.694,0,.618" transform="translate(3.362 9.132)" fill="#e9e6e8"/>
  <path id="Fill-7" d="M0,1.2A1.828,1.828,0,0,1,2.267.1a6.376,6.376,0,0,1,1.475.965,9.008,9.008,0,0,0-.152,1.11c-.066,4.183-.112,8.366-.176,12.55-.043,2.871-.1,5.741-.158,8.612H.434Q.217,12.27,0,1.2" transform="translate(10.633 9.314)" fill="#e9e6e7"/>
  <path id="Fill-9" d="M0,23.924Q1.121,13.142,2.239,2.36c.038-.37.022-.746.032-1.119L3.485.122,4.833,0l.726.322a14.472,14.472,0,0,1,.06,2.445C4.667,9.5,3.67,16.236,2.683,22.968,2.533,24,1.574,24.334,0,23.924" transform="translate(19.296 8.695)" fill="#db2027"/>
  <path id="Fill-11" d="M3.362,1.031q1.051,10.076,2.1,20.152c.1.929.186,1.858.278,2.787-.458.027-.915.081-1.372.075a1.271,1.271,0,0,1-1.385-1.188c-.617-4.37-1.223-8.74-1.85-13.108C.78,7.288.371,4.835.036,2.373A12.77,12.77,0,0,1,.056.434a2.362,2.362,0,0,1,3.305.6" transform="translate(0 8.719)" fill="#db2027"/>
  <path id="Fill-13" d="M0,23.364c.054-2.871.115-5.741.158-8.612C.221,10.569.268,6.386.334,2.2a9.011,9.011,0,0,1,.152-1.11A1.714,1.714,0,0,1,2.23,0,1.724,1.724,0,0,1,3.844,1.254c-.055,1.866-.053,3.735-.177,5.6C3.3,12.356,2.886,17.859,2.49,23.363l-2.49,0" transform="translate(13.889 9.286)" fill="#dc2128"/>
  <path id="Fill-15" d="M3.41,1.238q.217,11.067.434,22.133l-2.4,0C.984,17.5.508,11.625.085,5.747-.027,4.2.024,2.644,0,1.092c.93-1.51,2.435-1.446,3.41.146" transform="translate(7.223 9.28)" fill="#dc2128"/>
  <path id="Fill-17" d="M.477,0c1.212.716,1.448,1.655.6,2.742C.778,1.841,1.545.548,0,.228L.477,0" transform="translate(3.334 2.988)" fill="#eae5c8"/>
  <path id="Fill-19" d="M5.636,6.529,4.289,6.65a1.143,1.143,0,0,1-.814-1.371,4.188,4.188,0,0,0-1.519-3.5c-.274-.257-.816-.258-1.235-.377L.706,1.391,1.384.7,0,.207c1.2-.376,1.313-.288,2.15.67.762.873,1.165,2.148,2.653,2.3.115.012.256.279.29.445.2.965.365,1.936.543,2.9" transform="translate(18.492 2.166)" fill="#e8e1ba"/>
  <path id="Fill-21" d="M9.535.38A28.206,28.206,0,0,1,6.228,1.545,5.9,5.9,0,0,1,4.212,1.33,2.984,2.984,0,0,0,1.25,2.375a1.365,1.365,0,0,1-.88.335c-.116.008-.414-.4-.364-.53.123-.32.342-.763.623-.843A9.764,9.764,0,0,1,3.545.781,12.927,12.927,0,0,0,9.5,0l.038.38" transform="translate(0.782 5.475)" fill="#eae3bf"/>
  <path id="Fill-23" d="M2.8,5.041l.333-1.15c-.593-.242-1.3-.315-1.537-.669A29.1,29.1,0,0,1,0,.089C.293.027.39-.015.409.005A32.839,32.839,0,0,1,3.2,3.217a1.637,1.637,0,0,1-.16,1.91L2.8,5.041" transform="translate(12.708 0.074)" fill="#e9e2bd"/>
  <path id="Fill-25" d="M0,0C1.887.317,3.8.617,5.454,2.023L4.6,2.57,0,0" transform="translate(12.915 5.64)" fill="#e9e2bd"/>
  <path id="Fill-27" d="M0,.5A.928.928,0,0,1,1.377.164a8.851,8.851,0,0,0,.934.227,1.272,1.272,0,0,1,.632.389c.086.133-.021.558-.1.575a1.81,1.81,0,0,1-.915-.034C1.294,1.1.692.8,0,.5" transform="translate(9.885 6.943)" fill="#eae3bf"/>
  <path id="Fill-29" d="M0,.917C.566-.045,1.1-.17,1.812.174c.226.11.505.116.741.212A1.79,1.79,0,0,1,3.2.769c.065.071-.058.445-.151.467-.272.063-.749.122-.832,0C1.7.462.985.574,0,.917" transform="translate(8.649 0)" fill="#e9e3be"/>
  <path id="Fill-31" d="M.458,1.65C-.34.927.065.424.465.137A1.807,1.807,0,0,1,1.828.128C.74.024.34.509.458,1.65" transform="translate(9.183 2.581)" fill="#ece7c7"/>
  <path id="Fill-33" d="M0,.4c.781-.586,1.367-.46,1.69.248L.033.425Z" transform="translate(1.334 4.092)" fill="#ebe6c4"/>
  <path id="Fill-35" d="M.568.027C.548.408.528.789.5,1.366.026.744.019.353.535,0L.568.027" transform="translate(0.799 4.49)" fill="#ebe6c4"/>
  <path id="Fill-37" d="M.279.568Q.255.339.23.111L.4.087l.08.5L.279.568" transform="translate(18.521 3.958)" fill="#e8e1ba"/>
  <path id="Fill-39" d="M.405.3l-.1.079L.39.29.405.3" transform="translate(18.808 3.267)" fill="#e8e1ba"/>
</svg>
