<svg id="news" xmlns="http://www.w3.org/2000/svg" width="35" height="35" viewBox="0 0 35 35">
  <rect id="Rectangle" width="35" height="35" fill="none"/>
  <g id="shape" transform="translate(5.242 5.199)">
    <path id="Path" d="M23.42,2.471C23.493-.159,20.325,0,20.325,0L5.291,0A2.467,2.467,0,0,0,3.1,2.376V15.869L0,15.86c0,.112,0,6.455.011,6.556.2,2.086,2.923,1.853,2.923,1.853l17.589.013c.979.091,1.608-1.077,1.608-1.726s0-20.065,0-20.065Z" transform="translate(0.537 0.31)" fill="#fefdef"/>
    <path id="Path-2" data-name="Path" d="M3.266.009,0,0C0,.112,0,6.455.013,6.556c.22,2.086,3.168,1.853,3.168,1.853h.085V.009Z" transform="translate(0.113 16.169)" fill="#f70031"/>
    <g id="Group" transform="translate(0)">
      <g id="Path-3" data-name="Path">
        <path id="Path-4" data-name="Path" d="M.311,23.654a.311.311,0,0,1,0-.622.158.158,0,0,0,.131-.046,1.2,1.2,0,0,0,.2-.868L.632,2.683A2.684,2.684,0,0,1,3.082.052L18.678,0a4.27,4.27,0,0,1,2.7.891,2.443,2.443,0,0,1,.7,1.9.311.311,0,0,1-.31.3l-11.867.02h0a.311.311,0,0,1,0-.622l11.557.045a1.924,1.924,0,0,0-.515-1.2A3.447,3.447,0,0,0,18.694.622L3.072.621A2.147,2.147,0,0,0,1.2,2.686L1.171,22.1A1.745,1.745,0,0,1,.9,23.409.779.779,0,0,1,.311,23.654Z" transform="translate(2.495)" fill="#161616"/>
        <path id="Path-5" data-name="Path" d="M21.482,22.4c-.045,0-.091,0-.136-.007L3.241,22.387C2.22,22.476.2,22.146.013,20.258,0,20.135,0,13.734,0,13.682a.311.311,0,0,1,.311-.3h0l3.068.008a.311.311,0,0,1,0,.622h0L.535,13.98c0,1.258-.023,5.934-.014,6.151.17,1.743,2.625,1.7,2.723,1.692l18.131-.045a.933.933,0,0,0,.742-.266,1.774,1.774,0,0,0,.551-1.144V.311a.311.311,0,0,1,.622,0V20.368a2.4,2.4,0,0,1-.754,1.6A1.552,1.552,0,0,1,21.482,22.4Z" transform="translate(0 2.489)" fill="#1f212b"/>
        <path id="Path-6" data-name="Path" d="M1.867.661H.311a.311.311,0,0,1,0-.622H1.867a.311.311,0,0,1,0,.622Z" transform="translate(8.98 2.45)" fill="#161616"/>
      </g>
      <g id="Path-7" data-name="Path" transform="translate(4.935 5.565)">
        <g id="Group-2" data-name="Group" transform="translate(0 1.867)">
          <path id="Path-8" data-name="Path" d="M5.756.972H.156C.07.972,0,.838,0,.673s.07-.3.156-.3h5.6c.086,0,.156.134.156.3S5.841.972,5.756.972Z" transform="translate(0 -0.374)" fill="#161616"/>
          <path id="Path-9" data-name="Path" d="M10.422.972H.156C.07.972,0,.838,0,.673s.07-.3.156-.3H10.422c.086,0,.156.134.156.3S10.508.972,10.422.972Z" transform="translate(6.533 -0.374)" fill="#161616"/>
        </g>
        <path id="Path-10" data-name="Path" d="M9.8.506H.156a.156.156,0,1,1,0-.311H9.8a.156.156,0,1,1,0,.311Z" transform="translate(7.156 4.507)" fill="#161616"/>
        <path id="Path-11" data-name="Path" d="M9.8.506H.156a.156.156,0,1,1,0-.311H9.8a.156.156,0,1,1,0,.311Z" transform="translate(7.156 6.685)" fill="#161616"/>
        <g id="Group-3" data-name="Group" transform="translate(0 4.08)">
          <path id="Path-12" data-name="Path" d="M5.289.933V4.978H0V0H4.356" transform="translate(0.156 0.156)" fill="#4a90e2"/>
          <path id="Path-13" data-name="Path" d="M5.444,5.289H.156A.156.156,0,0,1,0,5.133V.156A.156.156,0,0,1,.156,0H4.511a.156.156,0,0,1,0,.311H.311V4.978H5.289V1.089a.156.156,0,1,1,.311,0V5.133A.156.156,0,0,1,5.444,5.289Z" fill="#161616"/>
        </g>
        <path id="Path-14" data-name="Path" d="M9.8.506H.156a.156.156,0,1,1,0-.311H9.8a.156.156,0,1,1,0,.311Z" transform="translate(7.156 8.863)" fill="#161616"/>
        <g id="Group-4" data-name="Group">
          <path id="Path-15" data-name="Path" d="M4.511.972H.156C.07.972,0,.838,0,.673s.07-.3.156-.3H4.511c.086,0,.156.134.156.3S4.6.972,4.511.972Z" transform="translate(8.089 -0.374)" fill="#161616"/>
          <path id="Path-16" data-name="Path" d="M3.578.972H.156C.07.972,0,.838,0,.673s.07-.3.156-.3H3.578c.086,0,.156.134.156.3S3.664.972,3.578.972Z" transform="translate(13.378 -0.374)" fill="#161616"/>
          <path id="Path-17" data-name="Path" d="M7.311.972H.156C.07.972,0,.838,0,.673s.07-.3.156-.3H7.311c.086,0,.156.134.156.3S7.4.972,7.311.972Z" transform="translate(0 -0.374)" fill="#161616"/>
        </g>
        <path id="Path-18" data-name="Path" d="M9.8.506H.156a.156.156,0,0,1,0-.311H9.8a.156.156,0,1,1,0,.311Z" transform="translate(0 15.707)" fill="#161616"/>
        <path id="Path-19" data-name="Path" d="M9.8.506H.156a.156.156,0,0,1,0-.311H9.8a.156.156,0,1,1,0,.311Z" transform="translate(0 13.53)" fill="#161616"/>
        <g id="Group-5" data-name="Group" transform="translate(11.2 11.546)">
          <path id="Path-20" data-name="Path" d="M0,4.356V0H5.289V4.978H1.244" transform="translate(0.156 0.156)" fill="#4a90e2"/>
          <path id="Path-21" data-name="Path" d="M5.444,5.289H1.4a.156.156,0,1,1,0-.311H5.289V.311H.311v4.2a.156.156,0,0,1-.311,0V.156A.156.156,0,0,1,.156,0H5.444A.156.156,0,0,1,5.6.156V5.133A.156.156,0,0,1,5.444,5.289Z" fill="#161616"/>
        </g>
        <path id="Path-22" data-name="Path" d="M9.8.506H.156a.156.156,0,1,1,0-.311H9.8a.156.156,0,1,1,0,.311Z" transform="translate(0 11.352)" fill="#161616"/>
      </g>
    </g>
  </g>
</svg>
