<svg id="stars" xmlns="http://www.w3.org/2000/svg" width="31" height="31" viewBox="0 0 31 31">
  <rect id="Rectangle" width="31" height="31" fill="none"/>
  <g id="shape" transform="translate(2.209 2.48)">
    <g id="Group" transform="translate(0.35 0.35)">
      <path id="Path" d="M25.906,10.8l-5.6,5.568,1.322,7.862a1.111,1.111,0,0,1-.441,1.084.933.933,0,0,1-.126.077,1.041,1.041,0,0,1-.518.136,1.113,1.113,0,0,1-.511-.126l-6.743-3.613-.175-.094L6.209,25.4a1.1,1.1,0,0,1-1.165-.084l0,0a1.1,1.1,0,0,1-.434-1.081l1.312-7.806.01-.056L.329,10.8A1.1,1.1,0,0,1,.057,9.67v0a1.1,1.1,0,0,1,.885-.748L8.457,7.8l.21-.031L12.126.623A1.1,1.1,0,0,1,13.116,0a.957.957,0,0,1,.175.014,1.108,1.108,0,0,1,.815.612L17.47,7.582l.091.189,7.733,1.144a1.1,1.1,0,0,1,.885.752.082.082,0,0,1,.007.028A1.116,1.116,0,0,1,25.906,10.8Z" transform="translate(0 0)" fill="#fff"/>
      <path id="Path-2" data-name="Path" d="M4.624.014V14.266L0,7.771,3.459.623A1.1,1.1,0,0,1,4.449,0,.957.957,0,0,1,4.624.014Z" transform="translate(8.667 0)" fill="#f70031"/>
      <path id="Path-3" data-name="Path" d="M3.148,1.841l-.142-.088-.595.828.114.133L0,6.248,13.116,1.924a.082.082,0,0,0-.007-.028,1.1,1.1,0,0,0-.885-.752L4.491,0Z" transform="translate(13.07 7.771)" fill="#9b9b9b"/>
      <path id="Path-4" data-name="Path" d="M4.359,6.082,4.222,6.2l-.01.006.532.744h0l.144-.122.262.361-.137.116L5,7.315l.959,1.342h0l.175-.074,1.92,2.687.034.049a1.109,1.109,0,0,0,.413-1.061L7.183,2.4,0,0Z" transform="translate(13.123 13.976)" fill="#9b9b9b"/>
      <path id="Path-5" data-name="Path" d="M8.25,0V8.034l-.175-.094-6.907,3.7A1.1,1.1,0,0,1,0,11.559l0,0Z" transform="translate(5.04 13.759)" fill="#9b9b9b"/>
      <path id="Path-6" data-name="Path" d="M13.291,4.319,5.946,6.768l-.028-.01.01-.056L.329,1.133A1.1,1.1,0,0,1,.057,0L2.97.951,3.027.8l1.049.337-.057.16.355.116.051-.164.7.225-.055.165.7.227L5.825,1.7l.7.226-.066.169Z" transform="translate(0 9.67)" fill="#9b9b9b"/>
    </g>
    <g id="Group-2" data-name="Group">
      <path id="Path-7" data-name="Path" d="M.31,17.837a.175.175,0,0,1-.175-.175V.175a.175.175,0,0,1,.35,0V17.662A.175.175,0,0,1,.31,17.837Z" transform="translate(13.156 2.448)" fill="#161616"/>
      <path id="Path-8" data-name="Path" d="M.175,2.192a.175.175,0,0,1-.141-.278L1.378.072A.175.175,0,0,1,1.66.278L.316,2.12A.175.175,0,0,1,.175,2.192Z" transform="translate(16.393 7.946)" fill="#161616"/>
      <path id="Path-9" data-name="Path" d="M.175,14.877A.175.175,0,0,1,.033,14.6L10.411.073a.175.175,0,0,1,.285.2L.317,14.8A.175.175,0,0,1,.175,14.877Z" transform="translate(5.392 10.66)" fill="#161616"/>
      <path id="Path-10" data-name="Path" d="M8.994,12.653a.174.174,0,0,1-.142-.073L.033.277a.175.175,0,1,1,.284-.2l8.819,12.3a.174.174,0,0,1-.142.276Z" transform="translate(8.843 7.946)" fill="#161616"/>
      <path id="Path-11" data-name="Path" d="M.435.7A.174.174,0,0,1,.293.627L.042.276a.175.175,0,0,1,.285-.2L.578.424A.175.175,0,0,1,.435.7Z" transform="translate(18.178 20.984)" fill="#161616"/>
      <path id="Path-12" data-name="Path" d="M2.094,3.037a.175.175,0,0,1-.142-.073L.032.276a.175.175,0,1,1,.285-.2L2.237,2.761A.175.175,0,0,1,2.2,3,.178.178,0,0,1,2.094,3.037Z" transform="translate(19.438 22.734)" fill="#161616"/>
      <path id="Path-13" data-name="Path" d="M.175,7.056A.175.175,0,0,1,.12,6.715L20.463.009a.175.175,0,1,1,.109.332L.23,7.047A.167.167,0,0,1,.175,7.056Z" transform="translate(6.102 9.841)" fill="#161616"/>
      <path id="Path-14" data-name="Path" d="M14.011,4.965a.179.179,0,0,1-.055-.009L.12.341A.175.175,0,1,1,.23.009L14.066,4.624a.175.175,0,0,1-.056.341Z" transform="translate(6.646 11.932)" fill="#161616"/>
      <path id="Path-15" data-name="Path" d="M.874.6A.185.185,0,0,1,.821.589L.122.364A.175.175,0,0,1,.228.031l.7.225A.175.175,0,0,1,.874.6Z" transform="translate(5.247 11.46)" fill="#161616"/>
      <path id="Path-16" data-name="Path" d="M.524.541A.176.176,0,0,1,.471.533L.121.42A.175.175,0,1,1,.229.088L.578.2A.175.175,0,0,1,.524.541Z" transform="translate(4.198 11.067)" fill="#161616"/>
      <path id="Path-17" data-name="Path" d="M2.984,1.252a.178.178,0,0,1-.054-.008L.121.341A.174.174,0,0,1,.009.121.173.173,0,0,1,.229.009l2.809.9a.175.175,0,0,1-.054.341Z" transform="translate(0.339 9.906)" fill="#161616"/>
      <path id="Shape-2" data-name="Shape" d="M20.893,26.231a1.468,1.468,0,0,1-.669-.162l-6.757-3.625L6.724,26.06a1.545,1.545,0,0,1-.692.168,1.411,1.411,0,0,1-.848-.279,1.456,1.456,0,0,1-.572-1.426L5.9,16.843.432,11.4A1.449,1.449,0,0,1,0,10.361a1.471,1.471,0,0,1,.072-.449A1.449,1.449,0,0,1,1.24,8.923L8.784,7.8,12.161.821a1.446,1.446,0,0,1,2.609,0L18.146,7.8l7.548,1.117a1.45,1.45,0,0,1,1.166.99l0,.006A1.476,1.476,0,0,1,26.5,11.4l-5.47,5.44,1.291,7.682a1.456,1.456,0,0,1-1.429,1.706ZM13.467.7a.754.754,0,0,0-.677.428L9.333,8.274a.354.354,0,0,1-.264.193L1.341,9.615a.748.748,0,0,0-.6.51.762.762,0,0,0,.187.781l5.6,5.568a.351.351,0,0,1,.1.306L5.3,24.641a.76.76,0,0,0,.3.745.72.72,0,0,0,.435.145A.811.811,0,0,0,6.4,25.44l6.9-3.7a.355.355,0,0,1,.167-.041.345.345,0,0,1,.165.041l6.917,3.709a.755.755,0,0,0,1.084-.805L20.311,16.78a.35.35,0,0,1,.1-.306l5.6-5.567a.778.778,0,0,0,.187-.783.755.755,0,0,0-.6-.514L17.86,8.466a.353.353,0,0,1-.264-.193L14.138,1.127A.748.748,0,0,0,13.467.7Z" fill="#161616"/>
    </g>
  </g>
</svg>
