<svg xmlns="http://www.w3.org/2000/svg" width="22.286" height="24" viewBox="0 0 22.286 24">
  <g id="shape" transform="translate(22.286 24) rotate(180)">
    <path id="Path" d="M3.438,6.171a1.987,1.987,0,0,1-.947-.056c-.171-.1-.287-.33-.476-.724-.047-.1-.094-.206-.15-.321C1.66,4.663.275,1.843.1,1.32A1.042,1.042,0,0,1,.468,0C1.437,2.087,2.821,4.92,3.438,6.171Z" transform="translate(13.606 16.95)" fill="#8bc0ff"/>
    <path id="Path-2" data-name="Path" d="M20.52,17.109a4.839,4.839,0,0,1-.129,1.093c-.309,1.461-1.376,3.24-2.623,3.686a7.055,7.055,0,0,1-.754.223c-.553-1.131-2.126-4.329-3.141-6.527a14.23,14.23,0,0,0,1.256-.986,1.215,1.215,0,0,0,.214-1.333l-.073-.18a13.662,13.662,0,0,0-2.636-4.243A16.743,16.743,0,0,0,8.867,5.786a.921.921,0,0,0-.471-.15A1.142,1.142,0,0,0,7.676,6c-.124.1-.231.2-.339.3-.994-.433-3.574-1.5-5.37-2.246L0,3.231a2.347,2.347,0,0,1,.609-1.3l.06-.056A5.916,5.916,0,0,1,5.147,0a10.311,10.311,0,0,1,5.6,2.211l.013,0a.536.536,0,0,0,.107.077l.073.056A22.223,22.223,0,0,1,18.99,11.6,16.137,16.137,0,0,1,20.52,17.109Z" transform="translate(0.909 0.857)" fill="#8bc0ff"/>
    <path id="Path-3" data-name="Path" d="M18.849,11.6A22.223,22.223,0,0,0,10.8,2.349l-.073-.056a.536.536,0,0,1-.107-.077l-.013,0A10.311,10.311,0,0,0,5.006,0,5.916,5.916,0,0,0,.527,1.873l-.06.056A2.019,2.019,0,0,0,0,2.691a15.42,15.42,0,0,1,1.95-.12A15.733,15.733,0,0,1,9.561,4.517.423.423,0,0,1,10.02,4.5a11.472,11.472,0,0,1,.99.673.428.428,0,0,1,.171.343v.026c.317.227.626.463.921.716a.427.427,0,0,1,.364.1,19.47,19.47,0,0,1,1.521,1.5,17.108,17.108,0,0,1,2.486,3.519.459.459,0,0,1,.047.2.438.438,0,0,1-.129.309,15.753,15.753,0,0,1,1.414,6.549,15.983,15.983,0,0,1-.394,3.531c.073-.021.141-.047.214-.073,1.247-.446,2.314-2.224,2.623-3.686a4.839,4.839,0,0,0,.129-1.093A16.137,16.137,0,0,0,18.849,11.6Z" transform="translate(1.05 0.857)" fill="#4a90e2"/>
    <path id="Path-4" data-name="Path" d="M6.686,2.794a2.66,2.66,0,0,1-.724.493,1.123,1.123,0,0,1-.99-.077c-.214-.1-1.834-.78-2.9-1.217L.93,1.513A1.652,1.652,0,0,1,.15.986,1.229,1.229,0,0,1,.013.334l0-.116C0,.15,0,.073,0,0L1.68.707C3.411,1.419,5.576,2.323,6.686,2.794Z" transform="translate(0.866 5.001)" fill="#8bc0ff"/>
    <path id="Combined_Shape" data-name="Combined Shape" d="M15.669,23.807a2.211,2.211,0,0,1-.819-1.092l0-.009c-.033-.074-.084-.185-.146-.305-.015-.031-1.589-3.213-1.808-3.844A1.892,1.892,0,0,1,13.6,16.23L13.924,16a17.931,17.931,0,0,0,1.526-1.175.4.4,0,0,0,0-.385l-.068-.176,0-.01A13.01,13.01,0,0,0,12.9,10.265,15.77,15.77,0,0,0,9.338,7.38l-.014-.01a2.305,2.305,0,0,0-.187.147c-.13.108-.248.215-.385.347l-.1.09c-.14.136-.274.26-.407.377l-.073.06a3.642,3.642,0,0,1-.964.664,1.619,1.619,0,0,1-.752.181,2.332,2.332,0,0,1-.973-.242l-.007,0c-.167-.084-1.561-.669-2.867-1.2l-1.148-.48a2.408,2.408,0,0,1-1.17-.866A2.007,2.007,0,0,1,.022,5.37l0-.112V5.241C.008,5.072,0,4.9,0,4.7A3.553,3.553,0,0,1,.926,2.164l.055-.051A6.7,6.7,0,0,1,6.056,0a11.1,11.1,0,0,1,6.1,2.374l.185.129a23.128,23.128,0,0,1,8.352,9.63,16.666,16.666,0,0,1,1.595,5.833,5.808,5.808,0,0,1-.146,1.268,7.451,7.451,0,0,1-1.119,2.585,4.414,4.414,0,0,1-2.057,1.735A7.421,7.421,0,0,1,16.637,24,1.937,1.937,0,0,1,15.669,23.807ZM13.7,18.27c.179.519,1.562,3.338,1.769,3.75.033.069.065.136.094.2l.057.122c.2.409.306.626.476.725a1.179,1.179,0,0,0,.516.079,4.164,4.164,0,0,0,.431-.024c-.841-1.7-2.123-4.345-2.97-6.171A1.04,1.04,0,0,0,13.7,18.27ZM9.776,6.643A16.736,16.736,0,0,1,13.543,9.7a13.591,13.591,0,0,1,2.635,4.243l.073.18a1.214,1.214,0,0,1-.214,1.333,14.4,14.4,0,0,1-1.255.986c.892,1.932,2.2,4.6,2.9,6.03l.243.5a6.922,6.922,0,0,0,.754-.223c1.249-.446,2.315-2.224,2.624-3.685a4.844,4.844,0,0,0,.129-1.093,16.131,16.131,0,0,0-1.53-5.507,22.221,22.221,0,0,0-8.053-9.253l-.073-.056a.525.525,0,0,1-.107-.077l-.013,0A10.309,10.309,0,0,0,6.056.857,5.9,5.9,0,0,0,1.577,2.73l-.059.056a2.356,2.356,0,0,0-.608,1.3l1.966.827c1.245.514,4.261,1.762,5.37,2.246l.023-.021c.1-.09.2-.184.316-.279a1.142,1.142,0,0,1,.72-.369A.927.927,0,0,1,9.776,6.643ZM.87,5.122c0,.034,0,.068,0,.1l0,.116a1.228,1.228,0,0,0,.138.651,1.646,1.646,0,0,0,.779.527l1.145.48c1.014.418,2.678,1.112,2.9,1.218a1.451,1.451,0,0,0,.615.166.815.815,0,0,0,.375-.088A2.672,2.672,0,0,0,7.551,7.8c-1.025-.436-3.178-1.337-5-2.087L.866,5C.868,5.041.869,5.082.87,5.122Zm11.374,8.772a.429.429,0,0,1,.129-.592l.72-.465a.429.429,0,1,1,.464.721l-.72.464a.429.429,0,0,1-.593-.128Zm-1.276-1.679a.429.429,0,0,1,.039-.6l.644-.566a.428.428,0,1,1,.565.643l-.644.566a.428.428,0,0,1-.6-.039ZM9.452,10.769a.428.428,0,0,1-.06-.6L9.933,9.5a.429.429,0,1,1,.664.542l-.543.664a.428.428,0,0,1-.6.06Z" fill="#161616"/>
  </g>
</svg>
