<svg id="flag_black" data-name="flag black" xmlns="http://www.w3.org/2000/svg" width="20" height="33" viewBox="0 0 20 33">
  <g id="icon_-_flag_copy_6" data-name="icon - flag copy 6">
    <g id="Group">
      <rect id="Rectangle" width="2" height="32" fill="#4a4a4a"/>
      <path id="Shape" d="M0,32.666V0H2V32.666Z" fill="#161616"/>
    </g>
    <g id="Group-2" data-name="Group" transform="translate(0 0.667)">
      <path id="Path" d="M14.722,14.1a18.655,18.655,0,0,1-4.731-.847,18.563,18.563,0,0,0-4.713-.845A28.775,28.775,0,0,0,0,13.451V1.059A27.323,27.323,0,0,1,5.107,0,18.878,18.878,0,0,1,9.764.826a20.03,20.03,0,0,0,4.958.866A16.158,16.158,0,0,0,19.444.685V13.06A16.321,16.321,0,0,1,14.722,14.1Z" transform="translate(0.278 0.282)" fill="#9b9b9b"/>
      <path id="Shape-2" data-name="Shape" d="M5.556,12.974A32.525,32.525,0,0,0,0,14.1V1.129A29.657,29.657,0,0,1,5.385,0C8.478,0,11.8,1.692,15,1.692A17.221,17.221,0,0,0,20,.564V13.539a17.221,17.221,0,0,1-5,1.128C11.8,14.666,8.649,12.974,5.556,12.974Z" fill="#292929"/>
    </g>
  </g>
</svg>
