<svg xmlns="http://www.w3.org/2000/svg" width="26.877" height="26.882" viewBox="0 0 26.877 26.882">
  <g id="flowers" transform="translate(-0.001)">
    <path id="Shape" d="M13.814,26.882a1.554,1.554,0,0,1-.938-.305c-.123-.09-.122-.275-.122-.424,0-.032,0-.062,0-.09l-.006-.111c-.011-.2-.02-.363-.025-.537v-.021c-.024-.483-.048-.982-.023-1.475,0-.034,0-.07,0-.106,0-.09.007-.192.02-.293a2.779,2.779,0,0,1-.8-1.078c-.1-.187-.192-.362-.294-.519a2.348,2.348,0,0,0-.116.6c-.005.054-.01.109-.014.164l0,.036a4.442,4.442,0,0,1-.111.781.383.383,0,0,1-.338.282.272.272,0,0,1-.141-.04c-.1-.059-.2-.129-.293-.189a3.741,3.741,0,0,0-.5-.3.7.7,0,0,0-.289-.1c-.1,0-.177.064-.256.213-.252.48-.52.912-1.018.912a1,1,0,0,1-.227-.028,2.106,2.106,0,0,1-.792-.465l-.055-.044a3.628,3.628,0,0,0-.841-.484c-.65-.282-1.25-.592-1.449-1.277-.024-.085-.046-.172-.066-.256l0-.014a2.092,2.092,0,0,0-.335-.831c-.185-.244-.4-.473-.6-.694-.083-.09-.162-.176-.24-.263a8.673,8.673,0,0,0-.908-.914c-.074-.061-.153-.119-.241-.183a2.976,2.976,0,0,1-.434-.361,1.218,1.218,0,0,1-.364-.884.965.965,0,0,1,.358-.684,1.747,1.747,0,0,1,.59-.315.028.028,0,0,0-.01-.006l-.009-.005a4.05,4.05,0,0,1-1.159-.836,2.762,2.762,0,0,1-.546-1c-.016-.056-.029-.115-.041-.167a1.727,1.727,0,0,0-.112-.365A4.922,4.922,0,0,0,.8,13.737l-.039-.066A4.532,4.532,0,0,1,0,11.255,6.078,6.078,0,0,1,.565,8.749,2.146,2.146,0,0,0,.829,7.544,4.554,4.554,0,0,1,.835,6.291,2.557,2.557,0,0,1,1.946,4.475a2.689,2.689,0,0,1,.982-.363l.11-.014c.247-.03.555-.068.689-.283a.343.343,0,0,1,.3-.17.4.4,0,0,1,.212.061A5.6,5.6,0,0,1,7.732,2.4q.083,0,.166,0H7.9A4.443,4.443,0,0,1,9.332,1.346l0,0c.23-.127.447-.248.635-.374l.054-.036A4.726,4.726,0,0,1,11.966.025,2.777,2.777,0,0,1,12.337,0a2.467,2.467,0,0,1,1.39.419,5.318,5.318,0,0,1,.95.9l0,.005c.108.121.22.247.334.366A3.556,3.556,0,0,1,16.322,1.4a2.381,2.381,0,0,1,.707.106c.21.065.421.137.624.207a8.8,8.8,0,0,0,1.494.417A5.162,5.162,0,0,1,21.773,3.18,1.716,1.716,0,0,1,22.4,4.311a7.615,7.615,0,0,0,1.169.3c1.034.207,2.1.421,2.408,1.639a4.878,4.878,0,0,1,.024,1.725,8.67,8.67,0,0,0-.067.969,5.009,5.009,0,0,0,.506,1.878c.067.161.143.344.212.526a2.28,2.28,0,0,1-.037,2.046,4.468,4.468,0,0,1-.716.857,3.982,3.982,0,0,0-.781.977,5.314,5.314,0,0,0-.226.562l0,.006c-.056.155-.114.315-.182.468a5.592,5.592,0,0,1-.461.823,3.7,3.7,0,0,1-.834.878,1.257,1.257,0,0,1,.184.333.336.336,0,0,1-.2.429,2.195,2.195,0,0,0-.7.623l-.064.076-.008.009a3.964,3.964,0,0,1-.853.739,9.984,9.984,0,0,1-1.5.746l-.25.107a2.185,2.185,0,0,0-1.283,1.1,1.369,1.369,0,0,1-1.319.945c-.093,0-.191.005-.3.005-.161,0-.322,0-.478-.007h-.043c-.147,0-.3-.007-.449-.007a4.982,4.982,0,0,0-.922.07,3.167,3.167,0,0,0-.331.073v2.972a.4.4,0,0,1-.012.086.294.294,0,0,1-.135.338A1.735,1.735,0,0,1,13.814,26.882Zm.4-3.459-.008,0a.027.027,0,0,1-.01,0l-.066.024a2.974,2.974,0,0,1-.756.205,1.864,1.864,0,0,0-.018.255c-.007.353-.005.65.006.932.005.122.011.244.018.367l0,.069c.015.282.03.574.034.86a.825.825,0,0,0,.368.081,1.109,1.109,0,0,0,.436-.093h-.007V23.423ZM3.873,17.031h0l-.106.018c-.392.066-.877.148-1.078.435-.236.337.248.676.6.923a2.8,2.8,0,0,1,.233.173,15.927,15.927,0,0,1,1.584,1.67,2.375,2.375,0,0,1,.539.939c.018.068.034.142.052.23a1.508,1.508,0,0,0,.243.66,2.509,2.509,0,0,0,.977.595,4.2,4.2,0,0,1,.643.313,2.443,2.443,0,0,1,.227.179c.22.187.493.418.713.418a.281.281,0,0,0,.25-.161c.029-.051.058-.108.089-.168.184-.354.413-.8.834-.8H9.7a2.114,2.114,0,0,1,1.093.424c.012-.089.022-.181.032-.269a2.13,2.13,0,0,1,.595-1.529.289.289,0,0,1,.188-.061.32.32,0,0,1,.222.08,3.918,3.918,0,0,1,.609.887l.006.01c.059.105.12.214.183.319l.044.073,0,.008a1.766,1.766,0,0,0,.386.5.4.4,0,0,0,.074.049h.028a.3.3,0,0,1,.156.044.99.99,0,0,0,.307-.067l.166-.057.057-.02a6.526,6.526,0,0,1,1.759-.432c.1-.005.2-.008.315-.008.164,0,.326.005.506.012s.348.013.519.013a4.374,4.374,0,0,0,.587-.034c.349-.048.447-.231.59-.551a2.183,2.183,0,0,1,.417-.66,4.12,4.12,0,0,1,1.479-.884,6.466,6.466,0,0,0,1.707-.921,5.063,5.063,0,0,0,.523-.519,4.484,4.484,0,0,1,.539-.528.024.024,0,0,0-.019-.006,3.618,3.618,0,0,1-1.422.288,3.43,3.43,0,0,1-.633-.058,4.562,4.562,0,0,1-.47-.126,2.857,2.857,0,0,0-.8-.165h-.049a4.019,4.019,0,0,0-.955.2l-.211.061a.447.447,0,0,1-.1.013.3.3,0,0,1-.091-.013,4.078,4.078,0,0,1-2.173.968,7.863,7.863,0,0,1-1.216.083c-.374,0-.751-.017-1.115-.034l-.142-.006c-.3-.015-.6-.016-.9-.018h-.006a11.022,11.022,0,0,1-1.7-.1A10.4,10.4,0,0,1,8.339,18.7l-.205-.088a12.092,12.092,0,0,1-2.047-1.032,3.934,3.934,0,0,1-.472-.369,1.008,1.008,0,0,1-.518.128,2.241,2.241,0,0,1-.624-.1C4.244,17.167,4.047,17.1,3.873,17.031Zm9.785,1.48a.288.288,0,0,1,.232.1.358.358,0,0,1,.064.3c.175.007.326.012.46.012h.117a5.414,5.414,0,0,0,2.3-.4,2.21,2.21,0,0,0,1.337-1.677c.041-.192.074-.388.107-.578l0-.011a7.436,7.436,0,0,1,.285-1.233,4.613,4.613,0,0,0-.393.291c-.17.139-.335.29-.494.435l-.006.006a6.319,6.319,0,0,1-.979.782,3.3,3.3,0,0,1-1.738.48l-.134,0a3.221,3.221,0,0,1-1.975-.672,5.877,5.877,0,0,1-1.057-1.268l-.023-.033a.3.3,0,0,1-.135-.2.008.008,0,0,0,0-.006.008.008,0,0,1,0-.006.293.293,0,0,1-.049-.121c-.151-.007-.32-.01-.515-.01-.267,0-.539.007-.8.014l-.346.008h-.18a6.766,6.766,0,0,1-2.5-.4,7.067,7.067,0,0,1-1.823-1.163l-.251-.2-.143-.112-.037-.029c-.191-.148-.407-.316-.624-.507a8.877,8.877,0,0,0-.565,1c-.04.082-.083.163-.125.244a5.113,5.113,0,0,0-.3.658.665.665,0,0,0-.015.538.656.656,0,0,0,.444.292l.136.036.025.006a2.6,2.6,0,0,1,1.447.726l.028.039.02.028h.019a4.288,4.288,0,0,1,1.32.288l.116.038a2.555,2.555,0,0,0,.817.12c.1,0,.2,0,.33-.011l.244-.018c.211-.017.428-.035.649-.035a1.562,1.562,0,0,1,1.188.38,1.672,1.672,0,0,1,.254.392,1.346,1.346,0,0,0,.317.449.986.986,0,0,0,.658.176l.144,0,.147,0a1.493,1.493,0,0,1,.382.04,3.451,3.451,0,0,1,.9.441c.037.023.084.054.136.09a1.634,1.634,0,0,0,.539.287h.013ZM5.971,16.619a.538.538,0,0,0,.055.057l.031.029a4.055,4.055,0,0,0,.865.593,11.286,11.286,0,0,0,4.947,1.556c.34,0,.657.006.969.018l-.165-.106a3.028,3.028,0,0,0-.737-.391,1.081,1.081,0,0,0-.318-.036H11.39c-.032,0-.062,0-.092,0a2,2,0,0,1-.675-.115,1.556,1.556,0,0,1-.755-.757.747.747,0,0,0-.688-.5c-.092-.007-.187-.011-.292-.011-.192,0-.386.012-.574.024l-.287.017c-.16.01-.281.015-.394.015a2.485,2.485,0,0,1-.748-.1c-.118-.036-.241-.078-.349-.116A5.644,5.644,0,0,0,5.971,16.619Zm13.341.986a3.492,3.492,0,0,1,.882.149l.235.059a4,4,0,0,0,.97.126,2.758,2.758,0,0,0,1.22-.266,2.964,2.964,0,0,0,1.264-1.266,6.817,6.817,0,0,0,.348-.79,4.569,4.569,0,0,1,.566-1.128,7.224,7.224,0,0,1,.534-.611c.087-.093.185-.2.276-.3l.042-.046a1.766,1.766,0,0,0,.541-.875,3.03,3.03,0,0,0-.415-1.707c-.08-.175-.155-.34-.218-.5a4.191,4.191,0,0,1-.294-1.229,7.444,7.444,0,0,1,.062-1.1l.006-.058c0-.039.008-.078.012-.118l.011-.107c.071-.659.167-1.561-.362-2.03a2.808,2.808,0,0,0-1.448-.545l-.123-.023a9.32,9.32,0,0,1-1.117-.255c-.058.192-.137.381-.213.563a3.272,3.272,0,0,0-.309,1.072c-.006.121,0,.244,0,.363,0,.092,0,.2,0,.3a.03.03,0,0,0,.01.006.037.037,0,0,1,.01.006,3.552,3.552,0,0,1,1.221,1.883,3.98,3.98,0,0,1,.135,1.906c-.356,1.571-1.786,2.348-3.168,3.1-.28.152-.57.31-.845.472a.316.316,0,0,1,.129.411,5.243,5.243,0,0,0-.325,1.313,5.22,5.22,0,0,1-.332,1.333,2.6,2.6,0,0,1,.614-.109ZM3.007,6.5h0a3.126,3.126,0,0,0-.386,1.949q.007.079.015.159a4.673,4.673,0,0,1,.016,1.106,3.767,3.767,0,0,1-.282.878c-.057.131-.116.262-.176.393a9.95,9.95,0,0,0-.48,1.193c-.135.44-.318,1.042.018,1.441a.291.291,0,0,1,.078.218.3.3,0,0,1-.12.206,2.494,2.494,0,0,1,.1.284,2.267,2.267,0,0,0,.982,1.386,8.825,8.825,0,0,0,1.24.648.317.317,0,0,1,.1.042.254.254,0,0,0,.068.031,3.6,3.6,0,0,0,.749.218,1.106,1.106,0,0,0,.18.02l.041,0-.055-.089,0,0a1.6,1.6,0,0,0-.384-.481,2.356,2.356,0,0,0-.835-.329,2.332,2.332,0,0,1-.859-.343,1.174,1.174,0,0,1-.294-1.417A8.944,8.944,0,0,1,3.86,11.86l.013-.012c-.556-.646-.639-1.207-.252-1.714A4.419,4.419,0,0,1,4.812,9.1L4.77,9.075c-.053-.034-.107-.069-.161-.108A3.915,3.915,0,0,1,3.185,7.211,3.186,3.186,0,0,1,3.007,6.5Zm19.306,2.61h0a4.609,4.609,0,0,0,.006.969,1.83,1.83,0,0,1-.27,1.308A4.225,4.225,0,0,1,19.772,12.7l-.307.1-.009,0c-.321.1-.652.2-.967.336a1.48,1.48,0,0,0-.878.871c-.058.144-.11.292-.16.435a3.971,3.971,0,0,1-.5,1.079c.016-.012.032-.026.048-.04l.009-.008.036-.031.206-.182.024-.022a8.526,8.526,0,0,1,1.132-.9c.366-.23.748-.443,1.118-.649l.386-.216.1-.059a5.17,5.17,0,0,0,2.363-2.061A3.016,3.016,0,0,0,22.313,9.112ZM11.119,14.031a7.5,7.5,0,0,1,1.148.075,8.047,8.047,0,0,1,.894.209,7.428,7.428,0,0,0,.978.221,2.009,2.009,0,0,0,.265.018,1.1,1.1,0,0,0,.837-.3.722.722,0,0,0,.156-.591c-.014-.114-.035-.23-.055-.333a2.24,2.24,0,0,1-.055-.744,4.479,4.479,0,0,1,.281-1.023h-.01c-.157,0-.317-.007-.475-.007-.13,0-.246,0-.355.007a4.5,4.5,0,0,0-.81.073,1.207,1.207,0,0,0-.239.072.272.272,0,0,0-.044.032c-.014.011-.022.018-.025.018s0,0,.013-.031a.349.349,0,0,1-.306.171l-.037,0a.305.305,0,0,1-.111.024c-.035,0-.068,0-.1,0a.883.883,0,0,1-.826-.47c-.041-.075-.075-.158-.106-.23a1.743,1.743,0,0,0-.164-.327.33.33,0,0,1-.178-.127A.349.349,0,0,0,11.5,10.6a1.006,1.006,0,0,0-.452.177L11,10.807l-.079.046-.039.022a2.718,2.718,0,0,1-.975.4,1.588,1.588,0,0,1-.168.009,1.868,1.868,0,0,1-.918-.264,5.193,5.193,0,0,1-.73-.523,3.1,3.1,0,0,0-1.276-.73c-.337-.07-.64-.135-.939-.224a.379.379,0,0,1-.244.1.308.308,0,0,1-.2-.071.207.207,0,0,0-.068.018,2.053,2.053,0,0,0-.306.151,2.549,2.549,0,0,0-1,.926c-.173.406.611,1.047.946,1.321l.029.024c.135.11.273.226.407.338l.014.012a10.155,10.155,0,0,0,1.414,1.054,5.192,5.192,0,0,0,2.639.648c.266,0,.538-.008.8-.016S10.849,14.031,11.119,14.031ZM3.376,4.712h0c-.069.014-.138.026-.208.039a2.389,2.389,0,0,0-.847.263,2.215,2.215,0,0,0-.871,2.034c0,.073.01.147.015.22l0,.028A3.03,3.03,0,0,1,1.43,8.313a4.544,4.544,0,0,1-.241.637c-.065.15-.133.3-.188.465a4.583,4.583,0,0,0-.252,2.622,4.327,4.327,0,0,0,.178.49,1.651,1.651,0,0,1,.039-.173l0-.008c.005-.02.01-.041.015-.061a11.681,11.681,0,0,1,.624-1.636l.1-.228A2.525,2.525,0,0,0,2,9.373c0-.215-.02-.432-.04-.642v-.01a6.155,6.155,0,0,1-.04-.74A3.554,3.554,0,0,1,2.756,5.7.306.306,0,0,1,3,5.58l.041,0a2.784,2.784,0,0,1,.337-.871ZM15.431,3.295a.067.067,0,0,0-.052.018.805.805,0,0,0-.178.417c-.034.147-.059.3-.084.451v.005a4.119,4.119,0,0,1-.2.852,3.539,3.539,0,0,1-.374.657c-.047.07-.1.149-.148.227-.186.293-.409.642-.656,1a11.29,11.29,0,0,1-.749.968l-.054.06a5.532,5.532,0,0,0-.486.593c-.163.249-.659,1.005-.283,1.483a.288.288,0,0,1,.068.176,1.58,1.58,0,0,1,.522.745l.015.038c.07.176.109.272.294.272l.046,0h.067a1.651,1.651,0,0,1,.995-.333.333.333,0,0,1-.061-.351,3.475,3.475,0,0,1,1.773-1.6,2.81,2.81,0,0,1,.559-.224.327.327,0,0,1,.066-.169A2.9,2.9,0,0,0,16.9,6.636l-.011-.175a8.1,8.1,0,0,0-.2-1.6c-.01-.031-.019-.062-.028-.094-.018-.062-.038-.131-.063-.2a.382.382,0,0,1-.122-.3,1.886,1.886,0,0,0-.749-.859A.833.833,0,0,0,15.431,3.295ZM14.995,10.9c.284,0,.572.012.825.023h.01c.284.012.563.023.844.023h.086a3.46,3.46,0,0,0,2-.606,8.243,8.243,0,0,0,1.528-1.526c.049-.06.1-.119.148-.179a3.43,3.43,0,0,0,.551-.8,1.949,1.949,0,0,0,.135-.853,3.25,3.25,0,0,1,.166-1.181c.048-.138.107-.279.16-.4l0-.006a4.22,4.22,0,0,0,.219-.6c.012-.056.024-.116.031-.17a.331.331,0,0,1,.006-.218,1.079,1.079,0,0,0-.528-.835,4.508,4.508,0,0,0-1.522-.648c-.234-.059-.472-.109-.7-.157a10.08,10.08,0,0,1-1.311-.339c-.09-.032-.18-.067-.275-.1l-.01,0a2.95,2.95,0,0,0-1.037-.271c-.032,0-.064,0-.1,0a2.876,2.876,0,0,0-.645.133,2.151,2.151,0,0,0,.527.266.28.28,0,0,1,.192.185.34.34,0,0,1-.075.3,1.882,1.882,0,0,1,.209.169,2.955,2.955,0,0,1,.632.859l.128,0a1.813,1.813,0,0,1,.878.184,3.194,3.194,0,0,1,.816.691c.053.056.106.112.16.168a2.844,2.844,0,0,1,.81,1.175,1.83,1.83,0,0,1-.24,1.363,3.4,3.4,0,0,1-1.067,1.2,4,4,0,0,1-1.454.526,4.191,4.191,0,0,0-1.472.624,2.111,2.111,0,0,0-.908.963.259.259,0,0,1-.017.038l.047,0Q14.871,10.9,14.995,10.9ZM7.622,3.071A4.888,4.888,0,0,0,4.5,4.366,2.506,2.506,0,0,0,3.658,5.9a2.675,2.675,0,0,0,.761,2A3.734,3.734,0,0,0,6.45,9.015l.212.038a3.129,3.129,0,0,1,.953.27,5.768,5.768,0,0,1,.873.63l.029.024.05.042a2.434,2.434,0,0,0,.95.575.915.915,0,0,0,.188.019,1.4,1.4,0,0,0,.677-.219,2.145,2.145,0,0,1-1.006-.3,4.052,4.052,0,0,1-.925-.845l-.008-.009c-.08-.09-.162-.182-.245-.271-.462-.5-.945-.962-1.4-1.392-.093-.087-.19-.175-.284-.26L6.5,7.3a6.356,6.356,0,0,1-.863-.885,1.84,1.84,0,0,1,.031-2.47,3.649,3.649,0,0,1,1.656-.739l.3-.078a.134.134,0,0,1,0-.023V3.1A.2.2,0,0,0,7.622,3.071Zm3.049,6.357a.292.292,0,0,1,.27.151.269.269,0,0,1,.159.26l.006.169a2.169,2.169,0,0,1,.27-.073,1.265,1.265,0,0,1-.031-.339,3.187,3.187,0,0,1,.8-1.78,18.477,18.477,0,0,0,1.571-2.088c.051-.081.1-.159.168-.254a3.2,3.2,0,0,0,.427-.77,3.3,3.3,0,0,0,.1-.481l0-.027c.007-.041.013-.082.021-.122l.01-.063c.016-.1.031-.192.051-.287-.008.017-.014.034-.02.049s-.018.045-.029.067A1.707,1.707,0,0,1,12.82,4.7a2.955,2.955,0,0,1-.406-.029,2.067,2.067,0,0,1-1.178-.52,6.073,6.073,0,0,1-.553-.575,1.032,1.032,0,0,0-.086-.1V3.49a1.985,1.985,0,0,1-.03.265,4.215,4.215,0,0,1-.351.866c-.029.059-.058.117-.086.175a5.136,5.136,0,0,0-.442,1.912,3.277,3.277,0,0,0,.737,2.8A.4.4,0,0,1,10.671,9.427ZM7.745,3.773h0l-.213.053A3.318,3.318,0,0,0,6.15,4.39a.889.889,0,0,0-.32.661,1.857,1.857,0,0,0,.59,1.258c.3.3.615.6.918.882l0,0c.431.405.877.824,1.286,1.263.095.1.189.208.272.3a5.252,5.252,0,0,0,.544.563A4.747,4.747,0,0,1,9.015,6.89a8.539,8.539,0,0,1,.122-1.247.346.346,0,0,1-.2-.338c.02-.308-.276-.569-.514-.778-.053-.047-.1-.089-.143-.13a2.789,2.789,0,0,1-.534-.624Zm9.573.859h0l.013.059.006.027c.011.05.023.1.035.149a10.106,10.106,0,0,1,.209,2.058,3.873,3.873,0,0,1-.276,1.6,2.415,2.415,0,0,0,1.228-.642,2.234,2.234,0,0,0,.7-1.229,1.381,1.381,0,0,0-.5-1.017c-.078-.081-.158-.173-.228-.254a2.554,2.554,0,0,0-.661-.606A1.26,1.26,0,0,0,17.318,4.632ZM12.339.657a1.789,1.789,0,0,0-.311.028,4.3,4.3,0,0,0-1.638.8l-.056.038-.153.1c-.092.061-.24.139-.411.228-.544.285-1.364.715-1.489,1.2a.522.522,0,0,0,.084.432,3.794,3.794,0,0,0,.528.589,3.025,3.025,0,0,1,.546.634c.046-.1.1-.192.149-.294a2.963,2.963,0,0,0,.341-.844,3.062,3.062,0,0,0,.033-.345,1.6,1.6,0,0,1,.121-.63.316.316,0,0,1,.289-.182.374.374,0,0,1,.171.042.329.329,0,0,1,.17-.048.35.35,0,0,1,.125.024,1.791,1.791,0,0,0,.626.1,4.835,4.835,0,0,0,.793-.089,4.934,4.934,0,0,1,.808-.09,2.018,2.018,0,0,1,.4.038c.581.115,1.14.528,1.085,1.1a1.285,1.285,0,0,1,.406-.7.643.643,0,0,1,.184-.11,2.879,2.879,0,0,1-.3-.254.345.345,0,0,1-.325-.327c-.068-.074-.135-.149-.2-.224L14.3,1.873a6.667,6.667,0,0,0-.733-.74A1.917,1.917,0,0,0,12.339.657ZM11.23,3.2a3.3,3.3,0,0,0,.675.624,1.846,1.846,0,0,0,.937.235,1.161,1.161,0,0,0,.9-.332c.121-.153.155-.287.1-.4-.119-.245-.617-.31-.864-.31h-.023a3.391,3.391,0,0,0-.659.1,4.734,4.734,0,0,1-.47.085,2.292,2.292,0,0,1-.278.016C11.45,3.214,11.347,3.208,11.23,3.2Z" fill="#161616"/>
    <path id="Path" d="M9.2,1.193c.018-.291.147-.63.025-.9A.275.275,0,0,1,9.229.03L9.2,0a2.991,2.991,0,0,1-.313.563,11.039,11.039,0,0,1-1.46,1.7A4.7,4.7,0,0,1,5.664,3.384a4.991,4.991,0,0,1-1.743.182H3.866a.441.441,0,0,1-.025.085,2.344,2.344,0,0,0-.282,1.344,2.615,2.615,0,0,1,.074,1.15A1.575,1.575,0,0,1,2.013,7.2a10.744,10.744,0,0,1-1.9-.406L0,6.774a3.962,3.962,0,0,0,.988,1.12,2.707,2.707,0,0,0,1.436.442A.327.327,0,0,1,2.6,8.179a3.094,3.094,0,0,0,1.485-1.2c.258-.478.35-1.023.6-1.5A3.1,3.1,0,0,1,6.75,4.165a4.954,4.954,0,0,0,2.2-1.023,1.191,1.191,0,0,0,.288-1.029A3.881,3.881,0,0,1,9.2,1.193Z" transform="translate(12.427 8.041)" fill="#f70031"/>
    <path id="Path-2" data-name="Path" d="M11.236,3.045a4.521,4.521,0,0,1,.282-1.023c-.282-.006-.558-.012-.841,0a6.01,6.01,0,0,0-.81.073,1.092,1.092,0,0,0-.239.073c-.037.018-.1.091-.055.018a.35.35,0,0,1-.344.17.327.327,0,0,1-.11.024.921.921,0,0,1-.927-.466,5.849,5.849,0,0,0-.27-.557.377.377,0,0,1-.178-.127c-.227-.315-.515-.121-.792.036a3.06,3.06,0,0,1-1.08.466,1.808,1.808,0,0,1-1.086-.254C4.081,1.09,3.59.4,2.78.224,2.461.157,2.148.085,1.841,0A.326.326,0,0,1,1.4.024a.6.6,0,0,0-.067.018,1.8,1.8,0,0,0-.307.151,2.53,2.53,0,0,0-1,.926C-.153,1.544.681,2.21,1,2.464a14.094,14.094,0,0,0,1.835,1.4,5.211,5.211,0,0,0,2.639.648,18.194,18.194,0,0,1,2.755.042c.632.1,1.233.339,1.872.43.62.085,1.35-.109,1.258-.872A3.489,3.489,0,0,1,11.236,3.045Z" transform="translate(4.057 9.542)" fill="#f70031"/>
    <path id="Path-3" data-name="Path" d="M7.008,2.358a1.084,1.084,0,0,0-.528-.835A4.392,4.392,0,0,0,4.958.875c-.675-.17-1.35-.26-2.013-.5A3.681,3.681,0,0,0,1.528,0,2.9,2.9,0,0,0,.884.137,2.264,2.264,0,0,0,1.411.4a.293.293,0,0,1,.117.484,1.939,1.939,0,0,1,.209.17,2.8,2.8,0,0,1,.632.86A1.978,1.978,0,0,1,3.375,2.1a4.231,4.231,0,0,1,.976.86,2.885,2.885,0,0,1,.81,1.174,1.81,1.81,0,0,1-.239,1.362A3.555,3.555,0,0,1,3.854,6.7,4.036,4.036,0,0,1,2.4,7.226a4.171,4.171,0,0,0-1.473.624,2.131,2.131,0,0,0-.908.963c-.006.012-.012.03-.018.042H.049c.669-.012,1.338.054,2.013.042a3.413,3.413,0,0,0,2-.605A7.711,7.711,0,0,0,5.59,6.766a4.523,4.523,0,0,0,.7-.975,1.938,1.938,0,0,0,.135-.854,3.336,3.336,0,0,1,.166-1.18,10.051,10.051,0,0,0,.38-1.011c.012-.061.025-.115.031-.17A.331.331,0,0,1,7.008,2.358Z" transform="translate(14.697 2.044)" fill="#c8102e"/>
    <path id="Path-4" data-name="Path" d="M1.724,0C1.338.006.976.139.6.182a2.8,2.8,0,0,1-.6,0A3.274,3.274,0,0,0,.675.805,1.623,1.623,0,0,0,2.51.708C2.945.158,2.142-.006,1.724,0Z" transform="translate(11.23 3.016)" fill="#bd243a"/>
    <path id="Path-5" data-name="Path" d="M1.436,1a4.1,4.1,0,0,0-.89-.86A1.3,1.3,0,0,0,.018,0L.074.236A9.7,9.7,0,0,1,.276,2.3,4.01,4.01,0,0,1,0,3.9a2.387,2.387,0,0,0,1.227-.642,2.313,2.313,0,0,0,.7-1.229A1.356,1.356,0,0,0,1.436,1Z" transform="translate(17.299 4.632)" fill="#f70031"/>
    <path id="Path-6" data-name="Path" d="M14.878,3A12.417,12.417,0,0,1,13.4,4.226a3.327,3.327,0,0,1-1.872.478,3.254,3.254,0,0,1-1.976-.672,5.983,5.983,0,0,1-1.08-1.3.273.273,0,0,1-.135-.2c0-.006-.006-.006-.006-.012A.3.3,0,0,1,8.281,2.4c-.552-.024-1.111.006-1.663.012a6.96,6.96,0,0,1-2.682-.4A8.217,8.217,0,0,1,1.863.648C1.642.472,1.341.254,1.059,0A7.625,7.625,0,0,0,.494,1a8.113,8.113,0,0,0-.43.9c-.153.436-.043.7.43.829A2.9,2.9,0,0,1,2.1,3.5a.462.462,0,0,1,.049.067h.018a4.712,4.712,0,0,1,1.436.327A2.934,2.934,0,0,0,4.753,4c.65-.042,1.577-.194,2.08.327.233.242.313.636.571.841.38.3.9.1,1.332.212a3.244,3.244,0,0,1,.9.442c.166.1.552.387.687.375a.324.324,0,0,1,.356.393c.153.006.307.006.46.012a5.4,5.4,0,0,0,2.418-.4A2.212,2.212,0,0,0,14.89,4.528a13.207,13.207,0,0,1,.393-1.822C15.136,2.8,15.007,2.9,14.878,3Z" transform="translate(3.299 12.315)" fill="#f70031"/>
    <path id="Path-7" data-name="Path" d="M4.778.357a1.856,1.856,0,0,1-2.037.829A2.171,2.171,0,0,1,1.562.666,6.906,6.906,0,0,1,1.016.1C.985.067.961.03.93,0A1.935,1.935,0,0,1,.9.278,5.349,5.349,0,0,1,.464,1.32,5.131,5.131,0,0,0,.022,3.233a3.4,3.4,0,0,0,.736,2.8.345.345,0,0,1,.515.067.279.279,0,0,1,.16.26l.006.17a1.366,1.366,0,0,1,.27-.073,1.248,1.248,0,0,1-.031-.339,3.079,3.079,0,0,1,.8-1.78A19.442,19.442,0,0,0,4.047,2.252a4.9,4.9,0,0,0,.6-1.023A4.244,4.244,0,0,0,4.771.6c.018-.109.037-.23.061-.351A.91.91,0,0,0,4.778.357Z" transform="translate(9.674 3.482)" fill="#f70031"/>
    <path id="Path-8" data-name="Path" d="M4.889,3.342a8.661,8.661,0,0,0-.215-1.78,2.649,2.649,0,0,0-.092-.291.378.378,0,0,1-.123-.3,1.863,1.863,0,0,0-.749-.86C3.625.061,3.422-.042,3.367.019a.932.932,0,0,0-.19.418,10.582,10.582,0,0,1-.288,1.308,5.875,5.875,0,0,1-.522.884c-.209.339-.423.672-.657,1A11.377,11.377,0,0,1,.962,4.6a6.985,6.985,0,0,0-.54.654C.164,5.643-.2,6.3.139,6.732a.276.276,0,0,1,.068.176,1.61,1.61,0,0,1,.522.745c.086.212.117.327.356.309h.067a1.714,1.714,0,0,1,.994-.333.323.323,0,0,1-.061-.351,3.512,3.512,0,0,1,1.773-1.6,3.159,3.159,0,0,1,.558-.224.33.33,0,0,1,.067-.17A2.85,2.85,0,0,0,4.889,3.342Z" transform="translate(12.005 3.3)" fill="#f70031"/>
    <path id="Path-9" data-name="Path" d="M5.369,0a4.649,4.649,0,0,0,.006.969A1.834,1.834,0,0,1,5.1,2.282,4.207,4.207,0,0,1,2.823,3.59c-.43.139-.865.26-1.282.436A1.493,1.493,0,0,0,.663,4.9,6.566,6.566,0,0,1,0,6.411c.031-.024.061-.054.092-.079a10.781,10.781,0,0,1,1.362-1.1c.491-.309,1-.581,1.5-.866A5.346,5.346,0,0,0,5.425,2.246,3.032,3.032,0,0,0,5.369,0Z" transform="translate(16.943 9.112)" fill="#c8102e"/>
    <path id="Path-10" data-name="Path" d="M6.86,2.258a4.338,4.338,0,0,0-.9-.5,2.806,2.806,0,0,0-.638-.036A2.135,2.135,0,0,1,4.651,1.6,1.5,1.5,0,0,1,3.9.848a.757.757,0,0,0-.687-.5,9.209,9.209,0,0,0-1.154.03A3.29,3.29,0,0,1,.914.291C.614.2.313.073,0,0A.565.565,0,0,0,.086.085,3.976,3.976,0,0,0,.951.678,11.149,11.149,0,0,0,5.9,2.234c.319.006.644.018.963.024Z" transform="translate(5.971 16.607)" fill="#c8102e"/>
    <path id="Path-11" data-name="Path" d="M.845.006a3.025,3.025,0,0,1-.822.23L0,.49C0,.8,0,1.108.01,1.423c.012.43.043.866.055,1.3a.98.98,0,0,0,.8-.012V0A.047.047,0,0,1,.845.006Z" transform="translate(13.362 23.423)" fill="#7ed321"/>
    <path id="Path-12" data-name="Path" d="M20.142,1.3a3.732,3.732,0,0,1-2.056.23,6.448,6.448,0,0,0-1.319-.291A5.153,5.153,0,0,0,15.6,1.5a.36.36,0,0,1-.2,0,4.083,4.083,0,0,1-2.172.969,12.492,12.492,0,0,1-2.473.042,24.865,24.865,0,0,1-2.6-.115,10.782,10.782,0,0,1-2.442-.726A12.977,12.977,0,0,1,3.463.551,4.679,4.679,0,0,1,2.991.182,1.461,1.461,0,0,1,1.85.206c-.2-.061-.4-.127-.6-.206C.837.073.285.133.064.454-.243.89.641,1.326.9,1.55A17.048,17.048,0,0,1,2.482,3.221a2.341,2.341,0,0,1,.54.938,2.35,2.35,0,0,0,.295.89c.4.472,1.111.581,1.62.908.276.182.908.926,1.19.436.2-.345.436-.981.945-.963a2.2,2.2,0,0,1,1.092.424,2.519,2.519,0,0,1,.626-1.8.336.336,0,0,1,.411.018A5.971,5.971,0,0,1,10,5.291a2.045,2.045,0,0,0,.436.581.512.512,0,0,0,.074.048.278.278,0,0,1,.184.042A1,1,0,0,0,11,5.9a7.455,7.455,0,0,1,1.982-.509c.638-.042,1.295.061,1.927-.018.356-.048.46-.248.589-.551a2.273,2.273,0,0,1,.417-.66,4.069,4.069,0,0,1,1.479-.884,6.264,6.264,0,0,0,1.706-.92c.4-.327.675-.745,1.074-1.053Z" transform="translate(2.637 17.031)" fill="#f70031"/>
    <path id="Path-13" data-name="Path" d="M6.94,5.461a4.046,4.046,0,0,1-.295-1.229,8.843,8.843,0,0,1,.08-1.271c.061-.648.2-1.641-.35-2.137A2.8,2.8,0,0,0,4.927.278,9.644,9.644,0,0,1,3.688,0a6.945,6.945,0,0,0-.522,1.635c-.012.218.006.442,0,.66.006.006.012.006.018.012A3.577,3.577,0,0,1,4.406,4.189,4.021,4.021,0,0,1,4.541,6.1C4.111,7.991,2.123,8.73.528,9.668a.314.314,0,0,1,.129.412C.288,10.915.374,11.9,0,12.725a3.033,3.033,0,0,1,.614-.109,4.241,4.241,0,0,1,1.2.206A3.246,3.246,0,0,0,4,12.683a2.946,2.946,0,0,0,1.264-1.265A14.513,14.513,0,0,1,6.179,9.5c.245-.321.534-.605.81-.908a1.918,1.918,0,0,0,.583-.92A4.521,4.521,0,0,0,6.94,5.461Z" transform="translate(18.618 4.983)" fill="#f70031"/>
    <path id="Path-14" data-name="Path" d="M3.165,9.6c-.5-.369-1.2-.3-1.694-.672a1.169,1.169,0,0,1-.295-1.417A9.06,9.06,0,0,1,2.318,5.358l.012-.012c-.448-.521-.706-1.126-.252-1.713A4.753,4.753,0,0,1,3.269,2.6c-.067-.042-.135-.085-.2-.133A3.925,3.925,0,0,1,1.643.708,3.151,3.151,0,0,1,1.465,0a3.122,3.122,0,0,0-.387,1.949,5.458,5.458,0,0,1,.031,1.265,3.671,3.671,0,0,1-.282.878A14.9,14.9,0,0,0,.17,5.678C.035,6.12-.142,6.726.189,7.119a.284.284,0,0,1-.043.424c.037.091.067.188.1.285a2.264,2.264,0,0,0,.982,1.386,8.052,8.052,0,0,0,1.246.642.315.315,0,0,1,.1.042.725.725,0,0,1,.067.03,3.646,3.646,0,0,0,.749.218.908.908,0,0,0,.221.018A2.251,2.251,0,0,0,3.165,9.6Z" transform="translate(1.548 6.491)" fill="#f70031"/>
    <path id="Path-15" data-name="Path" d="M5.728,7.028A5.9,5.9,0,0,1,4.55,5.9c-.448-.478-.92-.938-1.4-1.392A10.5,10.5,0,0,1,1.985,3.348,1.845,1.845,0,0,1,2.015.878,4.471,4.471,0,0,1,3.967.061c0-.024.006-.042.006-.061A4.894,4.894,0,0,0,.849,1.3,2.556,2.556,0,0,0,.009,2.833a2.67,2.67,0,0,0,.761,2A3.7,3.7,0,0,0,2.8,5.945a4.043,4.043,0,0,1,1.166.309,5.981,5.981,0,0,1,.9.654,2.606,2.606,0,0,0,1,.617,1.218,1.218,0,0,0,.865-.2A2.248,2.248,0,0,1,5.728,7.028Z" transform="translate(3.643 3.07)" fill="#c8102e"/>
    <path id="Path-16" data-name="Path" d="M1.669.3A2.179,2.179,0,0,0,.8,2.337,3.806,3.806,0,0,1,.779,3.6c-.1.387-.3.726-.43,1.1A4.673,4.673,0,0,0,.1,7.325a2.757,2.757,0,0,0,.178.49c.018-.085.037-.163.055-.242a12.79,12.79,0,0,1,.73-1.865,2.6,2.6,0,0,0,.295-1.047c0-.466-.086-.926-.08-1.392A3.527,3.527,0,0,1,2.111.987.306.306,0,0,1,2.393.872,2.8,2.8,0,0,1,2.73,0,3.253,3.253,0,0,0,1.669.3Z" transform="translate(0.657 4.711)" fill="#c8102e"/>
    <path id="Path-17" data-name="Path" d="M3.18,3.118A9.534,9.534,0,0,1,3.3,1.871a.339.339,0,0,1-.2-.339c.025-.375-.417-.684-.657-.908A2.917,2.917,0,0,1,1.91,0,3.874,3.874,0,0,0,.32.617c-.632.545-.215,1.435.27,1.919.724.726,1.5,1.4,2.209,2.149a9.931,9.931,0,0,0,.816.866A4.725,4.725,0,0,1,3.18,3.118Z" transform="translate(5.835 3.779)" fill="#f70031"/>
    <path id="Path-18" data-name="Path" d="M6.58,1.784a.347.347,0,0,1-.325-.327A10.29,10.29,0,0,0,5.3.476,1.858,1.858,0,0,0,3.763.028,5.041,5.041,0,0,0,1.916.972C1.444,1.287-.452,2.014.1,2.837c.307.46.81.769,1.074,1.223a4.771,4.771,0,0,0,.491-1.138,3.24,3.24,0,0,1,.153-.975.33.33,0,0,1,.46-.139.329.329,0,0,1,.295-.024c.877.321,1.737-.218,2.632-.036.577.115,1.135.521,1.086,1.1a1.277,1.277,0,0,1,.405-.7.735.735,0,0,1,.184-.109A3.133,3.133,0,0,1,6.58,1.784Z" transform="translate(8.265 0.657)" fill="#f70031"/>
  </g>
</svg>
