<svg id="icon_batman" data-name="icon / batman" xmlns="http://www.w3.org/2000/svg" width="35" height="35" viewBox="0 0 35 35">
  <rect id="Rectangle" width="35" height="35" fill="none"/>
  <g id="Badge_InterpidDaredevil" transform="translate(2.188 2.188)">
    <ellipse id="Oval" cx="15.139" cy="15.286" rx="15.139" ry="15.286" transform="translate(0.15 0)" fill="#fff"/>
    <path id="Path" d="M5.633,27.029A21.447,21.447,0,0,1,3.7,25.245,14.779,14.779,0,0,1,.064,14.072,14.861,14.861,0,0,1,7.835,1.917,14.143,14.143,0,0,1,16.29.064,14.741,14.741,0,0,1,27.315,6.326a14.641,14.641,0,0,1,2.609,6.03,16.086,16.086,0,0,1,.159,4.638,15.286,15.286,0,0,1-5.006,9.714,1.465,1.465,0,0,1-.456.19c-.038-.134-.085-.268-.112-.4A7.619,7.619,0,0,0,20.024,20.7c.118-.161.239-.318.353-.479a6.488,6.488,0,0,0,1.4-3.167c.236-3.387.468-6.773.719-10.356L19.255,9.076c-2.9-2.019-5.772-1.668-8.64,0L7.782,6.846c0,.47-.015.755,0,1.038.094,1.43.212,2.86.294,4.293.08,1.377.121,2.756.194,4.133a4.545,4.545,0,0,0,.171.752,19.423,19.423,0,0,0,.677,2.081,11.47,11.47,0,0,0,.945,1.516c-.159.113-.312.235-.48.339A7.842,7.842,0,0,0,6.64,23.973,10.662,10.662,0,0,0,5.633,27.029Z" transform="translate(0.001 0.028)" fill="#d85b4f"/>
    <path id="Shape" d="M4.179,7.731A8.463,8.463,0,0,1,0,6.58c.065-.4.1-.8.2-1.189A6.713,6.713,0,0,1,4.753.258,3.644,3.644,0,0,0,5.274,0H6.538A5.8,5.8,0,0,0,7.33.446a6.573,6.573,0,0,1,4.328,6.11c-.091.1-.165.267-.276.3a23.292,23.292,0,0,1-2.945.779,20.325,20.325,0,0,1-2.6.167Q5.009,7.8,4.179,7.731Z" transform="translate(9.102 22.746)" fill="#cbcccd"/>
    <path id="Path-2" data-name="Path" d="M5.115,8.563A6.576,6.576,0,0,0,.786,2.453,5.834,5.834,0,0,1,0,2.019c.25-.033.5-.059.748-.1A8.072,8.072,0,0,0,4.379,0,7.61,7.61,0,0,1,8.861,5.795c.027.137.074.271.112.4A8.284,8.284,0,0,1,6.44,8.019a11.237,11.237,0,0,1-1.325.544Z" transform="translate(15.645 20.739)" fill="#262422"/>
    <path id="Path-3" data-name="Path" d="M8.743,2.055a3.7,3.7,0,0,1-.521.259,6.714,6.714,0,0,0-4.55,5.132c-.1.387-.138.791-.2,1.189C2.482,8.09,1.487,7.561.524,6.987.3,6.856.174,6.574,0,6.36A10.663,10.663,0,0,1,.986,3.312,7.842,7.842,0,0,1,3.931.339c.168-.1.321-.226.48-.339.23.167.471.324.689.5A7.032,7.032,0,0,0,8.743,2.055Z" transform="translate(5.639 20.697)" fill="#262422"/>
    <path id="Shape-2" data-name="Shape" d="M.668,10.365A4.506,4.506,0,0,1,.5,9.613C.423,8.236.382,6.856.3,5.48.22,4.046.1,2.616.008,1.186-.01.9.008.618.008.149l2.83,2.23c2.868-1.656,5.737-2.007,8.64,0L14.717,0c-.236,3.6-.468,6.984-.689,10.371Z" transform="translate(7.763 6.711)" fill="#1d1b1a"/>
    <path id="Path-4" data-name="Path" d="M0,0H13.345a6.488,6.488,0,0,1-1.4,3.167c-.115.161-.236.318-.353.479A8.131,8.131,0,0,1,7.963,5.56c-.247.045-.5.071-.748.1H5.951A7.033,7.033,0,0,1,2.312,4.1c-.218-.178-.459-.336-.689-.5A11.47,11.47,0,0,1,.677,2.078,19.423,19.423,0,0,1,0,0Z" transform="translate(8.431 17.076)" fill="#fbf2e3"/>
    <path id="Path-5" data-name="Path" d="M2.886.425l.377.538A1.614,1.614,0,0,0,4.617.039,2.153,2.153,0,0,1,5.639,1.267,4.188,4.188,0,0,1,4.27,2a2.162,2.162,0,0,0-1.411.8c-.374-.461-.727-.892-1.36-.776a.27.27,0,0,1-.224-.092C.981,1.409.483,1.469,0,1.487.215.618.215.618,1.048,0c.377.425.71.96,1.4.975Z" transform="translate(12.05 25.704)" fill="#262422"/>
    <path id="Path-6" data-name="Path" d="M0,.2A2.226,2.226,0,0,1,3.2,1.787,2.105,2.105,0,0,1,0,.2Z" transform="translate(10.339 13.023)" fill="#fbf2e3"/>
    <path id="Path-7" data-name="Path" d="M0,1.843A2.232,2.232,0,0,1,3.177.2C3.06,1.736,1.637,2.491,0,1.843Z" transform="translate(16.49 13.024)" fill="#fbf2e3"/>
  </g>
</svg>
