<svg id="icon_honour_levels_scout" data-name="icon / honour levels / scout" xmlns="http://www.w3.org/2000/svg" width="35" height="35" viewBox="0 0 35 35">
  <g id="_1" data-name="1">
    <g id="ilustration_-_scout" data-name="ilustration - scout">
      <rect id="Rectangle" width="35" height="35" fill="none"/>
      <g id="Badge_Scout" transform="translate(2.188 2.188)">
        <circle id="Oval" cx="15.139" cy="15.139" r="15.139" transform="translate(0.127 0)" fill="#fff"/>
        <path id="Path" d="M7.853,28.122a10.469,10.469,0,0,1-1.131-.539A12.88,12.88,0,0,1,3.43,24.671,15.292,15.292,0,0,1,.7,19.565,14.273,14.273,0,0,1,.073,13.7,13.786,13.786,0,0,1,1.41,8.734,10.178,10.178,0,0,1,2.994,6.172c.589-.589,1.039-1.355,1.649-1.938A15.374,15.374,0,0,1,9.752.984,15.5,15.5,0,0,1,15.221,0a14.361,14.361,0,0,1,5.692,1.178,14.488,14.488,0,0,1,5.807,4.3A14.653,14.653,0,0,1,29.894,12.2a15.9,15.9,0,0,1,.294,3.634,15.766,15.766,0,0,1-.71,3.808,14.933,14.933,0,0,1-1.552,3.383,13.914,13.914,0,0,1-4.314,4.5,1.1,1.1,0,0,1-.415.071c-.294-.724-.294-1.519-.666-2.253a5.249,5.249,0,0,0-3.13-2.906,1.319,1.319,0,0,0-1.278-.294l-.442-.73a6.234,6.234,0,0,1,.648-.66,6.444,6.444,0,0,0,2.3-2.965,1.145,1.145,0,0,1,.854-.857,1.107,1.107,0,0,0,.668-1.681c-.144-.239-.294-.483-.424-.727l.436-1.829c.33-.068.657-.144.989-.194.777-.121,1.561-.206,2.332-.356a.527.527,0,0,0,.268-.913,2.315,2.315,0,0,0-.642-.4c-.76-.359-1.528-.707-2.294-1.057l-1.472-.745A5.481,5.481,0,0,0,17.883,5.2a5.954,5.954,0,0,0-5.783.589A4.97,4.97,0,0,0,9.744,9.031l-1.558.922L5.338,11.29a.548.548,0,0,0-.186.174.533.533,0,0,0,.244.883,1.958,1.958,0,0,0,.48.121c1.013.138,2.029.265,3.042.395l.492,1.961c-.589.48-.15,1.107-.294,1.676a3.034,3.034,0,0,1,1.352,1.564A7.488,7.488,0,0,0,12.2,20.448c.321.294.692.527,1.039.789-.074.35.239.931-.521.883l-1.2.33a5.5,5.5,0,0,0-2.382,1.855A7.167,7.167,0,0,0,7.853,28.122Z" transform="translate(0.012 0.194)" fill="#cee5b5"/>
        <path id="Path-2" data-name="Path" d="M0,5.683A7.257,7.257,0,0,1,1.281,1.855,5.5,5.5,0,0,1,3.663,0,2.9,2.9,0,0,0,6.652,1.67c.038,0,.068-.085.1-.13l.845.118a4.123,4.123,0,0,0-.5.866,6.811,6.811,0,0,0,.153,3.76c.024.088.127.153.2.239.106-.088.218-.135.227-.194.138-1,.265-2,.4-3.024l.966.327a.883.883,0,0,0-.33-1.2c-.33-.247-.636-.524-.954-.786L8.3,1.572c.15.05.312.168.442.138a5.6,5.6,0,0,0,1.584-.459C10.825.957,11.5.757,11.549,0a5.287,5.287,0,0,1,3.13,2.906c.356.733.362,1.528.666,2.253-.133.171-.233.4-.406.5a15.183,15.183,0,0,1-13.616.883C.839,6.331.289,6.2,0,5.683Z" transform="translate(7.865 22.633)" fill="#949143"/>
        <path id="Path-3" data-name="Path" d="M4.154,8.406c-.347-.262-.719-.5-1.039-.789A7.488,7.488,0,0,1,1.377,5.226,2.982,2.982,0,0,0,.025,3.662c.138-.568-.294-1.2.294-1.676l.627.8.294-2.6a7.362,7.362,0,0,0,.975.124C2.6.311,3,.205,3.394.2,4.866.179,6.356.181,7.835.179a1.628,1.628,0,0,1,.671.032A.978.978,0,0,0,9.389.187c.61-.241,1.2-.35,1.649.312.068.1.239.135.365.2L11.7.014V2.832l.18.041L12.655,1.7c.141.244.294.489.424.727A1.107,1.107,0,0,1,12.4,4.1a1.145,1.145,0,0,0-.845.854,6.444,6.444,0,0,1-2.3,2.965,6.234,6.234,0,0,0-.648.66c-.468.059-.933.133-1.4.174A8.348,8.348,0,0,1,4.154,8.406Z" transform="translate(9.098 13.031)" fill="#fbf2e3"/>
        <path id="Path-4" data-name="Path" d="M15.77,3.077l-.294.686c-.127-.065-.294-.1-.365-.2-.451-.663-1.039-.554-1.649-.312a.978.978,0,0,1-.883.024,1.628,1.628,0,0,0-.671-.032c-1.472,0-2.945,0-4.441.021-.389,0-.78.109-1.178.112a7.362,7.362,0,0,1-.975-.124c-.433-.356-.936-.115-1.4-.174C2.917,2.948,1.9,2.821.885,2.689a1.958,1.958,0,0,1-.492-.144.533.533,0,0,1-.244-.883.548.548,0,0,1,.186-.174L3.182.15c.345,0,.686,0,1.028.027,1.21.1,2.418.25,3.631.309s2.391.041,3.59,0Q13.894.427,16.362.294A9.641,9.641,0,0,0,17.814,0c.766.35,1.534.7,2.294,1.057a2.315,2.315,0,0,1,.642.4.527.527,0,0,1-.268.913c-.772.15-1.555.236-2.332.356-.333.05-.66.127-.989.194A1.988,1.988,0,0,0,15.77,3.077Z" transform="translate(5.005 9.974)" fill="#7e652f"/>
        <path id="Path-5" data-name="Path" d="M0,4.3A4.984,4.984,0,0,1,2.356,1.079,5.954,5.954,0,0,1,8.139.49,5.526,5.526,0,0,1,11.6,4.318c-1.042.074-2.082.2-3.121.215q-2.98.047-5.96,0C1.681,4.533.854,4.386,0,4.3Z" transform="translate(9.747 4.89)" fill="#7e652f"/>
        <path id="Path-6" data-name="Path" d="M1.558,0C2.4.082,3.239.221,4.078.239q2.983.053,5.96,0C11.078.221,12.117.1,13.16.024l1.472.745a9.641,9.641,0,0,1-1.452.294q-2.465.138-4.932.191c-1.2.027-2.4.038-3.59,0S2.238,1.045,1.028.945C.686.919.345.928,0,.919Z" transform="translate(8.189 9.193)" fill="#1d1b1a"/>
        <path id="Path-7" data-name="Path" d="M.527,0A8.348,8.348,0,0,0,3.569.353C4.037.312,4.5.239,4.971.18l.442.73a2.7,2.7,0,0,1-1.97,1.867L2.9,2.853a.138.138,0,0,0-.159,0l-.845-.118A3.083,3.083,0,0,1,0,.869C.76.942.448.353.527,0Z" transform="translate(12.724 21.438)" fill="#f9e4be"/>
        <path id="Path-8" data-name="Path" d="M0,.209A1.969,1.969,0,0,1,1.393.05L.957,1.882.18,3.06,0,3.018Z" transform="translate(20.775 12.842)" fill="#262422"/>
        <path id="Path-9" data-name="Path" d="M0,1.923A2.7,2.7,0,0,0,1.97.057,1.319,1.319,0,0,1,3.248.351C3.2,1.1,2.524,1.317,2.026,1.6a5.6,5.6,0,0,1-1.584.459C.324,2.091.15,1.974,0,1.923Z" transform="translate(16.166 22.282)" fill="#7e652f"/>
        <path id="Path-10" data-name="Path" d="M1.2,0A3.083,3.083,0,0,0,3.089,1.867c-.032.044-.062.121-.1.13A2.9,2.9,0,0,1,0,.339Z" transform="translate(11.529 22.306)" fill="#7e652f"/>
        <path id="Path-11" data-name="Path" d="M0,.026C.468.085.972-.157,1.4.2L1.11,2.8l-.621-.81Z" transform="translate(8.934 13.025)" fill="#262422"/>
        <path id="Path-12" data-name="Path" d="M.707.025a.138.138,0,0,1,.159,0c.318.262.624.539.954.786a.883.883,0,0,1,.33,1.2L1.184,1.68C1.049,2.7.922,3.706.784,4.7c0,.059-.121.106-.227.194-.074-.085-.177-.15-.2-.239A6.811,6.811,0,0,1,.2.9a4.123,4.123,0,0,1,.5-.875Z" transform="translate(14.755 24.266)" fill="#a15519"/>
      </g>
    </g>
  </g>
</svg>
