<?xml version="1.0" encoding="UTF-8"?>
<svg width="35px" height="35px" viewBox="0 0 35 35" version="1.1" xmlns="http://www.w3.org/2000/svg" xmlns:xlink="http://www.w3.org/1999/xlink">
    <!-- Generator: Sketch 53.2 (72643) - https://sketchapp.com -->
    <title>icon / honour levels / peregrinator</title>
    <desc>Created with Sketch.</desc>
    <g id="icon-/-honour-levels-/-peregrinator" stroke="none" stroke-width="1" fill="none" fill-rule="evenodd">
        <g id="ilustration---peregrinator">
            <rect id="Rectangle" x="0" y="0" width="35" height="35"></rect>
            <g id="Badge_peregrinator" transform="translate(2.187500, 2.187500)">
                <ellipse id="Oval" fill="#FFFFFF" cx="15.3795833" cy="15.2857403" rx="14.9945833" ry="15.2857403"></ellipse>
                <path d="M6.0725,27.2413835 C5.33458333,26.5515777 4.51208333,25.9301578 3.87041667,25.1600728 C1.28940574,22.1450377 0.0125366786,18.1950169 0.329583333,14.206432 C0.817229154,7.39900965 5.67624826,1.74772662 12.2325,0.362742718 C18.92625,-1.04065534 25.9583333,2.37864078 28.805,8.91990291 C31.21125,14.4264563 30.5841667,19.7040655 27.055,24.559466 C26.4133333,25.4514563 25.52375,26.1412621 24.7479167,26.9381068 C24.7058272,26.5987859 24.6444743,26.2622382 24.5641667,25.9301578 C24.1704167,24.5832524 23.7154167,23.2541869 22.5225,22.385983 L22.4875,22.0381068 L22.4875,14.9438107 C22.4875,14.2480583 22.4670833,13.5552791 22.4583333,12.8625 L22.39125,12.4878641 C22.2309877,10.6322985 21.3239696,8.92727631 19.8858333,7.77815534 C18.3522834,6.4948382 16.3587681,5.93068307 14.3957414,6.22448605 C12.4327148,6.51828904 10.6823996,7.64277716 9.57541667,9.32129854 C8.78611127,10.5206448 8.37872005,11.9389002 8.40875,13.3828277 C8.42625,16.3769417 8.40875,19.3710558 8.38541667,22.3651699 C8.21555445,22.4549379 8.05854217,22.5679811 7.91875,22.7011529 C6.85918708,23.9845193 6.2143764,25.5702142 6.0725,27.2413835 Z" id="Path" fill="#71415E"></path>
                <path d="M6.0725,27.2413835 C6.21330168,25.571924 6.85601227,23.9874223 7.91291667,22.7041262 C8.05270884,22.5709544 8.20972111,22.4579113 8.37958333,22.3681432 C9.60458333,22.603034 10.8266667,22.8587379 12.0545833,23.0698422 C12.9260235,23.2474301 13.8093627,23.3577553 14.6970833,23.3998786 C16.065,23.3998786 17.4358333,23.3017597 18.80375,23.2393204 C18.914323,23.2244029 19.0235565,23.2005412 19.1304167,23.1679612 L22.53125,22.3830097 C23.7183333,23.275 24.1733333,24.5802791 24.5729167,25.9271845 C24.6532243,26.2592649 24.7145772,26.5958126 24.7566667,26.9351335 C24.6954167,27.0570388 24.6633333,27.2324636 24.5670833,27.2919296 C23.9138417,27.7915786 23.2320876,28.2512662 22.5254167,28.668568 C21.18375,29.3881068 19.78375,30.0452063 18.2875,30.2949636 C15.1054167,30.8331311 11.9583333,30.625 8.98625,29.2097087 C8.20705413,28.8193107 7.45215606,28.3804153 6.72583333,27.8955097 C6.48483072,27.7029607 6.26569281,27.4835568 6.0725,27.2413835 Z" id="Path" fill="#B1CCB7"></path>
                <path d="M22.53125,22.3830097 L19.1304167,23.1679612 C19.0235565,23.2005412 18.914323,23.2244029 18.80375,23.2393204 C17.4358333,23.3017597 16.065,23.4147451 14.6970833,23.3998786 C13.8093627,23.3577553 12.9260235,23.2474301 12.0545833,23.0698422 C10.8266667,22.8587379 9.60458333,22.603034 8.37958333,22.3681432 C8.37958333,19.3740291 8.42041667,16.379915 8.40291667,13.385801 C8.37288672,11.9418735 8.78027794,10.5236181 9.56958333,9.32427184 C10.6765663,7.64575046 12.4268815,6.52126234 14.3899081,6.22745935 C16.3529347,5.93365637 18.3464501,6.4978115 19.88,7.78112864 C21.3196196,8.92845635 22.2287561,10.6324145 22.39125,12.4878641 L22.4583333,12.8565534 C22.4583333,13.5523058 22.47875,14.245085 22.4875,14.9378641 C22.4310141,15.0623355 22.3926918,15.1945604 22.37375,15.3303398 C22.37375,17.4354369 22.37375,19.540534 22.37375,21.6456311 C22.3948104,21.7797529 22.4351024,21.909989 22.4933333,22.0321602 L22.53125,22.3830097 Z M10.3804167,10.8287621 L10.3804167,14.028034 C12.2704167,14.1885922 19.87125,14.117233 20.4604167,13.9418083 L20.4604167,10.8287621 L10.3804167,10.8287621 Z M18.4683333,19.1302184 C18.4824402,17.8189655 17.7200284,16.6282664 16.5368435,16.1137078 C15.3536585,15.5991492 13.9828988,15.8621474 13.0641682,16.779986 C12.1454377,17.6978246 11.8598123,19.0896034 12.3405665,20.3059107 C12.8213207,21.5222181 13.9737008,22.3233275 15.26,22.3354369 C17.0071544,22.3357931 18.4333903,20.910942 18.4683333,19.1302184 L18.4683333,19.1302184 Z" id="Shape" fill="#D3E8D6" fill-rule="nonzero"></path>
                <path d="M22.49625,22.0351335 C22.4380191,21.9129623 22.397727,21.7827262 22.3766667,21.6486044 C22.3766667,19.5435073 22.3766667,17.4384102 22.3766667,15.3333131 C22.3956084,15.1975337 22.4339307,15.0653088 22.4904167,14.9408374 C22.4943056,17.3056028 22.49625,19.6703681 22.49625,22.0351335 Z" id="Path" fill="#B1CCB7"></path>
                <path d="M22.4583333,12.8565534 L22.39125,12.4878641 L22.4583333,12.8565534 Z" id="Path" fill="#B1CCB7"></path>
                <path d="M10.3804167,10.8287621 L20.4604167,10.8287621 L20.4604167,13.9418083 C19.8770833,14.117233 12.2704167,14.1885922 10.3804167,14.028034 L10.3804167,10.8287621 Z" id="Path" fill="#7BCBCA"></path>
                <path d="M18.4683333,19.1302184 C18.4443519,20.4423017 17.6465543,21.6101379 16.4476667,22.0881211 C15.2487791,22.5661043 13.8854647,22.2598795 12.9946558,21.3125131 C12.1038468,20.3651466 11.8613911,18.9636509 12.3805624,17.7627962 C12.8997337,16.5619415 14.0780464,15.7987793 15.365,15.8298544 C16.2059085,15.8478008 17.0053593,16.2056468 17.5873871,16.8246276 C18.169415,17.4436084 18.4863144,18.2729898 18.4683333,19.1302184 L18.4683333,19.1302184 Z M16.4004167,17.7060073 C16.10875,18.0895631 15.9658333,18.3868932 16.3304167,18.740716 C16.6395833,19.0380461 16.93125,18.8953277 17.1529167,18.7080097 C17.330786,18.5468103 17.4255368,18.310822 17.4095833,18.06875 C17.2695833,17.5127427 16.7854167,17.7565534 16.4004167,17.7060073 L16.4004167,17.7060073 Z M15.4320833,20.1441141 C15.0529167,20.2927791 14.6154167,20.4146845 14.7466667,20.9885316 C14.7904167,21.1669296 15.0383333,21.4493932 15.1258333,21.4315534 C15.4104883,21.4016615 15.6732953,21.2623907 15.8608333,21.042051 C16.07375,20.6584951 15.8025,20.361165 15.4320833,20.1441141 L15.4320833,20.1441141 Z M14.39375,18.1192961 C14.42,17.6941141 14.1020833,17.5989684 13.8104167,17.5513956 C13.51875,17.5038228 13.2066667,17.9022451 13.2125,18.2352549 C13.2125,18.6425971 13.4633333,18.7615291 13.8191667,18.7526092 C14.2479167,18.7317961 14.41125,18.5652913 14.39375,18.1192961 Z M15.3008333,19.6059466 C15.7208333,19.6059466 15.91625,19.4543083 15.9191667,19.0885922 C15.8986166,18.7329529 15.6178615,18.4505966 15.26875,18.434466 C14.9945833,18.4612257 14.7291667,18.5652913 14.72625,18.9518204 C14.7233333,19.4186286 14.875,19.6059466 15.3008333,19.6237864 L15.3008333,19.6059466 Z M16.5520833,20.637682 C16.9417707,20.6304871 17.2599158,20.3178401 17.28125,19.9211165 C17.2608333,19.510801 16.9895833,19.4275485 16.6541667,19.4216019 C16.5006753,19.408617 16.3500528,19.4695174 16.2470195,19.5862218 C16.1439863,19.7029261 16.100387,19.8620179 16.1291667,20.0162621 C16.16125,20.2779126 16.4354167,20.489017 16.5520833,20.6466019 L16.5520833,20.637682 Z M13.9066667,19.2788835 C13.5420833,19.412682 13.1133333,19.5137743 13.23,20.0489684 C13.3082165,20.2426249 13.4678438,20.390062 13.6645833,20.4503641 C13.93,20.5276699 14.2479167,20.5038835 14.3616667,20.153034 C14.4958333,19.7546117 14.2741667,19.4780947 13.9066667,19.2878034 L13.9066667,19.2788835 Z M15.9191667,17.2897451 C15.8725,16.9121359 15.6275,16.8259102 15.3358333,16.8259102 C14.97125,16.8259102 14.7525,16.9597087 14.7525,17.367051 C14.7525,17.7743932 14.95375,17.8725121 15.365,17.8784587 C15.77625,17.8844053 15.82,17.575182 15.9191667,17.298665 L15.9191667,17.2897451 Z" id="Shape" fill="#354D39" fill-rule="nonzero"></path>
                <path d="M16.4004167,17.7060073 C16.7854167,17.7565534 17.2754167,17.5127427 17.4095833,18.06875 C17.4255368,18.310822 17.330786,18.5468103 17.1529167,18.7080097 C16.93125,18.8953277 16.6395833,19.0410194 16.3304167,18.740716 C15.9658333,18.3868932 16.1175,18.0895631 16.4004167,17.7060073 Z" id="Path" fill="#1F1F1F"></path>
                <path d="M15.4320833,20.1441141 C15.8025,20.361165 16.07375,20.6584951 15.8608333,21.0361044 C15.6732953,21.2564441 15.4104883,21.3957149 15.1258333,21.4256068 C15.0266667,21.4434466 14.7904167,21.160983 14.7466667,20.982585 C14.6154167,20.4146845 15.0529167,20.2927791 15.4320833,20.1441141 Z" id="Path" fill="#1F1F1F"></path>
                <path d="M14.39375,18.1192961 C14.41125,18.5652913 14.2479167,18.740716 13.8104167,18.7526092 C13.4545833,18.7526092 13.2095833,18.6425971 13.20375,18.2352549 C13.20375,17.9022451 13.5158333,17.5067961 13.8016667,17.5513956 C14.0875,17.5959951 14.42,17.6941141 14.39375,18.1192961 Z" id="Path" fill="#1F1F1F"></path>
                <path d="M15.3008333,19.6237864 C14.8691667,19.6237864 14.7175,19.4275485 14.7175,18.9696602 C14.7175,18.5831311 14.9858333,18.4790655 15.26,18.4523058 C15.6091115,18.4684364 15.8898666,18.7507927 15.9104167,19.106432 C15.91625,19.4632282 15.7208333,19.6237864 15.3008333,19.6237864 Z" id="Path" fill="#1F1F1F"></path>
                <path d="M16.5520833,20.6466019 C16.4354167,20.489017 16.16125,20.2779126 16.1291667,20.0341019 C16.100387,19.8798577 16.1439863,19.720766 16.2470195,19.6040616 C16.3500528,19.4873573 16.5006753,19.4264568 16.6541667,19.4394417 C17.00125,19.4394417 17.2608333,19.5286408 17.28125,19.9389563 C17.2555363,20.3321725 16.9386073,20.6397475 16.5520833,20.6466019 L16.5520833,20.6466019 Z" id="Path" fill="#1F1F1F"></path>
                <path d="M13.9066667,19.2878034 C14.2741667,19.4780947 14.49,19.7546117 14.3616667,20.1797937 C14.25375,20.51875 13.93,20.5425364 13.6645833,20.4771238 C13.4678438,20.4168217 13.3082165,20.2693846 13.23,20.0757282 C13.125,19.5226942 13.5420833,19.4216019 13.9066667,19.2878034 Z" id="Path" fill="#1F1F1F"></path>
                <path d="M15.9191667,17.298665 C15.82,17.575182 15.7704167,17.8933252 15.3358333,17.8933252 C14.90125,17.8933252 14.72625,17.7446602 14.7233333,17.3819175 C14.7204167,17.0191748 14.9479167,16.84375 15.3066667,16.8407767 C15.6391667,16.8348301 15.8725,16.9210558 15.9191667,17.298665 Z" id="Path" fill="#1F1F1F"></path>
            </g>
        </g>
    </g>
</svg>