<svg id="icon_honour_levels_swashbuckler" data-name="icon / honour levels / swashbuckler" xmlns="http://www.w3.org/2000/svg" width="35" height="35" viewBox="0 0 35 35">
  <g id="ilustration_-_swashbuckler" data-name="ilustration - swashbuckler">
    <rect id="Rectangle" width="35" height="35" fill="none"/>
    <g id="Badge_Swashbuckler" transform="translate(2.188 2.188)">
      <ellipse id="Oval" cx="14.995" cy="15.139" rx="14.995" ry="15.139" transform="translate(0.411 0.006)" fill="#fff"/>
      <path id="Path" d="M7.76,28.138a3.71,3.71,0,0,1-1.951-1.1A15.088,15.088,0,0,1,1.186,21.1,13.311,13.311,0,0,1,.174,17.439,17.571,17.571,0,0,1,0,14.716,15.113,15.113,0,0,1,4.849,3.973,16.209,16.209,0,0,1,7.361,2.13,13.431,13.431,0,0,1,11.377.443,13.852,13.852,0,0,1,15.72.027a14.636,14.636,0,0,1,8.009,2.927,18.848,18.848,0,0,1,2.68,2.509,15.29,15.29,0,0,1,3.025,5.889A9.736,9.736,0,0,1,29.7,13.12c.076.73.143,1.472.163,2.2A13.567,13.567,0,0,1,28.8,20.855a16.032,16.032,0,0,1-4.617,6.184,8.572,8.572,0,0,1-1.28.763,6.1,6.1,0,0,1-.143-.648,5.2,5.2,0,0,0-1.441-3.121l.207-.671c-.324-.127-.607-.23-.875-.347s-.642-.247-.645-.68c.085-.206.108-.512.26-.589.5-.294.44-.742.467-1.2a3.13,3.13,0,0,1,.157-.816c.114-.342.292-.668.423-1,.432-.109.219-.459.239-.7a2.952,2.952,0,0,1,.309-1.419c.315-.533.493-1.225-.239-1.7-.05-.032-.044-.156-.061-.239l2.873-.6a2.487,2.487,0,0,0,.75-3.525,6.874,6.874,0,0,0-2.969-2.468,9.538,9.538,0,0,1-3.955-3.513,3.41,3.41,0,0,0-6.005.109,16.47,16.47,0,0,1-1.006,1.472A8.9,8.9,0,0,1,7.454,9.218a3.813,3.813,0,0,0-1.138.727,2.541,2.541,0,0,0-.05,4.061l3.068.671h0c-.052,1.1-.128,2.2-.152,3.3a2.883,2.883,0,0,0,.443,1.676,1.338,1.338,0,0,1,.19.713c0,.548-.02,1.066.531,1.416.131.082.143.356.21.542l.076.153c.017.109.032.218.047.327-.5.171-.983.356-1.041,1-.61.274-.843.883-1.138,1.4A8.185,8.185,0,0,0,7.76,28.138Z" transform="translate(0.29 0.008)" fill="#a9d9e5"/>
      <path id="Path-2" data-name="Path" d="M0,4.346A8.226,8.226,0,0,1,.747,1.4,2.749,2.749,0,0,1,1.884,0L4.436,1.24c.548.294,1.094.589,1.642.857.262.133.5.256.487.615C6.536,3.931,6.519,5.153,6.5,6.375A13.6,13.6,0,0,1,.525,4.844,2.618,2.618,0,0,1,0,4.346Z" transform="translate(8.05 23.799)" fill="#1d2242"/>
      <path id="Path-3" data-name="Path" d="M4.7.131A5.2,5.2,0,0,1,6.134,3.252a6.1,6.1,0,0,0,.143.648,21.5,21.5,0,0,1-2,1.178A10.107,10.107,0,0,1,.511,6.123L.009,5.8V2.834a.589.589,0,0,1,.4-.666c.236-.088.458-.215.688-.315.33-.141.688-.247.785-.666C2.634.826,3.372.478,4.092.1A.466.466,0,0,1,4.7.131Z" transform="translate(16.908 23.883)" fill="#1d2242"/>
      <path id="Path-4" data-name="Path" d="M1.709,4.391c-.461.091-.925.162-1.38.294C.085,4.75.038,4.644,0,4.452a4.1,4.1,0,0,0,.169-.8c.02-1.21,0-2.421.02-3.634L1.648,0l.2.294V.613a4.159,4.159,0,0,0-.111.642C1.7,2.3,1.709,3.357,1.709,4.391Z" transform="translate(14.706 25.796)" fill="#efefef"/>
      <path id="Path-5" data-name="Path" d="M2.409.769c0,1.213,0,2.423-.02,3.634a4.1,4.1,0,0,1-.169.78.579.579,0,0,1-.158-.047c.02-1.222.038-2.444.067-3.663,0-.359-.225-.483-.487-.615C1.094.58.548.286,0,0H.362A4.459,4.459,0,0,1,2.007.683C2.1.751,2.272.739,2.409.769Z" transform="translate(12.486 25.054)" fill="#dbc092"/>
      <path id="Path-6" data-name="Path" d="M0,1.337V1.019L1.575.153h0L2.255,0c-.1.418-.455.524-.785.666-.23.1-.452.227-.688.315a.59.59,0,0,0-.391.668V4.617l.5.324L.05,5.083Z" transform="translate(16.526 25.068)" fill="#262422"/>
      <path id="Shape" d="M17.84,10.535c-.67-.294-1.359-.56-2.041-.836-.049-.068-.087-.186-.148-.2-.986-.224-1.972-.436-2.958-.648l-.706-.176c-.732-.018-1.458-.056-2.2-.053a19.276,19.276,0,0,0-5.4.942l-.247-.156c-.112.456-.446.438-.823.485a2.82,2.82,0,0,0-.992.43c-.455.266-.893.574-1.336.863A2.541,2.541,0,0,1,1.04,7.124,3.786,3.786,0,0,1,2.178,6.4,9.054,9.054,0,0,0,5.97,3.323,16.731,16.731,0,0,0,6.976,1.85a3.4,3.4,0,0,1,6-.109,9.53,9.53,0,0,0,3.943,3.5,6.894,6.894,0,0,1,2.969,2.468A2.436,2.436,0,0,1,19.13,11.2C18.7,10.973,18.281,10.729,17.84,10.535Z" transform="translate(5.587 2.838)" fill="#1f1f1f"/>
      <path id="Path-7" data-name="Path" d="M5.432,11.749c-.137-.029-.312-.018-.4-.1a4.5,4.5,0,0,0-1.645-.692c-.093-.386-.172-.739-.647-.883a.858.858,0,0,1-.49-.589.71.71,0,0,0-.207-.53.7.7,0,0,0-.528-.2c-.015-.109-.029-.218-.047-.327l-.076-.153c-.067-.186-.079-.459-.21-.542C.628,7.379.648,6.846.648,6.313a1.338,1.338,0,0,0-.2-.721A2.883,2.883,0,0,1,0,3.89c.023-1.1.1-2.2.152-3.3L.5.68l.187.377a2.594,2.594,0,0,0,.1.81c.33.7.718,1.378,1.082,2.061L1.451,5.7,1.6,5.8c.254-.589.6-.981,1.263-.836a.127.127,0,0,1,.053.071l.047.177.073-.124A5.616,5.616,0,0,0,6.563,6,4.417,4.417,0,0,0,9.716,4.447c.216.194.435.383.65.589.166.153.327.315.49.474l.181-.106c-.052-.294-.1-.574-.16-.857s-.14-.657-.216-.972A12.976,12.976,0,0,0,11.953,0c.032.194.064.389.1.589q.035,2.017.076,4.04c-.143.333-.309.66-.423,1a3.13,3.13,0,0,0-.158.816c-.026.456.029.9-.467,1.2-.152.091-.175.4-.26.589-.254.613-.977.91-1.073,1.643,0,.094-.26.206-.408.224-.236.027-.324.127-.382.356a4.26,4.26,0,0,1-.315.686h0a1.411,1.411,0,0,0-1.167.294,1.928,1.928,0,0,1-.6.274Z" transform="translate(9.464 14.073)" fill="#a15519"/>
      <path id="Path-8" data-name="Path" d="M.335,3.322,0,3.227H0l.1-.38c0-.024.044-.047.041-.068A.911.911,0,0,0,.1,2.627L.359.942A19.4,19.4,0,0,1,5.758,0c.735,0,1.458.035,2.2.053-.041.068-.067.165-.128.2-.974.506-1.945,1.025-2.937,1.5a2.313,2.313,0,0,1-.817.109c-.613.041-1.222.068-1.838.1-.058.368-.1.639-.149.945Z" transform="translate(9.625 11.443)" fill="#fbf2e3"/>
      <path id="Path-9" data-name="Path" d="M3.147,2.061l-.1.38L0,1.779C.443,1.484.875,1.19,1.339.916A2.812,2.812,0,0,1,2.33.486C2.707.439,3.042.456,3.153,0L3.4.156,3.147,1.84Z" transform="translate(6.577 12.244)" fill="#111110"/>
      <path id="Path-10" data-name="Path" d="M0,2.909a4.26,4.26,0,0,0,.315-.686c.058-.23.146-.33.382-.356.149-.018.4-.13.408-.224C1.2.91,1.925.613,2.179,0c0,.433.335.548.645.68S3.38.9,3.7,1.028L3.491,1.7a.466.466,0,0,0-.583-.035c-.732.383-1.482.73-2.223,1.092Z" transform="translate(18.11 22.315)" fill="#cd7b4c"/>
      <path id="Path-11" data-name="Path" d="M.131,2.126C.1,1.932.064,1.737.032,1.537.032,1.025.009.512,0,0,.68.277,1.368.542,2.042.836c.44.194.875.439,1.289.663L.458,2.1Z" transform="translate(21.388 12.53)" fill="#111110"/>
      <path id="Path-12" data-name="Path" d="M1.041,0a.7.7,0,0,1,.531.206.71.71,0,0,1,.2.536.858.858,0,0,0,.49.589c.475.144.554.5.648.883H2.552L0,.976C.058.357.543.172,1.041,0Z" transform="translate(9.934 22.815)" fill="#cd7b4c"/>
      <path id="Path-13" data-name="Path" d="M0,.018.324,0c.018.082,0,.206.061.239a1.135,1.135,0,0,1,.239,1.7A2.886,2.886,0,0,0,.315,3.357c-.02.241.192.589-.239.7Q.038,2.035,0,.018Z" transform="translate(21.519 14.638)" fill="#d3e8d6"/>
      <path id="Path-14" data-name="Path" d="M.108.071.184.224Z" transform="translate(10.745 22.265)" fill="#cd7b4c"/>
      <path id="Path-15" data-name="Path" d="M0,.588A1.928,1.928,0,0,0,.6.314,1.322,1.322,0,0,1,1.77.02L.2.886Z" transform="translate(16.333 25.216)" fill="#cd7b4c"/>
      <path id="Path-16" data-name="Path" d="M11.26.833c0,.512.02,1.025.032,1.537A12.889,12.889,0,0,1,10,5.945c-.134,0-.315.085-.4.024a4.025,4.025,0,0,0-3.424-.294A2.217,2.217,0,0,1,5,5.66a3.929,3.929,0,0,0-3.824.657C.816,5.633.428,4.959.1,4.255a2.594,2.594,0,0,1-.1-.81l1.662-.312c.125.294.228.589.359.883a1.291,1.291,0,0,0,1.31.883A1.278,1.278,0,0,0,4.441,3.878a3.563,3.563,0,0,0,.146-.657c.058-.445.1-.883.137-1.293L8.137,0c.986.212,1.972.424,2.958.648C11.164.648,11.211.766,11.26.833Z" transform="translate(10.128 11.702)" fill="#fbf2e3"/>
      <path id="Path-17" data-name="Path" d="M3.588.984,4.051.059a.939.939,0,0,1,.292.1c.21.153.545.294.583.5.061.445-.4.233-.6.362a1.762,1.762,0,0,0-.583.666,7.189,7.189,0,0,0-.321,1.178c.251.115.563.247.875.4.114.059.292.165.292.25a.57.57,0,0,1-.222.424,4.181,4.181,0,0,1-.726.339,3.088,3.088,0,0,0-.117-.524.469.469,0,0,0-.583-.294,7.965,7.965,0,0,1-1.3.015l-.4.777a2.615,2.615,0,0,1-.464-.23c-.16-.121-.4-.294-.408-.436C.356,3.3.633,3.316.86,3.26a2.675,2.675,0,0,0,.683-.406,7.136,7.136,0,0,1-.359-1.1A.83.83,0,0,0,.438.989C.28.957.146.8,0,.695a3.2,3.2,0,0,1,.368-.4A3.987,3.987,0,0,1,.9,0l.385.9A1.581,1.581,0,0,1,3.588.984Z" transform="translate(13.425 5.736)" fill="#efefef"/>
      <path id="Path-18" data-name="Path" d="M8.315.186,4.909,2.114c-.041.4-.079.848-.137,1.293a3.563,3.563,0,0,1-.146.657A1.278,1.278,0,0,1,3.517,5.086,1.3,1.3,0,0,1,2.208,4.2c-.131-.277-.233-.565-.359-.883L.187,3.631,0,3.254l1.75-.4c.05-.294.09-.589.149-.945.615-.035,1.225-.062,1.837-.1A2.313,2.313,0,0,0,4.553,1.7C5.545,1.222,6.516.7,7.49.2c.061-.032.088-.13.128-.2Z" transform="translate(9.966 11.502)" fill="#111110"/>
      <path id="Path-19" data-name="Path" d="M.271,1.342a.127.127,0,0,0-.053-.071C.157,1.15.093,1.033,0,.856A6.451,6.451,0,0,1,.84.429,9.358,9.358,0,0,1,5.749.241,8.163,8.163,0,0,1,7.07.753,4.423,4.423,0,0,1,3.932,2.308,5.579,5.579,0,0,1,.405,1.395Z" transform="translate(12.11 17.772)" fill="#fbf2e3"/>
      <path id="Path-20" data-name="Path" d="M8.266,1.394A8.163,8.163,0,0,0,6.945.882a9.358,9.358,0,0,0-4.909.188A6.451,6.451,0,0,0,1.2,1.5c.093.177.158.294.219.415C.755,1.768.405,2.175.152,2.749L0,2.643.411.876A3.929,3.929,0,0,1,4.235.219,2.217,2.217,0,0,0,5.4.234,4.067,4.067,0,0,1,8.826.528c.087.062.268,0,.4-.024.073.321.146.645.213.969s.108.571.16.857l-.181.106a6.2,6.2,0,0,1-.5-.462C8.7,1.777,8.482,1.589,8.266,1.394Z" transform="translate(10.914 17.131)" fill="#855238"/>
      <path id="Path-21" data-name="Path" d="M.086.059l.12.053L.133.236Z" transform="translate(12.295 19.055)" fill="#855238"/>
      <path id="Path-22" data-name="Path" d="M.125.258V.037A.911.911,0,0,1,.166.19C.169.211.14.234.125.258Z" transform="translate(9.599 14.048)" fill="#a15519"/>
    </g>
  </g>
</svg>
