<svg id="icon_honour_levels_globetrotter" data-name="icon / honour levels / globetrotter" xmlns="http://www.w3.org/2000/svg" width="35" height="35" viewBox="0 0 35 35">
  <g id="ilustration_-_globetrotter" data-name="ilustration - globetrotter">
    <rect id="Rectangle" width="35" height="35" fill="none"/>
    <g id="Badge_Globetrotter" transform="translate(2.188 2.188)">
      <ellipse id="Oval" cx="15.139" cy="15.286" rx="15.139" ry="15.286" transform="translate(0 0)" fill="#fff"/>
      <path id="Path" d="M7.812,28.4A4.986,4.986,0,0,1,5.751,27.13,15.685,15.685,0,0,1,1.358,21.5,15.954,15.954,0,0,1,.121,17.062a16.73,16.73,0,0,1,.294-5.712A14.208,14.208,0,0,1,2.683,6.385,15.3,15.3,0,0,1,5.227,3.558,15.766,15.766,0,0,1,9.494.92,8.5,8.5,0,0,1,12.35.174C13.513.114,14.677.019,15.843,0A13.339,13.339,0,0,1,23.5,2.5,14.5,14.5,0,0,1,27.707,6.81a15.027,15.027,0,0,1,2.309,6.205,15.27,15.27,0,0,1-.448,6.375,14.059,14.059,0,0,1-3.4,6,29.159,29.159,0,0,1-2.27,2.081,3.461,3.461,0,0,1-.907.41,6.524,6.524,0,0,0-1.039-3.1c-.25-.36-.524-.7-.786-1.056-.035-.577-.068-1.157-.1-1.733l2.992.532A1.4,1.4,0,0,0,25.875,21.5a8.805,8.805,0,0,0,.48-5.367,1.622,1.622,0,0,0-2.141-1.365c-.551.119-1.1.217-1.658.324a2.3,2.3,0,0,1,.038-1.748l.542.172c-.091-.372-.156-.636-.224-.892-.041-.773-.021-1.555-.135-2.313A7.54,7.54,0,0,0,13.6,4.238a7.638,7.638,0,0,0-5.822,8.524l-.453.892,1.019-.244-.032.229c-.024.3-.047.613-.068.919l-.018.511L6.8,14.91a8.8,8.8,0,0,0-1.593-.161,1.3,1.3,0,0,0-.91.488,5.252,5.252,0,0,0-.642,3.369,21.15,21.15,0,0,0,.615,2.727,1.423,1.423,0,0,0,1.876,1.189c1-.172,1.991-.36,2.986-.538-.038.809-.08,1.62-.118,2.429A7.32,7.32,0,0,0,7.812,28.4Z" transform="translate(0.174 0.183)" fill="#f1c181"/>
      <path id="Path-2" data-name="Path" d="M0,7.315A8.834,8.834,0,0,1-2.734,1.747C-2.79,1.3-2.843.856-2.9.407-3.6.294-4.311.19-5.016.065-6.45-.193-7.471.325-7.753,1.505a7.8,7.8,0,0,0,.614,5.666A1.856,1.856,0,0,0-4.816,8.244L-.99,7.683Z" transform="translate(11.432 14.454)" fill="#cd7b4c"/>
      <path id="Path-3" data-name="Path" d="M.085.627.118.4,1.349,0c.041,3.193.939,5.982,3.637,7.921-.106.595.294,1.329-.524,1.692a2.877,2.877,0,0,0,2.733,1.656A2.846,2.846,0,0,0,9.782,9.574c-.589-.3-.294-.868-.427-1.305a1.1,1.1,0,0,1,.515-.824,8.433,8.433,0,0,0,2.683-4.121A11.152,11.152,0,0,0,12.877.169l1.5.169a2.3,2.3,0,0,0-.038,1.748c-.041.425-.082.847-.127,1.27a9.169,9.169,0,0,1-2.138,5.275,4.415,4.415,0,0,0-.936,1.053c.056.217.106.434.171.648a9.763,9.763,0,0,1,.489,1.632c.171,1.487.259,2.973.38,4.442a14.515,14.515,0,0,1-6.693.928,11.616,11.616,0,0,1-3.484-.725c.065-1.053.135-2.1.191-3.158a7.73,7.73,0,0,1,.719-3.137.515.515,0,0,0-.027-.61L2.111,8.649A12.032,12.032,0,0,1,0,2.069l.018-.511Z" transform="translate(8.387 13.19)" fill="#262422"/>
      <path id="Path-4" data-name="Path" d="M-1.26,5.572A15.052,15.052,0,0,1-.162.732,7.468,7.468,0,0,0,0,0H-.689c-.361.381-.738.755-1.082,1.145A6.143,6.143,0,0,0-3.2,4.514C-2.829,5.192-1.986,5.314-1.26,5.572Z" transform="translate(10.481 23.899)" fill="#262422"/>
      <path id="Path-5" data-name="Path" d="M2.217,0a.515.515,0,0,1,.027.621,7.73,7.73,0,0,0-.719,3.125C1.469,4.8,1.4,5.851,1.334,6.9L0,6.378A27.33,27.33,0,0,1,.515,2.762C.716,2.168.9,1.591,1.087,1,1.422.618,1.543,0,2.217,0Z" transform="translate(9.058 22.894)" fill="#c4702a"/>
      <path id="Path-6" data-name="Path" d="M1.039,6.758C.919,5.272.83,3.785.66,2.316A9.763,9.763,0,0,0,.171.684C.106.47.056.253,0,.036A.826.826,0,0,1,1.022.565a5.7,5.7,0,0,0,.294.5c.038.226.062.455.118.675a16.974,16.974,0,0,1,.8,4.46Z" transform="translate(19.529 22.838)" fill="#c4702a"/>
      <path id="Path-7" data-name="Path" d="M.916,5.135a17.061,17.061,0,0,0-.8-4.46C.062.455.038.226,0,0H.5c.262.351.536.7.786,1.056a6.524,6.524,0,0,1,1.039,3.1C2.055,4.784,1.443,4.9.916,5.135Z" transform="translate(20.843 23.899)" fill="#262422"/>
      <path id="Path-8" data-name="Path" d="M.06,8.741A7.652,7.652,0,0,1,5.882.207a7.54,7.54,0,0,1,9.179,6.074c.115.758.094,1.54.135,2.313a2.729,2.729,0,0,1-.6-.205c-.294-.178-.533-.422-.8-.624A9.532,9.532,0,0,0,4.733,6.184,12.574,12.574,0,0,0,.7,8.479C.5,8.639.355,8.877.06,8.741Z" transform="translate(7.891 4.205)" fill="#541b21"/>
      <path id="Path-9" data-name="Path" d="M0,6.93A9.149,9.149,0,0,0,2.138,1.655c.044-.422.085-.844.127-1.27C2.818.278,3.372.18,3.922.061A1.622,1.622,0,0,1,6.063,1.426a8.805,8.805,0,0,1-.48,5.367A1.4,1.4,0,0,1,3.766,7.81L.774,7.277Z" transform="translate(20.466 14.892)" fill="#cd7b4c"/>
      <path id="Path-10" data-name="Path" d="M.465,3.073c.309.143.456-.1.654-.262A12.574,12.574,0,0,1,5.15.516,9.532,9.532,0,0,1,14.205,2.1c.271.2.518.446.8.624a2.729,2.729,0,0,0,.6.205c.068.265.133.529.224.892l-.542-.172-1.5-.169c-.032-.045-.056-.125-.094-.131A28.121,28.121,0,0,0,10.457,2.8a26.029,26.029,0,0,0-8.2.508l-1.24.407L0,3.959Z" transform="translate(7.485 9.873)" fill="#c4702a"/>
      <path id="Path-11" data-name="Path" d="M.118.342,1.322,0,2.1,1.067c-.674,0-.8.63-1.131,1.017L0,2.783C.038,1.959.08,1.151.118.342Z" transform="translate(9.176 21.827)" fill="#541b21"/>
      <path id="Path-12" data-name="Path" d="M.939,0l.774.348c.035.577.068,1.157.1,1.733h-.5a5.7,5.7,0,0,1-.294-.5A.826.826,0,0,0,0,1.05,4.285,4.285,0,0,1,.939,0Z" transform="translate(19.526 21.821)" fill="#541b21"/>
      <path id="Path-13" data-name="Path" d="M0,.605A26.117,26.117,0,0,1,8.2.1a28.337,28.337,0,0,1,3.239.547c.038,0,.062.086.094.131a11.09,11.09,0,0,1-.324,3.155A8.433,8.433,0,0,1,8.522,8.051a1.1,1.1,0,0,0-.515.835c-.274.042-.554.068-.822.131A7.01,7.01,0,0,1,5.66,9.38,1.732,1.732,0,0,1,4.376,8.9a.793.793,0,0,0-.739-.378C.939,6.588.041,3.8,0,.605Z" transform="translate(9.735 12.584)" fill="#fbf2e3"/>
      <path id="Path-14" data-name="Path" d="M.524,0a.793.793,0,0,1,.739.366A1.756,1.756,0,0,0,2.547.845,7.186,7.186,0,0,0,4.073.482c.268-.062.548-.089.822-.131.135.437-.171,1,.427,1.305A2.846,2.846,0,0,1,2.733,3.351,2.877,2.877,0,0,1,0,1.695C.83,1.344.418.6.524,0Z" transform="translate(12.848 21.107)" fill="#f9e4be"/>
    </g>
  </g>
</svg>
