<svg id="icon_honour_levels_gadabout" data-name="icon / honour levels / gadabout" xmlns="http://www.w3.org/2000/svg" width="35" height="35" viewBox="0 0 35 35">
  <g id="ilustration_-_gadabout" data-name="ilustration - gadabout">
    <rect id="Rectangle" width="35" height="35" fill="none"/>
    <g id="Badge_Gadabout" transform="translate(2.188 2.188)">
      <ellipse id="Oval" cx="15.139" cy="15.286" rx="15.139" ry="15.286" transform="translate(0.059 0)" fill="#fff"/>
      <path id="Path" d="M7.817,28.446a2.289,2.289,0,0,1-.562-.167,14.947,14.947,0,0,1-4.184-3.726A18.05,18.05,0,0,1,.6,19.77a7.364,7.364,0,0,1-.436-1.826A21.56,21.56,0,0,1,.1,13.229,15.106,15.106,0,0,1,3.386,5.552a14.643,14.643,0,0,1,4.449-3.7A15.218,15.218,0,0,1,16.454.06,18.89,18.89,0,0,1,19.67.794a11.341,11.341,0,0,1,3,1.29A16.172,16.172,0,0,1,27.149,6.12a14.638,14.638,0,0,1,2.747,6.2,15.06,15.06,0,0,1,.118,4.882,15.422,15.422,0,0,1-1.6,5.129,13.61,13.61,0,0,1-4.608,5.3,3.475,3.475,0,0,1-.686.271,1.946,1.946,0,0,1-.156-.479,5.249,5.249,0,0,0-1.331-3.113,4.923,4.923,0,0,0-3.566-1.948c-.713-.03-.35-.568-.418-.892a7.87,7.87,0,0,0,3.239-4.118,4,4,0,0,0,.489-.205c.212-.11.536-.205.589-.381.183-.529.5-1.115-.106-1.606a5.834,5.834,0,0,1,1.01-.746c1.11-.494,2.25-.925,3.4-1.392-1.452-.458-3-.83-3.7-2.492a6.925,6.925,0,0,0,1.075-.508c1.213-.853,1.231-1.487.462-2.492a8.088,8.088,0,0,0-2.736-2.188c.08.357.144.595.183.83a1.215,1.215,0,0,1-.645,1.451,2.563,2.563,0,0,1-2.15.027,1.666,1.666,0,0,1-.883-2.236c.159-.571.392-1.121.615-1.748a1.709,1.709,0,0,0-.451,0,39,39,0,0,0-3.716,1.252c-1.2.514-2.282,1.219-2.429,2.762a15.828,15.828,0,0,0-4.835-.621A5.694,5.694,0,0,1,8.854,9.438a2.415,2.415,0,0,1-.883,2.694c-.321-.3-.657-.618-.972-.943s-.571-.63-.857-.948l-.165.083a24.176,24.176,0,0,0,.018,2.489,3.337,3.337,0,0,0,1.643,2.676c.5.3,1.063.5,1.6.749a.887.887,0,0,0,.459.916,3.74,3.74,0,0,1,.562.666,4.426,4.426,0,0,0,.194.636,7.3,7.3,0,0,0,2.727,2.973,3.062,3.062,0,0,1-.027.773c-.038.134-.259.217-.4.324-.233-.279-.5-.178-.772-.077a5.774,5.774,0,0,0-3.743,3.809A16.638,16.638,0,0,0,7.817,28.446Z" transform="translate(0.007 0.098)" fill="#f1c181"/>
      <path id="Shape" d="M.613,6.6A3,3,0,0,1,0,6.089,16.554,16.554,0,0,1,.421,3.9,5.734,5.734,0,0,1,4.161.1c.274-.1.539-.2.771.077A2.831,2.831,0,0,0,7.618,2.025,2.725,2.725,0,0,0,10.245.006a4.912,4.912,0,0,1,3.566,1.948,5.241,5.241,0,0,1,1.334,3.113,1.938,1.938,0,0,0,.159.478,2.838,2.838,0,0,1-.589.595A15.3,15.3,0,0,1,7.27,8.17,15.6,15.6,0,0,1,.613,6.6Z" transform="translate(7.824 22.454)" fill="#5e3527"/>
      <path id="Path-2" data-name="Path" d="M3.281,12.577c-.533-.247-1.092-.452-1.6-.749A3.337,3.337,0,0,1,.041,9.152,24.176,24.176,0,0,1,.024,6.663L.189,6.58c.294.318.559.642.857.948s.651.633.972.943A2.415,2.415,0,0,0,2.9,5.777,5.793,5.793,0,0,0,1.107,3.4a15.828,15.828,0,0,1,4.85.621C6.1,2.477,7.2,1.769,8.387,1.258a37.49,37.49,0,0,1,3.7-1.243,1.709,1.709,0,0,1,.451,0c-.224.627-.456,1.189-.615,1.748A1.673,1.673,0,0,0,12.8,4a2.563,2.563,0,0,0,2.15-.024A1.211,1.211,0,0,0,15.6,2.524c-.038-.238-.1-.473-.183-.83a8.088,8.088,0,0,1,2.742,2.194c.769,1.008.751,1.638-.462,2.492a6.925,6.925,0,0,1-1.075.508c.7,1.662,2.25,2.034,3.7,2.492-1.154.467-2.294.892-3.4,1.392a5.834,5.834,0,0,0-1.01.746l-.542.265a1.876,1.876,0,0,1-.021-.3,3.69,3.69,0,0,0-2.485-4.133,9.186,9.186,0,0,0-6.11-.033,4.121,4.121,0,0,0-2.912,3.4A12.044,12.044,0,0,0,3.828,12.6Z" transform="translate(5.957 3.755)" fill="#855238"/>
      <path id="Path-3" data-name="Path" d="M.015,5.781l.548.033A12.044,12.044,0,0,1,.577,3.908,4.121,4.121,0,0,1,3.489.507,9.186,9.186,0,0,1,9.6.539a3.69,3.69,0,0,1,2.485,4.133,1.876,1.876,0,0,0,.021.3l.542-.265c.607.491.294,1.076.106,1.606-.059.175-.383.271-.589.381a3.992,3.992,0,0,1-.5.187,6.794,6.794,0,0,0-.613.547A7.074,7.074,0,0,1,7.765,9.667,5.978,5.978,0,0,1,2.518,8.642,18.708,18.708,0,0,1,1.045,7.378a3.741,3.741,0,0,0-.571-.684A.881.881,0,0,1,.015,5.781Z" transform="translate(9.223 10.551)" fill="#fbf2e3"/>
      <path id="Path-4" data-name="Path" d="M0,.476C.492.9.954,1.368,1.472,1.739A5.978,5.978,0,0,0,6.72,2.765,6.9,6.9,0,0,0,10,.547,6.794,6.794,0,0,1,10.616,0,7.87,7.87,0,0,1,7.377,4.118a4.831,4.831,0,0,1-2.724.366A13.673,13.673,0,0,1,2.921,4.1,7.3,7.3,0,0,1,.194,1.127,4.427,4.427,0,0,1,0,.476Z" transform="translate(10.259 17.438)" fill="#949143"/>
      <path id="Path-5" data-name="Path" d="M.424,0A13.673,13.673,0,0,0,2.156.384,4.905,4.905,0,0,0,4.894.018c.068.336-.294.874.418.892A2.725,2.725,0,0,1,2.686,2.929,2.83,2.83,0,0,1,0,1.085C.138.978.359.895.4.761A3.062,3.062,0,0,0,.424,0Z" transform="translate(12.756 21.539)" fill="#f9e4be"/>
      <path id="Path-6" data-name="Path" d="M0,.6C.686.395,1.257.243,1.817.053c.4-.14.565,0,.66.392.138.574.324,1.136.492,1.719a1.219,1.219,0,0,1-.294.208c-.645.2-1.293.378-1.964.571C.453,2.155.247,1.424,0,.6Z" transform="translate(17.215 25.931)" fill="#cd7b4c"/>
      <path id="Path-7" data-name="Path" d="M1.625,2.343,0,1.826C.177,1.231.336.684.521.042c.542-.19,1.042.327,1.637.381C2.3,1.142,1.749,1.6,1.625,2.343Z" transform="translate(11.116 25.365)" fill="#cd7b4c"/>
    </g>
  </g>
</svg>
