<svg id="icon_honour_levels_cosmopolite" data-name="icon / honour levels / cosmopolite" xmlns="http://www.w3.org/2000/svg" width="35" height="35" viewBox="0 0 35 35">
  <g id="ilustration_-_cosmopolite" data-name="ilustration - cosmopolite">
    <rect id="Rectangle" width="35" height="35" fill="none"/>
    <g id="Badge_Cosmopolite" transform="translate(2.188 2.188)">
      <ellipse id="Oval" cx="15.139" cy="15.286" rx="15.139" ry="15.286" transform="translate(0 0)" fill="#fff"/>
      <path id="Path" d="M7.824,28.213a.844.844,0,0,1-.789-.086A18.017,18.017,0,0,1,3.616,25.1,16.009,16.009,0,0,1,.58,19.406a7.4,7.4,0,0,1-.445-2.423c0-.74-.168-1.487-.13-2.221a15.6,15.6,0,0,1,.5-3.547A15.905,15.905,0,0,1,2.4,6.951,12.2,12.2,0,0,1,5.394,3.579c.63-.449,1.219-.943,1.852-1.353A14.23,14.23,0,0,1,12.871.16a15.063,15.063,0,0,1,7.9.966,15.389,15.389,0,0,1,5.336,3.648,17.02,17.02,0,0,1,2.279,3.288,14.328,14.328,0,0,1,1.7,5.307,12.031,12.031,0,0,1-.1,4.2,17.547,17.547,0,0,1-1.416,4.46,14.124,14.124,0,0,1-3.369,4.46c-.654.559-1.24,1.293-2.206,1.359A6.1,6.1,0,0,0,19.285,22.5c-.2-.092-.406-.164-.589-.238V20.411c.085,0,.2,0,.244-.051a6.8,6.8,0,0,0,1.843-3.065l1.287-.577V15.1c-.48,0-.66-.256-.677-.7s-.106-.892-.165-1.353a14.381,14.381,0,0,0,1.926-.892.747.747,0,0,0,0-1.386,10.926,10.926,0,0,0-1.7-.749c-.05-.514-.1-1.029-.156-1.543V6.564l-.029-.681a2.307,2.307,0,0,0-2.409-1.876H12.544a2.345,2.345,0,0,0-2.462,1.716l-.047.241-.068.277v.348c0,.315-.027.63-.035.946-.027.833-.047,1.665-.071,2.495a11.644,11.644,0,0,0-1.637.7c-.707.437-.7,1.038-.027,1.513a10.428,10.428,0,0,0,1.207.642c-.091.847.294,1.784-.483,2.512-.074.071-.056.3-.027.416A2.071,2.071,0,0,0,9.485,17a2.408,2.408,0,0,1,.657.844,7.525,7.525,0,0,0,1.837,2.712,4.357,4.357,0,0,1,.524.728v.954A5.285,5.285,0,0,0,9.623,23.8,6.227,6.227,0,0,0,7.824,28.213Z" transform="translate(0.159 0.063)" fill="#cee5b5"/>
      <path id="Shape" d="M5.86,15.884A15.073,15.073,0,0,1,.559,14.4c-.294-.131-.589-.244-.556-.648a6.225,6.225,0,0,1,1.814-4.41A5.286,5.286,0,0,1,4.7,7.772c.092.175.18.354.277.529A2.892,2.892,0,0,0,8.565,9.613,2.777,2.777,0,0,0,10.333,6.47V3.393C9.2,2.8,8.787,2.144,8.99,1.282A1.673,1.673,0,0,1,10.607,0a1.618,1.618,0,0,1,1.611,1.273c.194.916-.2,1.544-1.349,2.118V7.806c.188.074.4.145.589.238a6.116,6.116,0,0,1,3.713,5.351c-.109.149-.185.355-.329.437a14.778,14.778,0,0,1-7.615,2.115Q6.544,15.948,5.86,15.884Z" transform="translate(7.981 14.527)" fill="#111110"/>
      <path id="Shape-2" data-name="Shape" d="M7.308,8.89c-.589-.03-1.111-.068-1.632-.066-.068,0-.139.194-.209.3-.106-.033-.271-.033-.294-.1-.356-.651-.955-.621-1.555-.594a4.352,4.352,0,0,0-.509-.752A7.533,7.533,0,0,1,1.271,4.963a2.4,2.4,0,0,0-.656-.844,2.074,2.074,0,0,1-.59-1.19C0,2.795-.022,2.584.052,2.513.824,1.787.444.848.535,0a25.111,25.111,0,0,0,11.8.178c.059.452.144.892.165,1.353s.177.714.657.714v1.63l-1.287.564A6.8,6.8,0,0,1,10.029,7.5c-.044.051-.159.036-.247.051V5c1.148-.573,1.543-1.189,1.349-2.117A1.618,1.618,0,0,0,9.519,1.608,1.672,1.672,0,0,0,7.9,2.89C7.7,3.752,8.112,4.4,9.246,5V8.078c-.074.084-.136.22-.221.235a4.044,4.044,0,0,0-1.661.976Z" transform="translate(9.065 12.919)" fill="#fbf2e3"/>
      <path id="Path-2" data-name="Path" d="M13.516,3.03a25.105,25.105,0,0,1-11.8-.178A10.428,10.428,0,0,1,.506,2.209C-.171,1.733-.174,1.133.532.7A11.644,11.644,0,0,1,2.17,0a4,4,0,0,1,.5.083,17.3,17.3,0,0,0,5.595.8C8.742.856,9.216.723,9.69.728A21.635,21.635,0,0,0,13.757.006a10.926,10.926,0,0,1,1.7.749.75.75,0,0,1,0,1.386A14.38,14.38,0,0,1,13.516,3.03Z" transform="translate(7.866 10.068)" fill="#111110"/>
      <path id="Shape-3" data-name="Shape" d="M.5,3.526A4.085,4.085,0,0,0,0,3.443C.023,2.614.044,1.781.071.949.071.634.095.318.106,0,.524.05.942.084,1.357.151c1.1.176,2.2.423,3.313.533a17.424,17.424,0,0,0,2.724,0A10.241,10.241,0,0,0,9.626.336,5.051,5.051,0,0,1,11.435,0V1.047c-.277-.024-.41.077-.407.386s.044.512.407.47c.049.517.1,1.032.153,1.546a21.427,21.427,0,0,1-4.067.723c-.473,0-.948.128-1.425.157q-.315.018-.627.017A18.732,18.732,0,0,1,.5,3.526Z" transform="translate(10.027 6.625)" fill="#1f1f1f"/>
      <path id="Path-3" data-name="Path" d="M0,1.716A2.347,2.347,0,0,1,2.462,0H8.778a2.3,2.3,0,0,1,2.409,1.876l-.262-.211a1.5,1.5,0,0,1-.277.2,10.378,10.378,0,0,1-3.375.7A20.3,20.3,0,0,1,0,1.716Z" transform="translate(10.242 4.047)" fill="#1f1f1f"/>
      <path id="Path-4" data-name="Path" d="M0,.351C.589.324,1.2.294,1.555.946c.038.068.2.068.294.1.25.678.277,1.487,1.034,1.948.294-.636.589-1.207.863-1.784A3.919,3.919,0,0,1,5.406.235c.085,0,.147-.152.221-.235A2.776,2.776,0,0,1,3.861,3.143,2.894,2.894,0,0,1,.294,1.835C.2,1.659.109,1.481.018,1.305Z" transform="translate(12.662 20.994)" fill="#fdfdfd"/>
      <path id="Path-5" data-name="Path" d="M.1.042A20.3,20.3,0,0,0,7.374.9,10.378,10.378,0,0,0,10.748.2a1.5,1.5,0,0,0,.277-.2l.262.211.041.7a5.048,5.048,0,0,0-1.808.336,10.244,10.244,0,0,1-2.232.348,17.356,17.356,0,0,1-2.724,0c-1.11-.11-2.209-.357-3.313-.532C.836.99.418.957,0,.91V.562L.068.285Z" transform="translate(10.142 5.721)" fill="#111110"/>
      <path id="Path-6" data-name="Path" d="M.406.859C.044.9,0,.687,0,.39S.13-.021.406,0Z" transform="translate(21.052 7.671)" fill="#111110"/>
      <path id="Path-7" data-name="Path" d="M.181.01.113.287Z" transform="translate(10.013 5.993)" fill="#1f1f1f"/>
      <path id="Path-8" data-name="Path" d="M1.214,2.438a1.19,1.19,0,0,1-.872-.362A1.214,1.214,0,0,1,0,1.189,1.248,1.248,0,0,1,1.229,0,1.272,1.272,0,0,1,2.454,1.189a1.216,1.216,0,0,1-.351.9,1.192,1.192,0,0,1-.888.353Z" transform="translate(17.373 14.944)" fill="#efefef"/>
      <path id="Path-9" data-name="Path" d="M2.5,1.031a1.838,1.838,0,0,1-2.138.253A.969.969,0,0,1,0,.591a.538.538,0,0,1,.149-.4A.527.527,0,0,1,.54.029c.333-.021.624.068.654.55H.487C.516.7.513.811.56.838A1.128,1.128,0,0,0,2.183.5c.244-.321.383-.33.624,0A1.171,1.171,0,0,0,4.371.88C4.45.841,4.48.707,4.6.508L3.823.633c-.029-.1-.068-.161-.053-.2.159-.384.456-.55.816-.354a.893.893,0,0,1,.38.595.624.624,0,0,1-.5.7A1.874,1.874,0,0,1,2.5,1.031Z" transform="translate(13.03 17.953)" fill="#262422"/>
      <path id="Path-10" data-name="Path" d="M1.9.461c-.277.574-.557,1.145-.863,1.784C.277,1.784.25.975,0,.3.071.193.141,0,.209,0,.73,0,1.249.036,1.84.065Z" transform="translate(14.535 21.747)" fill="#f9e4be"/>
      <path id="Path-11" data-name="Path" d="M.153.125.171.172.124.167.153.125Z" transform="translate(20.996 8.81)" fill="#111110"/>
    </g>
  </g>
</svg>
