<svg id="icon_honour_levels_explorer" data-name="icon / honour levels / explorer" xmlns="http://www.w3.org/2000/svg" width="35" height="35" viewBox="0 0 35 35">
  <g id="ilustration_-_explorer" data-name="ilustration - explorer">
    <rect id="Rectangle" width="35" height="35" fill="none"/>
    <g id="Badge_Explorer" transform="translate(2.188 2.188)">
      <ellipse id="Oval" cx="15.286" cy="15.139" rx="15.286" ry="15.139" transform="translate(0.003 0)" fill="#fff"/>
      <path id="Path" d="M7.816,28.168a6.552,6.552,0,0,1-.934-.392,13.62,13.62,0,0,1-4.225-4.025A13.977,13.977,0,0,1,.19,17.741C-.3,13.963.089,10.379,2.271,7.11a15.959,15.959,0,0,1,3.779-4.1A14.913,14.913,0,0,1,12.327.252,15.372,15.372,0,0,1,26.759,5.344a14.971,14.971,0,0,1,3.077,5.745,15.734,15.734,0,0,1,.464,5.489,14.342,14.342,0,0,1-2.6,7.1A18.211,18.211,0,0,1,24.55,26.99a5.751,5.751,0,0,1-1.273.633,5.817,5.817,0,0,0-2.289-4.29c-.128-.15.375-.5-.167-.524,0-.312,0-.645-.461-.318-.779.038-1.513-.48-2.316-.194-.443-.233-.33-.651-.345-1.028a6.37,6.37,0,0,0,2.081-1.808c.381-.589.708-1.222,1.053-1.835.178-.318.3-.633.782-.671s.675-.5.749-.922.086-.789-.419-1a.773.773,0,0,1-.44-.845c.027-.483,0-.966,0-1.449,1.323-.183,2.649-.347,3.969-.557a.822.822,0,0,0,.511-.421.5.5,0,0,0-.013-.41.513.513,0,0,0-.314-.267c-.931-.421-1.855-.857-2.78-1.29L21.52,9.107A6.1,6.1,0,0,0,15.294,4.8a5.979,5.979,0,0,0-5.623,4.27l-1.32.713c-.568.271-1.139.536-1.707.81-.44.212-.892.421-1.311.651-.265.141-.479.35-.387.686a.554.554,0,0,0,.544.459c.256.015.505.106.761.144q1.573.221,3.152.43a2.248,2.248,0,0,1-.024,1.882c-.449.73-.5,1.472.155,1.967a3.521,3.521,0,0,1,1,1.44A6.09,6.09,0,0,0,12.3,20.491c.381.294.723.636,1.079.954a4.686,4.686,0,0,0,0,.5c0,.244-.1.368-.345.35-.731-.347-.731-.347-1.585.241l-.488-.047a.092.092,0,0,0-.048-.068c-.024-.012-.048,0-.074,0,0,.48-.333.621-.711.724-.535.15-.913.427-.907,1.039h0a.454.454,0,0,0-.4.165.444.444,0,0,0-.075.423.076.076,0,0,1-.015.091c-.624.032-.541.471-.511.883h0c-.378.218-.125.589-.19.863Z" transform="translate(0 0.101)" fill="#f1c181"/>
      <path id="Path-2" data-name="Path" d="M0,1.764C0,1.151.372.88.907.724c.378-.1.723-.244.711-.724h.074c.018,0,.033.044.048.068a2.787,2.787,0,0,0,.3.777c.526.668,1.1,1.3,1.65,1.949,0,1.084-.039,2.164-.036,3.239,0,.645.226.854.892.86h3.8c.731,0,.847-.138.859-.845,0-1,.021-1.994.033-2.992a5.1,5.1,0,0,0,.725-.589c.574-.674,1.112-1.375,1.665-2.061.541.021.039.374.167.524V6.608a7.839,7.839,0,0,1-3.033,1,16.425,16.425,0,0,1-4.621.135,7.087,7.087,0,0,1-3.25-.819V1.034Z" transform="translate(9.217 22.512)" fill="#dbc092"/>
      <path id="Path-3" data-name="Path" d="M1.394.736,2.266,0V5.889A4.352,4.352,0,0,1,0,4.712L.205,3.169c.062-.294.128-.589.19-.863h0c.169-.294.342-.589.511-.883a.076.076,0,0,0,.015-.091L1.4.742Z" transform="translate(7.823 23.54)" fill="#71415e"/>
      <path id="Path-4" data-name="Path" d="M0,5.677V0A5.76,5.76,0,0,1,2.289,4.29c-.1.156-.169.383-.315.456C1.329,5.083.66,5.371,0,5.677Z" transform="translate(20.986 23.44)" fill="#71415e"/>
      <path id="Path-5" data-name="Path" d="M4.333,8.69c-.357-.318-.7-.66-1.079-.954A6.09,6.09,0,0,1,1.487,5.5a3.521,3.521,0,0,0-1-1.44C-.166,3.563-.106,2.821.334,2.091A2.247,2.247,0,0,0,.358.209C2.171.25,3.985.35,5.8.315,8.014.271,10.229.109,12.441,0c0,.483.033.966,0,1.449a.773.773,0,0,0,.44.845c.505.206.488.607.419,1s-.268.883-.749.922-.595.353-.782.671c-.345.612-.672,1.243-1.053,1.835A6.138,6.138,0,0,1,8.635,8.525a3.181,3.181,0,0,1-2.022.336C5.852,8.831,5.094,8.749,4.333,8.69Z" transform="translate(9.047 12.851)" fill="#fbf2e3"/>
      <path id="Path-6" data-name="Path" d="M16.562,2.971c-2.212.109-4.427.271-6.642.315-1.814.035-3.627-.065-5.441-.106Q2.9,2.968,1.327,2.75c-.256-.038-.505-.13-.761-.144a.554.554,0,0,1-.544-.459C-.07,1.811.144,1.6.408,1.461c.431-.23.871-.439,1.311-.651C2.287.536,2.858.271,3.426,0c.059.056.116.156.181.162,1.71.127,3.419.294,5.132.347,1.93.059,3.865.027,5.8,0A19.366,19.366,0,0,0,16.756.324,9.678,9.678,0,0,0,17.945.029c.925.433,1.849.869,2.78,1.29a.513.513,0,0,1,.317.27.5.5,0,0,1,.01.414.822.822,0,0,1-.529.427C19.211,2.624,17.885,2.783,16.562,2.971Z" transform="translate(4.926 9.88)" fill="#5e2f1e"/>
      <path id="Path-7" data-name="Path" d="M0,4.271A5.979,5.979,0,0,1,5.623,0a6.1,6.1,0,0,1,6.226,4.305,10.416,10.416,0,0,1-1.436.165C6.943,4.4,3.464,4.7,0,4.271Z" transform="translate(9.672 4.896)" fill="#5e2f1e"/>
      <path id="Path-8" data-name="Path" d="M1.3,0C4.76.424,8.239.133,11.7.2A10.416,10.416,0,0,0,13.139.035l1.38.692a9.678,9.678,0,0,1-1.189.294,19.366,19.366,0,0,1-2.218.186c-1.933.027-3.865.059-5.8,0C3.6,1.154,1.891.986.181.86.116.86.059.754,0,.7Z" transform="translate(8.376 9.167)" fill="#1d1b1a"/>
      <path id="Path-9" data-name="Path" d="M6.61.251c.8-.294,1.537.233,2.316.194A9.253,9.253,0,0,1,6.791,3.019L5.215,2.848a2.206,2.206,0,0,0-2.765.144H1.945A9.748,9.748,0,0,1,0,.478C.853-.111.853-.111,1.585.236A2.624,2.624,0,0,0,4.044,1.959,2.676,2.676,0,0,0,6.61.251Z" transform="translate(11.435 22.152)" fill="#dbc092"/>
      <path id="Path-10" data-name="Path" d="M5.022,1.039A2.676,2.676,0,0,1,2.459,2.75,2.624,2.624,0,0,1,0,1.016C.25,1.034.354.91.345.666v-.5c.761.059,1.519.141,2.281.171A3.211,3.211,0,0,0,4.665,0C4.692.389,4.579.807,5.022,1.039Z" transform="translate(13.023 21.364)" fill="#f9e4be"/>
      <path id="Path-11" data-name="Path" d="M0,2.708A9.3,9.3,0,0,0,2.135.135c.452-.327.452.006.452.318C2.034,1.145,1.5,1.845.922,2.514A5.1,5.1,0,0,1,.2,3.1Z" transform="translate(18.226 22.463)" fill="#5e3527"/>
      <path id="Path-12" data-name="Path" d="M.5.035A9.737,9.737,0,0,0,2.441,2.55l-.494.177C1.394,2.079.824,1.446.3.777A2.787,2.787,0,0,1,0,0Z" transform="translate(10.939 22.598)" fill="#5e3527"/>
      <path id="Path-13" data-name="Path" d="M.532,0C.363.294.19.589.021.883-.009.471-.092.032.532,0Z" transform="translate(8.18 24.971)" fill="#dbc092"/>
      <path id="Path-14" data-name="Path" d="M.5,0,.024.591A.444.444,0,0,1,.1.168.454.454,0,0,1,.5,0Z" transform="translate(8.718 24.283)" fill="#dbc092"/>
      <path id="Path-15" data-name="Path" d="M.255,0C.193.294.127.589.065.863.13.574-.122.218.255,0Z" transform="translate(7.948 25.846)" fill="#dbc092"/>
      <path id="Shape" d="M.892,4.415C.23,4.415,0,4.2,0,3.554,0,2.473.024,1.393.036.321L.529.144h.515A6.574,6.574,0,0,0,3.66.274c.05,0,.1-.179.148-.274L5.373.171l.212.406c0,1-.018,1.993-.033,2.993,0,.706-.128.836-.859.845q-.633.009-1.266.008C2.581,4.422,1.737,4.415.892,4.415Z" transform="translate(12.85 25.004)" fill="#d85b4f"/>
      <path id="Path-16" data-name="Path" d="M2.765.423c-.051.094-.1.271-.149.274A6.81,6.81,0,0,1,0,.567,2.2,2.2,0,0,1,2.765.423Z" transform="translate(13.885 24.578)" fill="#855238"/>
      <path id="Shape-2" data-name="Shape" d="M.456,3.756A2.843,2.843,0,0,1,0,2.155C.066.95.735.016,1.546,0,2.39.018,2.935.9,2.929,2.253a2.638,2.638,0,0,1-.377,1.516,1.164,1.164,0,0,1-1.005.6l-.06,0A1.285,1.285,0,0,1,.456,3.756Z" transform="translate(13.915 25.843)" fill="#f1c181"/>
      <path id="Path-17" data-name="Path" d="M1.124,2.2A1.152,1.152,0,0,1,0,1.129,1.183,1.183,0,0,1,1.082,0,1.1,1.1,0,0,1,1.9.322a1.075,1.075,0,0,1,.313.813A1.037,1.037,0,0,1,1.9,1.9,1.058,1.058,0,0,1,1.124,2.2Z" transform="translate(14.308 26.207)" fill="#354d39"/>
    </g>
  </g>
</svg>
