<?xml version="1.0" encoding="UTF-8"?>
<svg width="35px" height="35px" viewBox="0 0 35 35" version="1.1" xmlns="http://www.w3.org/2000/svg" xmlns:xlink="http://www.w3.org/1999/xlink">
    <!-- Generator: Sketch 53.2 (72643) - https://sketchapp.com -->
    <title>icon / honour levels / adventurer</title>
    <desc>Created with Sketch.</desc>
    <g id="icon-/-honour-levels-/-adventurer" stroke="none" stroke-width="1" fill="none" fill-rule="evenodd">
        <g id="ilustration---adventurer">
            <rect id="Rectangle" x="0" y="0" width="35" height="35"></rect>
            <g id="Badge_Adventurer" transform="translate(2.187500, 2.187500)">
                <ellipse id="Oval" fill="#FFFFFF" cx="15.138762" cy="15.2857403" rx="15.138762" ry="15.2857403"></ellipse>
                <path d="M7.99783654,28.5169296 C7.67709147,28.4181964 7.36568649,28.2908331 7.06730769,28.1363471 C5.25046366,26.9754666 3.71161722,25.4216799 2.56189904,23.5871966 C1.46027162,21.9624621 0.722674142,20.1147708 0.400480769,18.1728155 C0.145491716,16.706465 0.0939552372,15.2114068 0.247355769,13.7307039 C0.414113137,12.4006793 0.726190355,11.0933837 1.17788462,9.83270631 C1.70097266,8.47540694 2.41396647,7.20078501 3.29513221,6.04769417 C4.26051436,4.77223958 5.42281895,3.6618978 6.7375,2.7592233 C7.3765024,2.30133495 8.13623798,2.01887136 8.81646635,1.61450243 C9.88614687,1.02970236 11.0443671,0.627824324 12.2441106,0.425182039 C13.8006028,0.117904093 15.3945908,0.0537261069 16.9703726,0.234890777 C18.3206813,0.378676548 19.6452527,0.707782685 20.9074519,1.2131068 C22.3893228,1.78549767 23.7576514,2.62131332 24.9475962,3.6809466 C27.3593149,5.86929612 29.1261418,8.46498786 29.8888221,11.7088592 C30.2854057,13.2668354 30.4237152,14.8803723 30.298137,16.4839806 C30.1266964,18.6197319 29.5052279,20.6938343 28.4753606,22.5673544 C27.6637642,24.072637 26.6234249,25.4401148 25.3922476,26.6199636 C24.8810729,27.0732759 24.3442297,27.4961982 23.7844351,27.8865898 C23.6308404,27.9536126 23.4658426,27.9899616 23.2985577,27.9936286 C23.1660457,27.4376214 23.1248197,26.8370146 22.8774639,26.3404733 C22.4121995,25.3949636 22.3886418,24.4137743 22.4151442,23.4087985 C22.4151442,23.0936286 22.3856971,22.7784587 22.3709736,22.4662621 C22.1942909,21.7407767 22.0765024,21.6307646 21.3727163,21.6099515 C20.5864784,21.5921117 19.7972957,21.595085 19.0169471,21.6099515 C18.7813702,21.6099515 18.6282452,21.5594053 18.6783053,21.279915 C18.9992788,21.0033981 19.3467548,20.7536408 19.6382813,20.4503641 C20.4628005,19.5851335 20.9545673,18.5117718 21.4375,17.4354369 C21.7113582,17.2302791 22.0941707,17.0875607 22.2384615,16.814017 C22.5329327,16.2580097 22.4121995,15.4135922 22.0853365,14.6762136 L21.5317308,13.7961165 C21.5803177,12.880005 21.5803177,11.9619246 21.5317308,11.0458131 C21.4843881,10.3287013 21.2961989,9.62826913 20.978125,8.98531553 C20.6002628,8.37943111 20.1256322,7.84091555 19.5734976,7.39162621 C18.3590163,6.2994365 16.7591347,5.74882058 15.1368396,5.86470419 C13.5145445,5.98058779 12.0073709,6.75314653 10.9572716,8.00709951 C10.6628005,8.36984223 10.2505409,8.70879854 10.0915264,9.13398058 C9.56612346,10.6889593 9.39894203,12.3444642 9.60270433,13.9745146 C9.5202524,14.2480583 9.43485577,14.5216019 9.34945913,14.7951456 C9.34945913,15.2679005 9.26700721,15.7703883 9.38774038,16.2104369 C9.59501642,16.8249199 9.8510554,17.4215156 10.1533654,17.9944175 C10.7629207,19.3026699 11.4519832,20.5544296 12.6445913,21.4315534 L12.1616587,21.6813107 L11.7788462,21.7050971 C11.7629543,21.6814401 11.7364838,21.6672732 11.7081731,21.6672732 C11.6798624,21.6672732 11.6533919,21.6814401 11.6375,21.7050971 L10.2358173,21.7050971 C9.14038462,21.6099515 8.90480769,21.8180825 8.89302885,22.8944175 C8.89302885,23.4147451 8.89302885,23.9320995 8.89302885,24.4494539 C8.91684803,24.7631061 8.87881444,25.0784137 8.78112981,25.3771238 C8.31543341,26.3605689 8.04911876,27.4280826 7.99783654,28.5169296 Z" id="Path" fill="#A9D9E5"></path>
                <path d="M7.99783654,28.5169296 C8.04610293,27.4254641 8.31043875,26.3548224 8.77524038,25.3682039 C8.87292502,25.0694938 8.91095861,24.7541862 8.88713942,24.440534 C8.90480769,23.9231796 8.88713942,23.4058252 8.88713942,22.8854976 C8.88713942,21.803216 9.13449519,21.595085 10.2299279,21.6961772 C10.1091947,21.7764563 9.9796274,21.9340413 9.86772837,21.9221481 C9.68351237,21.8994866 9.49836395,21.9562275 9.35770015,22.0784521 C9.21703635,22.2006766 9.13387142,22.3770766 9.12860577,22.5643811 C9.00592725,23.2636098 9.00592725,23.9791693 9.12860577,24.6783981 L11.0308894,23.057949 L10.9572716,22.7070995 C11.6875601,22.3146238 12.3795673,22.05 13.1245793,22.5881675 C13.1805288,22.6297937 13.2894832,22.5881675 13.3748798,22.5881675 C14.0344952,22.8379248 14.6882212,23.0966019 15.3566707,23.3225728 C15.5389785,23.3790275 15.733858,23.3790275 15.9161659,23.3225728 C16.5551683,23.1055218 17.1823918,22.8527913 17.8125601,22.6119539 C18.1335337,22.5019417 18.4456731,22.3711165 18.7725361,22.2848908 C19.2407452,22.1600121 20.0917668,22.4543689 20.1594952,22.8379248 C20.2272236,23.2214806 20.4539663,23.2482403 20.6836538,23.393932 C20.9090237,23.5595879 21.1163178,23.7489606 21.3020433,23.9588592 L22.0853365,24.717051 L22.2679087,24.6337985 C22.2679087,24.3037621 22.2679087,23.9677791 22.2679087,23.6377427 C22.2885216,23.245267 22.3385817,22.8557646 22.376863,22.4662621 C22.376863,22.7635922 22.4269231,23.0936286 22.4210337,23.4087985 C22.3945313,24.4137743 22.4210337,25.3949636 22.8833534,26.3404733 C23.1307091,26.8370146 23.1778245,27.4376214 23.3044471,27.9936286 C23.0745026,28.2720044 22.811417,28.5206672 22.5211538,28.7339806 C20.5341669,29.8523267 18.3155658,30.4856756 16.0427885,30.5833738 C13.6734694,30.7166884 11.306015,30.2901151 9.12860577,29.3375607 C8.71045673,29.1383495 8.18040865,29.0610437 7.99783654,28.5169296 Z" id="Path" fill="#4C560F"></path>
                <path d="M9.60270433,13.9745146 C9.39939596,12.3454396 9.5665721,10.691004 10.0915264,9.13695388 C10.2505409,8.71177184 10.6510216,8.37281553 10.9572716,8.01007282 C12.0073709,6.75611984 13.5145445,5.98356109 15.1368396,5.86767749 C16.7591347,5.75179388 18.3590163,6.3024098 19.5734976,7.39459951 C20.1256322,7.84388885 20.6002628,8.38240441 20.978125,8.98828883 C21.2961989,9.63124244 21.4843881,10.3316746 21.5317308,11.0487864 C21.5803177,11.9648979 21.5803177,12.8829783 21.5317308,13.7990898 C20.8300894,13.230014 20.1642743,12.6173163 19.5381611,11.9645631 C19.161238,11.5274879 18.8255409,11.2004248 18.2395433,11.2033981 L12.8654447,11.2033981 C12.377297,11.1831105 11.9224735,11.4528408 11.7022837,11.8932039 C11.2019893,12.7661407 10.4763061,13.4855097 9.60270433,13.9745146 L9.60270433,13.9745146 Z M15.4921274,8.39660194 C15.6275841,8.61365291 15.6923678,8.73853155 15.7865986,8.84557039 C16.2489183,9.44023058 16.7406851,9.99029126 17.4680288,10.2489684 C17.9769314,10.3620917 18.5062532,10.1839381 18.8461538,9.7851335 C19.0935096,9.42239078 19.0611178,9.10424757 18.6105769,8.64635922 C18.2765174,8.29867228 17.8970839,7.99858039 17.4827524,7.75436893 C16.5698918,7.23701456 15.5716346,7.3351335 14.5822115,7.47785194 C13.7294939,7.59916262 12.9616058,8.06351071 12.4531851,8.76529126 C12.2234976,9.06262136 12.055649,9.39860437 12.3295072,9.7851335 C12.6742319,10.2071126 13.2382484,10.3753717 13.7547476,10.2103155 C14.5586538,9.89217233 15.0710337,9.26183252 15.506851,8.39362864 L15.4921274,8.39660194 Z" id="Shape" fill="#4C560F" fill-rule="nonzero"></path>
                <path d="M21.4286659,17.4235437 C20.9457332,18.4998786 20.4539663,19.5732403 19.6294471,20.4384709 C19.334976,20.735801 18.9904447,20.9915049 18.6694712,21.2680218 L17.8420072,21.9072816 C17.6736045,21.9236722 17.5070308,21.955519 17.344351,22.0024272 C16.2422365,22.3810436 15.0510795,22.4059705 13.934375,22.0737864 C13.7468344,22.0365046 13.5569177,22.0126587 13.3660457,22.0024272 L12.6622596,21.4850728 L12.6328125,21.4285801 C11.4549279,20.5514563 10.7511418,19.2996966 10.1415865,17.9914442 C9.83927656,17.4185423 9.58323758,16.8219466 9.37596154,16.2074636 C9.25522837,15.767415 9.34356971,15.2649272 9.33768029,14.7921723 L9.98257212,15.0092233 C10.3119499,16.8300945 11.0738353,18.543125 12.2028846,20.0013956 C13.2512019,21.2918083 14.5910457,21.7050971 16.1723558,21.526699 C17.8213942,21.3423544 18.9109375,20.3373786 19.7766827,19.0231796 C20.5354291,17.8003847 21.0440606,16.4365943 21.2725962,15.0121966 L21.9410457,15.0121966 L21.4286659,17.4235437 Z" id="Path" fill="#1D1B1A"></path>
                <path d="M9.99435096,15.0092233 L9.34945913,14.7921723 L9.60270433,13.9745146 C10.4763061,13.4855097 11.2019893,12.7661407 11.7022837,11.8932039 C11.9249874,11.4563064 12.3792855,11.1903715 12.8654447,11.212318 L18.2395433,11.212318 C18.8284856,11.212318 19.161238,11.5364078 19.5381611,11.973483 C20.1642743,12.6262362 20.8300894,13.2389339 21.5317308,13.8080097 L22.0853365,14.6643204 L21.9498798,15.0032767 L21.2814303,15.0032767 C20.5216947,14.1588592 19.7442909,13.3233617 19.0051683,12.4581311 C18.7083062,12.1045875 18.2651187,11.9110782 17.8066707,11.9348301 C16.2695312,11.9348301 14.7294471,11.9348301 13.189363,11.9348301 C12.8456214,11.9110564 12.5132664,12.0643054 12.3059495,12.3421723 C11.5491587,13.2490291 10.7658654,14.1231796 9.99435096,15.0092233 Z" id="Path" fill="#5E3527"></path>
                <path d="M17.8420072,21.9072816 L18.6694712,21.2680218 C18.6194111,21.5475121 18.7725361,21.6010316 19.008113,21.5980583 C19.7972957,21.5980583 20.5864784,21.5980583 21.3638822,21.5980583 C22.0735577,21.6188714 22.1854567,21.7288835 22.3621394,22.4543689 C22.3238582,22.8438714 22.2737981,23.2333738 22.2531851,23.6258495 C22.2325721,23.9558859 22.2531851,24.2918689 22.2531851,24.6219053 L22.070613,24.7051578 L21.3108774,23.9588592 C21.1251519,23.7489606 20.9178578,23.5595879 20.692488,23.393932 C20.4598558,23.2482403 20.233113,23.2066141 20.1683293,22.8379248 C20.1035457,22.4692354 19.252524,22.1719053 18.7843149,22.2997573 C18.4574519,22.385983 18.1453125,22.5168083 17.8243389,22.6268204 L17.8420072,21.9072816 Z" id="Path" fill="#7E652F"></path>
                <path d="M12.6622596,21.4850728 L13.3660457,22.0024272 L13.3866587,22.5970874 C13.301262,22.5970874 13.1923077,22.6268204 13.1363582,22.5970874 C12.3913462,22.0589199 11.6993389,22.3235437 10.9690505,22.7160194 L11.0426683,23.0668689 L9.12860577,24.6783981 C9.00592725,23.9791693 9.00592725,23.2636098 9.12860577,22.5643811 C9.1315007,22.3718632 9.21676724,22.1900305 9.36242197,22.0657631 C9.5080767,21.9414956 9.69986549,21.8869544 9.88834135,21.9162015 C10.0002404,21.9162015 10.1298077,21.7705097 10.2505409,21.6902306 L11.6610577,21.6902306 L11.7611779,21.8478155 L11.7788462,21.7050971 L12.1528245,21.6872573 L12.403125,21.9280947 L12.6622596,21.4850728 Z" id="Path" fill="#7E652F"></path>
                <path d="M21.9410457,15.0032767 L22.0853365,14.6643204 C22.4121995,15.401699 22.529988,16.2461165 22.2384615,16.8021238 C22.0941707,17.0756675 21.7113582,17.2183859 21.4375,17.4235437 L21.9410457,15.0032767 Z" id="Path" fill="#D3E8D6"></path>
                <polygon id="Path" fill="#4C560F" points="12.6622596 21.4850728 12.4001803 21.9191748 12.1498798 21.6783374 12.6328125 21.4285801"></polygon>
                <path d="M11.7788462,21.7050971 L11.7376202,21.8597087 L11.6463341,21.7050971 C11.6625505,21.6849612 11.6868867,21.6732714 11.7125901,21.6732714 C11.7382936,21.6732714 11.7626298,21.6849612 11.7788462,21.7050971 Z" id="Path" fill="#4C560F"></path>
                <path d="M13.3866587,22.5970874 L13.3660457,22.0024272 C13.5569879,22.0136397 13.7469052,22.0384793 13.934375,22.0767597 C15.0513825,22.4079833 16.2425416,22.3820177 17.344351,22.0024272 C17.5074015,21.959537 17.6739696,21.931672 17.8420072,21.9191748 L17.8243389,22.6357403 C17.1941707,22.8765777 16.5669471,23.1293083 15.9279447,23.3463592 C15.7456369,23.4028139 15.5507573,23.4028139 15.3684495,23.3463592 C14.7,23.1025485 14.046274,22.8438714 13.3866587,22.5970874 Z" id="Path" fill="#F9E4BE"></path>
                <path d="M15.506851,8.39362864 C15.0710337,9.26183252 14.5586538,9.88027913 13.740024,10.2103155 C13.2235248,10.3753717 12.6595083,10.2071126 12.3147837,9.7851335 C12.0409255,9.39860437 12.208774,9.06559466 12.4384615,8.76529126 C12.9468822,8.06351071 13.7147704,7.59916262 14.567488,7.47785194 C15.5569111,7.3351335 16.5551683,7.23701456 17.4680288,7.75436893 C17.8823603,7.99858039 18.2617938,8.29867228 18.5958534,8.64635922 C19.0463942,9.10424757 19.0787861,9.42239078 18.8314303,9.7851335 C18.4942723,10.1764963 17.9736756,10.3528511 17.4709736,10.2459951 C16.7436298,9.98731796 16.251863,9.43131068 15.7895433,8.84259709 C15.7070913,8.73555825 15.6423077,8.62257282 15.506851,8.39362864 Z" id="Path" fill="#949143"></path>
                <path d="M9.99435096,15.0092233 C10.7658654,14.117233 11.5491587,13.2490291 12.3030048,12.3481189 C12.5103217,12.070252 12.8426767,11.917003 13.1864183,11.9407767 C14.7265024,11.9586165 16.2665865,11.9407767 17.803726,11.9407767 C18.262174,11.9170248 18.7053615,12.1105341 19.0022236,12.4640777 C19.7413462,13.3293083 20.51875,14.1648058 21.2784856,15.0092233 C21.0492817,16.4371461 20.5385978,17.8041031 19.7766827,19.0291262 C18.9109375,20.3581917 17.8213942,21.348301 16.1723558,21.5326456 C14.5910457,21.7080704 13.2276442,21.2977549 12.2146635,20.0073422 C11.0847514,18.5473537 10.3228215,16.8321825 9.99435096,15.0092233 L9.99435096,15.0092233 Z" id="Path" fill="#FBF2E3"></path>
            </g>
        </g>
    </g>
</svg>