<svg xmlns="http://www.w3.org/2000/svg" width="40" height="40" viewBox="0 0 40 40">
  <g id="icon_paintball" data-name="icon / paintball" transform="translate(0 0)">
    <path id="paintball" d="M21.864,39.881a.83.83,0,0,1-.3-1.238,1.44,1.44,0,0,1,1.215-.609c-.068-.116.094-.3.267-.253a1.352,1.352,0,0,1,.966.622.843.843,0,0,1-.116.868,2.039,2.039,0,0,1-1.5.73A1.155,1.155,0,0,1,21.864,39.881ZM4.658,39.733a1.153,1.153,0,0,1-.908-1.84A2.4,2.4,0,0,1,5.864,36.6a1.463,1.463,0,0,0-.122-.085c-.062-.04.305-.217.411-.15.74.471.721,1.137.311,1.845a.157.157,0,0,1-.066.05c-.005.027-.008.053-.014.081a1.7,1.7,0,0,1-1.627,1.394Zm13.98-3.844c-.793-.022-1.805-.715-1.361-1.6a1.935,1.935,0,0,1,2.066-.966c.086.014.09.049.057.085.627.2,1.181.688.9,1.428A1.691,1.691,0,0,1,18.69,35.89ZM22.729,32.4a5.68,5.68,0,0,1-.821-2.192c-.168-.515-1.1-.851-1.364-.28a2.781,2.781,0,0,0-.177.633,1.419,1.419,0,0,1-.277.718,1.132,1.132,0,0,1-1.194.266c-.541-.26-.512-.885-.642-1.394-.172-.683-1.054-1.216-1.553-.184-.182.374-.252.781-.413,1.162a1.334,1.334,0,0,1-2.452-.028c-.513-1.219.531-2.5,1.369-3.582.025-.372-.133-.631-.7-.532a13.314,13.314,0,0,0-1.823.568,3.546,3.546,0,0,1-2.121.372c-.492-.163-1.383-1.031-1.091-1.623a16.665,16.665,0,0,0,.9-1.465c.129-.336.557-.685.609-1.035A3.906,3.906,0,0,0,9.792,21c-.437-.516-1.176-.383-1.929-.25a3.4,3.4,0,0,1-1.518.051c-1.194-.373-.659-2.081.2-2.565A2.714,2.714,0,0,1,7.556,18c.4-.047.913-.143.936-.617.024-.512-.268-.534-.67-.431-.367.095-.922.364-1.294.163-.649-.349-1.877-1.828-.445-1.94a7.933,7.933,0,0,1,1.75.133c1.59.229,1.579-1.311,1.261-2.42a2.136,2.136,0,0,1,.264-2.274,9.818,9.818,0,0,1,2.6-1.861c.612-.832,1.247-1.386,1.953-.108.422.765,1.559-.668,1.665-1.178a2.325,2.325,0,0,0-.379-1.68c-.525-.895-1.429-1.931-1.273-3.047.284-2.03,2.215-3.2,3.265-.978a3.545,3.545,0,0,1,.418,1.991c-.056.516.068,2.214,1.032,1.57a1.984,1.984,0,0,1,1.635-.4C20.77,3.378,20.266.186,22.364.006c1.386-.118,1.688,1.35,1.537,2.407-.113.8-.316,1.563-.507,2.349-.149.621.218.969.653,1.326a2.072,2.072,0,0,1,.5-.015c.408.058,1.454.07,1.7.489.328.566,1.063,2.339,2.138,1.046a12.292,12.292,0,0,0,.717-1.313,2.922,2.922,0,0,1,1.951-1.148c1.5-.334,1.409,1.038,1.053,2.079a19.447,19.447,0,0,1-1.07,2.444c-.048.094-.164.268-.283.463.137-.047.309-.035.283.075-.255,1.053-.8,3.283.548,3.865A2.933,2.933,0,0,0,33.758,14a4.566,4.566,0,0,1,1.363-.256c.423,0,2.4.461,1.9,1.231-.433.661-1.887.752-2.568.872-.649.113-1.305.2-1.949.337-.112.024-.227.047-.338.08q-.229.073.037-.007c.331.222.558.57.893.795.085.058.031.133-.036.179-.676.462-1.742,1.137-1.873,2.041a2.636,2.636,0,0,0,.883,2.17c.481.511,1.344.813,1.721,1.409.243.386.065.722-.314.946-.292.172-1.2.368-.838.734a4.327,4.327,0,0,0,1.381.907c1.57.7,3.736,1.672,3.362,3.848-.167.968-1.221.9-1.945.6a7.183,7.183,0,0,1-1.879-1.141,7.887,7.887,0,0,1-.759-.712c-.312-.348-.6-.974-1.031-1.185-1.749-.853-1.75,1-2.9,1.523-1.053.478-2.419.464-3.369,1.134s-.957,1.634-1.122,2.665c-.057.355-.1.779-.482.924a.531.531,0,0,1-.194.037C23.3,33.136,22.942,32.676,22.729,32.4Zm16.5-3.689c-.234-.049-.571-.139-.593-.427-.017-.238.09-.472.095-.712,0-.117.19-.188.319-.164.079-.114.416-.165.42-.065a.323.323,0,0,0,.009.061.182.182,0,0,1,.1.044.211.211,0,0,1,.176.023c.067.059-.07.128-.115.149.076.193.347.285.361.506a.6.6,0,0,1-.179.437.444.444,0,0,1-.357.18A1.177,1.177,0,0,1,39.225,28.713ZM.02,19.661a.089.089,0,0,1,0-.106,2.078,2.078,0,0,1,2.372-1.112,1.424,1.424,0,0,1,1.291.286.805.805,0,0,1-.169,1.04,2.093,2.093,0,0,1-1.583.7A2.8,2.8,0,0,1,.02,19.661Zm37.819.764a1.4,1.4,0,0,1-.99-.718.382.382,0,0,1,.108-.468.759.759,0,0,1,.191-.611,1.143,1.143,0,0,1,1.171-.112.126.126,0,0,1,.09.145c.333.1.585.3.424.725-.148.391-.484,1.039-.966,1.039ZM27.578,4.566a.927.927,0,0,1-.026-.277c-.052.006-.125.009-.125-.023V3.894c0-.141-.034-.241.091-.328a.9.9,0,0,1,.227-.111.463.463,0,0,1-.016-.094c0-.117.435-.184.437-.118a.582.582,0,0,0,.056.22c.122.063.232.194.358.21.041,0,.043.021.031.039a.983.983,0,0,1,.143.106c.042.04,0,.1-.027.127-.116.12-.177.283-.3.4a1.354,1.354,0,0,1-.6.281.476.476,0,0,1-.112.014C27.652,4.637,27.59,4.621,27.578,4.566Z" fill="#50e3c2"/>
  </g>
</svg>
