<svg xmlns="http://www.w3.org/2000/svg" width="13.263" height="14.141" viewBox="0 0 13.263 14.141">
  <g id="paw" transform="translate(-0.216 -0.109)">
    <path id="Path" d="M.921,1.63A1.224,1.224,0,0,0,.59,0C.468,0,.122.556,0,1.039" transform="translate(11.848 4.951)" fill="#161616"/>
    <path id="Path-2" data-name="Path" d="M1.3,1.413A2.106,2.106,0,0,0,.138,0C.013.052-.038.55.032,1.285" transform="translate(8.37 0.326)" fill="#161616"/>
    <path id="Path-3" data-name="Path" d="M1.087,1.12C1.054.688.88.032.756,0S.033.267,0,1.3" transform="translate(1.196 4.456)" fill="#161616"/>
    <path id="Path-4" data-name="Path" d="M1.173,1.3c.227-.7.115-1.247,0-1.3A1.536,1.536,0,0,0,0,1.213" transform="translate(5.109 0.109)" fill="#161616"/>
    <path id="Path-5" data-name="Path" d="M0,2.123C0,1.719.027,0,1,0A2.365,2.365,0,0,1,3.043,2.3,1.742,1.742,0,0,1,1.43,4.13C.267,4.13,0,2.528,0,2.123Z" transform="translate(7.826 1.522)" fill="#f70031"/>
    <path id="Path-6" data-name="Path" d="M2.054,0A1.668,1.668,0,0,0,.713.849,3.419,3.419,0,0,0,0,2.132c0,.481.31.573.6.984.326.469.675,1.015,1.279,1.015,1.134,0,1.32-.948,1.508-1.657C3.69,1.325,3.255,0,2.054,0Z" transform="translate(9.783 6.147)" fill="#f70031"/>
    <path id="Path-7" data-name="Path" d="M2.931,3.232c.342-.309.548-.466.548-.947,0-.307-.442-.83-.776-1.32C2.349.447,1.984,0,1.451,0,.26,0-.2,1.326.077,2.482A2,2,0,0,0,1.857,4.13C2.457,4.13,2.5,3.616,2.931,3.232Z" transform="translate(0.435 5.652)" fill="#f70031"/>
    <path id="Path-8" data-name="Path" d="M1.636,4.348c1.212,0,1.407-1.765,1.407-2.19S3.043,0,1.9,0C.72,0,0,1.5,0,2.223S.425,4.348,1.636,4.348Z" transform="translate(3.696 1.304)" fill="#f70031"/>
    <path id="Path-9" data-name="Path" d="M4.481,0C3.74,0,3.242.45,2.743,1.351,1.995,2.7,0,2.927,0,4.616A1.882,1.882,0,0,0,1.995,6.3c.986,0,1.749-.45,2.494-.45s1.234.45,2.244.45A1.6,1.6,0,0,0,8.478,4.728c0-1.033-1.522-1.25-2.244-3.152C6.033,1.048,5.6,0,4.481,0Z" transform="translate(2.391 7.728)" fill="#f70031"/>
    <g id="Group" transform="translate(3.043 8.38)">
      <path id="Path-10" data-name="Path" d="M3.421,3.538a5.6,5.6,0,0,1-1.7-2.305C1.452.512,1.18.217.785.217A.7.7,0,0,0,.192.54.109.109,0,0,1,.026.4.915.915,0,0,1,.785,0c.5,0,.832.335,1.143,1.155A5.4,5.4,0,0,0,3.563,3.373Z" transform="translate(3.043)" fill="#161616"/>
      <path id="Path-11" data-name="Path" d="M.109.543A.109.109,0,0,1,.016.377C.041.337.065.3.089.254q.06-.109.117-.2A.109.109,0,1,1,.391.165C.355.225.317.289.279.359.254.4.228.449.2.492A.109.109,0,0,1,.109.543Z" transform="translate(2.573 0.761)" fill="#161616"/>
      <path id="Path-12" data-name="Path" d="M.109.326A.109.109,0,0,1,.027.145C.058.111.087.076.116.04A.109.109,0,0,1,.285.177C.254.216.222.253.19.29A.108.108,0,0,1,.109.326Z" transform="translate(2.248 1.413)" fill="#161616"/>
      <path id="Path-13" data-name="Path" d="M1.343,3.182A1.248,1.248,0,0,1,0,2.145C0,1.52.41,1.2,1.135.689A8.262,8.262,0,0,0,1.992.029a.109.109,0,1,1,.147.16A8.5,8.5,0,0,1,1.26.867c-.7.5-1.043.758-1.043,1.278a1.032,1.032,0,0,0,1.126.82.109.109,0,1,1,0,.217Z" transform="translate(0 1.818)" fill="#161616"/>
    </g>
    <path id="Shape" d="M1.647,4.565C.293,4.565,0,2.782,0,2.341,0,.832.431,0,1.215,0A2.583,2.583,0,0,1,3.478,2.516,1.948,1.948,0,0,1,1.647,4.565ZM1.215.435c-.724,0-.78,1.459-.78,1.906,0,.294.211,1.789,1.212,1.789,1.055,0,1.4-1.088,1.4-1.615A2.148,2.148,0,0,0,1.215.435Z" transform="translate(7.609 1.304)" fill="#161616"/>
    <path id="Shape-2" data-name="Shape" d="M2.092,4.565C1.4,4.565,1,3.989.682,3.526L.634,3.457a2.354,2.354,0,0,0-.253-.3A1.066,1.066,0,0,1,0,2.349a2.606,2.606,0,0,1,.61-1.2l.141-.2A1.877,1.877,0,0,1,2.271,0a1.482,1.482,0,0,1,1.221.59,2.533,2.533,0,0,1,.318,2.156l-.029.112C3.6,3.539,3.334,4.565,2.092,4.565ZM2.271.435A1.45,1.45,0,0,0,1.11,1.19L.967,1.4a2.776,2.776,0,0,0-.532.954.644.644,0,0,0,.26.508L.7,2.863a2.82,2.82,0,0,1,.292.346l.047.067c.291.42.591.855,1.054.855.842,0,1.057-.573,1.268-1.381l.031-.113A2.132,2.132,0,0,0,3.148.855,1.05,1.05,0,0,0,2.271.435Z" transform="translate(9.565 5.929)" fill="#161616"/>
    <path id="Shape-3" data-name="Shape" d="M2.076,4.565A2.222,2.222,0,0,1,.084,2.75,2.6,2.6,0,0,1,.453.582,1.5,1.5,0,0,1,1.67,0C2.321,0,2.75.547,3.1,1.059c.07.1.147.21.221.312l.005.007.008.012,0,.007a2.373,2.373,0,0,1,.575,1.1,1.26,1.26,0,0,1-.565,1.059l-.055.05a2.032,2.032,0,0,0-.308.375A1.039,1.039,0,0,1,2.076,4.565ZM1.67.434A1.065,1.065,0,0,0,.794.851a2.19,2.19,0,0,0-.287,1.8A1.788,1.788,0,0,0,2.076,4.131c.27,0,.364-.12.553-.392A2.441,2.441,0,0,1,3,3.287l.053-.048c.3-.268.422-.379.422-.738a2.612,2.612,0,0,0-.492-.85l0-.006,0-.005c-.083-.115-.164-.227-.238-.335C2.375.767,2.068.434,1.67.434Z" transform="translate(0.216 5.435)" fill="#161616"/>
    <path id="Shape-4" data-name="Shape" d="M1.854,4.782C.453,4.782,0,3.2,0,2.441A2.934,2.934,0,0,1,.547.934,1.95,1.95,0,0,1,2.115,0c.622,0,1.363.412,1.363,2.375C3.478,3.045,3.186,4.782,1.854,4.782ZM2.115.435C1.07.435.435,1.828.435,2.441c0,.6.357,1.907,1.418,1.907,1.139,0,1.19-1.953,1.19-1.973C3.043,1.49,2.882.435,2.115.435Z" transform="translate(3.478 1.087)" fill="#161616"/>
    <path id="Shape-5" data-name="Shape" d="M6.95,6.739a4.044,4.044,0,0,1-1.366-.26,2.7,2.7,0,0,0-.879-.19,3.921,3.921,0,0,0-1,.19l-.012,0a5.369,5.369,0,0,1-1.479.257A2.1,2.1,0,0,1,0,4.833C0,3.726.764,3.188,1.5,2.667l.008-.005a3.916,3.916,0,0,0,1.26-1.2C3.339.437,3.915,0,4.7,0,6,0,6.477,1.247,6.655,1.717a4.563,4.563,0,0,0,1.4,1.876l0,0c.458.409.854.762.854,1.35A1.819,1.819,0,0,1,6.95,6.739ZM4.705,5.854a3.076,3.076,0,0,1,1.012.21A3.618,3.618,0,0,0,6.95,6.3,1.384,1.384,0,0,0,8.478,4.946c0-.392-.294-.655-.7-1.02l-.007-.007A4.926,4.926,0,0,1,6.248,1.871C5.994,1.2,5.589.435,4.7.435c-.612,0-1.061.359-1.548,1.238A4.241,4.241,0,0,1,1.756,3.021c-.709.5-1.321.93-1.321,1.812A1.663,1.663,0,0,0,2.212,6.3,4.973,4.973,0,0,0,3.57,6.065,4.276,4.276,0,0,1,4.705,5.854Z" transform="translate(2.174 7.511)" fill="#161616"/>
  </g>
</svg>
