<?xml version="1.0" standalone="no"?>
<!DOCTYPE svg PUBLIC "-//W3C//DTD SVG 1.1//EN" "http://www.w3.org/Graphics/SVG/1.1/DTD/svg11.dtd" >
<svg xmlns="http://www.w3.org/2000/svg">
<metadata>Generated by IcoMoon</metadata>
<defs>
<font id="custom" horiz-adv-x="1024">
<font-face units-per-em="1024" ascent="960" descent="-64" />
<missing-glyph horiz-adv-x="1024" />
<glyph unicode="&#x20;" horiz-adv-x="512" d="" />
<glyph unicode="&#xe900;" glyph-name="clear-text" d="M0 448c0 282.77 229.23 512 512 512s512-229.23 512-512c0-282.77-229.23-512-512-512v0c-282.641 0.32-511.68 229.359-512 511.969v0.031zM78.746 448c0-239.28 193.975-433.254 433.254-433.254s433.254 193.975 433.254 433.254c0 239.28-193.975 433.254-433.254 433.254v0c-239.152-0.291-432.941-194.098-433.203-433.23v-0.025zM512 391.373l-148.89-148.941-56.627 56.627 148.89 148.941-148.89 148.941 56.627 56.576 148.89-148.89 148.89 148.89 56.627-56.576-148.89-148.941 148.941-148.941-56.627-56.627z" />
<glyph unicode="&#xe901;" glyph-name="youtube" horiz-adv-x="853" d="M426.667-64h-13.952c-103.125 0-195.797 1.749-283.349 5.333-0.166-0.001-0.361-0.001-0.557-0.001-67.91 0-123.016 54.822-123.474 122.624v0.044c-3.84 49.195-5.333 99.627-5.333 158.635 0 57.429 1.536 109.739 5.333 160.043 0.459 67.846 55.565 122.668 123.475 122.668 0.196 0 0.392 0 0.588-0.001h-0.030c83.627 3.627 174.933 5.333 278.827 5.333h35.2c101.333 0 193.109-1.707 280.619-5.333 0.153 0.001 0.334 0.001 0.515 0.001 67.91 0 123.016-54.822 123.474-122.624v-0.044c3.755-48.384 5.504-100.736 5.333-160 0-56.576-1.579-108.459-5.333-158.677-0.459-67.846-55.565-122.668-123.475-122.668-0.181 0-0.362 0-0.543 0.001h0.028c-87.381-3.627-180.096-5.333-283.349-5.333zM648.021 306.688c-14.868-15.629-24.015-36.822-24.015-60.151 0-0.888 0.013-1.773 0.040-2.655l-0.003 0.129v-125.355c-0.090-1.571-0.141-3.41-0.141-5.26 0-23.303 8.094-44.715 21.624-61.578l-0.15 0.193c14.029-15.626 34.294-25.411 56.845-25.411 1.121 0 2.236 0.024 3.345 0.072l-0.158-0.005c1.578-0.111 3.419-0.174 5.275-0.174 22.459 0 42.759 9.245 57.301 24.137l0.015 0.016c12.685 16.454 20.331 37.361 20.331 60.054 0 2.801-0.116 5.574-0.345 8.315l0.024-0.359v21.333c0.003 0.065 0.005 0.141 0.005 0.218 0 2.828-2.292 5.12-5.12 5.12-0.077 0-0.153-0.002-0.229-0.005h-53.322c-0.078 0.004-0.17 0.007-0.263 0.007-2.804 0-5.077-2.273-5.077-5.077 0-0.092 0.002-0.184 0.007-0.276l-0.001 0.013v-19.968c0.224-1.887 0.352-4.073 0.352-6.289 0-7.848-1.604-15.322-4.502-22.111l0.14 0.368c-2.957-3.288-7.226-5.346-11.975-5.346-0.47 0-0.936 0.020-1.396 0.060l0.060-0.004c-0.351-0.030-0.76-0.048-1.172-0.048-5.101 0-9.584 2.649-12.148 6.646l-0.035 0.058c-2.654 6.514-4.194 14.071-4.194 21.988 0 1.647 0.067 3.278 0.197 4.891l-0.014-0.212v46.635h93.355c3.157 0 6.656 2.176 6.656 5.333v72.021c0.079 1.427 0.123 3.097 0.123 4.777 0 22.599-8.108 43.305-21.574 59.366l0.117-0.144c-13.798 14.819-33.419 24.059-55.198 24.059-1.22 0-2.433-0.029-3.639-0.086l0.17 0.006c-0.491 0.010-1.070 0.016-1.65 0.016-23.419 0-44.568-9.715-59.638-25.336l-0.024-0.025zM501.419 46.421c3.876-3.461 8.228-6.533 12.908-9.079l0.362-0.18c8.251-4.229 18.002-6.707 28.331-6.707 0.36 0 0.719 0.003 1.078 0.009l-0.054-0.001c1.026-0.080 2.222-0.125 3.429-0.125 14.731 0 27.876 6.786 36.481 17.403l0.069 0.088c8.451 12.375 13.495 27.662 13.495 44.126 0 1.889-0.066 3.762-0.197 5.617l0.014-0.25v154.667c0.078 1.446 0.123 3.139 0.123 4.842 0 18.967-5.515 36.646-15.030 51.521l0.23-0.384c-8.647 12.212-22.719 20.086-38.63 20.086-0.94 0-1.873-0.027-2.799-0.082l0.128 0.006c-9.904-0.379-19.052-3.297-26.908-8.117l0.242 0.138c-5.072-2.761-9.45-5.861-13.424-9.405l0.069 0.061v106.667c0 3.157-3.499 5.333-6.656 5.333h-51.968c-0.065 0.003-0.141 0.005-0.218 0.005-2.828 0-5.12-2.292-5.12-5.12 0-0.077 0.002-0.153 0.005-0.229v0.011-377.344c-0.003-0.065-0.005-0.141-0.005-0.218 0-2.828 2.292-5.12 5.12-5.12 0.077 0 0.153 0.002 0.229 0.005h52c3.157 0 6.656 2.176 6.656 5.333v6.699zM238.677 318.635v-233.301c-0.066-1.108-0.103-2.404-0.103-3.708 0-13.503 4.019-26.068 10.925-36.564l-0.155 0.251c6.401-8.968 16.773-14.746 28.493-14.746 0.768 0 1.531 0.025 2.287 0.074l-0.103-0.005c12.317 0.094 23.806 3.556 33.615 9.509l-0.293-0.165c8.123 4.606 15.128 9.912 21.349 16.016l-0.016-0.016v-16c-0.003-0.065-0.005-0.141-0.005-0.218 0-2.828 2.292-5.12 5.12-5.12 0.077 0 0.153 0.002 0.229 0.005h52c3.157 0 6.699 2.176 6.699 5.333h-1.365v278.656c0.004 0.078 0.007 0.17 0.007 0.263 0 2.804-2.273 5.077-5.077 5.077-0.092 0-0.184-0.002-0.276-0.007l0.013 0.001h-51.968c-0.065 0.003-0.141 0.005-0.218 0.005-2.828 0-5.12-2.292-5.12-5.12 0-0.077 0.002-0.153 0.005-0.229v0.011-209.323c-3.817-4.637-8.202-8.615-13.095-11.895l-0.217-0.137c-3.358-2.622-7.425-4.498-11.864-5.308l-0.168-0.025c-3.925 0-4.821 1.792-5.205 2.475-1.002 2.404-1.584 5.197-1.584 8.126 0 0.971 0.064 1.927 0.188 2.864l-0.012-0.11v213.333c0 3.2-3.456 5.333-6.699 5.333h-52.011c-0.078 0.004-0.169 0.007-0.261 0.007-2.828 0-5.12-2.292-5.12-5.12 0-0.077 0.002-0.154 0.005-0.231v0.011zM60.032 417.323v-54.656c0-3.157 3.499-5.333 6.699-5.333h53.333v-317.355c0-3.157 3.499-5.333 6.656-5.333h58.624c0.065-0.003 0.141-0.005 0.218-0.005 2.828 0 5.12 2.292 5.12 5.12 0 0.077-0.002 0.153-0.005 0.229v-0.011 317.312h54.699c0.066-0.003 0.143-0.005 0.22-0.005 2.828 0 5.12 2.292 5.12 5.12 0 0.092-0.002 0.183-0.007 0.273l0.001-0.013v54.656c0.003 0.065 0.005 0.141 0.005 0.218 0 2.828-2.292 5.12-5.12 5.12-0.077 0-0.153-0.002-0.229-0.005h-178.677c-3.157 0-6.656-2.176-6.656-5.333zM509.355 88.021c-3.071 1.857-5.7 4.065-7.947 6.619l-0.032 0.037v169.301c1.859 2.156 4.079 3.941 6.576 5.274l0.123 0.060c2.865 1.724 6.324 2.744 10.021 2.744 0.693 0 1.378-0.036 2.053-0.106l-0.084 0.007c3.335-0.71 6.129-2.64 7.951-5.29l0.028-0.043c2.614-4.224 4.162-9.347 4.162-14.831 0-0.877-0.040-1.745-0.117-2.602l0.008 0.11v-144c0.138-1.050 0.216-2.263 0.216-3.495 0-4.553-1.072-8.855-2.978-12.669l0.074 0.164c-0.64-0.811-2.645-2.645-9.344-2.645h-1.835c-0.39-0.026-0.846-0.040-1.306-0.040-2.722 0-5.323 0.516-7.712 1.455l0.143-0.050zM689.365 221.355v22.656c-0.133 1.19-0.209 2.57-0.209 3.968 0 6.343 1.561 12.322 4.319 17.573l-0.099-0.208c2.88 3.319 7.104 5.405 11.815 5.405 0.527 0 1.048-0.026 1.562-0.077l-0.065 0.005c0.38 0.038 0.821 0.060 1.267 0.060 4.389 0 8.287-2.104 10.74-5.359l0.025-0.034c3.414-5.25 5.445-11.673 5.445-18.57 0-0.973-0.040-1.936-0.12-2.889l0.008 0.125v-22.656zM378.709 590.635c-13.257 14.087-21.402 33.114-21.402 54.043 0 1.161 0.025 2.316 0.075 3.465l-0.006-0.164v146.688c-0.042 0.891-0.067 1.935-0.067 2.984 0 19.35 8.22 36.78 21.358 48.988l0.042 0.038c14.283 12.481 33.1 20.092 53.694 20.092 1.284 0 2.56-0.030 3.83-0.088l-0.18 0.007c1.038 0.054 2.255 0.084 3.478 0.084 19.37 0 36.95-7.66 49.878-20.116l-0.022 0.021c12.434-12.917 20.093-30.508 20.093-49.888 0-1.212-0.030-2.417-0.089-3.614l0.007 0.168v-146.731c0.079-1.301 0.124-2.823 0.124-4.355 0-19.939-7.654-38.090-20.183-51.676l0.048 0.053c-13.696-13.238-32.376-21.395-52.96-21.395-1.077 0-2.148 0.022-3.214 0.067l0.153-0.005c-0.988-0.048-2.146-0.076-3.31-0.076-20.078 0-38.243 8.187-51.341 21.404l-0.005 0.005zM417.365 811.947c-3.34-3.336-5.406-7.947-5.406-13.041 0-0.576 0.026-1.146 0.078-1.709l-0.005 0.072v-154.667c-0.057-0.622-0.089-1.344-0.089-2.075 0-5.802 2.046-11.127 5.457-15.291l-0.034 0.043c3.791-4.082 9.187-6.628 15.178-6.628 0.274 0 0.547 0.005 0.818 0.016l-0.039-0.001c0.247-0.009 0.538-0.014 0.829-0.014 6.433 0 12.268 2.561 16.541 6.718l-0.005-0.005c3.41 3.909 5.489 9.056 5.489 14.689 0 0.928-0.056 1.843-0.166 2.742l0.011-0.108v154.624c0.068 0.583 0.108 1.259 0.108 1.944 0 5.004-2.085 9.52-5.434 12.728l-0.006 0.006c-4.212 3.367-9.615 5.404-15.495 5.404-0.658 0-1.311-0.026-1.956-0.076l0.086 0.005c-0.462 0.035-1 0.055-1.543 0.055-5.535 0-10.589-2.058-14.438-5.451l0.024 0.021zM564.011 585.301c-5.966 9.295-9.511 20.64-9.511 32.812 0 1.591 0.061 3.168 0.18 4.729l-0.013-0.207v237.312h52.011v-217.301c-0.018-0.352-0.028-0.764-0.028-1.179 0-5.024 1.508-9.697 4.096-13.589l-0.057 0.090c2.246-2.525 5.504-4.108 9.131-4.108 0.541 0 1.074 0.035 1.597 0.104l-0.062-0.007c5.564 0.259 10.628 2.206 14.742 5.338l-0.065-0.047c6.165 4.554 11.446 9.835 15.857 15.798l0.143 0.202v214.699h51.968v-282.624h-51.968v30.677c-8.596-10.532-18.738-19.397-30.16-26.373l-0.518-0.294c-8.176-5.014-18.075-7.983-28.668-7.983-0.241 0-0.483 0.002-0.723 0.005h0.037c-0.781-0.066-1.69-0.104-2.607-0.104-10.219 0-19.342 4.69-25.335 12.034l-0.047 0.059zM232.021 577.28v150.699l-70.656 232.021h59.989l38.656-153.387h2.688l37.333 153.387h59.989l-69.333-224.043v-158.635z" />
<glyph unicode="&#xe902;" glyph-name="twitter" d="M1024 775.979c-35.141-15.994-75.906-27.61-118.656-32.784l-2.006-0.198c43.41 26.316 76.049 66.686 91.905 114.692l0.426 1.489c-38.379-23.206-83.034-40.958-130.601-50.731l-2.732-0.469c-38.442 40.978-92.933 66.507-153.387 66.507-116.053 0-210.133-94.080-210.133-210.133 0-0.011 0-0.023 0-0.034v0.002c-0.001-0.18-0.001-0.392-0.001-0.605 0-16.754 2.007-33.039 5.793-48.628l-0.288 1.404c-175.068 8.982-329.041 92.273-432.129 218.697l-0.853 1.079c-17.913-30.285-28.498-66.744-28.498-105.674 0-72.668 36.879-136.723 92.942-174.469l0.75-0.476c-35.101 1.142-67.72 10.763-96.188 26.867l1.041-0.542v-2.688c0-0.040 0-0.087 0-0.134 0-101.213 71.601-185.703 166.914-205.58l1.364-0.238c-16.627-4.762-35.726-7.503-55.463-7.509h-0.003c-0.011 0-0.023 0-0.036 0-13.966 0-27.605 1.398-40.786 4.062l1.313-0.221c27.647-84.151 104.711-144.177 196.053-146.002l0.213-0.003c-70.867-55.991-161.5-89.814-260.032-89.814-0.277 0-0.555 0-0.832 0.001h0.043c-0.113 0-0.247 0-0.38 0-17.535 0-34.817 1.085-51.781 3.192l2.028-0.205c90.849-59.26 202.056-94.507 321.496-94.507 0.179 0 0.358 0 0.537 0h-0.028c1.221-0.009 2.664-0.014 4.109-0.014 327.919 0 593.749 265.831 593.749 593.749 0 1.385-0.005 2.769-0.014 4.152l0.001-0.213c0 9.003-0.341 18.176-0.683 27.179 41.238 30.136 76.015 66.175 103.866 107.288l0.966 1.512z" />
<glyph unicode="&#xe903;" glyph-name="trash" horiz-adv-x="910" d="M182.044-63.943c-1.193-0.039-2.596-0.060-4.003-0.060-71.638 0-130.008 56.806-132.524 127.831l-0.006 0.23v682.667h-45.511v85.333h273.067v42.667c-0.005 0.327-0.007 0.713-0.007 1.1 0 23.641 9.81 44.992 25.582 60.202l0.025 0.024c16.819 14.917 39.083 24.027 63.475 24.027 0.685 0 1.368-0.007 2.049-0.021l-0.102 0.002h182.044c0.561 0.012 1.222 0.018 1.885 0.018 24.402 0 46.682-9.086 63.642-24.059l-0.104 0.090c15.798-15.252 25.607-36.618 25.607-60.274 0-0.39-0.003-0.779-0.008-1.168l0.001 0.059v-42.724h273.067v-85.333h-45.511v-682.667c-2.584-71.235-60.954-128.002-132.583-128.002-1.389 0-2.773 0.021-4.152 0.064l0.202-0.005zM136.533 64.057c0.84-23.751 20.297-42.687 44.177-42.687 0.469 0 0.937 0.007 1.402 0.022l-0.068-0.002h546.133c0.398-0.013 0.865-0.020 1.334-0.020 23.879 0 43.336 18.935 44.175 42.61l0.002 0.077v682.667h-637.156zM364.089 832.057h182.044v42.667h-182.044zM591.644 149.39v469.333h91.022v-469.333zM409.6 149.39v469.333h91.022v-469.333zM227.556 149.39v469.333h91.022v-469.333z" />
<glyph unicode="&#xe904;" glyph-name="message" horiz-adv-x="1135" d="M420.67 312.389h381.924v631.005h-785.989v-636.541h160.519v-204.8l66.422 49.816 177.124 160.519zM94.097 389.881v476.022h631.005v-476.022h-332.108l-11.070-11.070-132.843-105.168v116.238h-154.984zM885.622 788.411v-83.027h154.984v-476.022h-154.984v-110.703l-143.914 110.703h-298.897l-99.632-77.492h370.854l249.081-204.8v204.8h160.519v636.541z" />
<glyph unicode="&#xe905;" glyph-name="star" horiz-adv-x="1179" d="M589.491 137.037l364.314-201.037-96.691 378.88 321.869 254.925-423.782 32.87-165.709 357.325-165.658-357.325-423.834-32.87 321.869-254.925-96.589-378.88z" />
<glyph unicode="&#xe906;" glyph-name="sound" d="M557.904-64l-79.843 69.632-265.918 236.017h-212.144v412.701h212.144l265.918 235.988 79.901 69.661v-1024zM93.008 324.184h158.369l14.629-11.703 198.949-176.684v624.289l-198.949-176.684-14.629-11.703h-158.369zM809.311 188.782c75.264 62.913 122.798 156.831 122.798 261.851s-47.533 198.938-122.26 261.414l-0.538 0.438 65.477 57.929c91.554-77.301 149.304-192.147 149.304-320.483s-57.751-243.183-148.682-319.971l-0.622-0.512zM672.739 299.696c41.568 35.679 67.736 88.28 67.736 146.992 0 58.047-25.578 110.12-66.078 145.563l-0.224 0.192 65.39 58.046c57.731-49.895 94.044-123.22 94.044-205.026 0-81.139-35.724-153.935-92.3-203.517l-0.31-0.266z" />
<glyph unicode="&#xe907;" glyph-name="password" horiz-adv-x="768" d="M0 315.264c0 0.035 0 0.077 0 0.119 0 106.103 44.147 201.896 115.074 270.011l0.127 0.121v109.013c0.004 73.451 30.251 139.836 78.966 187.383l0.053 0.051c48.705 48.255 115.751 78.070 189.76 78.070s141.055-29.816 189.781-78.091l-0.021 0.020c48.772-47.601 79.029-113.981 79.061-187.429v-109.019c71.051-68.182 115.2-163.928 115.2-269.986 0-0.093 0-0.186 0-0.279v0.015c0-212.077-171.923-384-384-384s-384 171.923-384 384v0zM76.8 315.264c-0.015-1.129-0.023-2.462-0.023-3.797 0-169.662 137.538-307.2 307.2-307.2s307.2 137.538 307.2 307.2c0 169.654-137.525 307.187-307.175 307.2h-0.001c-0.446 0.002-0.974 0.004-1.502 0.004-168.028 0-304.395-135.561-305.697-303.283l-0.001-0.124zM576 642.347v52.181c0 106.039-85.961 192-192 192s-192-85.961-192-192v0-52.181c54.973 32.753 121.225 52.116 192 52.116s137.027-19.362 193.749-53.078l-1.749 0.963zM345.6 125.611v124.459c-23.009 13.036-38.305 37.318-38.4 65.181v0.013c0 42.415 34.385 76.8 76.8 76.8s76.8-34.385 76.8-76.8v0c-0.114-27.871-15.404-52.146-38.029-65.001l-0.371-0.194v-124.459z" />
<glyph unicode="&#xe908;" glyph-name="notifications" horiz-adv-x="819" d="M409.651-63.949c-0.663-0.013-1.444-0.021-2.227-0.021-65.774 0-119.258 52.62-120.651 118.060l-0.002 0.13c0.188 14.226 2.972 27.749 7.896 40.19l-0.267-0.766h-294.349v78.694h40.96c0.489-0.022 1.062-0.034 1.639-0.034 21.717 0 39.322 17.605 39.322 39.322 0 0.048 0 0.096 0 0.144v-0.007 354.406c2.065 148.583 105.898 272.338 244.841 304.831l2.147 0.423c0 0.563 0 1.126 0 1.69v1.024c-0.573 2.055-1.008 4.479-1.219 6.967l-0.010 0.149c0 45.243 36.677 81.92 81.92 81.92s81.92-36.677 81.92-81.92v0c-0.070-2.616-0.365-5.119-0.867-7.545l0.048 0.275c0-0.973-0.307-1.741-0.461-2.56 142.515-37.389 246.103-164.625 247.039-316.207l0.001-0.106v-343.398c0-0.041 0-0.089 0-0.137 0-21.717 17.605-39.322 39.322-39.322 0.576 0 1.15 0.012 1.72 0.037l-0.081-0.003h40.96v-78.746h-294.4c4.71-11.671 7.515-25.197 7.679-39.357l0.001-0.067c-1.48-65.531-54.953-118.087-120.701-118.087-0.766 0-1.531 0.007-2.294 0.021l0.114-0.002zM409.651 93.594c-21.102-0.848-37.888-18.161-37.888-39.394 0-21.773 17.651-39.424 39.424-39.424 21.763 0 39.407 17.634 39.424 39.392v0.002c-0.193 21.824-17.93 39.441-39.781 39.441-0.415 0-0.828-0.006-1.239-0.019l0.060 0.001zM397.619 802.765c-1.997 0-3.891 0-5.939 0-125.796-7.355-225.339-109.965-227.785-236.358l-0.004-0.237v-354.458c-0.164-14.227-2.968-27.753-7.945-40.174l0.265 0.75h506.88c-4.659 11.675-7.443 25.198-7.628 39.348l-0.001 0.076v343.398c-0.286 133.299-105.644 241.897-237.634 247.382l-0.498 0.016h-14.234z" />
<glyph unicode="&#xe909;" glyph-name="like-filled" horiz-adv-x="1216" d="M608-64l-23.36 13.568c-23.936 13.504-584.64 338.816-584.64 686.912 2.597 179.192 148.467 323.456 328.032 323.456 117.937 0 221.339-62.232 279.158-155.65l0.81-1.406c58.63 94.824 162.031 157.056 279.968 157.056 179.565 0 325.434-144.264 328.029-323.212l0.003-0.244c0-348.096-560.704-673.408-584.64-686.912z" />
<glyph unicode="&#xe90a;" glyph-name="instagram" d="M301.042-63.953c-165.991 0.711-300.358 135.094-301.042 301.023v421.842c0.684 165.995 135.052 300.378 300.974 301.089h421.89c166.032-0.632 300.457-135.057 301.089-301.028v-421.837c-0.684-166.011-135.078-300.404-301.023-301.089h-0.066zM93.087 658.911v-421.776c0.159-114.796 93.163-207.817 207.938-208.002h421.839c114.823 0.132 207.87 93.179 208.002 207.989v421.789c-0.106 114.834-93.168 207.896-207.992 208.002h-421.832c-114.803-0.159-207.823-93.195-207.956-207.989v-0.013zM232.717 448.023c0 154.231 125.029 279.26 279.26 279.26s279.26-125.029 279.26-279.26c0-154.231-125.029-279.26-279.26-279.26v0c-154.156 0.185-279.075 125.103-279.26 279.242v0.018zM325.803 448.023c0-102.821 83.353-186.173 186.173-186.173s186.173 83.353 186.173 186.173c0 102.821-83.353 186.173-186.173 186.173v0c-102.767-0.132-186.041-83.406-186.173-186.161v-0.013zM744.693 722.908c0 23.289 18.879 42.168 42.168 42.168s42.168-18.879 42.168-42.168c0-23.289-18.879-42.168-42.168-42.168v0c-0.083-0.001-0.182-0.001-0.28-0.001-23.135 0-41.889 18.754-41.889 41.889 0 0.099 0 0.197 0.001 0.295v-0.015z" />
<glyph unicode="&#xe90b;" glyph-name="facebook" d="M930.909-64h-837.818c-51.413 0-93.091 41.678-93.091 93.091v0 837.818c0 51.413 41.678 93.091 93.091 93.091v0h837.818c51.413 0 93.091-41.678 93.091-93.091v0-837.818c0-51.413-41.678-93.091-93.091-93.091v0zM689.478 343.273v-314.182h241.431v837.818h-837.818v-837.818h450.932v314.182h-122.182v139.636h122.182v104.727c-0.596 5.308-0.937 11.46-0.937 17.693 0 92.543 75.021 167.564 167.564 167.564 4.835 0 9.622-0.205 14.354-0.606l-0.617 0.042c52.783 0 97.094-2.839 109.103-4.375v-126.511h-75.683c-56.925 0-68.375-26.159-68.375-68.375v-90.159h138.147l-17.408-139.636z" />
<glyph unicode="&#xe90c;" glyph-name="eye" horiz-adv-x="1408" d="M377.993 16.005c-84.982 46.736-157.129 105.485-217.159 174.99l-0.839 0.994c-44.97 51.547-85.404 109.218-119.397 170.936l-2.564 5.078c-12.405 21.764-25.165 48.076-36.304 75.224l-1.731 4.766c12.899 31.944 25.659 58.255 39.908 83.617l-1.873-3.627c36.556 66.796 76.995 124.467 122.973 177.182l-0.998-1.169c60.861 70.503 132.998 129.257 213.97 173.974l3.999 2.025c93.057 50.397 203.725 80.021 321.311 80.021 1.655 0 3.308-0.006 4.96-0.018l-0.254 0.001c1.394 0.010 3.042 0.016 4.692 0.016 117.586 0 228.253-29.624 324.946-81.815l-3.635 1.794c84.982-46.741 157.129-105.494 217.159-175.005l0.839-0.994c44.991-51.543 85.439-109.209 119.442-170.926l2.562-5.073c12.396-21.766 25.147-48.083 36.276-75.237l1.729-4.768c-12.892-31.937-25.651-58.248-39.903-83.608l1.868 3.617c-36.555-66.796-76.994-124.467-122.973-177.182l0.998 1.169c-60.859-70.507-132.996-129.26-213.97-173.974l-3.999-2.025c-93.059-50.397-203.727-80.021-321.315-80.021-1.659 0-3.316 0.006-4.971 0.018l0.254-0.001c-1.385-0.010-3.022-0.016-4.661-0.016-117.598 0-228.276 29.629-324.976 81.829l3.635-1.794zM140.29 447.803c57.652-115.377 228.004-383.815 563.705-383.815 334.092 0 505.512 268.672 563.72 384.196-57.667 115.377-228.019 383.815-563.72 383.815-333.887 0-505.454-268.672-563.705-384.196zM447.992 447.993c0 141.387 114.617 256.004 256.004 256.004s256.004-114.617 256.004-256.004c0-141.387-114.617-256.004-256.004-256.004v0c-141.326 0.15-255.854 114.677-256.004 255.989v0.015zM575.979 447.993c0-0.009 0-0.019 0-0.029 0-70.702 57.315-128.016 128.016-128.016s128.016 57.315 128.016 128.016c0 70.702-57.315 128.016-128.016 128.016-0.005 0-0.010 0-0.015 0h0.001c-70.652-0.092-127.902-57.337-128.002-127.978v-0.010z" />
<glyph unicode="&#xe90d;" glyph-name="email" horiz-adv-x="1536" d="M1536.096-64h-1536.096v1024.064h1536.096v-1024.064zM118.151 796.47v-746.671h1299.793v746.671l-616.679-396.441-33.218-19.585-33.282 19.585-616.615 396.441zM254.8 846.265l513.248-328.917 513.312 328.917h-1026.56z" />
<glyph unicode="&#xe90e;" glyph-name="close" d="M72.021 960l-72.021-72.021 439.979-439.979-439.979-439.979 72.021-72.021 439.979 439.979 439.979-439.979 72.021 72.021-439.979 439.979 439.979 439.979-72.021 72.021-439.979-439.979z" />
<glyph unicode="&#xe90f;" glyph-name="alert" d="M512-64.043v0l-512 512 512 512 512-512-512-512zM99.968 447.957l412.032-412.032 412.075 412.032-412.075 412.075zM476.459 234.624v71.168h71.083v-71.168zM476.459 376.789v284.501h71.083v-284.331z" />
<glyph unicode="&#xe910;" glyph-name="add" d="M465.451 960v-465.451h-465.451v-93.099h465.451v-465.451h93.099v465.451h465.451v93.099h-465.451v465.451z" />
<glyph unicode="&#xe911;" glyph-name="search" horiz-adv-x="1008" d="M950.158-64c-0.048 0-0.105 0-0.163 0-16.414 0-31.229 6.846-41.746 17.838l-0.020 0.021-162.281 168.027c-76.507-58.444-173.489-93.644-278.692-93.644-0.484 0-0.968 0.001-1.452 0.002h0.074c-257.173 0.309-465.569 208.705-465.878 465.848v0.030c0.309 257.173 208.705 465.569 465.848 465.878h0.030c257.173-0.309 465.569-208.705 465.878-465.848v-0.030c0.002-0.518 0.003-1.13 0.003-1.742 0-110.019-38.541-211.036-102.858-290.287l0.672 0.855 162.514-168.182c10.071-10.464 16.275-24.714 16.275-40.412 0-16.433-6.798-31.279-17.735-41.878l-0.015-0.015c-10.434-10.175-24.71-16.454-40.452-16.461h-0.001zM465.878 843.53c-192.884-0.221-349.188-156.525-349.409-349.388v-0.021c0.221-192.884 156.525-349.188 349.388-349.409h0.021c192.884 0.221 349.188 156.525 349.409 349.388v0.021c-0.221 192.884-156.525 349.188-349.388 349.409h-0.021z" />
<glyph unicode="&#xe912;" glyph-name="radio" horiz-adv-x="761" d="M752.64 627.2c-34.133 145.067-143.36 221.867-143.36 221.867-63.147 114.347-218.453 110.933-228.693 110.933-11.947 0-165.547 3.413-228.693-109.227 0 0-110.933-76.8-143.36-221.867 0 0-27.307-122.88 17.067-225.28 0 0-46.080-90.453 8.533-209.92s133.12-80.213 133.12-80.213 51.2 23.893 63.147 110.933c0 0 114.347-133.12 114.347-288.427h73.387c0 155.307 114.347 288.427 114.347 288.427 11.947-88.747 63.147-110.933 63.147-110.933s78.507-39.253 133.12 80.213c54.613 119.467 8.533 209.92 8.533 209.92 42.667 102.4 15.36 223.573 15.36 223.573zM168.96 198.827c-34.133-5.12-68.267 34.133-78.507 88.747s10.24 104.107 42.667 110.933 68.267-34.133 78.507-88.747-8.533-105.813-42.667-110.933zM541.013 321.707c0 0-129.707-126.293-136.533-266.24h-8.533v365.227l17.067-8.533-5.12 34.133 22.187 22.187-32.427 5.12-17.067 29.013-17.067-29.013-32.427-5.12 22.187-22.187-5.12-34.133 17.067 8.533v-365.227h-8.533c-6.827 139.947-136.533 266.24-136.533 266.24l-5.12 15.36c58.027 73.387 32.427 244.053 32.427 244.053h266.24c0 0-25.6-170.667 32.427-244.053l-5.12-15.36zM669.013 287.573c-10.24-54.613-44.373-95.573-78.507-88.747-34.133 5.12-52.907 54.613-42.667 110.933s44.373 95.573 78.507 88.747c34.133-6.827 52.907-56.32 42.667-110.933zM703.147 448c0 0-59.733 52.907-128-37.547 0 0-29.013 104.107-10.24 252.587 0 0-81.92-20.48-155.307-20.48-10.24 0-49.493 0-59.733 0-37.547 0-75.093 5.12-104.107 10.24-30.72 5.12-49.493 10.24-49.493 10.24 20.48-148.48-10.24-252.587-10.24-252.587-68.267 90.453-128 37.547-128 37.547-10.24 46.080-30.72 180.907 78.507 298.667 102.4 114.347 230.4 110.933 244.053 109.227v0c0 0 0 0 0 0s0 0 0 0v0c11.947 0 141.653 3.413 244.053-109.227 109.227-117.76 88.747-252.587 78.507-298.667z" />
<glyph unicode="&#xe913;" glyph-name="pinterest" d="M512 960c-0.013 0-0.027 0-0.042 0-282.77 0-512-229.23-512-512 0-215.67 133.348-400.196 322.093-475.625l3.453-1.218c-3.021 20.435-4.746 44.022-4.746 68.013 0 27.889 2.331 55.233 6.81 81.848l-0.4-2.874c9.344 39.851 59.989 254.507 59.989 254.507-9.583 21.7-15.162 47.005-15.162 73.613 0 0.836 0.006 1.67 0.016 2.503l-0.001-0.126c0 71.168 41.173 124.331 92.501 124.331 0.28 0.004 0.61 0.007 0.94 0.007 35.558 0 64.384-28.826 64.384-64.384 0-2.739-0.171-5.439-0.503-8.088l0.032 0.316c-10.579-65.11-25.417-122.561-44.865-177.84l2.199 7.173c-1.441-5.471-2.268-11.752-2.268-18.226 0-41.072 33.296-74.368 74.368-74.368 1.308 0 2.608 0.034 3.9 0.1l-0.181-0.007c91.008 0 160.981 96 160.981 234.667 0.068 1.95 0.106 4.241 0.106 6.542 0 111.553-90.431 201.984-201.984 201.984-4.21 0-8.39-0.129-12.536-0.383l0.569 0.028c-2.878 0.134-6.252 0.21-9.644 0.21-122.345 0-221.525-99.18-221.525-221.525 0-0.299 0.001-0.598 0.002-0.896v0.046c0.111-44.010 14.486-84.641 38.742-117.539l-0.385 0.547c2.532-2.742 4.085-6.422 4.085-10.464 0-1.5-0.214-2.951-0.613-4.323l0.027 0.109c-4.011-16.171-12.501-51.2-14.165-57.984-2.347-9.515-7.509-11.52-17.067-6.827-64 29.867-103.979 123.179-103.979 198.315 0 161.493 117.333 309.845 338.347 309.845 177.664 0 315.733-126.507 315.733-295.851 0-176.341-111.317-318.336-265.685-318.336-1.46-0.056-3.175-0.088-4.897-0.088-46.376 0-87.368 23.049-112.145 58.317l-0.291 0.437s-25.6-97.664-32-121.685c-16.667-51.157-38.254-95.578-64.977-136.329l1.319 2.142c45.008-14.345 96.778-22.612 150.478-22.612 282.77 0 512 229.23 512 512 0 282.422-228.667 511.437-510.958 511.999h-0.054z" />
<glyph unicode="&#xe914;" glyph-name="angle-down" horiz-adv-x="1707" d="M0 960l853.333-1024 853.333 1024z" />
<glyph unicode="&#xe915;" glyph-name="message-e" horiz-adv-x="1061" d="M189.492-63.909v207.801h-189.461v816.138h1060.983v-816.138h-631.133l-178.851-154.297-61.537-53.504zM75.815 225.497h189.461v-118.588l127.864 109.675 10.67 8.912h581.419v652.899h-909.414zM227.384 429.539v81.605h454.707v-81.605zM227.384 592.779v81.605h606.276v-81.635z" />
<glyph unicode="&#xe916;" glyph-name="scriberfile" d="M972.8 469.333c-8.533 8.533-21.333 12.8-29.867 4.267-17.067-12.8-29.867-17.067-46.933-17.067 4.267 12.8 4.267 21.333 4.267 29.867s-8.533 21.333-17.067 25.6c-17.067 8.533-38.4 12.8-55.467 8.533-8.533-4.267-21.333-8.533-29.867-17.067-8.533-12.8-8.533-25.6-4.267-42.667 0-4.267 4.267-12.8 8.533-17.067-12.8 4.267-29.867 8.533-46.933 17.067 0 12.8 4.267 21.333 4.267 34.133 0 21.333-4.267 38.4-4.267 55.467 29.867 0 76.8 8.533 93.867 25.6 8.533 8.533 12.8 17.067 17.067 29.867 25.6 12.8 55.467 29.867 72.533 64 4.267 8.533 0 21.333-8.533 29.867-8.533 4.267-21.333 0-29.867-8.533-8.533-17.067-21.333-29.867-34.133-34.133-8.533 4.267-8.533 12.8-12.8 17.067-4.267 8.533-17.067 17.067-25.6 17.067-17.067 4.267-38.4-4.267-55.467-17.067-34.133-25.6-21.333-55.467-8.533-72.533 4.267-4.267 8.533-8.533 17.067-12.8-12.8 0-29.867-4.267-46.933-4.267-8.533 34.133-25.6 55.467-46.933 76.8 25.6 12.8 55.467 34.133 64 55.467 4.267 12.8 4.267 21.333 4.267 34.133 21.333 21.333 34.133 51.2 38.4 89.6 0 12.8-8.533 21.333-21.333 21.333s-21.333-8.533-21.333-21.333c0-17.067-8.533-34.133-17.067-46.933-8.533 8.533-12.8 17.067-21.333 21.333s-21.333 8.533-29.867 4.267c-17.067-4.267-34.133-21.333-42.667-38.4-4.267-12.8-8.533-25.6-4.267-38.4s12.8-21.333 29.867-29.867c4.267-4.267 12.8-4.267 21.333-4.267-8.533-4.267-21.333-12.8-34.133-17.067-25.6 17.067-51.2 29.867-81.067 38.4 12.8 21.333 21.333 42.667 21.333 59.733 0 12.8-4.267 21.333-12.8 29.867 8.533 29.867 12.8 64-4.267 98.133-4.267 12.8-17.067 17.067-25.6 12.8-12.8-4.267-17.067-17.067-12.8-25.6 8.533-17.067 8.533-34.133 4.267-51.2-8.533 4.267-21.333 8.533-25.6 8.533-8.533 0-21.333 0-29.867-8.533-12.8-12.8-21.333-34.133-21.333-51.2 0-42.667 25.6-51.2 51.2-51.2 8.533 0 12.8 0 21.333 4.267-4.267-4.267-8.533-12.8-12.8-17.067-4.267 0-4.267 0-8.533 0-51.2 0-98.133-17.067-140.8-46.933-12.8 4.267-25.6 12.8-38.4 21.333 8.533 0 12.8 0 21.333 4.267 17.067 4.267 25.6 17.067 29.867 29.867s0 25.6-4.267 34.133c-8.533 17.067-25.6 34.133-42.667 38.4-12.8 4.267-21.333 0-29.867-4.267s-17.067-8.533-21.333-21.333c-8.533 12.8-17.067 29.867-17.067 46.933 0 12.8-12.8 21.333-21.333 21.333-12.8 0-21.333-12.8-21.333-21.333 4.267-38.4 17.067-68.267 38.4-89.6 0-12.8 0-21.333 4.267-34.133 8.533-21.333 42.667-42.667 72.533-59.733-21.333-17.067-38.4-42.667-46.933-68.267-17.067 0-38.4 0-55.467 4.267 8.533 4.267 12.8 8.533 17.067 12.8 12.8 17.067 25.6 42.667-8.533 72.533-12.8 8.533-34.133 17.067-51.2 12.8-12.8 0-21.333-8.533-29.867-17.067-4.267-4.267-4.267-12.8-8.533-25.6-12.8 8.533-25.6 17.067-34.133 34.133-4.267 12.8-17.067 17.067-29.867 8.533-8.533-4.267-12.8-17.067-8.533-25.6 17.067-29.867 46.933-51.2 72.533-64 4.267-12.8 8.533-21.333 17.067-29.867 21.333-17.067 72.533-21.333 102.4-25.6-4.267-17.067-4.267-38.4-4.267-55.467 0-8.533 0-21.333 0-29.867 0 0 0 0-4.267 0-17.067-8.533-34.133-17.067-51.2-21.333 4.267 4.267 8.533 12.8 8.533 17.067 4.267 17.067 4.267 34.133-4.267 42.667-8.533 12.8-21.333 17.067-29.867 17.067-17.067 4.267-42.667 0-55.467-8.533-8.533-8.533-17.067-17.067-17.067-25.6s0-17.067 4.267-29.867c-12.8 0-29.867 8.533-46.933 17.067-8.533 8.533-21.333 4.267-29.867-4.267s-4.267-21.333 4.267-29.867c29.867-21.333 64-29.867 93.867-25.6 8.533-8.533 17.067-17.067 29.867-17.067 4.267 0 8.533 0 17.067 0 29.867 0 76.8 17.067 98.133 25.6 17.067-51.2 46.933-98.133 93.867-128-128-55.467-209.067-183.467-209.067-320h68.267c0 0 0 0 0 0 0 153.6 119.467 277.333 273.067 277.333v0c51.2 0 98.133-12.8 145.067-42.667 81.067-51.2 132.267-140.8 128-238.933h68.267c0 140.8-81.067 264.533-209.067 320 42.667 29.867 76.8 76.8 93.867 128 21.333-8.533 59.733-25.6 89.6-25.6 4.267 0 12.8 0 17.067 0 12.8 4.267 21.333 8.533 29.867 17.067 29.867 0 64 4.267 93.867 25.6 0 17.067 0 29.867-4.267 38.4zM797.867 644.267c4.267 4.267 17.067 8.533 17.067 8.533 0-4.267 4.267-12.8 4.267-21.333-12.8-4.267-21.333 0-25.6 0-4.267 4.267-4.267 4.267-4.267 4.267 4.267 4.267 4.267 4.267 8.533 8.533zM516.267 789.333c-4.267 0-4.267 0-8.533 0 0 0 0 0 0 0s0 4.267 0 8.533 4.267 17.067 4.267 21.333c4.267 0 12.8-4.267 17.067-8.533-4.267-12.8-12.8-21.333-12.8-21.333zM328.533 780.8c4.267 0 12.8-8.533 17.067-12.8s4.267-8.533 4.267-8.533c0 0-4.267 0-4.267-4.267-4.267 0-12.8 0-25.6 8.533 0 8.533 4.267 12.8 8.533 17.067zM230.4 631.467c-4.267 0-12.8-4.267-25.6 0 0 8.533 0 17.067 4.267 17.067s17.067 0 21.333-4.267c4.267-4.267 4.267-4.267 4.267-4.267s0 0 0 0c-4.267 0-4.267-4.267-4.267-8.533zM196.267 469.333c0-4.267-8.533-8.533-25.6-12.8-4.267 8.533-4.267 12.8-4.267 17.067 4.267 4.267 8.533 4.267 17.067 4.267 0 0 4.267 0 4.267 0 4.267 0 8.533-4.267 8.533 0 0-4.267 0-4.267 0-8.533zM682.667 755.2c-4.267 0-4.267 4.267-8.533 4.267 0 0 0 4.267 4.267 8.533 4.267 8.533 12.8 12.8 12.8 17.067 4.267 0 8.533-8.533 12.8-17.067-8.533-12.8-17.067-12.8-21.333-12.8zM516.267 315.733c-93.867 0-170.667 81.067-170.667 174.933s76.8 174.933 170.667 174.933c93.867 0 170.667-81.067 170.667-174.933s-76.8-170.667-170.667-174.933zM853.333 456.533c-12.8 4.267-21.333 8.533-21.333 8.533 0 4.267 0 8.533 0 8.533s4.267 0 8.533 4.267c0 0 4.267 0 4.267 0 4.267 0 12.8 0 12.8 0 0-4.267 0-12.8-4.267-21.333z" />
<glyph unicode="&#xe917;" glyph-name="icon-edit" horiz-adv-x="1051" d="M367.266-64v0l13.164 59.434 28.96 141.838 2.633 12.637 9.215 8.885 417.288 399.977c22.864 21.921 53.954 35.417 88.196 35.417s65.333-13.496 88.241-35.46l-0.045 0.043c22.443-21.358 36.401-51.452 36.401-84.807s-13.958-63.449-36.352-84.761l-0.049-0.046-425.186-410.113-13.164-2.501-147.433-27.841-61.836-12.67zM897.761 501.806l-408.073-392.375-14.447-69.636 72.4 13.953 408.073 392.342c8.572 6.376 14.065 16.475 14.065 27.858s-5.493 21.482-13.973 27.792l-0.092 0.066c-6.854 8.515-17.276 13.918-28.96 13.918s-22.106-5.403-28.904-13.846l-0.056-0.072zM179.026-4.5c-34.397 14.879-63.97 34.021-89.814 57.232l0.302-0.266c-27.729 23.856-45.674 58.414-47.379 97.19l-0.010 0.287c3.582 43.147 27.776 79.962 62.599 100.901l0.586 0.327c30.854 20.634 66.304 40.098 103.435 56.446l4.507 1.77c36.969 16.52 68.069 33.444 97.713 52.44l-2.935-1.76c22.872 15.961 28.96 26.327 28.96 32.909 0 1.909 0.987 0-2.633 3.785-7.552 6.546-16.239 12.068-25.674 16.199l-0.654 0.255c-26.656 12.341-69.109 25.34-113.207 41.795-49.633 16.205-92.569 40.371-129.613 71.349l0.609-0.495c-40.505 36.863-65.828 89.798-65.828 148.647 0 0.684 0.003 1.367 0.010 2.049l-0.001-0.104c0 72.4 53.971 126.733 119.789 163.295 66.957 35.011 144.612 62.252 226.443 77.668l5.237 0.82c107.841 23.024 233.312 38.052 361.634 41.694l2.999 0.067v-81.022c-126.258-4.944-245.721-19.464-361.937-42.942l14.416 2.431c-77.653-14.277-146.939-37.991-211.119-70.353l4.45 2.034c-52.655-29.289-77.698-58.841-77.698-93.692-0.105-1.805-0.164-3.917-0.164-6.043 0-34.074 15.339-64.566 39.49-84.946l0.166-0.136c29.191-23.573 63.311-42.517 100.398-55.007l2.312-0.676c40.149-15.007 81.944-26.327 118.473-43.045 19.355-8.278 35.929-19.367 50.077-32.961l-0.055 0.052c15.693-15.576 25.624-36.939 26.324-60.619l0.003-0.131c-3.569-42.437-27.844-78.512-62.574-98.405l-0.611-0.322c-30.735-20.344-66.17-39.796-103.197-56.324l-4.744-1.892c-36.796-16.21-67.908-33.133-97.453-52.271l2.675 1.624c-22.872-16.29-28.927-27.216-28.927-35.41 0.893-16.093 8.911-30.147 20.926-39.163l0.136-0.097c19.26-16.579 41.398-30.584 65.421-41.075l1.68-0.654c37.294-16.503 81.282-30.894 126.905-40.922l4.731-0.873-18.429-78.455c-56.635 11.754-106.384 27.894-153.611 48.708l4.861-1.911z" />
<glyph unicode="&#xe918;" glyph-name="checkmark" d="M893.952 789.333l-537.472-586.197-226.432 246.997-44.715-48.768 248.789-271.36 22.357-23.339 22.357 23.339 559.829 610.56z" />
<glyph unicode="&#xe919;" glyph-name="back1" horiz-adv-x="975" d="M914.286 508.952h-707.048l323.048 323.048c24.381 24.381 24.381 60.952 0 85.333s-60.952 24.381-85.333 0l-426.667-426.667c-6.095-6.095-12.19-12.19-12.19-18.286-6.095-18.286-6.095-36.571 0-48.762 0-6.095 6.095-12.19 12.19-18.286l426.667-426.667c12.19-12.19 30.476-18.286 42.667-18.286s30.476 6.095 42.667 18.286c24.381 24.381 24.381 60.952 0 85.333l-323.048 323.048h707.048c36.571 0 60.952 24.381 60.952 60.952s-24.381 60.952-60.952 60.952z" />
<glyph unicode="&#xe91a;" glyph-name="arrow---right" d="M366.933 644.267l59.733 59.733 256-256-256-256-59.733 59.733 196.267 196.267z" />
<glyph unicode="&#xe91b;" glyph-name="back" horiz-adv-x="975" d="M914.286 508.952h-707.048l323.048 323.048c24.381 24.381 24.381 60.952 0 85.333s-60.952 24.381-85.333 0l-426.667-426.667c-6.095-6.095-12.19-12.19-12.19-18.286-6.095-18.286-6.095-36.571 0-48.762 0-6.095 6.095-12.19 12.19-18.286l426.667-426.667c12.19-12.19 30.476-18.286 42.667-18.286s30.476 6.095 42.667 18.286c24.381 24.381 24.381 60.952 0 85.333l-323.048 323.048h707.048c36.571 0 60.952 24.381 60.952 60.952s-24.381 60.952-60.952 60.952z" />
<glyph unicode="&#xe91c;" glyph-name="edit-white" d="M0-64v0l13.173 61.867 46.080 231.467 2.667 13.173 665.92 666.187c31.28 31.043 74.367 50.227 121.934 50.227 95.612 0 173.12-77.508 173.12-173.12 0-47.554-19.174-90.63-50.212-121.919l-666.016-666.016-244.8-48.693-61.867-13.173zM135.573 182.133l-27.627-138.187 138.187 27.573c-20.593 50.612-59.96 89.997-109.235 110.134l-1.325 0.479zM698.667 759.947v0l-509.173-509.28c54.134-27.982 97.17-71.001 124.421-123.527l0.752-1.593 509.28 509.12-125.28 125.227zM850.080 879.733c-25.204-1.209-47.521-12.636-63.064-30.198l-0.082-0.095-29.013-30.293 125.013-125.013 30.293 29.013c17.79 15.592 29.369 37.893 30.763 62.912l0.010 0.234c-1.389 25.247-12.95 47.547-30.618 63.059l-0.102 0.088c-15.597 17.611-37.845 29.026-62.773 30.285l-0.214 0.009z" />
<glyph unicode="&#xe91d;" glyph-name="team-zone" d="M1024.057-64.057h-469.359v469.359h469.359v-469.359zM914.767 21.281h23.952v24.008zM701.422 21.281h90.686l146.611 146.668v90.686zM640.036 173.297v-90.686l237.354 237.354h-90.686zM640.036 295.956l24.008 24.008h-24.008zM469.303-64.057h-469.303v469.359h469.359v-469.359zM85.338 21.281h298.683v298.683h-298.683zM256.014 106.619c0.032 23.541 19.124 42.612 42.669 42.612 23.565 0 42.669-19.104 42.669-42.669s-19.104-42.669-42.669-42.669v0c-23.572 0.032-42.669 19.149-42.669 42.726 0 0 0 0 0 0v0zM128.007 106.619c0 23.565 19.104 42.669 42.669 42.669s42.669-19.104 42.669-42.669c0-23.565-19.104-42.669-42.669-42.669v0c-23.552 0.032-42.637 19.117-42.669 42.666v0.003zM256.014 234.626c0.032 23.541 19.124 42.612 42.669 42.612 23.565 0 42.669-19.104 42.669-42.669s-19.104-42.669-42.669-42.669v0c-23.572 0.032-42.669 19.149-42.669 42.726 0 0 0 0 0 0v0zM128.007 234.626c0 23.565 19.104 42.669 42.669 42.669s42.669-19.104 42.669-42.669c0-23.565-19.104-42.669-42.669-42.669v0c-23.552 0.032-42.637 19.117-42.669 42.666v0.003zM1024.057 490.641h-469.359v469.359h469.359v-469.303zM640.036 575.979h298.683v298.683h-298.683zM0 490.641v469.359h469.359v-469.359z" />
<glyph unicode="&#xe91e;" glyph-name="more" d="M725.333 448c0 47.128 38.205 85.333 85.333 85.333s85.333-38.205 85.333-85.333c0-47.128-38.205-85.333-85.333-85.333v0c-47.128 0-85.333 38.205-85.333 85.333v0zM426.667 448c0 47.128 38.205 85.333 85.333 85.333s85.333-38.205 85.333-85.333c0-47.128-38.205-85.333-85.333-85.333v0c-47.128 0-85.333 38.205-85.333 85.333v0zM128 448c0 47.128 38.205 85.333 85.333 85.333s85.333-38.205 85.333-85.333c0-47.128-38.205-85.333-85.333-85.333v0c-47.128 0-85.333 38.205-85.333 85.333v0z" />

 
</font>
</defs>
</svg>
