<svg id="add_buddy" xmlns="http://www.w3.org/2000/svg" width="40" height="40" viewBox="0 0 40 40">
  <g id="button">
    <g id="Oval" fill="#fff" stroke="#ebebeb" stroke-miterlimit="10" stroke-width="1">
      <circle cx="20" cy="20" r="20" stroke="none"/>
      <circle cx="20" cy="20" r="19.5" fill="none"/>
    </g>
    <g id="icon_-_add_friend" data-name="icon - add friend" transform="translate(8 8)">
      <path id="Combined_Shape" data-name="Combined Shape" d="M12.857,18a5.142,5.142,0,0,1-4-8.377A5.059,5.059,0,0,0,6.429,9a5.148,5.148,0,0,0-5.143,5.143H0A6.434,6.434,0,0,1,3.918,8.237a4.5,4.5,0,1,1,5.022,0,6.493,6.493,0,0,1,.9.462A5.14,5.14,0,1,1,12.857,18Zm0-9a3.857,3.857,0,1,0,3.856,3.857A3.862,3.862,0,0,0,12.857,9ZM6.429,1.286A3.214,3.214,0,1,0,9.643,4.5,3.218,3.218,0,0,0,6.429,1.286ZM13.5,15.429H12.214V13.5H10.286V12.214h1.928V10.286H13.5v1.928h1.929V13.5H13.5v1.928Z" transform="translate(3.6 4.5)" fill="#f70031"/>
      <g id="hair" transform="translate(2.5 1.7)">
        <path id="Path_2" data-name="Path 2" d="M.545,3.571s.9-1.072.883-1.553-.684-.845-.935-.88S0,1.528,0,1.82s.065.5.493.5S1.673,1.125,1.232,0" transform="translate(7.071)" fill="none" stroke="#f70031" stroke-linecap="round" stroke-linejoin="round" stroke-miterlimit="10" stroke-width="0.5"/>
        <path id="Path_2-2" data-name="Path 2" d="M.545,3.571s.9-1.072.883-1.553-.684-.845-.935-.88S0,1.528,0,1.82s.065.5.493.5S1.673,1.125,1.232,0" transform="translate(10.75 0.58) rotate(25)" fill="none" stroke="#f70031" stroke-linecap="round" stroke-linejoin="round" stroke-miterlimit="10" stroke-width="0.5"/>
        <path id="Path_2-3" data-name="Path 2" d="M.545,3.571s.9-1.072.883-1.553-.684-.845-.935-.88S0,1.528,0,1.82s.065.5.493.5S1.673,1.125,1.232,0" transform="translate(13.45 2.948) rotate(50)" fill="none" stroke="#f70031" stroke-linecap="round" stroke-linejoin="round" stroke-miterlimit="10" stroke-width="0.5"/>
        <path id="Path_2-4" data-name="Path 2" d="M.545,3.571s.9-1.072.883-1.553-.684-.845-.935-.88S0,1.528,0,1.82s.065.5.493.5S1.673,1.125,1.232,0" transform="matrix(0.259, 0.966, -0.966, 0.259, 14.593, 6.348)" fill="none" stroke="#f70031" stroke-linecap="round" stroke-linejoin="round" stroke-miterlimit="10" stroke-width="0.5"/>
        <path id="Path_2-5" data-name="Path 2" d="M-.545,3.571s-.9-1.072-.883-1.553.684-.845.935-.88S0,1.528,0,1.82s-.065.5-.493.5S-1.673,1.125-1.232,0" transform="translate(4.25 0.58) rotate(-25)" fill="none" stroke="#f70031" stroke-linecap="round" stroke-linejoin="round" stroke-miterlimit="10" stroke-width="0.5"/>
        <path id="Path_2-6" data-name="Path 2" d="M-.545,3.571s-.9-1.072-.883-1.553.684-.845.935-.88S0,1.528,0,1.82s-.065.5-.493.5S-1.673,1.125-1.232,0" transform="translate(1.55 2.948) rotate(-50)" fill="none" stroke="#f70031" stroke-linecap="round" stroke-linejoin="round" stroke-miterlimit="10" stroke-width="0.5"/>
        <path id="Path_2-7" data-name="Path 2" d="M-.545,3.571s-.9-1.072-.883-1.553.684-.845.935-.88S0,1.528,0,1.82s-.065.5-.493.5S-1.673,1.125-1.232,0" transform="matrix(0.259, -0.966, 0.966, 0.259, 0.407, 6.348)" fill="none" stroke="#f70031" stroke-linecap="round" stroke-linejoin="round" stroke-miterlimit="10" stroke-width="0.5"/>
      </g>
    </g>
  </g>
</svg>
