<svg xmlns="http://www.w3.org/2000/svg" xmlns:xlink="http://www.w3.org/1999/xlink" width="63.203" height="61.084" viewBox="0 0 63.203 61.084">
  <defs>
    <clipPath id="clip-path">
      <rect width="63.203" height="61.084" fill="none"/>
    </clipPath>
  </defs>
  <g id="Repeat_Grid_1" data-name="Repeat Grid 1" clip-path="url(#clip-path)">
    <g transform="translate(-1139.7 -876.068)">
      <g id="icon_photography" data-name="icon / photography" transform="translate(1139.7 876.068)">
        <g id="icon_video" data-name="icon / video">
          <g id="Group" transform="translate(0 0)">
            <path id="Path" d="M49.2,5.225,52,5.183C52.156-.332,45.289,0,45.289,0L11.466,0C8.871,0,6.727,2.741,6.727,4.984v28.3L0,33.265C0,33.5,0,46.8.026,47.016.466,51.392,6.362,50.9,6.362,50.9l39.36.027c2.121.191,3.484-2.259,3.484-3.62s0-42.085,0-42.085" transform="translate(0 1.113)" fill="#edf7f5"/>
            <g id="Group-2" data-name="Group" transform="translate(0.036 0)">
              <g id="Group-3" data-name="Group" transform="translate(0 0)">
                <path id="Path-2" data-name="Path" d="M.778,50.257a.766.766,0,1,1,0-1.532c.141,0,.18-.039.2-.063.14-.149.289-.572.2-1.75L1.232,5.793C1.232,3.171,3.674,0,6.707,0L40.226,0C40.338,0,43.951-.156,46.108,1.92a5.227,5.227,0,0,1,1.542,4.1.773.773,0,0,1-.777.745L21.387,6.8h0a.766.766,0,1,1,0-1.532l24.682-.04A3.484,3.484,0,0,0,45.024,3.02C43.36,1.411,40.3,1.539,40.263,1.537l-33.557,0c-2.073,0-3.919,2.382-3.919,4.26L2.733,46.857A3.724,3.724,0,0,1,2.119,49.7,1.787,1.787,0,0,1,.778,50.257Z" transform="translate(5.359 0)" fill="#472b29"/>
                <path id="Path-3" data-name="Path" d="M46.25,47.609c-.1,0-.2-.005-.3-.014L7.071,47.571c-2.22.183-6.639-.524-7.042-4.6C0,42.672,0,29.158,0,29.046a.772.772,0,0,1,.778-.75h0l5.923.019a.766.766,0,1,1,0,1.532h0l-5.142-.016c0,2.811.006,12.573.023,13.02.352,3.558,5.219,3.207,5.427,3.189l39.012.024a1.924,1.924,0,0,0,1.52-.534,3.61,3.61,0,0,0,1.149-2.341V.766a.778.778,0,0,1,1.556,0V43.192a5.088,5.088,0,0,1-1.657,3.473A3.473,3.473,0,0,1,46.25,47.609Z" transform="translate(0 5.271)" fill="#472b29"/>
                <path id="Path-4" data-name="Path" d="M4.119,1.532H.778A.771.771,0,0,1,0,.766.771.771,0,0,1,.778,0H4.119A.771.771,0,0,1,4.9.766.771.771,0,0,1,4.119,1.532Z" transform="translate(19.286 5.271)" fill="#472b29"/>
              </g>
              <g id="Group-4" data-name="Group" transform="translate(10.626 11.221)">
                <g id="Group-5" data-name="Group" transform="translate(0 3.948)">
                  <path id="Path-5" data-name="Path" d="M12.444.923H.417A.414.414,0,0,1,0,.512.414.414,0,0,1,.417.1H12.444a.414.414,0,0,1,.417.41A.414.414,0,0,1,12.444.923Z" transform="translate(0 -0.102)" fill="#472b29"/>
                  <path id="Path-6" data-name="Path" d="M22.468.923H.417A.414.414,0,0,1,0,.512.414.414,0,0,1,.417.1h22.05a.414.414,0,0,1,.417.41A.413.413,0,0,1,22.468.923Z" transform="translate(14.032 -0.102)" fill="#472b29"/>
                </g>
                <path id="Path-7" data-name="Path" d="M21.131.923H.417A.414.414,0,0,1,0,.512.414.414,0,0,1,.417.1H21.131a.414.414,0,0,1,.417.41A.414.414,0,0,1,21.131.923Z" transform="translate(15.369 10.427)" fill="#472b29"/>
                <path id="Path-8" data-name="Path" d="M14.559.923H.417A.414.414,0,0,1,0,.512.414.414,0,0,1,.417.1H14.559a.414.414,0,0,1,.417.41A.414.414,0,0,1,14.559.923Z" transform="translate(15.369 15.033)" fill="#472b29"/>
                <g id="Group-6" data-name="Group" transform="translate(0 9.213)">
                  <path id="Path-9" data-name="Path" d="M11.359,1.974V10.53H0V0H9.354" transform="translate(0.418 0.41)" fill="#a8dbdb"/>
                  <path id="Path-10" data-name="Path" d="M11.777,11.35H.417A.414.414,0,0,1,0,10.94V.41A.414.414,0,0,1,.417,0H9.771a.414.414,0,0,1,.417.41.414.414,0,0,1-.417.41H.833V10.53H11.36V2.386a.417.417,0,0,1,.833,0V10.94A.414.414,0,0,1,11.777,11.35Z" transform="translate(0 0)" fill="#472b29"/>
                </g>
                <path id="Path-11" data-name="Path" d="M9.286.923H.417A.414.414,0,0,1,0,.512.414.414,0,0,1,.417.1H9.286A.414.414,0,0,1,9.7.512.414.414,0,0,1,9.286.923Z" transform="translate(15.369 19.641)" fill="#472b29"/>
                <g id="Group-7" data-name="Group" transform="translate(0 0)">
                  <path id="Path-12" data-name="Path" d="M9.771.923H.417A.414.414,0,0,1,0,.512.414.414,0,0,1,.417.1H9.771a.414.414,0,0,1,.417.41A.414.414,0,0,1,9.771.923Z" transform="translate(17.373 -0.102)" fill="#472b29"/>
                  <path id="Path-13" data-name="Path" d="M7.768.923H.417A.414.414,0,0,1,0,.512.414.414,0,0,1,.417.1h7.35a.414.414,0,0,1,.417.41A.413.413,0,0,1,7.768.923Z" transform="translate(28.732 -0.102)" fill="#472b29"/>
                  <path id="Path-14" data-name="Path" d="M15.786.923H.417A.414.414,0,0,1,0,.512.414.414,0,0,1,.417.1H15.786a.414.414,0,0,1,.417.41A.414.414,0,0,1,15.786.923Z" transform="translate(0 -0.102)" fill="#472b29"/>
                </g>
                <path id="Path-15" data-name="Path" d="M21.131.923H.417A.414.414,0,0,1,0,.512.414.414,0,0,1,.417.1H21.131a.414.414,0,0,1,.417.41A.414.414,0,0,1,21.131.923Z" transform="translate(0 34.118)" fill="#472b29"/>
                <path id="Path-16" data-name="Path" d="M19.488.923H.417A.414.414,0,0,1,0,.512.414.414,0,0,1,.417.1H19.488a.414.414,0,0,1,.417.41A.414.414,0,0,1,19.488.923Z" transform="translate(0 29.511)" fill="#472b29"/>
                <path id="Path-17" data-name="Path" d="M16.247.923H.417A.414.414,0,0,1,0,.512.414.414,0,0,1,.417.1h15.83a.414.414,0,0,1,.417.41A.413.413,0,0,1,16.247.923Z" transform="translate(0 24.904)" fill="#472b29"/>
              </g>
            </g>
            <g id="Group-8" data-name="Group" transform="translate(12.115 22.77)">
              <g id="Group-9" data-name="Group" transform="translate(1.899 0)">
                <ellipse id="Oval" cx="1.018" cy="1.065" rx="1.018" ry="1.065" transform="translate(0.135 2.165) rotate(-89.931)" fill="#ef9922"/>
                <path id="Shape" d="M1.2,2.295a1.212,1.212,0,0,1-.848-.337A1.114,1.114,0,0,1,0,1.147,1.179,1.179,0,0,1,1.2,0,1.178,1.178,0,0,1,2.4,1.149a1.118,1.118,0,0,1-.353.812,1.227,1.227,0,0,1-.848.334Z" transform="translate(0 0)" fill="#472b29"/>
              </g>
              <g id="Group-10" data-name="Group" transform="translate(7.877 1.621)">
                <path id="Path-18" data-name="Path" d="M0,1.946,1.358.088A.2.2,0,0,1,1.7.108l1.1,1.841.041,4.627" transform="translate(0.112 0.133)" fill="#88ae45"/>
                <path id="Path-19" data-name="Path" d="M2.812,6.709,2.771,2.116,1.691.3A.077.077,0,0,0,1.635.263.076.076,0,0,0,1.582.3L.224,2.153,0,2,1.358.147A.316.316,0,0,1,1.648,0a.343.343,0,0,1,.279.173l1.115,1.9.041,4.627Z" transform="translate(0 0)" fill="#472b29"/>
              </g>
              <g id="Group-11" data-name="Group" transform="translate(2.107 1.547)">
                <path id="Path-20" data-name="Path" d="M0,7.04,4.112.105a.2.2,0,0,1,.35,0l4.025,6.55v.4Z" transform="translate(0.233 0.129)" fill="#88ae45"/>
                <path id="Shape-2" data-name="Shape" d="M0,7.3,4.228.171A.338.338,0,0,1,4.519,0h0a.347.347,0,0,1,.292.165l4.044,6.58V7.31Z" transform="translate(0 0)" fill="#472b29"/>
              </g>
              <g id="Group-12" data-name="Group" transform="translate(0 3.379)">
                <path id="Path-21" data-name="Path" d="M.026,2.417,1.868.106a.265.265,0,0,1,.44.024L3.8,2.421,2.2,5.206,0,5.2Z" transform="translate(0.137 0.131)" fill="#88ae45"/>
                <path id="Shape-3" data-name="Shape" d="M0,5.465.028,2.5l.026-.035L1.9.157A.446.446,0,0,1,2.233,0a.409.409,0,0,1,.328.193l1.53,2.356L2.42,5.468Z" transform="translate(0 0)" fill="#472b29"/>
              </g>
            </g>
          </g>
          <g id="Group-13" data-name="Group" transform="translate(28.798 28.726)">
            <g id="Group-14" data-name="Group" transform="translate(5.964 0)">
              <path id="Path-22" data-name="Path" d="M25.989,18.9a14.25,14.25,0,0,1-6.631,5.627,19.232,19.232,0,0,1-11.217,1.4,13.181,13.181,0,0,1-6.424-2.836A4.478,4.478,0,0,1,.144,20.837c-.8-2.433,1.985-2.457,2.7-2.647a8.673,8.673,0,0,0,3.081-1.272c1.924-1.445,1.916-2.344.35-4.234-.637-.768-1.261-1.454-1.857-2.249a5.034,5.034,0,0,1,.439-6.221,10.745,10.745,0,0,1,4-3.082c3.288-1.868,12.7-2.146,16.486,4.894C28.319,11.422,27.533,16.36,25.989,18.9Z" transform="translate(0.54 0.486)" fill="#f6cca4"/>
              <path id="Shape-4" data-name="Shape" d="M12.044,27.19a20.9,20.9,0,0,1-3.461-.3A13.772,13.772,0,0,1,1.89,23.937a4.872,4.872,0,0,1-1.731-2.5,2.165,2.165,0,0,1,.151-1.969,3.713,3.713,0,0,1,2.558-1.194c.167-.026.283-.045.369-.068a8.174,8.174,0,0,0,2.888-1.179c.867-.651,1.227-1.087,1.282-1.553.059-.5-.217-1.043-1.019-2.01-.213-.256-.42-.5-.612-.724l-.024-.028,0,0c-.428-.5-.833-.978-1.232-1.511a5.479,5.479,0,0,1,.455-6.789A11.216,11.216,0,0,1,9.144,1.19,12.044,12.044,0,0,1,14.75,0a15.778,15.778,0,0,1,3.963.5,11.818,11.818,0,0,1,7.66,5.8c3.058,5.559,2.25,10.655.628,13.33a14.826,14.826,0,0,1-6.867,5.83A19.834,19.834,0,0,1,12.044,27.19ZM14.724.971A10.833,10.833,0,0,0,9.689,2.032,10.287,10.287,0,0,0,5.831,4.995a4.565,4.565,0,0,0-.423,5.649c.385.515.776.974,1.19,1.459l.031.036.06.071.021.024c.177.208.359.422.54.64.937,1.131,1.315,1.968,1.227,2.714-.084.715-.6,1.391-1.665,2.192a9.091,9.091,0,0,1-3.274,1.364c-.113.029-.266.057-.477.091l-.013,0c-.591.1-1.483.245-1.819.742a1.351,1.351,0,0,0-.029,1.2,4,4,0,0,0,1.423,2.039,12.689,12.689,0,0,0,6.157,2.714,19.7,19.7,0,0,0,3.26.276,18.67,18.67,0,0,0,7.622-1.633,13.786,13.786,0,0,0,6.4-5.423c1.5-2.467,2.224-7.2-.651-12.425a10.791,10.791,0,0,0-6.99-5.3A14.774,14.774,0,0,0,14.724.971Z" transform="translate(0)" fill="#472b29"/>
            </g>
            <g id="Group-15" data-name="Group" transform="translate(0 6.73)">
              <g id="Group-16" data-name="Group" transform="translate(7.125 10.425)">
                <path id="Path-23" data-name="Path" d="M12,11.631a1.652,1.652,0,0,1-.627,2.331l-.152.1a1.916,1.916,0,0,1-2.56-.164l-.22-.276c-.016-.021.017.016.018.015l-.007,0L0,.917,1.737,0,11.878,11.49l-.007,0a.708.708,0,0,1-.046-.083Z" transform="translate(0.399 0.365)" fill="#af824e"/>
                <path id="Shape-5" data-name="Shape" d="M10.339,15.2a2.629,2.629,0,0,1-.348-.024,1.914,1.914,0,0,1-1.254-.7l-.171-.215a.321.321,0,0,1-.055-.063L.059,1.476a.349.349,0,0,1-.046-.283A.373.373,0,0,1,.2.965L1.938.048A.43.43,0,0,1,2.136,0a.414.414,0,0,1,.31.135L12.462,11.484a.368.368,0,0,1,.09.088l.167.2,0,0a1.674,1.674,0,0,1,.321,1.3,2.353,2.353,0,0,1-1.033,1.541l-.151.1A2.742,2.742,0,0,1,10.339,15.2ZM2.041.841h0L.953,1.415,9.145,13.75a.5.5,0,0,1,.036.04.269.269,0,0,1,.035.051l.167.209a1.117,1.117,0,0,0,.734.4,1.58,1.58,0,0,0,.226.017,1.891,1.891,0,0,0,1.041-.334l.15-.1a1.626,1.626,0,0,0,.724-1.051.974.974,0,0,0-.181-.768l-.05-.061a.355.355,0,0,1-.109-.114l-.008-.013L2.041.841Z" transform="translate(0 0)" fill="#472b29"/>
              </g>
              <g id="Group-17" data-name="Group" transform="translate(3.385 6.021)">
                <path id="Path-24" data-name="Path" d="M4.473,0l1.19,1.635a2.315,2.315,0,0,1-.673,3.429l-.184.116A2.655,2.655,0,0,1,1.19,4.449L0,2.813Z" transform="translate(0.398 0.368)" fill="#c29b67"/>
                <path id="Shape-6" data-name="Shape" d="M3.787,6.341a2.989,2.989,0,0,1-.519-.046,3.215,3.215,0,0,1-2.01-1.273L.068,3.388A.341.341,0,0,1,.006,3.12a.366.366,0,0,1,.168-.241L4.647.065a.431.431,0,0,1,.3-.059A.4.4,0,0,1,5.2.163L6.392,1.8A2.793,2.793,0,0,1,6.9,3.953,2.708,2.708,0,0,1,5.613,5.736l-.184.115A3.045,3.045,0,0,1,3.787,6.341ZM4.764.88.95,3.28l.97,1.332a2.4,2.4,0,0,0,1.5.959,2.029,2.029,0,0,0,.366.033,2.245,2.245,0,0,0,1.192-.361l.185-.115a2,2,0,0,0,.948-1.314A2.083,2.083,0,0,0,5.73,2.208L4.764.88Z" transform="translate(0 0)" fill="#472b29"/>
              </g>
              <g id="Group-18" data-name="Group" transform="translate(0 0)">
                <path id="Path-25" data-name="Path" d="M.178,4.164C.872,5.971,2.592,7.046,3.8,6.713c2.9-.8,2.854-3.783.6-4.334C1.641,1.7,1.035,0,1.035,0S-.515,2.357.178,4.164Z" transform="translate(0.372 0.343)" fill="#f70031"/>
                <path id="Shape-7" data-name="Shape" d="M3.7,7.461A4.221,4.221,0,0,1,.2,4.622C-.54,2.7,1.023.268,1.09.165A.378.378,0,0,1,1.4,0,.365.365,0,0,1,1.45,0,.363.363,0,0,1,1.76.236c.023.063.6,1.54,3.11,2.155A2.345,2.345,0,0,1,6.786,4.613a2.978,2.978,0,0,1-2.5,2.771A2.178,2.178,0,0,1,3.7,7.461ZM1.414,1.079h0A4.487,4.487,0,0,0,.9,4.392a3.508,3.508,0,0,0,2.825,2.38,1.328,1.328,0,0,0,.343-.043c1.475-.406,1.985-1.387,1.974-2.1a1.646,1.646,0,0,0-1.362-1.57A5.492,5.492,0,0,1,1.414,1.079Z" transform="translate(0 0)" fill="#472b29"/>
              </g>
            </g>
            <g id="Group-19" data-name="Group" transform="translate(14.891 5.307)">
              <ellipse id="Oval-2" data-name="Oval" cx="2.435" cy="2.538" rx="2.435" ry="2.538" transform="translate(0.279 0.293)" fill="#f70031"/>
              <path id="Shape-8" data-name="Shape" d="M2.714,5.66A2.777,2.777,0,0,1,0,2.83,2.777,2.777,0,0,1,2.714,0,2.777,2.777,0,0,1,5.428,2.83,2.777,2.777,0,0,1,2.714,5.66Zm0-5.077A2.206,2.206,0,0,0,.558,2.831,2.206,2.206,0,0,0,2.714,5.079,2.206,2.206,0,0,0,4.87,2.831,2.206,2.206,0,0,0,2.714.583Z" transform="translate(0 0)" fill="#472b29"/>
            </g>
            <g id="Group-20" data-name="Group" transform="translate(23.282 5.277)">
              <ellipse id="Oval-3" data-name="Oval" cx="1.745" cy="2.436" rx="1.745" ry="2.436" transform="translate(0.201 0.282)" fill="#ef8f70"/>
              <path id="Shape-9" data-name="Shape" d="M1.945,5.434C.872,5.434,0,4.215,0,2.717S.872,0,1.945,0,3.89,1.218,3.89,2.717,3.018,5.434,1.945,5.434Zm0-4.874C1.093.559.4,1.528.4,2.718s.693,2.159,1.544,2.159S3.49,3.908,3.49,2.718,2.8.559,1.945.559Z" transform="translate(0 0)" fill="#472b29"/>
            </g>
            <g id="Group-21" data-name="Group" transform="translate(26.069 13.53)">
              <ellipse id="Oval-4" data-name="Oval" cx="2.423" cy="2.436" rx="2.423" ry="2.436" transform="translate(0.278 0.28)" fill="#f1bc19"/>
              <path id="Shape-10" data-name="Shape" d="M2.7,5.433A2.716,2.716,0,1,1,5.4,2.716,2.712,2.712,0,0,1,2.7,5.433ZM2.7.559A2.158,2.158,0,1,0,4.848,2.717,2.153,2.153,0,0,0,2.7.559Z" transform="translate(0)" fill="#472b29"/>
            </g>
            <g id="Group-22" data-name="Group" transform="translate(23.489 18.503)">
              <ellipse id="Oval-5" data-name="Oval" cx="1.437" cy="1.926" rx="1.437" ry="1.926" transform="translate(0.199 0.269)" fill="#78a0cf"/>
              <path id="Shape-11" data-name="Shape" d="M1.636,4.39C.734,4.39,0,3.405,0,2.2S.734,0,1.636,0,3.273.985,3.273,2.2,2.539,4.39,1.636,4.39Zm0-3.853C.954.537.4,1.281.4,2.2S.954,3.854,1.636,3.854,2.874,3.11,2.874,2.2,2.319.537,1.636.537Z" transform="translate(0 0)" fill="#472b29"/>
            </g>
          </g>
        </g>
      </g>
    </g>
  </g>
</svg>
