<svg id="asset_parental_agreement_form" data-name="asset / parental agreement form" xmlns="http://www.w3.org/2000/svg" width="80" height="80" viewBox="0 0 80 80">
  <g id="ilustration_-_form_signed" data-name="ilustration - form signed">
    <circle id="Oval" cx="40" cy="40" r="40" fill="#c8102e"/>
    <g id="shapes" transform="translate(1)">
      <path id="Path" d="M65.084.006,14.85,0c-3.856,0-7.014,4.005-7.014,7.29V46.835H7.45L0,46.814c-.009.347,0,19.989.036,20.3.654,6.46,9.419,5.737,9.419,5.737H65.921c3.637.228,3.705-6.938,3.705-6.938V7.291h5.434C75.3-.486,65.084.006,65.084.006Z" transform="translate(1.168 1.952)" fill="#fefdef"/>
      <path id="Path-2" data-name="Path" d="M7.709.026,0,0C0,.333.005,19.193.03,19.492.549,25.7,7.508,25,7.508,25h.2V.026Z" transform="translate(1.296 48.762)" fill="#9b9b9b"/>
      <g id="Group" transform="translate(55.285 9.325)">
        <path id="Path-3" data-name="Path" d="M7.588,47.095V0H0V67.649L3.959,64.68l3.629,2.969Z" transform="translate(0.875 0.438)" fill="#4a90e2"/>
      </g>
      <path id="Combined_Shape" data-name="Combined Shape" d="M55.523,76.965a.519.519,0,0,1-.3-.464v-1.61l-44.9-.154c-.31.026-.612.022-.97.022-3.479,0-8.74-1.055-9.282-6.418C.026,67.936,0,48.038,0,47.854a1.066,1.066,0,0,1,1.085-1.018h0l6.653.019c-.092-16.523-.2-37.106-.2-38.523C7.543,4.557,11.552.2,16.057.2l50.317-.2c.18-.007,5.693-.24,8.882,2.757a7.044,7.044,0,0,1,2.176,5.6,1.064,1.064,0,0,1-1.085,1.011H71.479V66.96c0,.529-.112,5.139-2.3,7.086a3.462,3.462,0,0,1-2.561.886l-2.739-.009V76.5a.515.515,0,0,1-.312.468.54.54,0,0,1-.225.048A.556.556,0,0,1,63,76.894l-2.425-1.984L58.761,74.9l-2.672,2a.557.557,0,0,1-.566.057Zm.773-1.523.726-.544-.726,0Zm6.512-.06v-.464l-.57,0ZM1.949,68.108c.54,5.32,7.921,4.769,8.235,4.748l45.036,0V9.373H37.872a1.041,1.041,0,1,1,0-2.081H70.331l.063,0,.063,0h4.77a4.739,4.739,0,0,0-1.488-3.04c-2.518-2.367-7.265-2.171-7.312-2.165L16.074,2.082c-3.156,0-6.612,3.49-6.612,6.25,0,.356.033,22.025.064,39.016a1.007,1.007,0,0,1,0,1.1c.019,10.172.037,18.419.047,18.943.022,1.057.513,2.913-1.081,3.805a1.111,1.111,0,0,1-1.481-.374A1.018,1.018,0,0,1,7.4,69.4c.456-.255.48-.966.463-1.8-.01-.57-.058-8.643-.115-18.66l-5.6-.016C2.1,52.934,1.927,67.436,1.949,68.108ZM67.709,72.52c1.274-1.136,1.591-4.486,1.6-5.569V9.373H63.884V72.852h2.809A1.316,1.316,0,0,0,67.709,72.52ZM56.3,72.852h6.512V9.373H56.3ZM17.818,59.324a.521.521,0,1,1,0-1.04H32.994a.521.521,0,1,1,0,1.04Zm0-15.61a.521.521,0,1,1,0-1.04H35.162a.521.521,0,1,1,0,1.04Zm0-6.243a.521.521,0,1,1,0-1.041H47.086a.521.521,0,1,1,0,1.041Zm0-6.244a.521.521,0,1,1,0-1.04H47.086a.521.521,0,1,1,0,1.04Zm13.008-5.143c-.3,0-.542-.364-.542-.813s.243-.813.542-.813H48.171c.3,0,.542.364.542.813s-.243.813-.542.813Zm-13.008,0c-.3,0-.542-.364-.542-.813s.242-.813.542-.813h10.84c.3,0,.543.364.543.813s-.243.813-.543.813Zm26.016-5.2c-.3,0-.542-.365-.542-.813s.242-.814.542-.814h4.336c.3,0,.542.365.542.814s-.243.813-.542.813Zm-9.756,0c-.3,0-.542-.365-.542-.813s.242-.814.542-.814h7.588c.3,0,.542.365.542.814s-.243.813-.542.813Zm-16.26,0c-.3,0-.542-.365-.542-.813s.242-.814.542-.814H31.91c.3,0,.542.365.542.814s-.243.813-.542.813Zm10.3-11.508a1.041,1.041,0,1,1,0-2.081h4.336a1.041,1.041,0,1,1,0,2.081Zm-6.5,0a1.041,1.041,0,1,1,0-2.081H23.78a1.041,1.041,0,1,1,0,2.081Z" transform="translate(0.401 0.911)" fill="#161616"/>
      <g id="Group-2" data-name="Group" transform="translate(52.033 55.154)">
        <ellipse id="Oval-2" data-name="Oval" cx="7.046" cy="6.764" rx="7.046" ry="6.764" transform="translate(0.875 1.438)" fill="#f8e71c"/>
        <path id="Shape" d="M0,7.28A7.446,7.446,0,0,1,7.583,0a7.446,7.446,0,0,1,7.584,7.28,7.446,7.446,0,0,1-7.584,7.281A7.446,7.446,0,0,1,0,7.28Z" transform="translate(0.337 0.922)" fill="#161616"/>
      </g>
    </g>
  </g>
</svg>
