<svg xmlns="http://www.w3.org/2000/svg" width="26.389" height="20.805" viewBox="0 0 26.389 20.805">
  <g id="audio" transform="translate(0 0)">
    <g id="Group" transform="translate(4.15 6.906)">
      <g id="Group-2" data-name="Group">
        <path id="Path" d="M15.014,13.356H2.378A2.717,2.717,0,0,1,0,10.517V1.77A1.713,1.713,0,0,1,1.638,0H16.186a1.713,1.713,0,0,1,1.638,1.77v8.747A2.772,2.772,0,0,1,15.014,13.356Z" transform="translate(0.254 0.271)" fill="#fff"/>
        <path id="Shape" d="M15.269,13.9H2.633A2.979,2.979,0,0,1,0,10.788V2.041A1.973,1.973,0,0,1,1.893,0H16.44a1.973,1.973,0,0,1,1.893,2.041v8.747A3.02,3.02,0,0,1,15.269,13.9ZM1.893.543a1.446,1.446,0,0,0-1.384,1.5v8.747a2.473,2.473,0,0,0,2.124,2.568H15.268a2.506,2.506,0,0,0,2.556-2.568V2.041A1.446,1.446,0,0,0,16.44.543Z" fill="#161616"/>
      </g>
      <g id="Group-3" data-name="Group" transform="translate(0.95 2.823)">
        <rect id="Rectangle" width="16.161" height="6.421" transform="translate(0.136 0.145)" fill="#4a90e2"/>
        <path id="Shape-2" data-name="Shape" d="M16.3,6.712H.136A.142.142,0,0,1,0,6.567V.145A.141.141,0,0,1,.136,0H16.3a.141.141,0,0,1,.136.145V6.567A.141.141,0,0,1,16.3,6.712ZM.272.291V6.422H16.161V.291Z" fill="#161616"/>
      </g>
      <path id="Path-2" data-name="Path" d="M9.734,3.115A.138.138,0,0,1,9.6,3L9.171.746A.452.452,0,0,0,8.713.29H1.156A.442.442,0,0,0,.7.717L.269,3a.135.135,0,0,1-.161.113A.145.145,0,0,1,0,2.941L.433.688A.713.713,0,0,1,1.157,0H8.713a.723.723,0,0,1,.727.717l.427,2.224a.145.145,0,0,1-.106.171Z" transform="translate(4.141 10.272)" fill="#161616"/>
      <g id="Group-4" data-name="Group" transform="translate(2.614 4.107)">
        <g id="Group-5" data-name="Group">
          <g id="Group-6" data-name="Group" transform="translate(0.238)">
            <path id="Path-3" data-name="Path" d="M10.581,3.853h-8.8A1.844,1.844,0,0,1,0,1.958V1.9A1.844,1.844,0,0,1,1.777,0h8.8a1.844,1.844,0,0,1,1.777,1.9v.062A1.844,1.844,0,0,1,10.581,3.853Z" transform="translate(0.136 0.145)" fill="#c8102e"/>
            <path id="Shape-3" data-name="Shape" d="M10.717,4.143h-8.8A1.982,1.982,0,0,1,0,2.1V2.04A1.982,1.982,0,0,1,1.914,0h8.8a1.982,1.982,0,0,1,1.913,2.04V2.1A1.982,1.982,0,0,1,10.717,4.143ZM1.914.291A1.7,1.7,0,0,0,.273,2.04V2.1a1.7,1.7,0,0,0,1.641,1.75h8.8A1.7,1.7,0,0,0,12.358,2.1V2.04A1.7,1.7,0,0,0,10.717.291Z" fill="#161616"/>
          </g>
          <g id="Group-7" data-name="Group">
            <ellipse id="Oval" cx="1.782" cy="1.926" rx="1.782" ry="1.926" transform="translate(0.136 0.146)" fill="#ffc564"/>
            <path id="Shape-4" data-name="Shape" d="M1.918,4.143A2,2,0,0,1,0,2.071,2,2,0,0,1,1.918,0,2,2,0,0,1,3.837,2.071,2,2,0,0,1,1.918,4.143Zm0-3.852A1.719,1.719,0,0,0,.273,2.072,1.719,1.719,0,0,0,1.918,3.853,1.72,1.72,0,0,0,3.565,2.072,1.72,1.72,0,0,0,1.918.291Z" fill="#161616"/>
          </g>
          <g id="Group-8" data-name="Group" transform="translate(0.736 0.795)">
            <ellipse id="Oval-2" data-name="Oval" cx="1.092" cy="1.18" rx="1.092" ry="1.18" transform="translate(0.091 0.097)" fill="#f8e71c"/>
            <path id="Shape-5" data-name="Shape" d="M1.183,2.553A1.234,1.234,0,0,1,0,1.277,1.234,1.234,0,0,1,1.183,0,1.234,1.234,0,0,1,2.366,1.277,1.234,1.234,0,0,1,1.183,2.553Zm0-2.359a1.046,1.046,0,0,0-1,1.083,1.046,1.046,0,0,0,1,1.084,1.046,1.046,0,0,0,1-1.084A1.045,1.045,0,0,0,1.183.194Z" fill="#161616"/>
          </g>
        </g>
        <g id="Group-9" data-name="Group" transform="translate(9.031)">
          <ellipse id="Oval-3" data-name="Oval" cx="1.782" cy="1.926" rx="1.782" ry="1.926" transform="translate(0.137 0.146)" fill="#ffc564"/>
          <path id="Shape-6" data-name="Shape" d="M0,2.072A2,2,0,0,1,1.919,0,2,2,0,0,1,3.837,2.072,2,2,0,0,1,1.919,4.144,2,2,0,0,1,0,2.072Z" fill="#161616"/>
        </g>
        <g id="Group-10" data-name="Group" transform="translate(9.767 0.795)">
          <ellipse id="Oval-4" data-name="Oval" cx="1.092" cy="1.18" rx="1.092" ry="1.18" transform="translate(0.091 0.097)" fill="#f8e71c"/>
          <path id="Shape-7" data-name="Shape" d="M0,1.277A1.234,1.234,0,0,1,1.183,0,1.234,1.234,0,0,1,2.365,1.277,1.233,1.233,0,0,1,1.183,2.553,1.233,1.233,0,0,1,0,1.277Z" fill="#161616"/>
        </g>
      </g>
      <g id="Shape-8" data-name="Shape" transform="translate(1.708 1.618)">
        <path id="Shape-9" data-name="Shape" d="M0,.684A.671.671,0,0,1,.657,0a.671.671,0,0,1,.657.684.671.671,0,0,1-.657.684A.671.671,0,0,1,0,.684Z" fill="#161616"/>
        <path id="Shape-10" data-name="Shape" d="M0,.684A.671.671,0,0,1,.657,0a.671.671,0,0,1,.657.684.671.671,0,0,1-.657.684A.671.671,0,0,1,0,.684Z" transform="translate(14.022)" fill="#161616"/>
      </g>
      <g id="Shape-11" data-name="Shape" transform="translate(5.036 11.09)">
        <g id="Group-11" data-name="Group">
          <path id="Shape-12" data-name="Shape" d="M0,.683A.671.671,0,0,1,.657,0a.67.67,0,0,1,.656.683.671.671,0,0,1-.656.684A.671.671,0,0,1,0,.683Z" transform="translate(0 1.028)" fill="#472b29"/>
          <path id="Shape-13" data-name="Shape" d="M0,.684A.671.671,0,0,1,.657,0a.671.671,0,0,1,.657.684.671.671,0,0,1-.657.684A.671.671,0,0,1,0,.684Z" transform="translate(0.713)" fill="#161616"/>
        </g>
        <g id="Group-12" data-name="Group" transform="translate(6.654)">
          <path id="Shape-14" data-name="Shape" d="M0,.683A.671.671,0,0,1,.657,0a.671.671,0,0,1,.657.683.671.671,0,0,1-.657.684A.671.671,0,0,1,0,.683Z" transform="translate(0.951 1.028)" fill="#161616"/>
          <path id="Shape-15" data-name="Shape" d="M0,.684A.671.671,0,0,1,.657,0a.671.671,0,0,1,.657.684.671.671,0,0,1-.657.684A.671.671,0,0,1,0,.684Z" fill="#161616"/>
        </g>
      </g>
    </g>
    <g id="headphones">
      <path id="Path-4" data-name="Path" d="M20.051,12.488a.349.349,0,0,1-.344-.355C19.708,5.835,15.441.71,10.2.71a9.1,9.1,0,0,0-7.626,4.6A12.932,12.932,0,0,0,.687,12.133a.349.349,0,0,1-.344.355A.349.349,0,0,1,0,12.133C0,5.443,4.574,0,10.2,0s10.2,5.443,10.2,12.133A.35.35,0,0,1,20.051,12.488Z" transform="translate(2.833 0.812)" fill="#9b9b9b"/>
      <g id="Group-13" data-name="Group" transform="translate(0 7.463)">
        <g id="Group-14" data-name="Group">
          <path id="Path-5" data-name="Path" d="M4.068,0H3.715a.7.7,0,0,0-.7.705v.526a3.889,3.889,0,0,0,0,7.581v.526a.7.7,0,0,0,.7.705h.352a.7.7,0,0,0,.7-.705V.705A.7.7,0,0,0,4.068,0Z" transform="translate(0.35 0.359)" fill="#f70031"/>
          <path id="Shape-16" data-name="Shape" d="M4.417,10.761H4.064A1.057,1.057,0,0,1,3.018,9.7V9.45a4.253,4.253,0,0,1,0-8.14V1.064A1.057,1.057,0,0,1,4.064,0h.353A1.056,1.056,0,0,1,5.464,1.064V9.7A1.057,1.057,0,0,1,4.417,10.761ZM4.064.717a.347.347,0,0,0-.347.346V1.59a.358.358,0,0,1-.276.35,3.529,3.529,0,0,0,0,6.88.358.358,0,0,1,.276.351V9.7a.347.347,0,0,0,.347.346h.353A.348.348,0,0,0,4.765,9.7V1.064A.348.348,0,0,0,4.417.717Z" fill="#161616"/>
        </g>
        <path id="Path-6" data-name="Path" d="M.178.717A.177.177,0,0,1,0,.538V.179A.177.177,0,0,1,.178,0,.177.177,0,0,1,.352.179V.538A.177.177,0,0,1,.178.717Z" transform="translate(3.458 6.457)" fill="#161616"/>
        <path id="Path-7" data-name="Path" d="M.178,4.349A.177.177,0,0,1,0,4.17V.179A.177.177,0,0,1,.178,0,.177.177,0,0,1,.352.179V4.17A.177.177,0,0,1,.178,4.349Z" transform="translate(3.458 1.435)" fill="#161616"/>
        <path id="Path-8" data-name="Path" d="M.178.358A.172.172,0,0,1,.055.308.2.2,0,0,1,0,.179.187.187,0,0,1,.055.053.18.18,0,0,1,.3.053.182.182,0,0,1,.352.179.2.2,0,0,1,.3.308.186.186,0,0,1,.178.358Z" transform="translate(3.363 7.532)" fill="#161616"/>
      </g>
      <g id="Group-15" data-name="Group" transform="translate(20.925 7.463)">
        <g id="Group-16" data-name="Group">
          <path id="Path-9" data-name="Path" d="M.7,0H1.05a.7.7,0,0,1,.7.705v.526a3.889,3.889,0,0,1,0,7.581v.526a.7.7,0,0,1-.7.705H.7A.7.7,0,0,1,0,9.338V.705A.7.7,0,0,1,.7,0Z" transform="translate(0.35 0.358)" fill="#f70031"/>
          <path id="Shape-17" data-name="Shape" d="M1.4,10.761H1.047A1.057,1.057,0,0,1,0,9.7V1.064A1.056,1.056,0,0,1,1.047,0H1.4A1.057,1.057,0,0,1,2.447,1.064v.247a4.253,4.253,0,0,1,0,8.14V9.7A1.057,1.057,0,0,1,1.4,10.761ZM1.047.717A.348.348,0,0,0,.7,1.063V9.7a.348.348,0,0,0,.348.346H1.4A.348.348,0,0,0,1.748,9.7V9.17a.354.354,0,0,1,.275-.35,3.529,3.529,0,0,0,0-6.88.353.353,0,0,1-.275-.35V1.064A.348.348,0,0,0,1.4.718H1.047Z" fill="#1f212b"/>
        </g>
        <g id="Path-10" data-name="Path" transform="translate(2.051 6.499)">
          <path id="Path-11" data-name="Path" d="M.355,0V.464" transform="translate(-0.355 0.089)" fill="#7782ac"/>
          <path id="Path-12" data-name="Path" d="M.355.925c-.193,0-.35-.1-.35-.231V.231C.006.1.162,0,.355,0S.7.1.7.231V.693C.7.822.548.925.355.925Z" transform="translate(-0.006)" fill="#1f212b"/>
        </g>
        <g id="Path-13" data-name="Path" transform="translate(2.051 1.434)">
          <path id="Path-14" data-name="Path" d="M.355,0V3.946" transform="translate(-0.355 0.071)" fill="#7782ac"/>
          <path id="Path-15" data-name="Path" d="M.355,4.349c-.193,0-.35-.08-.35-.179V.179C.006.08.162,0,.355,0S.7.08.7.179V4.17C.7,4.269.548,4.349.355,4.349Z" transform="translate(-0.006)" fill="#1f212b"/>
        </g>
        <path id="Path-16" data-name="Path" d="M.178.36A.172.172,0,0,1,.055.31.205.205,0,0,1,.017.252.181.181,0,0,1,0,.181.164.164,0,0,1,.017.113.213.213,0,0,1,.055.055.168.168,0,0,1,.244.016.16.16,0,0,1,.3.055.146.146,0,0,1,.338.113.159.159,0,0,1,.352.181.175.175,0,0,1,.338.252.154.154,0,0,1,.3.31.155.155,0,0,1,.244.346.138.138,0,0,1,.178.36Z" transform="translate(1.743 7.53)" fill="#1f212b"/>
      </g>
      <g id="Group-17" data-name="Group" transform="translate(8.824)">
        <path id="Path-17" data-name="Path" d="M7.948,2.719A.785.785,0,0,1,7.6,2.635,7.065,7.065,0,0,0,2.74,2.017a7.7,7.7,0,0,0-1.556.556A.818.818,0,0,1,.072,2.105.949.949,0,0,1,.5.9,9.307,9.307,0,0,1,2.382.226,8.634,8.634,0,0,1,8.3.971a.951.951,0,0,1,.413,1.216A.842.842,0,0,1,7.948,2.719Z" transform="translate(0.169 0.183)" fill="#4a90e2"/>
        <path id="Shape-18" data-name="Shape" d="M8.118,3.086a.934.934,0,0,1-.423-.1A7.125,7.125,0,0,0,4.483,2.2a6.678,6.678,0,0,0-1.538.18,7.494,7.494,0,0,0-1.524.544.937.937,0,0,1-.407.093,1.013,1.013,0,0,1-.927-.655,1.178,1.178,0,0,1-.019-.841A1.056,1.056,0,0,1,.6.912,9.428,9.428,0,0,1,2.514.23,8.592,8.592,0,0,1,4.483,0,8.99,8.99,0,0,1,8.541.988a1.141,1.141,0,0,1,.5,1.458A1.013,1.013,0,0,1,8.118,3.086ZM4.482,1.832a7.438,7.438,0,0,1,3.354.819.608.608,0,0,0,.271.064.688.688,0,0,0,.623-.422A.763.763,0,0,0,8.4,1.32,8.684,8.684,0,0,0,4.484.367a8.269,8.269,0,0,0-1.9.222,9.124,9.124,0,0,0-1.848.66.7.7,0,0,0-.355.405A.781.781,0,0,0,.4,2.214a.676.676,0,0,0,.617.437.622.622,0,0,0,.272-.063A7.912,7.912,0,0,1,2.873,2.02,7.034,7.034,0,0,1,4.482,1.832Z" fill="#161616"/>
      </g>
    </g>
  </g>
</svg>
