<svg xmlns="http://www.w3.org/2000/svg" width="30.373" height="27.133" viewBox="0 0 30.373 27.133">
  <g id="film" transform="translate(20.487 -3.933)">
    <g id="shape" transform="translate(-20.448 3.967)">
      <g id="Group">
        <path id="Path" d="M.5.95A.233.233,0,1,0,.877.673Q.654.371.412.083a.234.234,0,1,0-.357.3Q.288.659.5.95Z" transform="translate(22.057 5.815)" fill="#161616"/>
        <path id="Path-2" data-name="Path" d="M23.7,13.118a.233.233,0,0,0-.464-.048A11.416,11.416,0,1,1,19.629,3.5a.233.233,0,1,0,.317-.343A11.881,11.881,0,1,0,23.7,13.118Z" transform="translate(1.491 1.659)" fill="#161616"/>
        <path id="Path-3" data-name="Path" d="M.345.671h0A.234.234,0,0,0,.583.442V.263a.233.233,0,1,0-.467,0V.432A.234.234,0,0,0,.345.671Z" transform="translate(24.67 13.278)" fill="#161616"/>
        <path id="Shape-2" data-name="Shape" d="M29.866,27.066H12.6a.454.454,0,0,1-.2-.051,13.521,13.521,0,1,1,6.066-.882h11.4a.467.467,0,1,1,0,.933ZM13.533.933a12.6,12.6,0,1,0,12.6,12.6A12.614,12.614,0,0,0,13.533.933Z" fill="#161616"/>
      </g>
    </g>
    <g id="shape-3" data-name="shape" transform="translate(-20.406 3.959)">
      <circle id="Ellipse_3" data-name="Ellipse 3" cx="13.065" cy="13.065" r="13.065" transform="translate(0.422 0.476)" fill="#fff"/>
      <circle id="Oval" cx="7.467" cy="7.467" r="7.467" transform="translate(5.881 6.017)" fill="#f70031"/>
      <g id="Group-2" data-name="Group" transform="translate(35.418 29.474)">
        <g id="Group-3" data-name="Group" transform="translate(-35 -29)">
          <path id="Subtraction_95" data-name="Subtraction 95" d="M-2645.509-574.889a12.982,12.982,0,0,1-9.24-3.827,12.982,12.982,0,0,1-3.827-9.24,12.98,12.98,0,0,1,3.827-9.239,12.982,12.982,0,0,1,9.24-3.827,12.98,12.98,0,0,1,9.239,3.827,12.98,12.98,0,0,1,3.827,9.239,12.982,12.982,0,0,1-3.827,9.24A12.98,12.98,0,0,1-2645.509-574.889Zm0-10.033a3.5,3.5,0,0,0-3.5,3.5,3.5,3.5,0,0,0,3.5,3.5,3.5,3.5,0,0,0,3.5-3.5A3.5,3.5,0,0,0-2645.509-584.923Zm6.067-6.533a3.5,3.5,0,0,0-3.5,3.5,3.5,3.5,0,0,0,3.5,3.5,3.5,3.5,0,0,0,3.5-3.5A3.5,3.5,0,0,0-2639.442-591.456Zm-12.6,0a3.5,3.5,0,0,0-3.5,3.5,3.5,3.5,0,0,0,3.5,3.5,3.5,3.5,0,0,0,3.5-3.5A3.5,3.5,0,0,0-2652.042-591.456Zm6.533-6.534a3.5,3.5,0,0,0-3.5,3.5,3.5,3.5,0,0,0,3.5,3.5,3.5,3.5,0,0,0,3.5-3.5A3.5,3.5,0,0,0-2645.509-597.99Z" transform="translate(2658.576 601.023)" fill="#9b9b9b" stroke="rgba(0,0,0,0)" stroke-miterlimit="10" stroke-width="1"/>
          <circle id="Oval-2" data-name="Oval" cx="0.933" cy="0.933" r="0.933" transform="translate(12.133 12.133)" fill="#fff"/>
        </g>
      </g>
      <g id="Group-4" data-name="Group">
        <path id="Path-4" data-name="Path" d="M.5.95A.233.233,0,1,0,.877.673Q.654.371.412.083a.234.234,0,1,0-.357.3Q.288.659.5.95Z" transform="translate(22.057 5.815)" fill="#161616"/>
        <path id="Path-5" data-name="Path" d="M23.7,13.118a.233.233,0,0,0-.464-.048A11.416,11.416,0,1,1,19.629,3.5a.233.233,0,1,0,.317-.343A11.881,11.881,0,1,0,23.7,13.118Z" transform="translate(1.491 1.659)" fill="#161616"/>
        <path id="Path-6" data-name="Path" d="M.345.671h0A.234.234,0,0,0,.583.442V.263a.233.233,0,1,0-.467,0V.432A.234.234,0,0,0,.345.671Z" transform="translate(24.67 13.278)" fill="#161616"/>
        <path id="Shape-4" data-name="Shape" d="M1.167,2.333A1.166,1.166,0,1,1,2.333,1.167,1.168,1.168,0,0,1,1.167,2.333Zm0-1.867a.7.7,0,1,0,.7.7A.7.7,0,0,0,1.167.467Z" transform="translate(12.133 12.6)" fill="#161616"/>
        <path id="Shape-5" data-name="Shape" d="M3.734,7.467A3.736,3.736,0,0,1,.006,3.855.175.175,0,0,1,0,3.81c0-.011,0-.022,0-.033s0-.029,0-.043A3.734,3.734,0,1,1,3.734,7.467Zm-.068-4.28a6.9,6.9,0,0,0-3.188.77,3.263,3.263,0,0,0,6.507.063l-.011,0A.151.151,0,0,1,6.928,4,6.823,6.823,0,0,0,3.666,3.188Zm-.016-.467a7.361,7.361,0,0,1,3.34.79A3.264,3.264,0,0,0,.482,3.427,7.392,7.392,0,0,1,3.649,2.721Z" transform="translate(9.8 3.267)" fill="#161616"/>
        <path id="Shape-6" data-name="Shape" d="M3.734,7.467A3.734,3.734,0,1,1,7.467,3.734,3.738,3.738,0,0,1,3.734,7.467ZM.516,4.281h0a3.263,3.263,0,0,0,6.437-.016,7.369,7.369,0,0,1-3.234.755,7.377,7.377,0,0,1-3.2-.739ZM3.733.467A3.27,3.27,0,0,0,.467,3.734s0,.005.006.005l.006,0a6.862,6.862,0,0,0,3.238.8,6.859,6.859,0,0,0,3.271-.813l.006,0,.006,0A3.274,3.274,0,0,0,3.733.467Z" transform="translate(9.8 16.333)" fill="#161616"/>
        <path id="Shape-7" data-name="Shape" d="M3.733,7.467A3.733,3.733,0,1,1,7.467,3.734,3.737,3.737,0,0,1,3.733,7.467Zm0-7A3.267,3.267,0,1,0,3.733,7c.057,0,.114,0,.168-.008l.049,0a6.943,6.943,0,0,0,.773-3.177,6.937,6.937,0,0,0-.836-3.3A.119.119,0,0,1,3.878.484l0-.01-.058,0C3.79.468,3.762.467,3.733.467Zm.691.076h0A7.439,7.439,0,0,1,5.19,3.813,7.443,7.443,0,0,1,4.515,6.9,3.264,3.264,0,0,0,4.425.542Z" transform="translate(15.867 9.8)" fill="#161616"/>
        <path id="Shape-8" data-name="Shape" d="M3.733,7.467A3.733,3.733,0,1,1,7.467,3.734,3.737,3.737,0,0,1,3.733,7.467ZM3.67,7h.064a3.267,3.267,0,1,0,0-6.533H3.728l0,0A.208.208,0,0,1,3.7.581,6.86,6.86,0,0,0,3.668,7ZM3.213.512h0A3.264,3.264,0,0,0,3.119,6.94,7.317,7.317,0,0,1,3.213.512Z" transform="translate(3.267 9.8)" fill="#161616"/>
      </g>
    </g>
  </g>
</svg>
