<?xml version="1.0" encoding="utf-8"?>
<!-- Generator: Adobe Illustrator 23.0.1, SVG Export Plug-In . SVG Version: 6.00 Build 0)  -->
<svg version="1.1" id="icon_success" xmlns="http://www.w3.org/2000/svg" xmlns:xlink="http://www.w3.org/1999/xlink" x="0px"
	 y="0px" viewBox="0 0 77.9 77.9" style="enable-background:new 0 0 77.9 77.9;" xml:space="preserve">
<style type="text/css">
	.st0{fill:#F70031;}
</style>
<path d="M77.9,39L69,31l3.5-11.5L61,16.9L58.4,5.3L46.9,8.9l-8-8.9l-8,8.9L19.5,5.3l-2.6,11.6L5.3,19.5L8.9,31l-8.9,8l8.9,8
	L5.3,58.4L16.9,61l2.6,11.6L31,69l8,8.9l8-8.9l11.5,3.6L61,61l11.6-2.6L69,46.9L77.9,39z M71.2,57.6L60.8,60
	c-0.4,0.1-0.7,0.4-0.8,0.8l-2.3,10.5L47.2,68c-0.4-0.1-0.8,0-1.1,0.3l-7.2,8l-7.2-8c-0.2-0.2-0.5-0.4-0.8-0.4c-0.1,0-0.2,0-0.3,0.1
	l-10.4,3.3l-2.3-10.5c-0.1-0.4-0.4-0.7-0.8-0.8L6.7,57.6l3.2-10.4c0.1-0.4,0-0.8-0.3-1.1l-8-7.2l8-7.2c0.3-0.3,0.4-0.7,0.3-1.1
	L6.6,20.3l10.5-2.3c0.4-0.1,0.7-0.4,0.8-0.8l2.3-10.5l10.4,3.2c0.4,0.1,0.8,0,1.1-0.3l7.2-8l7.2,8c0.3,0.3,0.7,0.4,1.1,0.3l10.4-3.3
	L60,17.1c0.1,0.4,0.4,0.7,0.8,0.8l10.5,2.3L68,30.7c-0.1,0.4,0,0.8,0.3,1.1l8,7.2l-8,7.2c-0.3,0.3-0.4,0.7-0.3,1.1L71.2,57.6z"/>
<path class="st0" d="M68.3,46.1l8-7.2l-8-7.2c-0.3-0.3-0.4-0.7-0.3-1.1l3.2-10.4l-10.5-2.3c-0.4-0.1-0.7-0.4-0.8-0.8L57.6,6.7
	L47.2,9.9c-0.4,0.1-0.8,0-1.1-0.3l-7.2-8l-7.2,8C31.5,9.9,31,10,30.7,9.9L20.2,6.7l-2.3,10.5c-0.1,0.4-0.4,0.7-0.8,0.8L6.6,20.3
	l3.2,10.4c0.1,0.4,0,0.8-0.3,1.1l-8,7.2l8,7.2c0.3,0.3,0.4,0.7,0.3,1.1L6.7,57.6L17.1,60c0.4,0.1,0.7,0.4,0.8,0.8l2.3,10.5L30.7,68
	c0.1,0,0.2-0.1,0.3-0.1c0.3,0,0.6,0.1,0.8,0.4l7.2,8l7.2-8c0.3-0.3,0.7-0.4,1.1-0.3l10.4,3.2L60,60.8c0.1-0.4,0.4-0.7,0.8-0.8
	l10.5-2.3L68,47.2C67.9,46.8,68,46.4,68.3,46.1z M56.7,30.5l-20,20c-0.4,0.4-0.9,0.6-1.4,0.6c-0.5,0-1-0.2-1.4-0.5L21.2,37.9
	c-0.9-0.8-0.9-2.1-0.1-3c0.8-0.8,2.1-0.9,3-0.1l11.2,11.3l18.6-18.7c0.8-0.8,2.2-0.8,3,0.1S57.5,29.7,56.7,30.5z"/>
</svg>
