<svg id="icon_bulletin_board_globe" data-name="icon / bulletin board / globe" xmlns="http://www.w3.org/2000/svg" width="60" height="60" viewBox="0 0 60 60">
  <g id="button_-_globe" data-name="button - globe">
    <g id="Oval" fill="#f70031" stroke="#161616" stroke-miterlimit="10" stroke-width="1.5">
      <circle cx="30" cy="30" r="30" stroke="none"/>
      <circle cx="30" cy="30" r="29.25" fill="none"/>
    </g>
    <g id="icon_-_globe" data-name="icon - globe" transform="translate(18 18)">
      <path id="Shape" d="M12,24A12,12,0,1,1,24,12,12.014,12.014,0,0,1,12,24ZM7,13l4.031,3.031-1.062,4,1.094,1.907.075.007.088.008c.239.022.51.047.775.047a10.089,10.089,0,0,0,4.313-.968l1.593-5a13.715,13.715,0,0,0-.844-1.812c-.1,0-1.751.285-2.083.341l-.01,0-1.938-1.593.968-3,1.72-1.281,1.75-.25,1.625,1,.688-1.25-2.688-.875L14.938,8l-.156-2.063.875-.749,1.062.468-.188-2,.813-.094A10.014,10.014,0,0,0,12,2a5.3,5.3,0,0,0-.531.036h-.011c-.1.011-.187.019-.271.025l2.219.157.532,2.313-3,.562-.813-1.125h0l-1.719.375L9,7,5,8.907,2.313,11.031,3.281,13Zm-4.938-.219a9.948,9.948,0,0,0,6.844,8.75l-2.844-3.5H4.906L3.032,15.969V13.906l-.969-1.124ZM10.875,2.063a9.87,9.87,0,0,0-2.313.531l.75.125,1.563-.657Z" fill="#fff" stroke="#161616" stroke-miterlimit="10" stroke-width="1"/>
    </g>
  </g>
</svg>
