<svg xmlns="http://www.w3.org/2000/svg" width="35" height="35" viewBox="0 0 35 35">
  <g id="interest" transform="translate(0 0.001)">
    <circle id="Oval" cx="16.897" cy="16.897" r="16.897" transform="translate(0.603 0.603)" fill="#ffc15c"/>
    <path id="Path" d="M22.4,4.638h0a1.81,1.81,0,0,0-.447-2.891,16.9,16.9,0,0,0-21.682,6,1.81,1.81,0,0,0,1.557,2.77h0a1.81,1.81,0,0,0,1.5-.815A13.276,13.276,0,0,1,20.31,4.976,1.81,1.81,0,0,0,22.4,4.638Z" transform="translate(2.742 0.346)" fill="#fff"/>
    <path id="Path-2" data-name="Path" d="M17.956,2.188c.8,3.723.054,8.02-3.156,12.25a1.967,1.967,0,0,1-.374.374c-4.224,3.2-8.521,3.947-12.244,3.15a1.81,1.81,0,0,0-1.647.489h0a1.81,1.81,0,0,0,.923,3.059c4.785,1.014,9.963-.356,15.316-4.345a1.961,1.961,0,0,0,.4-.4C21.16,11.414,22.524,6.243,21.51,1.457A1.81,1.81,0,0,0,18.45.534h0a1.81,1.81,0,0,0-.495,1.653Z" transform="translate(12.525 12.519)" opacity="0.1"/>
    <path id="Path-3" data-name="Path" d="M6.65.567h0a1.931,1.931,0,0,0-2.734,0L3.608.875,3.3.567a1.931,1.931,0,0,0-2.734,0h0a1.931,1.931,0,0,0,0,2.734L3.433,6.167a.247.247,0,0,0,.35,0L6.65,3.3a1.931,1.931,0,0,0,0-2.734Z" transform="translate(17.524 10.862)" fill="#ff8191"/>
    <path id="Path-4" data-name="Path" d="M6.65.567h0a1.931,1.931,0,0,0-2.734,0L3.608.875,3.3.567a1.931,1.931,0,0,0-2.734,0h0a1.931,1.931,0,0,0,0,2.734L3.433,6.167a.247.247,0,0,0,.35,0L6.65,3.3a1.931,1.931,0,0,0,0-2.734Z" transform="translate(5.455 10.862)" fill="#ff8191"/>
    <path id="Combined-Shape" d="M5.126,29.875A17.5,17.5,0,1,1,29.874,5.126,17.5,17.5,0,0,1,5.126,29.875ZM1.207,17.5A16.293,16.293,0,1,0,17.5,1.206,16.31,16.31,0,0,0,1.207,17.5Zm6.559,4.592a.6.6,0,1,1,1-.676c1.165,1.732,3.495,2.722,6.379,2.722,2.957,0,5.256-.966,6.408-2.715a.6.6,0,0,1,1.008.663c-1.382,2.1-4.019,3.259-7.416,3.259C11.852,25.345,9.16,24.138,7.766,22.092Zm12.751-4.635-2.866-2.872a2.535,2.535,0,0,1,3.47-3.694,2.527,2.527,0,0,1,1.733-.686,2.553,2.553,0,0,1,1.851.8,2.537,2.537,0,0,1-.115,3.584l-2.866,2.866a.849.849,0,0,1-1.207,0Zm-2.012-5.6a1.332,1.332,0,0,0,0,1.88l2.619,2.619,2.619-2.619h-.007a1.327,1.327,0,1,0-1.876-1.877l-.736.736-.736-.736a1.331,1.331,0,0,0-1.88,0ZM9.052,17.7H9.045a.836.836,0,0,1-.6-.247L5.581,14.585a2.535,2.535,0,0,1,3.471-3.694,2.527,2.527,0,0,1,1.733-.686,2.553,2.553,0,0,1,1.851.8,2.536,2.536,0,0,1-.116,3.584L9.655,17.457a.847.847,0,0,1-.6.247Zm-2.2-6.143a1.326,1.326,0,0,0-.419,2.173l2.619,2.619,2.613-2.619a1.327,1.327,0,1,0-1.876-1.877l-.736.736L8.3,11.851a1.329,1.329,0,0,0-1.452-.29Z" transform="translate(0)" fill="#161616"/>
  </g>
</svg>
