<svg id="icon_photography" data-name="icon / photography" xmlns="http://www.w3.org/2000/svg" width="64" height="53" viewBox="0 0 64 53">
  <g id="shape" transform="translate(0)">
    <path id="Combined_Shape" data-name="Combined Shape" d="M4.224,49.917A4.2,4.2,0,0,1,0,45.757V11.723A4.2,4.2,0,0,1,4.224,7.564H20.071l1.6-4.718A4.214,4.214,0,0,1,25.674,0h10.7a4.214,4.214,0,0,1,4.007,2.845l1.6,4.718H57.984a4.2,4.2,0,0,1,4.224,4.159V45.757a4.2,4.2,0,0,1-4.224,4.16ZM6.4,7.06V2.522h8.448V7.06Z" transform="translate(0.896 0.882)" fill="#9b9b9b"/>
    <rect id="Rectangle" width="61.091" height="26.471" transform="translate(1.706 17.648)" fill="#f70031"/>
    <ellipse id="Oval" cx="13.824" cy="13.614" rx="13.824" ry="13.614" transform="translate(17.536 17.269)" fill="#fff"/>
    <ellipse id="Oval-2" data-name="Oval" cx="7.424" cy="7.311" rx="7.424" ry="7.311" transform="translate(23.936 23.572)" fill="#28262d"/>
    <path id="Combined_Shape-2" data-name="Combined Shape" d="M5.12,51.682A5.086,5.086,0,0,1,0,46.64V12.606A5.086,5.086,0,0,1,5.12,7.564H6.4V2.522H16.64V7.564h3.68l1.393-4.116A5.11,5.11,0,0,1,26.571,0h10.7a5.11,5.11,0,0,1,4.858,3.447l1.392,4.116H58.88A5.086,5.086,0,0,1,64,12.606V46.64a5.086,5.086,0,0,1-5.12,5.042ZM1.792,46.64A3.306,3.306,0,0,0,5.12,49.917H58.88a3.306,3.306,0,0,0,3.328-3.277V44.119H37.363a14.923,14.923,0,0,1-12.007,0H1.792Zm16.64-15.758A12.929,12.929,0,1,0,31.359,18.152,12.845,12.845,0,0,0,18.432,30.883ZM62.208,42.858V18.808a.257.257,0,0,1-.191.1H39.648a14.363,14.363,0,0,1,0,23.949Zm-39.136,0a14.363,14.363,0,0,1,0-23.949H1.792V42.858Zm38.945-25.21a.257.257,0,0,1,.191.1V12.606A3.306,3.306,0,0,0,58.88,9.329H43.617c-.108.3-.673.526-1.355.526H20.283c-.681,0-1.248-.228-1.356-.526H5.12a3.306,3.306,0,0,0-3.328,3.277v5.042H25.042a.214.214,0,0,1,.152.073,14.921,14.921,0,0,1,12.17-.073ZM41.98,8.6l-.16-.473L40.427,4.006A3.32,3.32,0,0,0,37.27,1.765h-10.7a3.317,3.317,0,0,0-3.158,2.241L22.02,8.122l-.16.473ZM8.192,7.06h6.655V4.287H8.192ZM23.04,30.884a8.321,8.321,0,1,1,8.321,8.193A8.267,8.267,0,0,1,23.04,30.884Zm1.792,0a6.529,6.529,0,1,0,6.528-6.429A6.486,6.486,0,0,0,24.832,30.884ZM47.36,15.126V11.345h7.679v3.781Z" fill="#161616"/>
  </g>
</svg>
