<svg id="icon_play_red_circle" data-name="icon / play red circle" xmlns="http://www.w3.org/2000/svg" width="30" height="30" viewBox="0 0 30 30">
  <g id="icon_-_play" data-name="icon - play">
    <g id="Shape" fill="#f70031" stroke-miterlimit="10">
      <path d="M 15 29.5 C 7.004670143127441 29.5 0.5 22.99533081054688 0.5 15 C 0.5 7.004670143127441 7.004670143127441 0.5 15 0.5 C 22.99533081054688 0.5 29.5 7.004670143127441 29.5 15 C 29.5 22.99533081054688 22.99533081054688 29.5 15 29.5 Z" stroke="none"/>
      <path d="M 15 1 C 7.280370712280273 1 1 7.280370712280273 1 15 C 1 22.71962928771973 7.280370712280273 29 15 29 C 22.71962928771973 29 29 22.71962928771973 29 15 C 29 7.280370712280273 22.71962928771973 1 15 1 M 15 0 C 23.27099990844727 0 30 6.729000091552734 30 15 C 30 23.27099990844727 23.27099990844727 30 15 30 C 6.729000091552734 30 0 23.27099990844727 0 15 C 0 6.729000091552734 6.729000091552734 0 15 0 Z" stroke="none" fill="#161616"/>
    </g>
    <g id="Path" transform="translate(12 10.352)" fill="#fff" stroke-miterlimit="10">
      <path d="M 0.7510301470756531 8.796311378479004 C 0.6303001642227173 8.796311378479004 0.5000001192092896 8.700160980224609 0.5000001192092896 8.544840812683105 L 0.5000001192092896 0.7508410215377808 C 0.5000001192092896 0.5959010124206543 0.6305301189422607 0.5000010132789612 0.751470148563385 0.5000010132789612 C 0.7939001321792603 0.5000010132789612 0.8355501294136047 0.5116110444068909 0.8752501606941223 0.5345010161399841 L 7.625010013580322 4.431361198425293 C 7.737560272216797 4.496591091156006 7.749670028686523 4.605101108551025 7.749619960784912 4.648701190948486 C 7.749579906463623 4.69196081161499 7.737360000610352 4.799540996551514 7.625250339508057 4.864181041717529 L 0.8750101327896118 8.761321067810059 C 0.8347101211547852 8.78468132019043 0.7932401299476624 8.796311378479004 0.7510301470756531 8.796311378479004 Z" stroke="none"/>
      <path d="M 1.00000011920929 8.11181640625 L 6.999952793121338 4.64783763885498 L 1.00000011920929 1.183861017227173 L 1.00000011920929 8.11181640625 M 0.7510308623313904 9.296307563781738 C 0.3594734668731689 9.296307563781738 1.373290956507844e-07 8.982653617858887 1.373290956507844e-07 8.544840812683105 L 1.373290956507844e-07 0.7508410215377808 C 1.373290956507844e-07 0.3128871023654938 0.3597709834575653 -1.31225590394024e-08 0.7514750957489014 -1.31225590394024e-08 C 0.8762844800949097 -1.31225590394024e-08 1.004301905632019 0.03174924477934837 1.12500011920929 0.101341038942337 L 7.875 3.998341083526611 C 8.374500274658203 4.287840843200684 8.374500274658203 5.009341239929199 7.875 5.297340869903564 L 1.12500011920929 9.194340705871582 C 1.004179954528809 9.264366149902344 0.8759597539901733 9.296307563781738 0.7510308623313904 9.296307563781738 Z" stroke="none" fill="#161616"/>
    </g>
  </g>
</svg>
