<svg xmlns="http://www.w3.org/2000/svg" width="29.758" height="25.586" viewBox="0 0 29.758 25.586">
  <g id="stories" transform="translate(-0.001 0)">
    <path id="Path" d="M1.92,0H.96A.972.972,0,0,0,0,.984V20.666a.972.972,0,0,0,.96.984H11.146a1.1,1.1,0,0,1,1.062.85h0a1.447,1.447,0,0,0,1.4,1.118H15.2a1.447,1.447,0,0,0,1.4-1.118h0a1.1,1.1,0,0,1,1.062-.85H27.84a.972.972,0,0,0,.96-.984V.984A.972.972,0,0,0,27.84,0H1.92Z" transform="translate(0.48 1.476)" fill="#f70031"/>
    <path id="Path-2" data-name="Path" d="M12.48,22.634h0a1.945,1.945,0,0,0-1.92-1.968H.96A.972.972,0,0,1,0,19.682V.984A.972.972,0,0,1,.96,0h9.6a1.945,1.945,0,0,1,1.92,1.968V22.634Z" transform="translate(2.4 0.492)" fill="#faefde"/>
    <path id="Path-3" data-name="Path" d="M0,14.761V1.968A1.945,1.945,0,0,1,1.92,0h9.6a.972.972,0,0,1,.96.984v18.7a.972.972,0,0,1-.96.984H1.92A1.945,1.945,0,0,0,0,22.634H0Z" transform="translate(14.88 0.492)" fill="#faefde"/>
    <path id="Path-4" data-name="Path" d="M12.48,22.142l-1.12-1.476H0V0H10.56a1.945,1.945,0,0,1,1.92,1.968Z" transform="translate(2.4 0.492)" fill="#fff"/>
    <path id="Path-5" data-name="Path" d="M0,22.142l1.12-1.476H12.48V0H1.92A1.945,1.945,0,0,0,0,1.968Z" transform="translate(14.88 0.492)" fill="#fff"/>
    <path id="Path-6" data-name="Path" d="M2.88,0H1.92A1.945,1.945,0,0,0,0,1.968V22.142l1.12-1.476H2.88Z" transform="translate(14.88 0.492)" fill="#9b9b9b"/>
    <rect id="Rectangle" width="2.4" height="20.666" transform="translate(2.4 0.492)" fill="#9b9b9b"/>
    <g id="Group">
      <path id="Shape" d="M15.676,25.586H14.084a1.929,1.929,0,0,1-1.863-1.49.614.614,0,0,0-.6-.478H1.439A1.459,1.459,0,0,1,0,22.142V2.46A1.459,1.459,0,0,1,1.439.984h.569A1.446,1.446,0,0,1,3.36,0h9.6A2.357,2.357,0,0,1,14.88,1,2.359,2.359,0,0,1,16.8,0h9.6a1.446,1.446,0,0,1,1.352.985h.567a1.46,1.46,0,0,1,1.44,1.476V22.142a1.46,1.46,0,0,1-1.44,1.476H18.134a.616.616,0,0,0-.6.477A1.925,1.925,0,0,1,15.676,25.586ZM1.44,1.968a.487.487,0,0,0-.48.492V22.142a.487.487,0,0,0,.48.492H11.625a1.58,1.58,0,0,1,1.528,1.222.964.964,0,0,0,.931.746h1.591a.963.963,0,0,0,.93-.745,1.58,1.58,0,0,1,1.527-1.223H28.32a.487.487,0,0,0,.48-.492V2.46a.487.487,0,0,0-.48-.492H27.84V20.174A1.46,1.46,0,0,1,26.4,21.65H16.8a1.46,1.46,0,0,0-1.44,1.476.48.48,0,1,1-.96,0,1.46,1.46,0,0,0-1.44-1.476H3.36a1.46,1.46,0,0,1-1.44-1.476V1.968ZM14.4,21.167v.587a.481.481,0,1,0,.961,0v-.587a2.511,2.511,0,0,0-.481.5,2.463,2.463,0,0,0-.481-.5ZM16.8.984A1.459,1.459,0,0,0,15.36,2.46V21.167a2.316,2.316,0,0,1,1.439-.5h9.6a.486.486,0,0,0,.48-.491V1.476A.486.486,0,0,0,26.4.984ZM3.36.984a.487.487,0,0,0-.48.491v18.7a.487.487,0,0,0,.48.491h9.6a2.319,2.319,0,0,1,1.438.5V2.46A1.459,1.459,0,0,0,12.961.984Z" fill="#292929"/>
      <path id="Path-7" data-name="Path" d="M.7,2.952a.486.486,0,0,0,.48-.492V.492A.486.486,0,0,0,.7,0a.486.486,0,0,0-.48.492V2.46A.486.486,0,0,0,.7,2.952Z" transform="translate(14.175 16.729)" fill="#292929"/>
      <path id="Path-8" data-name="Path" d="M.7,1.968a.486.486,0,0,0,.48-.492V.492A.486.486,0,0,0,.7,0a.486.486,0,0,0-.48.492v.984A.486.486,0,0,0,.7,1.968Z" transform="translate(4.095 2.952)" fill="#292929"/>
      <path id="Path-9" data-name="Path" d="M.7,1.968a.486.486,0,0,0,.48-.492V.492A.486.486,0,0,0,.7,0a.486.486,0,0,0-.48.492v.984A.486.486,0,0,0,.7,1.968Z" transform="translate(6.495 2.952)" fill="#292929"/>
      <path id="Path-10" data-name="Path" d="M.7,1.968a.486.486,0,0,0,.48-.492V.492A.486.486,0,0,0,.7,0a.486.486,0,0,0-.48.492v.984A.486.486,0,0,0,.7,1.968Z" transform="translate(8.895 2.952)" fill="#292929"/>
      <path id="Path-11" data-name="Path" d="M.7,1.968a.486.486,0,0,0,.48-.492V.492A.486.486,0,0,0,.7,0a.486.486,0,0,0-.48.492v.984A.486.486,0,0,0,.7,1.968Z" transform="translate(11.295 2.952)" fill="#292929"/>
      <path id="Path-12" data-name="Path" d="M.7,1.968a.486.486,0,0,0,.48-.492V.492A.486.486,0,0,0,.7,0a.486.486,0,0,0-.48.492v.984A.486.486,0,0,0,.7,1.968Z" transform="translate(17.055 2.952)" fill="#292929"/>
      <path id="Path-13" data-name="Path" d="M.7,1.968a.486.486,0,0,0,.48-.492V.492A.486.486,0,0,0,.7,0a.486.486,0,0,0-.48.492v.984A.486.486,0,0,0,.7,1.968Z" transform="translate(19.455 2.952)" fill="#292929"/>
      <path id="Path-14" data-name="Path" d="M.7,1.968a.486.486,0,0,0,.48-.492V.492A.486.486,0,0,0,.7,0a.486.486,0,0,0-.48.492v.984A.486.486,0,0,0,.7,1.968Z" transform="translate(21.855 2.952)" fill="#292929"/>
      <path id="Path-15" data-name="Path" d="M.7,1.968a.486.486,0,0,0,.48-.492V.492A.486.486,0,0,0,.7,0a.486.486,0,0,0-.48.492v.984A.486.486,0,0,0,.7,1.968Z" transform="translate(24.255 2.952)" fill="#292929"/>
    </g>
    <path id="Path_1" data-name="Path 1" d="M14.378,21.125v1.266h1.047V21.125Z" fill="#292929"/>
  </g>
</svg>
