<svg xmlns="http://www.w3.org/2000/svg" width="34.326" height="23.441" viewBox="0 0 34.326 23.441">
  <g id="update" transform="translate(-0.001 0)">
    <g id="Group">
      <path id="Path" d="M0,0,24.953,2.792,20.586,8.4l.964,5.272-5.213-.558-2.894,2.947Z" transform="translate(0.457 0.486)" fill="#ff8191"/>
      <path id="Shape" d="M13.9,17.029h-.018a.449.449,0,0,1-.322-.162L.116.811A.516.516,0,0,1,.05.265.456.456,0,0,1,.452,0,.4.4,0,0,1,.5,0L25.457,2.8a.462.462,0,0,1,.375.3.512.512,0,0,1-.071.494L21.532,9.014l.924,5.047a.506.506,0,0,1-.111.42.436.436,0,0,1-.329.161.389.389,0,0,1-.055,0l-5-.536-2.741,2.792A.443.443,0,0,1,13.9,17.029ZM1.584,1.1,13.927,15.842l2.552-2.6a.441.441,0,0,1,.311-.135.39.39,0,0,1,.051,0l4.6.492-.848-4.63a.511.511,0,0,1,.1-.4l3.822-4.9L1.584,1.1Z" transform="translate(0)" fill="#472b29"/>
    </g>
    <g id="Group-2" data-name="Group" transform="translate(0.225 0.423)">
      <path id="Path-2" data-name="Path" d="M21.058,13.212,18.182,10.4,0,0,20.173,7.957Z" transform="translate(0.326 0.348)" fill="#cd5e6b"/>
      <path id="Shape-2" data-name="Shape" d="M21.384,13.907a.314.314,0,0,1-.22-.092l-2.845-2.788L.172.653A.359.359,0,0,1,.029.2a.325.325,0,0,1,.3-.2A.308.308,0,0,1,.439.022L20.614,7.979a.343.343,0,0,1,.207.265L21.7,13.5a.352.352,0,0,1-.164.365A.3.3,0,0,1,21.384,13.907ZM4.639,2.419h0l14.023,8.017a.371.371,0,0,1,.067.049l2.163,2.12-.68-4.045Z" fill="#472b29"/>
    </g>
    <path id="Path-3" data-name="Path" d="M21.384,13.908a.317.317,0,0,1-.221-.092l-2.845-2.789L.172.654A.358.358,0,0,1,.028.206.318.318,0,0,1,.438.021L20.858,7.91a.353.353,0,0,1,.2.445.319.319,0,0,1-.418.208L4.445,2.308l14.218,8.128a.366.366,0,0,1,.067.05L21.605,13.3a.364.364,0,0,1,.019.491A.315.315,0,0,1,21.384,13.908Z" transform="translate(0.225 0.422)" fill="#472b29"/>
    <path id="Path-4" data-name="Path" d="M.326,3.2a.314.314,0,0,1-.219-.09.363.363,0,0,1-.022-.49l2.13-2.5A.314.314,0,0,1,2.676.09.363.363,0,0,1,2.7.58l-2.13,2.5A.318.318,0,0,1,.326,3.2Z" transform="translate(16.277 10.818)" fill="#472b29"/>
    <path id="Path-5" data-name="Path" d="M0,.218Q.237,1.633.47,3.05c.037.219.35.126.314-.092Q.551,1.542.317.125C.281-.094-.034,0,0,.218Z" transform="translate(15.576 6.646)" fill="#472b29"/>
    <path id="Path-6" data-name="Path" d="M0,.218q.182,1.31.363,2.62c.031.22.345.126.314-.092Q.5,1.435.317.126C.286-.095-.029,0,0,.218Z" transform="translate(13.953 5.94)" fill="#472b29"/>
    <path id="Path-7" data-name="Path" d="M0,.217.436,2.576c.04.219.355.126.314-.092L.318.125C.278-.094-.036,0,0,.217Z" transform="translate(12.172 5.224)" fill="#472b29"/>
    <path id="Path-8" data-name="Path" d="M0,.217c.129.646.239,1.3.369,1.942.044.219.358.126.314-.092C.558,1.42.448.77.319.124.275-.094-.04,0,0,.217Z" transform="translate(10.289 4.493)" fill="#472b29"/>
    <path id="Path-9" data-name="Path" d="M0,.217l.3,1.524c.044.219.358.126.314-.092L.319.125C.275-.094-.039,0,0,.217Z" transform="translate(8.545 3.816)" fill="#472b29"/>
    <path id="Path-10" data-name="Path" d="M0,.218Q.087.775.17,1.333c.033.22.348.126.314-.092Q.4.683.317.126C.284-.095-.03,0,0,.218Z" transform="translate(6.532 3.05)" fill="#472b29"/>
    <path id="Shape-3" data-name="Shape" d="M3.6,9.954a.312.312,0,0,1-.2-.07A6.518,6.518,0,0,1,1.139,6.021a5.891,5.891,0,0,1-.064-1.734,6.577,6.577,0,0,1-.819-.138.349.349,0,0,1-.249-.414.328.328,0,0,1,.319-.272A.32.32,0,0,1,.4,3.47a6.04,6.04,0,0,0,.794.13,6.12,6.12,0,0,1,.427-1.249C2.068,1.393,3.457,0,4.606,0c.033,0,.067,0,.1,0A1.375,1.375,0,0,1,5.927,1.109,1.758,1.758,0,0,1,5.7,2.745C4.869,3.9,2.74,4.275,1.729,4.31a5.2,5.2,0,0,0,.05,1.577A5.819,5.819,0,0,0,3.793,9.33a.364.364,0,0,1,.065.486A.315.315,0,0,1,3.6,9.954ZM4.608.695C3.764.695,2.566,1.888,2.2,2.662a5.479,5.479,0,0,0-.34.947c1.205-.071,2.759-.5,3.319-1.285a1.037,1.037,0,0,0,.132-.986C5.133.79,4.857.709,4.666.7H4.608Z" transform="translate(28.295 13.487)" fill="#472b29"/>
    <path id="Path-11" data-name="Path" d="M1.315.992A.285.285,0,0,1,1.232.98c-.17-.047-.837-.246-1-.3A.352.352,0,0,1,.016.241.325.325,0,0,1,.426.016c.162.056.808.247.972.293A.348.348,0,0,1,1.63.732.33.33,0,0,1,1.315.992Z" transform="translate(26.239 16.338)" fill="#472b29"/>
    <path id="Path-12" data-name="Path" d="M1.413,1.337A.314.314,0,0,1,1.27,1.3,11.809,11.809,0,0,1,.154.641.359.359,0,0,1,.05.164.314.314,0,0,1,.5.053,11.128,11.128,0,0,0,1.555.677a.358.358,0,0,1,.151.465A.324.324,0,0,1,1.413,1.337Z" transform="translate(24.217 15.24)" fill="#472b29"/>
    <path id="Path-13" data-name="Path" d="M0,.218Q.262,1.708.519,3.2c.038.219.352.126.314-.092Q.575,1.616.318.125C.28-.094-.035,0,0,.218Z" transform="translate(17.274 7.25)" fill="#472b29"/>
    <path id="Path-14" data-name="Path" d="M0,.218.661,4.2c.037.219.35.126.314-.092L.317.125C.281-.094-.033,0,0,.218Z" transform="translate(19.073 7.883)" fill="#472b29"/>
    <path id="Path-15" data-name="Path" d="M.591.933A.315.315,0,0,1,.38.851L.116.612A.363.363,0,0,1,.077.122.315.315,0,0,1,.537.081L.8.32A.363.363,0,0,1,.84.81.319.319,0,0,1,.591.933Z" transform="translate(23.067 14.339)" fill="#472b29"/>
  </g>
</svg>
